<?xml version="1.0" encoding="utf-8"?>
<!-- Generator: Adobe Illustrator 25.2.1, SVG Export Plug-In . SVG Version: 6.00 Build 0)  -->
<svg version="1.1"
	 id="svg12" xmlns:cc="http://creativecommons.org/ns#" xmlns:dc="http://purl.org/dc/elements/1.1/" xmlns:inkscape="http://www.inkscape.org/namespaces/inkscape" xmlns:rdf="http://www.w3.org/1999/02/22-rdf-syntax-ns#" xmlns:sodipodi="http://sodipodi.sourceforge.net/DTD/sodipodi-0.dtd" xmlns:svg="http://www.w3.org/2000/svg"
	 xmlns="http://www.w3.org/2000/svg" xmlns:xlink="http://www.w3.org/1999/xlink" x="0px" y="0px" viewBox="0 0 102.4 96.1"
	 style="enable-background:new 0 0 102.4 96.1;" xml:space="preserve">
<style type="text/css">
	.st0{stroke:#000000;stroke-miterlimit:10;}
</style>
<sodipodi:namedview  bordercolor="#666666" borderopacity="1" gridtolerance="10" guidetolerance="10" id="namedview14" inkscape:current-layer="svg12" inkscape:cx="51.259661" inkscape:cy="0.28350128" inkscape:document-rotation="0" inkscape:pageopacity="0" inkscape:pageshadow="2" inkscape:window-height="1017" inkscape:window-maximized="1" inkscape:window-width="1920" inkscape:window-x="1432" inkscape:window-y="-8" inkscape:zoom="2.0875" objecttolerance="10" pagecolor="#ffffff" showgrid="false">
	</sodipodi:namedview>
<path id="path10" class="st0" d="M78.4,58.1c-3.8,10.1-12.5,17.7-23.3,19.9c-1.8,0.4-3.5,0.7-5.4,0.6c-0.3,0-0.6,0-0.9,0
	c-0.4,0-0.9,0-1.3,0l5.5-5.7l-9.8-11.1H54c4.8,0,5.6,2.9,6.1,4.5H61l-0.5-6.5H35.3l13.1,14.8l-3.6,3.7C33,76.8,23.3,68.9,19.2,58.1
	c4.7-1.2,8.2-5.3,8.6-10.3h9.6c0.4,6,5.4,10.7,11.5,10.7c6.1,0,11-4.7,11.5-10.7h9.6C70.2,52.8,73.7,56.9,78.4,58.1 M78.4,35.8
	c-4.7,1.2-8.2,5.3-8.6,10.3h-9.6c-0.4-5.7-4.9-10.2-10.6-10.6v-9.6c5-0.4,9.1-3.9,10.3-8.6C68.5,20.5,75.2,27.3,78.4,35.8 M48,35.5
	c-5.7,0.4-10.2,4.9-10.6,10.6h-9.6c-0.4-5-3.9-9.1-8.6-10.3c3.2-8.5,10-15.3,18.5-18.5C38.9,22,43,25.6,48,25.9L48,35.5L48,35.5z
	 M92.8,46.9c0-6.3-5.1-11.5-11.5-11.5c-0.4,0-0.8,0-1.2,0.1C76.8,26.3,69.5,19,60.3,15.6c0-0.4,0.1-0.8,0.1-1.2
	C60.3,8.1,55.2,3,48.8,3c-6.3,0-11.5,5.1-11.5,11.5c0,0.4,0,0.8,0.1,1.2C28.2,19,20.9,26.3,17.5,35.5c-0.4,0-0.8-0.1-1.2-0.1
	c-6.3,0-11.5,5.1-11.5,11.5c0,6.3,5.1,11.5,11.5,11.5c0.4,0,0.8,0,1.2-0.1c4.1,11.1,13.9,19.5,25.9,21.5l-8.6,8.9h26.6l1.8-8.8h-1
	c-1.5,4.2-3.3,4.8-6.4,4.8H41.6l4.4-4.5c0.9,0.1,1.8,0.1,2.7,0.1c2.5,0,4.7-0.2,7-0.7C67,77.2,76.2,69.1,80.1,58.4
	c0.4,0,0.8,0.1,1.2,0.1C87.7,58.4,92.8,53.3,92.8,46.9"/>
</svg>
