<?xml version="1.0" encoding="utf-8"?>
<!-- Generator: Adobe Illustrator 25.2.1, SVG Export Plug-In . SVG Version: 6.00 Build 0)  -->
<svg version="1.1" id="Warstwa_1" xmlns="http://www.w3.org/2000/svg" xmlns:xlink="http://www.w3.org/1999/xlink" x="0px" y="0px"
	 viewBox="0 0 257.8 445.1" style="enable-background:new 0 0 257.8 445.1;" xml:space="preserve">
<style type="text/css">
	.st0{fill-rule:evenodd;clip-rule:evenodd;stroke:#000000;stroke-miterlimit:10;}
</style>
<path class="st0" d="M137.8,240.4L137.8,240.4c72.4-24.2,73-125.5,73.5-157.9h-73.6v10.2c1.8-0.9,3.1-1.8,5-2.3
	c1.2-0.4,2.6-0.7,3.9-0.6c1.9,0.2,2.7,1.5,2.4,2.9c1.7-0.9,4.9-1.4,6.5,0c1.5,1.4,1.8,3.5,1.3,5.4c-1.8-1.8-3.9-2.3-6.3-1.2
	c-1.8,0.8-3.2,2.4-4,4.2c0.7,0.8,3.1,0.2,4-0.3c0.9-0.5,1.8-1.2,2.8-2.4c-0.1,1.7-0.4,3.2-0.9,4.1c-1.1,1.6-2.3,1.8-4.2,2.6
	c-1.5,0.6-3,1.3-4.5,2.8c-1.3,1.8-1.7,4.7-1.2,7.3c0.5,2.8,1.5,5.7,2.3,8.7c0.8,2.9,1.6,5.7,1.4,8.4c4.4,0.7,11.6-4.2,14.1-6.3
	c2.8-2.2,5.6-4.9,7-7.4c1.1-2,1.5-6.3-0.6-9.6c-4-6.3-1.8-16.3,6.7-18.8c5.2-1.5,12.4-0.1,15.6,5.7c3.1,5.6,3.9,12,3.8,18.7
	c-0.2,10.3-0.6,16.6,1.4,24.2c0.9,3.7,2.7,7.2,5.4,10.3c-2.2,2.6-5.8,0.8-8.6-1.6c-4.2-3.5-7.7-11.5-10-24.3l-0.5,1.6
	c-0.1,7.8,0.9,13.7,2.6,20.5c1.7,6.9,4.2,11.1,10.2,15.6c-3.3,3-6.6,1.7-9.5-0.6c-5.7-4.3-8.2-9.3-10.6-19.4l-0.5,0.6
	c-0.5,5.9,0.1,11.7,2,17.1c1.8,5.1,5.4,9.9,9.8,13.7c-3,2.8-6.4,0.9-9.1-1.1c-4-2.9-9.8-8.3-11.6-19.1l-0.5,0.5
	c-0.2,6.2,0.4,11.7,1.8,16.5c1.4,4.9,5.4,10.7,9.6,13.5c-3.4,3-6.6,1.1-9.1-0.8c-6.7-5.2-11-12.5-12.5-22.2l-0.6,0.3
	c-0.7,10.5-0.6,22.1,8.8,28.8l-3.8,2.4l2.2,3.7c0.9,1.7,9.7-2.9,13.3,0c1.4,1.1,2.4,3,1.3,5.4l-0.2-0.1c-0.1-1.7-0.9-2.5-2-3
	c-1.6-0.6-4-0.5-5.8,1.6c-3.5,2.4-6,0.6-7.8,3c-1.1,1.4-1,2.7-0.6,4.1l-0.2,0.1c-4.8-2.5-0.3-7.2-1.2-8.8l-2.4-4.2l-3.8,2.3
	c-0.4-2.8-4.6-17.5-7.2-18.5c-0.6,0.9-0.6,3.5-0.7,5.4c-0.1,2.5,1,4.2,0.7,7.8c-0.1,1.5-0.8,3.6-2,5.6c1.2,0.7,1.8,2,1.7,3.4
	c0,1.6-0.7,3.4-1.2,4.9c-0.6,1.9-1.2,3.4-0.5,3.4c2.1-1.1,4-1.3,5.7-0.8c2.4,0.7,4,3,6.2,4.2c2.5,1.3,4.7,1.1,7.6,2.1
	c-4,1.5-4.5,5.5-9.9,4.7c-3.2-0.5-8-6.6-9-6.1c-0.6,1.8-0.2,3.9,0.1,6.7c0.2,1.4,0.4,3,0.4,4.9s-0.1,4-0.6,6.3
	C140.7,232,139.6,236,137.8,240.4L137.8,240.4z M102.5,406.4c0-0.4,0-0.6,0.1-0.9c-3,0.1-6,0.1-8.8,0.1c-2.8,0-5.4,0-7.9-0.1
	c0,0.5,0.1,0.7,0.1,1c0,0.2,0,0.6-0.1,0.9c1.5-0.3,3.4-0.4,6.1-0.4h0.9v5.5c0,4.2-0.1,9.4-0.2,15.5c0.4,0,0.9-0.1,1.6-0.1
	c0.6,0,1.2,0,1.5,0.1c-0.1-5.1-0.2-9.6-0.2-13.7c0-3.1,0.1-5.5,0.2-7.4h0.9c2.4,0,4.3,0.1,5.8,0.4
	C102.5,407.1,102.5,406.8,102.5,406.4L102.5,406.4z M128.3,388.9c0-0.1,0-0.4,0-0.6c0-0.2,0-0.6,0.1-1.2c-1.6,1.6-3.2,2.4-5,2.4
	s-3.1-0.6-4.2-1.8c-1-1.2-1.6-3-1.6-5.1c0-2.2,0.5-4,1.5-5.2c0.9-1.2,2.3-1.8,4.1-1.8c2,0,3.6,1,4.5,3.1c0.3-1.1,0.6-2,0.9-2.9
	c-1.7-0.9-3.5-1.3-5.4-1.3c-2.5,0-4.4,0.7-5.9,2.2c-1.5,1.5-2.2,3.4-2.2,5.9c0,2.4,0.7,4.4,2.1,5.9c1.4,1.5,3.2,2.2,5.6,2.2
	C125,390.5,127,390,128.3,388.9L128.3,388.9z M88,376.1v-1.4c-0.8,0-1.5,0.1-1.9,0.1c-0.2,0-0.4,0-0.7,0h-0.7
	c-0.2-1.8-0.3-3.2-0.3-4.2c0-2,0.9-3,2.8-3c0.7,0,1.3,0.1,1.8,0.4l0.4-2.6c-0.2,0-0.4,0-0.6,0c-1.9,0-3.4,0.8-4.5,2.5
	c-1.2,1.7-1.8,4.1-1.8,7h-0.5c-0.2,0-0.4,0-0.5,0c-0.3,0-0.7,0-1.4-0.1v1.3c0.9,0,1.7-0.1,2.2-0.1v4.2c0,5.4-0.1,8.7-0.3,10.1
	c0.6-0.1,1-0.2,1.5-0.2s0.9,0.1,1.5,0.2c-0.2-2.2-0.3-6.9-0.3-14.2C86.8,376,87.9,376.1,88,376.1L88,376.1z M112.2,418.9h-8.7
	c0.1-1.8,0.6-3.1,1.4-4.2c0.8-1,1.9-1.6,3.1-1.6c1.3,0,2.3,0.5,3,1.4c0.7,0.9,1.1,2.2,1.1,3.9V418.9L112.2,418.9z M108.2,412.2
	c2.1,0,3.8,0.6,4.9,1.8c1.2,1.2,1.8,3,1.8,5.4v0.4c0,0.2,0,0.3,0,0.4h-11.5v0.1c0,4.6,1.8,6.8,5.5,6.8c1.9,0,3.6-0.7,5.1-2.2
	c0,0.6-0.1,1-0.1,1.3v0.4c-1.8,1.3-3.6,1.8-5.6,1.8c-2.3,0-4.2-0.7-5.6-2.2c-1.5-1.5-2.1-3.4-2.1-5.8c0-2.5,0.6-4.4,2.1-5.9
	C104,412.9,105.9,412.2,108.2,412.2L108.2,412.2z M34.3,424.2c0,0.6-0.2,1-0.6,1.4c-1,1-2,1.5-3.3,1.5c-1.9,0-3-1-3-3.1
	c0-1.2,0.6-2.1,1.7-2.7c0.8-0.5,2.6-0.9,5.2-1.3V424.2L34.3,424.2z M38.1,426.9c-0.6,0-1.1-0.2-1.3-0.6c-0.1-0.3-0.2-0.7-0.2-1.5
	l0.1-6.6v-0.4c0-1.9-0.4-3.3-1.2-4.2c-0.8-0.9-2.1-1.4-4-1.4c-2,0-3.9,0.6-5.4,1.8v1.7h0.3c1-1.6,2.5-2.3,4.2-2.3
	c1.3,0,2.2,0.4,2.9,1c0.6,0.7,0.8,1.8,0.8,3.2v0.7c-0.4,0.3-1,0.6-2.1,0.8c-1.2,0.3-2.5,0.5-3.7,0.7c-2.6,0.6-3.9,1.9-3.9,4.3
	c0,2.7,1.6,4.1,4.5,4.1c1.8,0,3.5-0.7,4.9-2.2c0.2,1.3,0.8,1.9,1.8,1.9c0.6,0,1.5-0.2,2.7-0.6l-0.1-0.6
	C38.6,426.8,38.4,426.9,38.1,426.9L38.1,426.9z M125.5,413.2c2,0,3.6,1,4.5,3.1c0.3-1.1,0.6-2,0.9-2.9c-1.7-0.9-3.5-1.3-5.4-1.3
	c-2.5,0-4.4,0.7-5.9,2.2c-1.5,1.5-2.2,3.4-2.2,5.9c0,2.4,0.7,4.4,2.1,5.9c1.4,1.5,3.2,2.2,5.5,2.2c2.4,0,4.2-0.6,5.6-1.7
	c0-0.1,0-0.4,0-0.6c0-0.2,0-0.6,0.1-1.2c-1.6,1.6-3.2,2.4-5,2.4s-3.1-0.6-4.2-1.8c-1-1.2-1.6-3-1.6-5.1c0-2.2,0.5-4,1.5-5.2
	C122.3,413.8,123.7,413.2,125.5,413.2L125.5,413.2z M64.9,342.8c0,3.4,0.7,6,2.2,7.6s3.9,2.4,7.2,2.4c3.9,0,6.6-1.3,8-4
	c0.6-1,1-2.7,1.2-4.7c0.1-1.4,0.2-3.9,0.2-7.5v-0.8c0-1.2,0.1-3.1,0.2-6c-0.4,0.1-0.7,0.1-1.1,0.1c-0.4,0-0.7,0-1-0.1
	c0.1,3.1,0.1,6.7,0.1,10.3c0,2.4-0.1,4.2-0.2,5.2c-0.2,1.6-0.6,2.8-1.4,3.6c-1.2,1.6-3,2.3-5.4,2.3s-4.2-0.7-5.4-2.2
	c-0.7-0.9-1.2-2-1.4-3.4c-0.2-0.8-0.3-2.1-0.3-3.8l0.1-12c-0.5,0.1-0.9,0.2-1.6,0.2c-0.6,0-1,0-1.5-0.1c0.1,2.4,0.1,4.4,0.1,6.3
	c0,1.4,0,2.8-0.1,4.3C65,341.9,64.9,342.7,64.9,342.8L64.9,342.8z M70.4,389.5c-3.3,0-5-2.4-5-7.1c0-4.7,1.7-7.1,5-7.1
	c3.3,0,5,2.4,5,7.3C75.4,387.2,73.8,389.5,70.4,389.5L70.4,389.5z M70.4,374.3c-2.2,0-4.2,0.7-5.6,2.3c-1.5,1.5-2.2,3.4-2.2,5.8
	c0,2.4,0.7,4.3,2.2,5.8c1.5,1.5,3.3,2.2,5.6,2.2c2.3,0,4.2-0.7,5.6-2.2c1.5-1.5,2.2-3.4,2.2-5.9c0-2.4-0.7-4.3-2.2-5.8
	C74.6,375,72.7,374.3,70.4,374.3L70.4,374.3z M69.8,425.3c-0.8,1.2-2.1,1.8-3.7,1.8c-1.4,0-2.6-0.6-3.3-1.8
	c-0.8-1.2-1.2-2.8-1.2-4.9c0-2.2,0.5-4,1.3-5.2c0.8-1.2,2.1-1.8,3.6-1.8c1.5,0,2.6,0.6,3.4,1.7c0.8,1.1,1.2,2.7,1.2,4.7
	C71.1,422.1,70.6,424,69.8,425.3L69.8,425.3z M73.8,403.3c-0.6,0.2-1,0.2-1.4,0.2s-0.8-0.1-1.4-0.2c0.1,1.9,0.1,3.9,0.1,6v2.3
	c0,1.3,0,2.5,0,3.6c-1.2-2-3-3-5.3-3c-2,0-3.7,0.7-5.1,2.3c-1.3,1.6-1.9,3.5-1.9,6.1c0,2.4,0.6,4.2,1.8,5.7c1.2,1.4,2.9,2.1,4.8,2.1
	c2.6,0,4.4-1.2,5.6-3.5c0,0.3,0,0.7,0,1.3c0,0.5,0,1.1-0.1,1.9c0.5-0.1,1-0.2,1.4-0.2c0.5,0,0.9,0.1,1.4,0.2
	c-0.1-4.3-0.1-9.1-0.1-14.2C73.7,409.4,73.7,405.9,73.8,403.3L73.8,403.3z M55.1,420.5c0-1.1,0-1.8,0-2.4c0-4-1.8-5.9-5.3-5.9
	c-2.2,0-4,1.1-5.2,3.2v-0.6c0-0.3,0-0.5,0-0.6c0-0.4,0-0.9,0.1-1.7c-0.4,0.1-0.7,0.1-1.3,0.1c-0.5,0-0.9,0-1.4-0.1
	c0.1,1.6,0.1,4.1,0.1,7.5v2.3c0,2.6,0,4.5-0.1,5.7c0.5-0.1,0.9-0.2,1.4-0.2s0.9,0.1,1.4,0.2c-0.1-1.1-0.1-3.1-0.1-6.2v-1.6
	c0-2.5,0.4-4.2,1.1-5.2s1.8-1.4,3-1.4c2.5,0,3.8,1.7,3.8,4.9c0,4-0.1,7-0.2,9.3c0.5-0.1,0.9-0.2,1.4-0.2c0.4,0,0.8,0.1,1.4,0.2
	c-0.1-1.8-0.1-3.6-0.1-5.3C55,422.3,55.1,421.6,55.1,420.5L55.1,420.5z M181.5,375.3c2,0,3.6,1,4.5,3.1c0.3-1.1,0.6-2,0.9-2.9
	c-1.7-0.9-3.5-1.3-5.4-1.3c-2.5,0-4.4,0.7-5.9,2.2c-1.5,1.5-2.2,3.4-2.2,5.9c0,2.4,0.7,4.4,2.1,5.9s3.2,2.2,5.6,2.2
	c2.4,0,4.2-0.6,5.6-1.7c0-0.1,0-0.4,0-0.6c0-0.2,0-0.6,0.1-1.2c-1.6,1.6-3.2,2.4-5,2.4c-1.8,0-3.1-0.6-4.2-1.8c-1-1.2-1.6-3-1.6-5.1
	c0-2.2,0.5-4,1.5-5.2C178.4,376,179.8,375.3,181.5,375.3L181.5,375.3z M189.5,403.3c-0.3,0-0.7,0-1.3-0.1c0.1,1.2,0.1,3.4,0.1,6.5
	v8.7c0,5-0.1,8.2-0.1,9.7c0.5-0.1,0.9-0.1,1.3-0.1c0.5,0,0.9,0,1.4,0.1c-0.1-2.4-0.2-7.3-0.2-14.6c0-4.8,0.1-8.1,0.2-10.2
	C190.2,403.3,189.8,403.3,189.5,403.3L189.5,403.3z M202.4,427.4c-3.3,0-5-2.4-5-7.1c0-4.7,1.7-7.1,5-7.1c3.3,0,5,2.4,5,7.3
	C207.4,425.1,205.7,427.4,202.4,427.4L202.4,427.4z M202.4,412.2c-2.2,0-4.2,0.7-5.6,2.3c-1.5,1.5-2.2,3.4-2.2,5.8
	c0,2.4,0.7,4.3,2.2,5.8c1.5,1.5,3.3,2.2,5.6,2.2c2.3,0,4.2-0.7,5.6-2.2c1.5-1.5,2.2-3.4,2.2-5.9c0-2.4-0.7-4.3-2.2-5.8
	C206.6,412.9,204.7,412.2,202.4,412.2L202.4,412.2z M99,291.9c-1.7,6.5-3.6,12.8-5.7,19.1c-2.3-6.4-4.4-12.7-6.4-19.1
	c-0.4,0.1-0.7,0.1-1.1,0.1c-0.4,0-0.7,0-1-0.1c-1.8,6.7-4,13.2-6.2,19.5c-2-6.3-3.9-12.7-5.7-19.5c-0.5,0.1-1,0.1-1.6,0.1
	s-1.1,0-1.6-0.1c3,9.4,5.4,17,7.1,22.6c0.5-0.1,0.8-0.2,1.2-0.2s0.7,0.1,1.2,0.2l6.2-18.5c2.4,6.7,4.4,12.9,6.1,18.6
	c0.4-0.1,0.7-0.2,1.2-0.2s0.8,0,1.2,0.1c3.6-10.9,6.1-18.5,7.6-22.6c-0.4,0.1-0.7,0.1-1.1,0.1C99.6,292,99.3,292,99,291.9L99,291.9z
	 M239.6,412.4c-0.8,2.6-2,5.8-3.7,9.7l-1.2,2.8l-1.2-2.9c-1.8-4.4-3-7.6-3.5-9.6c-0.5,0.1-1,0.1-1.6,0.1c-0.6,0-1.2,0-1.7-0.1
	c2.8,6.2,4.5,10.2,5.2,11.9l1.4,3.6l-0.7,1.8c-1.3,3-2.5,5.5-3.6,7.4c0.4-0.1,0.7-0.1,1.2-0.1c0.4,0,0.7,0,1.1,0.1
	c0.4-1.6,1.4-4.2,3-7.9l4.4-10c1.5-3.2,2.5-5.5,3.1-6.8c-0.4,0.1-0.7,0.1-1.1,0.1C240.4,412.6,240,412.5,239.6,412.4L239.6,412.4z
	 M133.2,370.5c0.5,0,0.8-0.2,1.2-0.5c0.4-0.4,0.5-0.7,0.5-1.2c0-0.5-0.2-0.8-0.5-1.2c-0.4-0.4-0.7-0.5-1.2-0.5s-0.8,0.2-1.2,0.5
	s-0.5,0.7-0.5,1.2c0,0.5,0.2,0.8,0.5,1.2C132.4,370.3,132.8,370.5,133.2,370.5L133.2,370.5z M222.8,434.9c-1,0.8-2.4,1.3-4.1,1.3
	c-1.4,0-2.5-0.4-3.3-1.2c-0.8-0.7-1.3-1.8-1.3-3c0-1.9,1-3.2,3-3.9c0.5,0,0.8-0.1,1-0.1c2.3,0,4,0.2,4.8,0.6c1,0.5,1.5,1.5,1.5,2.9
	C224.5,432.9,223.9,434,222.8,434.9L222.8,434.9z M215.4,417.4c0-1.3,0.4-2.3,1-3.1s1.6-1.2,2.7-1.2c2.3,0,3.4,1.5,3.4,4.3
	c0,3-1.1,4.3-3.4,4.3c-1.1,0-2-0.4-2.7-1.1C215.7,419.8,215.4,418.8,215.4,417.4L215.4,417.4z M225,426.8c-1-0.6-2.7-0.9-5-0.9h-1.3
	c-0.5,0-0.6,0-0.6,0c-1.8,0-2.6-0.6-2.6-1.8c0-1,0.6-1.6,1.6-1.6c0.1,0,0.4,0,0.7,0.1c0.4,0,0.7,0.1,1,0.1c1.8,0,3.3-0.5,4.3-1.4
	c1.1-0.9,1.6-2.2,1.6-3.9c0-1.4-0.5-2.6-1.3-3.8h0.6c0.6,0,1.3,0,2,0.1v-1.5c-1.6,0.2-2.7,0.3-3.2,0.3c-0.3,0-0.8-0.1-1.7-0.2
	c-0.8-0.1-1.6-0.2-2.1-0.2c-2,0-3.6,0.5-4.8,1.5c-1.2,1-1.8,2.4-1.8,4.1c0,2.2,1.1,3.7,3.3,4.4c-1.8,0.9-2.6,1.9-2.6,3
	c0,1.5,0.8,2.4,2.5,2.8c-2.5,0.8-3.7,2.3-3.7,4.4c0,1.5,0.6,2.6,1.6,3.4c1.1,0.8,2.5,1.3,4.3,1.3c2.5,0,4.6-0.6,6.1-1.9
	c1.6-1.3,2.3-3,2.3-4.9C226.7,428.6,226.1,427.4,225,426.8L225,426.8z M147,420.2c0-1.1,0.1-1.9,0.1-2.3c0-3.9-1.8-5.7-5.3-5.7
	c-2.1,0-3.8,1-5.2,3c-0.1-2.1-0.1-3.6-0.1-4.5c0-2.4,0.1-4.9,0.1-7.4c-0.6,0.1-1,0.1-1.3,0.1s-0.7,0-1.4-0.1
	c0.1,4.3,0.2,8.5,0.2,12.4c0,3.3-0.1,7.4-0.2,12.4c0.5-0.1,0.9-0.2,1.3-0.2s0.8,0.1,1.4,0.2c-0.1-1.8-0.1-3-0.1-3.9v-2.3
	c0-3,0.2-5,0.6-5.8c0.7-1.5,1.9-2.2,3.6-2.2c1.4,0,2.3,0.5,3,1.3c0.6,0.8,0.8,2.2,0.8,4.2c0,1.8-0.1,4.8-0.2,8.8
	c0.5-0.1,0.9-0.2,1.4-0.2s0.8,0.1,1.4,0.2c-0.1-3-0.1-4.6-0.1-5.1C146.9,422.3,146.9,421.4,147,420.2L147,420.2z M142.8,376.8
	c0.8-1,1.9-1.6,3.1-1.6c1.3,0,2.3,0.5,3,1.4c0.7,0.9,1.1,2.2,1.1,3.9v0.6h-8.7C141.5,379.3,142,377.9,142.8,376.8L142.8,376.8z
	 M146.9,389.2c-3.7,0-5.5-2.3-5.5-6.8v-0.1h11.4c0-0.1,0-0.2,0-0.4v-0.4c0-2.3-0.6-4.1-1.8-5.4c-1.2-1.3-2.8-1.8-4.9-1.8
	c-2.3,0-4.2,0.7-5.5,2.2s-2.1,3.5-2.1,5.9s0.7,4.3,2.1,5.8c1.5,1.5,3.3,2.2,5.6,2.2c2,0,3.9-0.6,5.6-1.8v-0.4c0-0.3,0-0.6,0.1-1.3
	C150.5,388.4,148.8,389.2,146.9,389.2L146.9,389.2z M169.6,385c0-0.5,0-1.3,0-2.4c0-1.1,0-1.8,0-2.4c0-4-1.8-5.9-5.3-5.9
	c-2.2,0-4,1.1-5.2,3.2V377c0-0.3,0-0.5,0-0.6c0-0.4,0-0.9,0.1-1.7c-0.4,0.1-0.7,0.1-1.3,0.1c-0.5,0-0.9,0-1.4-0.1
	c0.1,1.6,0.1,4.1,0.1,7.5v2.3c0,2.6,0,4.5-0.1,5.7c0.6-0.1,0.9-0.2,1.4-0.2s0.9,0.1,1.4,0.2c-0.1-1.1-0.1-3.2-0.1-6.2v-1.6
	c0-2.5,0.4-4.2,1.1-5.2c0.7-0.9,1.8-1.4,3-1.4c2.5,0,3.8,1.7,3.8,4.9c0,3.9-0.1,7-0.2,9.3c0.6-0.1,0.9-0.2,1.4-0.2
	c0.4,0,0.8,0.1,1.4,0.2C169.6,388.3,169.6,386.6,169.6,385L169.6,385z M165,420.5c0-1.1,0-1.8,0-2.4c0-4-1.8-5.9-5.3-5.9
	c-2.2,0-4,1.1-5.2,3.2v-0.6c0-0.3,0-0.5,0-0.6c0-0.4,0-0.9,0.1-1.7c-0.4,0.1-0.7,0.1-1.3,0.1c-0.5,0-0.9,0-1.4-0.1
	c0.1,1.6,0.1,4.1,0.1,7.5v2.3c0,2.6-0.1,4.5-0.1,5.7c0.6-0.1,0.9-0.2,1.4-0.2s0.9,0.1,1.4,0.2c-0.1-1.1-0.1-3.1-0.1-6.2v-1.6
	c0-2.5,0.4-4.2,1.1-5.2s1.8-1.4,3-1.4c2.5,0,3.8,1.7,3.8,4.9c0,4-0.1,7-0.2,9.3c0.6-0.1,0.9-0.2,1.4-0.2c0.4,0,0.8,0.1,1.4,0.2
	c-0.1-1.8-0.1-3.6-0.1-5.3C165,422.3,165,421.6,165,420.5L165,420.5z M176.6,427.4c-3.3,0-5-2.4-5-7.1c0-4.7,1.7-7.1,5-7.1
	c3.3,0,5,2.4,5,7.3C181.6,425.1,180,427.4,176.6,427.4L176.6,427.4z M176.6,412.2c-2.2,0-4.2,0.7-5.6,2.3c-1.5,1.5-2.2,3.4-2.2,5.8
	c0,2.4,0.7,4.3,2.2,5.8c1.5,1.5,3.3,2.2,5.6,2.2s4.2-0.7,5.6-2.2c1.5-1.5,2.2-3.4,2.2-5.9c0-2.4-0.7-4.3-2.2-5.8
	C180.8,412.9,179,412.2,176.6,412.2L176.6,412.2z M134.4,382c0-2.2,0.1-4.7,0.2-7.4c-0.4,0.1-0.8,0.1-1.4,0.1c-0.5,0-0.9,0-1.4-0.1
	c0.1,2.7,0.2,5.2,0.2,7.4c0,2.4-0.1,5.2-0.2,8.2c0.6-0.1,0.9-0.2,1.4-0.2s0.8,0.1,1.4,0.2C134.5,387.2,134.4,384.5,134.4,382
	L134.4,382z M166.2,310.6c0,0.6-0.2,1-0.6,1.4c-1,0.9-2,1.5-3.3,1.5c-1.9,0-3-1-3-3.1c0-1.2,0.6-2.1,1.7-2.7
	c0.8-0.5,2.6-0.9,5.2-1.3V310.6L166.2,310.6z M164.2,305.7c-1.2,0.3-2.5,0.5-3.7,0.7c-2.6,0.6-3.9,1.9-3.9,4.3
	c0,2.7,1.5,4.1,4.5,4.1c1.8,0,3.5-0.7,4.9-2.2c0.2,1.3,0.8,1.9,1.8,1.9c0.6,0,1.5-0.2,2.7-0.6l-0.1-0.6c-0.1,0-0.3,0-0.6,0
	c-0.6,0-1.1-0.2-1.3-0.6c-0.1-0.3-0.2-0.7-0.2-1.5l0.1-6.6v-0.4c0-1.9-0.4-3.3-1.2-4.2c-0.8-0.9-2.1-1.3-4-1.3c-2,0-3.9,0.6-5.4,1.8
	l-0.1,1.8h0.3c1-1.6,2.5-2.3,4.2-2.3c1.3,0,2.3,0.4,2.9,1c0.6,0.7,0.8,1.8,0.8,3.2v0.7C165.9,305.2,165.3,305.5,164.2,305.7
	L164.2,305.7z M140.2,299.7c2,0,3.6,1,4.5,3.1c0.3-1.1,0.6-2,0.9-2.9c-1.7-0.9-3.5-1.3-5.4-1.3c-2.5,0-4.4,0.7-5.9,2.2
	c-1.5,1.5-2.2,3.4-2.2,5.9c0,2.5,0.7,4.4,2.1,5.9s3.2,2.2,5.6,2.2c2.4,0,4.2-0.6,5.6-1.7c0-0.1,0-0.4,0-0.6c0-0.2,0-0.6,0.1-1.2
	c-1.6,1.6-3.2,2.4-5,2.4c-1.8,0-3.1-0.6-4.2-1.8c-1-1.3-1.6-3-1.6-5.1c0-2.2,0.5-4,1.5-5.2C137.1,300.2,138.5,299.7,140.2,299.7
	L140.2,299.7z M173.9,336.9c-0.5,0-0.9-0.1-1.4-0.1c0.1,2.7,0.2,5.2,0.2,7.4c0,2.4-0.1,5.2-0.2,8.2c0.6-0.1,0.9-0.2,1.4-0.2
	s0.8,0.1,1.4,0.2c-0.1-3-0.2-5.7-0.2-8.2c0-2.2,0.1-4.7,0.2-7.4C174.9,336.8,174.4,336.9,173.9,336.9L173.9,336.9z M151.6,340.4
	c0-1.4,0.1-2.6,0.2-3.6c-0.5,0.1-0.9,0.1-1.4,0.1s-1-0.1-1.4-0.1c0.1,1.2,0.2,2.8,0.2,4.8c0,4.6-0.1,8.2-0.2,10.8
	c0.5-0.1,0.8-0.1,1.3-0.1c0.6,0,1,0.1,1.4,0.1c-0.1-1.7-0.2-3.9-0.2-6.7c0-2.3,0.3-4,0.8-5.1c0.6-1.1,1.4-1.7,2.7-1.7
	c0.5,0,1,0.2,1.6,0.5l0.3-0.2c0-1.1,0.1-1.9,0.2-2.5c-0.6-0.1-1-0.2-1.3-0.2C154.1,336.6,152.8,337.8,151.6,340.4L151.6,340.4z
	 M147.4,301.4v1.8c1.2-1,2-1.6,2.3-1.8v4.8c0,3,0,5.8-0.1,8.4c0.5-0.1,0.9-0.1,1.3-0.1c0.5,0,0.9,0,1.4,0.1
	c-0.1-2.3-0.2-7.3-0.2-14.8c1-0.6,1.8-1.2,2.4-1.5v-1.8c-0.7,0.6-1.5,1.3-2.4,1.8V298c0-3.1,0.1-5.9,0.2-8.2
	c-0.6,0.1-1.1,0.1-1.4,0.1s-0.7,0-1.3-0.1c0.1,2.3,0.2,5.4,0.2,9.4v0.8C148.8,300.5,148.1,301,147.4,301.4L147.4,301.4z
	 M163.3,351.4c-1.6,0-3-0.8-4.1-2.5c-0.2,0.8-0.5,1.8-0.8,2.6c1.1,0.8,2.6,1.2,4.2,1.2c1.8,0,3.1-0.5,4.2-1.5c1.1-1,1.7-2.2,1.7-3.7
	c0-1.9-1-3.1-3.1-3.8l-2.2-0.6c-1.7-0.5-2.5-1.4-2.5-2.8c0-0.8,0.3-1.5,0.7-2c0.6-0.6,1.2-0.7,2-0.7c1.3,0,2.6,0.7,3.9,2.2
	c0.1-0.7,0.4-1.4,0.7-2.1c-1.2-0.7-2.6-1.1-4.2-1.1c-1.5,0-2.8,0.5-3.7,1.3c-0.9,0.8-1.4,1.9-1.4,3.2c0,1.2,0.3,2,0.8,2.8
	c0.6,0.6,1.5,1.2,2.8,1.5l1.5,0.5c1.8,0.5,2.6,1.4,2.6,2.7c0,0.9-0.3,1.7-0.8,2.2C165.1,351.1,164.4,351.4,163.3,351.4L163.3,351.4z
	 M202.5,336.9c-0.5,0-0.8-0.1-1.1-0.1c-0.8,2.6-2,5.8-3.7,9.7l-1.2,2.8l-1.2-2.9c-1.8-4.3-3-7.6-3.5-9.6c-0.5,0.1-1,0.1-1.6,0.1
	c-0.6,0-1.2-0.1-1.7-0.1c2.8,6.2,4.5,10.2,5.2,11.9l1.4,3.6l-0.7,1.8c-1.3,3-2.5,5.5-3.6,7.4c0.4-0.1,0.8-0.1,1.2-0.1
	c0.4,0,0.7,0,1.1,0.1c0.4-1.6,1.4-4.2,3-7.9l4.4-10.1c1.5-3.2,2.5-5.5,3.1-6.8C203.2,336.8,202.9,336.9,202.5,336.9L202.5,336.9z
	 M193,376.8c0.8-1,1.9-1.6,3.1-1.6c1.3,0,2.3,0.5,3,1.4c0.7,0.9,1.1,2.2,1.1,3.9v0.6h-8.7C191.6,379.3,192.1,377.9,193,376.8
	L193,376.8z M202.9,382.2c0-0.1,0-0.2,0-0.4v-0.4c0-2.3-0.6-4.1-1.8-5.4c-1.2-1.3-2.8-1.8-4.9-1.8c-2.3,0-4.2,0.7-5.5,2.2
	s-2.1,3.5-2.1,5.9s0.7,4.3,2.1,5.8c1.5,1.5,3.3,2.2,5.6,2.2c2,0,3.9-0.6,5.6-1.8v-0.4c0-0.3,0-0.6,0.1-1.3c-1.5,1.5-3.2,2.2-5.1,2.2
	c-3.7,0-5.5-2.3-5.5-6.8v-0.1H202.9L202.9,382.2z M172.7,332.2c0.4,0.4,0.7,0.5,1.2,0.5s0.8-0.2,1.2-0.5c0.4-0.4,0.5-0.7,0.5-1.2
	c0-0.5-0.2-0.8-0.5-1.2c-0.4-0.3-0.7-0.5-1.2-0.5s-0.8,0.2-1.2,0.5c-0.4,0.3-0.5,0.7-0.5,1.2C172.2,331.4,172.4,331.8,172.7,332.2
	L172.7,332.2z M102.7,342.3c0-4-1.8-5.9-5.3-5.9c-2.2,0-4,1.1-5.2,3.2v-0.6c0-0.3,0-0.5,0-0.6c0-0.4,0-0.9,0.1-1.7
	c-0.4,0.1-0.7,0.1-1.3,0.1c-0.5,0-0.9-0.1-1.4-0.1c0.1,1.6,0.1,4.1,0.1,7.5v2.3c0,2.6,0,4.5-0.1,5.7c0.5-0.1,0.9-0.2,1.4-0.2
	s0.9,0.1,1.4,0.2c-0.1-1.1-0.1-3.1-0.1-6.2v-1.6c0-2.5,0.4-4.2,1.1-5.2s1.8-1.4,3-1.4c2.5,0,3.8,1.7,3.8,4.9c0,4-0.1,7-0.2,9.3
	c0.5-0.1,0.9-0.2,1.4-0.2c0.4,0,0.8,0.1,1.4,0.2c-0.1-1.8-0.1-3.6-0.1-5.3c0-0.5,0-1.3,0-2.4C102.7,343.7,102.7,342.9,102.7,342.3
	L102.7,342.3z M180.7,344.6c-0.1,2-0.1,3.1-0.1,3.5c0,1.6,0.3,2.8,0.9,3.4c0.6,0.7,1.8,1.1,3.2,1.1c1.3,0,2.5-0.4,3.6-1.1l-0.3-0.7
	c-0.9,0.5-1.8,0.7-2.3,0.7c-1,0-1.8-0.3-2.1-1c-0.5-0.6-0.6-1.8-0.6-3.2c0-1.1,0-2.5,0.1-4.2c0-1.7,0.1-2.9,0.1-3.5l0.1-1.7
	c0.3,0,0.6,0,1.2,0c0.8,0,1.8,0,3,0.1v-0.3c0-0.4,0-0.7,0.1-1.1c-1.7,0.1-3,0.2-4.3,0.2v-2.2c0-0.4,0-1.2,0.1-2.6
	c-0.7,0.4-1.6,0.6-2.7,0.8c0.1,1.1,0.1,2,0.1,2.8v1.1c-0.7,0-1.4,0-2.1-0.1c0,0.1,0,0.1,0,0.3v0.3c0,0.2,0,0.5-0.1,0.8
	c0.6-0.1,1.2-0.1,1.8-0.1h0.4v1.1C180.8,340.9,180.8,342.6,180.7,344.6L180.7,344.6z M194.5,298.8c-1.9,5.6-3.4,9.7-4.6,12.1
	c-1.3-2.6-2.7-6.7-4.2-12.1c-0.4,0.1-0.6,0.1-0.9,0.1c-0.4,0-0.6,0-1-0.1c-1.3,4.5-2.8,8.6-4.3,12.1c-2.1-5.4-3.5-9.5-4.2-12.1
	c-0.5,0.1-0.9,0.1-1.5,0.1c-0.6,0-1,0-1.5-0.1c3.2,7.9,5.2,13.1,5.7,15.6c0.2,0,0.6-0.1,0.9-0.1c0.5,0,0.7,0,0.9,0.1
	c0.7-3,2.1-7,4.2-11.9c2.5,6.6,3.9,10.5,4.1,11.9c0.4-0.1,0.6-0.1,0.9-0.1c0.4,0,0.6,0,1,0.1c0.6-2.5,2.8-7.7,6.3-15.6
	c-0.5,0-0.7,0.1-1,0.1C195.3,298.9,194.9,298.9,194.5,298.8L194.5,298.8z M122.1,349.3c-2.5-5.6-4.2-9.8-4.9-12.6
	c-0.5,0.1-1,0.1-1.6,0.1s-1-0.1-1.5-0.1c3.3,7.5,5.4,12.7,6.4,15.6c0.2,0,0.5-0.1,0.9-0.1s0.7,0,1,0.1c0.8-2.5,3-7.7,6.6-15.6
	c-0.3,0.1-0.6,0.1-1,0.1c-0.4,0-0.7-0.1-1-0.1C125.8,341,124.3,345.2,122.1,349.3L122.1,349.3z M110.8,329.8
	c-0.4-0.3-0.7-0.5-1.2-0.5s-0.8,0.2-1.2,0.5s-0.5,0.7-0.5,1.2c0,0.5,0.2,0.8,0.5,1.2c0.4,0.4,0.7,0.5,1.2,0.5s0.8-0.2,1.2-0.5
	c0.4-0.4,0.5-0.7,0.5-1.2S111.1,330.1,110.8,329.8L110.8,329.8z M109.6,336.9c-0.5,0-0.9-0.1-1.4-0.1c0.1,2.7,0.2,5.2,0.2,7.4
	c0,2.4-0.1,5.2-0.2,8.2c0.6-0.1,0.9-0.2,1.4-0.2s0.8,0.1,1.4,0.2c-0.1-3-0.2-5.7-0.2-8.2c0-2.2,0.1-4.7,0.2-7.4
	C110.5,336.8,110.1,336.9,109.6,336.9L109.6,336.9z M99.5,373.6c0,2.5,1.5,4.3,4.4,5.5l2.7,1.1c1.2,0.5,2,1,2.5,1.7
	c0.6,0.6,0.8,1.5,0.8,2.6c0,1.5-0.5,2.7-1.3,3.5c-0.8,0.8-2,1.3-3.4,1.3c-2.6,0-4.4-1.3-5.4-4c-0.1,1.2-0.4,2.3-0.7,3.5
	c1.5,1.2,3.3,1.8,5.5,1.8c2.4,0,4.2-0.6,5.7-1.9c1.5-1.3,2.1-3,2.1-5.2c0-1.4-0.4-2.6-1-3.4c-0.6-0.9-1.8-1.7-3.3-2.3l-2.7-1.2
	c-2.2-0.9-3.3-2.3-3.3-4.1c0-1.3,0.4-2.2,1.1-3c0.7-0.7,1.7-1.1,2.9-1.1c1.8,0,3.4,0.8,4.5,2.5c0.3-1,0.6-1.8,0.9-2.6
	c-1.6-0.8-3.3-1.2-5-1.2c-2,0-3.8,0.6-5.1,1.8C100.2,370.2,99.5,371.7,99.5,373.6L99.5,373.6z M104.3,314.4c0.6,0,1,0,1.4,0.1
	c-0.1-1.7-0.2-3.9-0.2-6.7c0-2.3,0.3-4,0.8-5.1c0.6-1.1,1.4-1.7,2.7-1.7c0.5,0,1,0.2,1.6,0.5l0.3-0.2c0-1.1,0.1-1.9,0.2-2.5
	c-0.6-0.1-1-0.2-1.3-0.2c-1.6,0-3,1.3-4.2,3.8c0-1.4,0.1-2.6,0.2-3.6c-0.5,0.1-0.9,0.1-1.4,0.1c-0.6,0-1,0-1.4-0.1
	c0.1,1.2,0.2,2.8,0.2,4.8c0,4.6-0.1,8.2-0.2,10.8C103.5,314.4,104,314.4,104.3,314.4L104.3,314.4z M121.2,313.8c-3.3,0-5-2.4-5-7.1
	c0-4.7,1.7-7.1,5-7.1c3.3,0,5,2.4,5,7.3C126.2,311.5,124.5,313.8,121.2,313.8L121.2,313.8z M121.2,298.6c-2.2,0-4.2,0.7-5.6,2.3
	c-1.5,1.5-2.2,3.4-2.2,5.8c0,2.4,0.7,4.3,2.2,5.8c1.5,1.5,3.3,2.2,5.6,2.2c2.3,0,4.2-0.7,5.6-2.2c1.5-1.5,2.2-3.4,2.2-5.9
	c0-2.4-0.7-4.3-2.2-5.8C125.4,299.3,123.5,298.6,121.2,298.6L121.2,298.6z M135,338.9c0.8-1,1.9-1.6,3.1-1.6c1.3,0,2.3,0.5,3,1.4
	s1.1,2.2,1.1,3.9v0.6h-8.7C133.6,341.4,134.1,340,135,338.9L135,338.9z M132.8,350.4c1.5,1.5,3.3,2.2,5.6,2.2c2,0,3.9-0.6,5.6-1.8
	v-0.4c0-0.3,0-0.6,0.1-1.3c-1.5,1.5-3.2,2.2-5.1,2.2c-3.7,0-5.5-2.3-5.5-6.8v-0.1h11.4c0-0.1,0-0.2,0-0.4v-0.4
	c0-2.3-0.6-4.1-1.8-5.4c-1.2-1.3-2.8-1.8-4.9-1.8c-2.3,0-4.2,0.7-5.5,2.2c-1.4,1.5-2.1,3.5-2.1,5.9
	C130.6,347,131.4,348.9,132.8,350.4L132.8,350.4z M246.1,26l4.8,4.8v233.4H17.5l-4.8-4.8H246L246.1,26L246.1,26z M67.5,240.4h-0.6
	L52.3,61.3h0.4c2.5,6.9,9.2,8.7,14.8,4.7l0,0c5.1-5.1,3.1-13.1-3.5-16v-0.3l147.3,15.7v0.6H67.5V240.4L67.5,240.4z M173.4,99.8
	c1.5,0,2.7,1.3,2.7,2.9c0,1.6-1.2,2.9-2.7,2.9s-2.7-1.3-2.7-2.9C170.7,101.1,171.9,99.8,173.4,99.8L173.4,99.8z M182.6,106.4
	c-1.5,0-2.7-1.3-2.7-2.9c0-1.6,1.2-2.9,2.7-2.9c1.5,0,2.7,1.3,2.7,2.9C185.2,105.1,184,106.4,182.6,106.4L182.6,106.4z M137.8,151.9
	v-7.6c21.8-0.7,38.1-22.2,40.1-42.3h0.5C177.7,129.2,164.6,150.2,137.8,151.9L137.8,151.9z M178.4,94.8c1.5,0,2.7,1.3,2.7,2.9
	c0,1.6-1.2,2.9-2.7,2.9c-1.5,0-2.7-1.3-2.7-2.9C175.6,96.1,176.9,94.8,178.4,94.8L178.4,94.8z M146,94.6c-0.7,0.8-3,0.5-4.2,0.8
	c-0.8,0.3-1.2,0.6-1.2,0.5c0.4-0.8,0.6-1.7,1.3-2.2c1.5-1.4,5.8-2.3,5.9-0.4C147.1,93.6,146.4,94.1,146,94.6L146,94.6z M133.8,95.5
	c0.8,0.3,1.2,0.6,1.2,0.5c-0.4-0.8-0.6-1.7-1.4-2.2c-1.5-1.4-5.8-2.3-5.9-0.4c0.6,0.3,1.3,0.8,1.8,1.4
	C130.2,95.5,132.5,95.1,133.8,95.5L133.8,95.5z M102,105.5c1.5,0,2.7-1.3,2.7-2.9c0-1.6-1.2-2.9-2.7-2.9s-2.7,1.3-2.7,2.9
	C99.3,104.2,100.5,105.5,102,105.5L102,105.5z M97.1,100.5c1.5,0,2.7-1.3,2.7-2.9c0-1.6-1.2-2.9-2.7-2.9s-2.7,1.3-2.7,2.9
	C94.3,99.2,95.6,100.5,97.1,100.5L97.1,100.5z M92.9,106.4c1.5,0,2.7-1.3,2.7-2.9c0-1.6-1.2-2.9-2.7-2.9c-1.5,0-2.7,1.3-2.7,2.9
	C90.2,105.1,91.4,106.4,92.9,106.4L92.9,106.4z M132.7,90.3c1.8,0.6,3.2,1.4,5,2.3v51.7l0,0v7.6l0,0v-7.6
	c-21.8-0.7-38.1-22.2-40.1-42.3h-0.5c0.6,27.1,13.6,48.1,40.5,49.9v88.5l0,0c-1.8-4.3-3-8.4-3.5-11.5c-0.4-2.4-0.6-4.4-0.6-6.3
	s0.2-3.4,0.4-4.9c0.4-2.9,0.7-5,0.1-6.7c-0.8-0.6-5.7,5.6-9,6.1c-5.4,0.8-5.9-3.2-9.9-4.7c2.9-1.1,5.1-0.8,7.6-2.1
	c2.2-1.1,3.7-3.4,6.2-4.2c1.7-0.5,3.6-0.3,5.7,0.7c0.7,0,0.2-1.5-0.5-3.4c-0.5-1.5-1.2-3.3-1.2-4.9c0-1.4,0.6-2.7,1.7-3.4
	c-1.2-2-1.9-4.2-2-5.6c-0.3-3.5,0.9-5.3,0.7-7.8c-0.1-1.8-0.1-4.3-0.7-5.4c-2.6,1-6.9,15.7-7.3,18.5l-3.8-2.3l-2.3,4.2
	c-0.9,1.6,3.6,6.3-1.2,8.8l-0.2-0.1c0.5-1.4,0.5-2.6-0.6-4.1c-1.8-2.4-4.2-0.6-7.8-3c-1.8-2.1-4.2-2.2-5.8-1.6c-1.1,0.5-1.9,1.3-2,3
	l-0.2,0.1c-1-2.3-0.1-4.2,1.3-5.4c3.5-2.9,12.3,1.7,13.3,0l2.2-3.7l-3.8-2.4c9.4-6.7,9.5-18.3,8.8-28.8l-0.6-0.3
	c-1.6,9.7-5.8,17-12.5,22.2c-2.5,1.9-5.6,3.7-9.1,0.8c4.2-2.8,8.3-8.6,9.6-13.5c1.3-4.8,1.9-10.3,1.7-16.5l-0.5-0.5
	c-1.8,10.8-7.8,16.3-11.6,19.1c-2.8,2-6.1,3.9-9.1,1.1c4.5-3.7,8-8.6,9.8-13.7c1.8-5.3,2.5-11.2,2-17.1l-0.5-0.6
	c-2.4,10.1-4.8,15.1-10.6,19.4c-2.9,2.2-6.2,3.5-9.5,0.6c6-4.5,8.4-8.6,10.2-15.6c1.7-6.9,2.7-12.8,2.6-20.5l-0.5-1.6
	c-2.3,12.8-5.8,20.8-10,24.3c-2.8,2.4-6.5,4.2-8.6,1.6c2.8-3.1,4.5-6.7,5.4-10.3c1.9-7.7,1.5-14,1.4-24.2c-0.1-6.7,0.6-13,3.8-18.7
	c3.2-5.8,10.3-7.3,15.6-5.7c8.5,2.6,10.7,12.7,6.7,18.8c-2.1,3.3-1.8,7.5-0.6,9.6c1.4,2.6,4.2,5.2,7,7.4c2.5,2,9.7,7,14.1,6.3
	c-0.2-2.6,0.5-5.4,1.4-8.4c0.8-2.9,1.9-5.8,2.3-8.7c0.4-2.5,0.1-5.5-1.2-7.3c-1.5-1.5-3-2.2-4.5-2.8c-1.9-0.6-3-1-4.2-2.6
	c-0.6-0.8-0.8-2.4-0.9-4.1c1,1.1,1.8,1.8,2.8,2.4c0.8,0.5,3.2,1.1,4,0.3c-0.8-1.8-2.2-3.2-4-4.2c-2.3-1.1-4.5-0.6-6.3,1.2
	c-0.5-1.8-0.2-4.1,1.3-5.4c1.6-1.4,4.7-0.9,6.5,0c-0.2-1.3,0.5-2.7,2.4-2.9C130.1,89.6,131.5,90,132.7,90.3z"/>
</svg>
