<?xml version="1.0" encoding="utf-8"?>
<!-- Generator: Adobe Illustrator 25.2.1, SVG Export Plug-In . SVG Version: 6.00 Build 0)  -->
<svg version="1.1" xmlns="http://www.w3.org/2000/svg" xmlns:xlink="http://www.w3.org/1999/xlink" x="0px" y="0px"
	 viewBox="0 0 1920 1080" style="enable-background:new 0 0 1920 1080;" xml:space="preserve">
<style type="text/css">
	.st0{display:none;}
	.st1{fill:#B2B2B2;}
	.st2{fill:none;stroke:#B2B2B2;stroke-width:12;stroke-miterlimit:10;}
	.st3{fill:#F08118;}
	.st4{fill:none;stroke:#878789;stroke-width:3;stroke-linejoin:round;}
	.st5{fill:none;stroke:#878789;stroke-width:3;stroke-linejoin:round;stroke-dasharray:9.8571,4.9286;}
</style>
<g id="Warstwa_1" class="st0">
	
		<image style="display:inline;overflow:visible;" width="1920" height="1080" xlink:href="numbers.png"  transform="matrix(0.9927 0 0 0.9927 14 6)">
	</image>
</g>
<g id="Warstwa_9">
	<path class="st1" d="M290.6,85.8c0.8-0.8,2.8-2.6,3.6-2.1c0.8,0.5,1.9-0.4,2.8,0.4c0.9,0.8,1.9,1.7,2.7,1.9
		c0.8,0.3,1.7-0.6,2.5-0.3c0.8,0.4,3.5-1.9,3-0.1c-0.5,1.8,0.6,2.3-0.8,2.5c-1.4,0.1-3,1.2-3.6,0.8s-1.2-0.8-2.2-0.3
		c-1,0.5-0.5,0.5-1.7,0.3c-1.2-0.3-1.4,0.3-1.7-0.1c-0.3-0.4-1-0.3-0.9-1.4c0.1-1.2,0.5-1-0.3-1c-0.8,0-1.4,0.1-1.9-0.3
		C291.6,85.6,290.6,85.8,290.6,85.8L290.6,85.8z"/>
	<path class="st1" d="M319.4,84.2c-0.6,0.6-2.2,1.5-1.8,1.9s0.6,1.8,1.4,1.4c0.8-0.4-0.1-1.7,2.8-0.6c3,1,2.7-0.1,3.4,1.4
		c0.6,1.5,1.2,2.7,0.8,3.1c-0.4,0.4-0.5,0.8-1.8,1.2c-1.3,0.4-1.8,0.9-0.9,1.5c0.9,0.6,2.6,1.3,3.4,1.7c0.8,0.4,3.1,0.5,1.9-0.8
		c-1.2-1.3,0.3-1.7,0.3-1.7s2.2,1.7,1.4-0.3c-0.8-1.9-1.3-1.9-0.8-1.9c0.5,0,1.5,0.6,1.5,0.6l0.5-1l-0.5-1.7l-1.7-1.7
		c0,0,1.4-1.3-0.5-1.5c-1.9-0.3-1.8-0.3-2.8-0.9c-1-0.6-1.2-0.9-3.1-0.5c-1.9,0.4-2.6,0.6-2.6,0.6L319.4,84.2z"/>
	<path class="st1" d="M376.1,125.6l-1.3,1.7l-0.9,0.9l-1.7,0.9l-0.3,0.8c0,0-0.7,0.7-0.6,1.1s0.1,1.2,0.1,1.2s-1.2,1.1-1.7,1.5
		c-0.5,0.3-1.2,1.1-1.2,1.1s-0.4,0.5-0.7,0.7s-0.7,0.7-1,1.2c-0.3,0.5-0.7,0.9-0.9,1.1c-0.2,0.3-0.7,0.9-0.9,1.8
		c-0.3,0.9-0.9,2.1-0.9,2.1l-0.2,0.4c0.1,1.5,0.1,1.7,0.3,2.2c0.2,0.5,0.3,0.3,0.2,1.5c-0.2,1.1-0.2,1.5-0.3,2.1
		c-0.2,0.5-0.7,1.5-0.9,1.9c-0.2,0.4,0.3,1.2,0.3,1.2s0.3,1.1,0.1,1.4c-0.2,0.3,0.1,0.8,0.1,0.8s1,0.6,1.4,0.9s0.9,0.9,1,1.1
		s0.8,1.5,0.9,1.7c0.1,0.3,0.8,1.2,0.9,1.5c0.2,0.3,1,1.2,1,1.2s1.1,0.9,1.4,1.2c0.3,0.3,1,0.5,1.3,0.8c0.3,0.3,0.9,0.2,1.2,0.4
		c0.3,0.3,1-0.2,1.4,0c0.3,0.2,1.3-0.2,1.5-0.3c0.3-0.2,0.9-0.8,1.3-0.5s0.7,0,1,0.1s0.9-0.3,1.2-0.3c0.3,0,1.2-0.3,1.5-0.3
		s1.1-0.5,1.5-0.5s0.8-0.3,1.2-0.2c0.4,0.2,0.3-0.3,1-0.1s1,0,1.3,0.3c0.3,0.3,0.6,0,0.9,0.3c0.3,0.3,0.7,0.6,0.8,0.9
		c0.1,0.3,0.6,0.7,0.6,0.7l0.5,0.1c0,0,0.7-0.5,0.9-0.2c0.2,0.3,0.9,0.3,0.9,0.3l0.8,0.9l0.3,0.3c0,0,0.5,1.4,0.4,1.9
		c-0.1,0.5-0.1,1.6-0.3,1.9c-0.3,0.3-0.4,1.4-0.4,1.4s-0.3,0.3,0.4,1s1.3,1.3,1.5,1.6c0.3,0.3,0.9,1.3,1,1.9
		c0.1,0.6,0.3,0.9,0.6,1.7s0.8,0.9,0.9,1.7c0.1,0.9,0.3,0.9,0.2,1.5c-0.1,0.6-0.3,0.7-0.1,1.1c0.3,0.4,0.6,1.2,0.5,1.5
		c-0.1,0.3-0.3,1.4-0.3,1.4l-0.2,0.5l-0.8,1.5l-0.5,0.8c-0.2,0.6-0.5,1.2-0.4,2.1c0.1,0.9-0.4,0.9,0.3,1.7s1,1.8,1.5,2.6
		c0.4,0.8,0.7,1.5,0.8,2.1c0.1,0.5,0.4,0.7,0.6,1.4c0.2,0.7,0.3,1,0.3,1.5c0,0.4-0.1,1.5,0.1,1.8c0.2,0.3,0.3,1,0.3,1.4
		c0.1,0.3-0.3,0.4,0.3,1c0.5,0.6,0.9,0.9,1.2,1.4s0.3,0.3,0.5,0.9s0.6,0.9,0.7,1.5c0.1,0.5,0.2,1.8,0.4,2.4c0.3,0.6,0.6,1.2,0.6,1.2
		s0.9,0.6,1.3,0.5c0.3-0.1,1-0.9,1.5-0.6c0.5,0.3,0.9,0,1.4,0c0.4,0,0.9-0.5,1.3-0.5s1-0.7,1.4-0.5s0.8-0.2,1.2-0.6
		c0.4-0.4,0.7-0.8,1.5-1.5c0.8-0.7,0.7-0.7,1.2-1.1c0.5-0.4,1-1.4,1.6-1.5c0.6-0.2,0.8-0.8,0.9-1.2c0.2-0.4,0.3-0.7,0.5-1
		c0.3-0.3,0.1,0.1,0.5-1c0.4-1.1,0.9-1.5,1.4-1.8s0.7-0.8,0.9-0.9c0.3-0.1,0.7,0.3,0.5-0.5c-0.2-0.8,0-1.9-0.2-2.2s-0.4,0.6-0.3-0.7
		c0.1-1.3,1-2.6,1-2.6s1.3-1.6,1.7-1.9s0.5-0.5,1.1-0.9c0.6-0.3,1.9-1.2,1.9-1.6c0-0.4,0.5-1.5,0.5-1.8s0-0.5-0.2-2
		c-0.2-1.5,0.2-1.1-0.3-2.5s-0.6-3.1-0.9-3.5c-0.3-0.4-0.2-1.6-0.2-1.9s0.6-1.2,0.9-1.5c0.3-0.3,1.4-1.7,1.4-1.7s1.7-2,2.3-2.9
		c0.6-0.9,1.2-1.8,1.6-2.2c0.4-0.3,1.5-1.1,2.1-2c0.6-0.9,1.8-2.5,1.9-2.8c0.1-0.3,0.8-1.1,0.8-1.1s0.9-1.1,1.1-1.7
		c0.2-0.6,1-4,0.9-3.8c-0.2,0.2-1.2,0.3-1.5,0.4c-0.3,0.1,0.5,0.4-2,0.3s-3.8,0.3-3.8,0.3c-0.8-0.2-1.4,0.7-1.6-0.5
		s-0.4-1.9-0.9-2.8c-0.5-0.9-0.9-1.2-1.6-2.3c-0.8-1.1-0.7-0.6-1.4-1.5c-0.7-0.9-0.9-0.6-1.3-1.7c-0.4-1.1-0.8-0.7-1.3-2.2
		c-0.5-1.5-0.9-1.7-1.1-2.6c-0.3-0.9-0.6-1.1-0.8-1.9c-0.2-0.8-2.2-4.7-2.4-5c-0.3-0.3-0.7-1.6-0.6-1.4c0.1,0.3,1.3,1.1,1.3,1.1
		s0.7-0.3,0.9-0.3s1.3,0.9,1.3,1.3c0,0.3,1.8,2,2.2,3.2c0.4,1.2,0.9,2.1,1,2.4c0.1,0.3,0.9,1.7,1.3,2.2c0.3,0.5,1.5,1.5,1.6,2.1
		c0.2,0.5,1.8,2.2,1.8,3.4s0.8,2.6,0.9,2.9c0.1,0.3,1.6,0.8,1.6,0.8l2.1-0.5c0,0,3.1-2,3.4-2c0.3,0,3.1-1.3,3.1-1.3s1.1-1,1.9-1.6
		c0.8-0.6,1.6-1.7,1.8-2.2c0.2-0.5,0.5-0.6,1.2-1.4s1.6-1.5,1-2.1c-0.6-0.5-0.9-0.3-1.8-1.2c-0.9-0.9-0.8-0.7-1.4-1.8
		c-0.6-1.1,0.1-2.4-1.2-1.1s-0.8,1.6-2.1,1.9c-1.3,0.3-1.8,1.1-2.4,0.3c-0.6-0.9-1.2-0.3-1.5-1.6c-0.3-1.3-0.6-1.4-0.7-1.9
		c-0.1-0.5,0-0.5-0.7-1.8c-0.7-1.3-0.2-3.3,0.3-2.2s1.1,1.3,2.2,2.1c1.1,0.8,1.6,1.4,2.7,1.5c1,0.1,1.9,0,2.1,0.2s0.3-0.1,0.8,0.1
		c0.4,0.2,0.6-0.3,0.8,0.4c0.2,0.7,1.1,0.8,1.5,1.2s0.4,0.3,1.6,0.4c1.1,0.2,2.7,0.2,2.7,0.2l1.6-0.1l1.9,0.2c0,0,1.4,0.8,1.7,0.8
		c0.3,0,0.4,0.9,1.3,1.5s1,0.6,1.5,1.2c0.5,0.6,0.4,0.9,1.1,1.5c0.7,0.6,1.8-0.1,2-0.3c0.2-0.3,1-0.7,0.9,0
		c-0.2,0.7,0.9,0.4,0.6,2.1c-0.3,1.6-0.4,1.2,0,2.3c0.4,1.1,2.3,4.6,2.4,5.6s0.6,0.7,0.7,1.6c0.1,0.9,0.6,1.3,0.6,2
		c0,0.7,0.6,0.9,0.7,1.4c0.1,0.5,1,0.1,1.3,0c0.3-0.1,1.5-1.2,1.5-1.2s0.5-0.2,0.4-1s0-0.7,0-2s-0.5-1.3-0.3-2.6s0.9-2.1,1.1-2.7
		c0.2-0.6,0.9-1.6,1.2-1.7c0.3-0.1,2.2-1,2.7-1.6c0.4-0.6,1.1-1.3,1.8-2c0.7-0.7,1.9-1.5,2.2-1.3s0.2,0.2,0.6,0.2
		c0.4,0,1.2,0.3,1.8,0.4c0.6,0.1,1.8,1.5,2.1,2.3s0.1,0.6,1,1.7c0.9,1.1,1.8,0.4,1.8,1.8c0,1.4,0,1.3,0.4,1.8
		c0.4,0.5,0.9-0.9,1.5-0.8s0.6-0.2,1,1.2c0.4,1.4,0.7,1.4,0.8,2.8c0.1,1.4-0.1,0.1-0.1,1.2c0,1.1-0.1,1.2,0.1,2.2
		c0.2,1,0.8,1.4,0.7,1.6c0,0,0.5-1.5,0.3-2.5c-0.2-1,0-2.5,0.4-2.9c0.4-0.4,0.9-0.9,1.2,0.3c0.3,1.1,0.5,0.3,1.3,1.5
		c0.8,1.3,1.5,1,1.5,1.6c0.1,0.6,0.5,0.7,1.1,1.2c0.6,0.5,1.1-0.1,1.8-0.6c0.7-0.5,2.6-2.4,2.7-3.2c0.1-0.8,0.9-0.6-0.5-2.6
		s-1.4-2.7-2.8-3.9c-1.5-1.2-2.3-1.3-1.2-2.8c1.1-1.5,1.6-2.6,2.3-2.2c0.7,0.4,1.9,0.3,1.9,2.1c0,1.7-0.3,3.6,0.9,1.5
		c1.2-2.1,1.8-3.3,1.5-2.9c-0.3,0.3,0.8-0.7,0.8-0.7s0.1-0.8,1.6-1.1c1.5-0.3,1.9-0.5,2.4-0.8c0.5-0.3,2-2,2.2-2.8s0.9-2.2,0.8-2.8
		c-0.2-0.6-1-3.5-1.2-3.4c-0.2,0.1-0.1,0.1-1.2-1.1c-1.1-1.2-1.9-2.1-2.1-2.6c-0.2-0.5-0.6-0.6-0.1-1.3c0.5-0.7,0.8-0.6,0.9-1.2
		c0.1-0.6,0.8-1.1-0.5-0.7c-1.3,0.4-0.3,0.2-1.5,0.1c-1.1-0.1-4,0.6-2.6-1.2c1.5-1.8,1.9-2.9,2.2-2.9s1.6-1.5,1.6-0.1
		c0.1,1.4,0.6,1,0.7,1.9s1.8-0.9,1.8-0.9s0.6,0.2,1,0.6s0.4,1.8,0.4,1.8s-0.3-0.4,0.6,0.3c0.9,0.7,2,0.3,2,1.8s0,1.5,0.6,1.9
		s1.2,0.2,1.7-0.3c0.5-0.4,1.4-2,1.4-2s0.1-0.6-1.3-1.5s-2.2-1.5-2.8-1.9s-0.3-1.7,0.2-2.2s0.8-0.8,0.6-1.5
		c-0.2-0.7,0.3-1.2,1.5-1.1c1.3,0.1,1.5-0.1,1.5-0.1s0.3,0.2,0.3-0.3s1.6-2.9,1.2-2.9c-0.4,0,0.1-0.6-0.2-1.5
		c-0.3-0.9,0.9-2.4-0.1-3.1c-0.9-0.7-1.2-1-1.8-2.1c-0.6-1-0.5-1.2-2.8-1.5c-2.2-0.3-3.3,0.5-3.8-0.2s-0.8,1-1.1-1
		c-0.3-2.1,0.5-3.4,0.5-3.4s1.4-0.9,1.7-1.5c0.3-0.6,1.7-0.9,2.8-0.4s2.8,0.3,4.1,0.6c1.4,0.3,1.3,1.1,2,0c0.7-1.1,0-1.6,0.5-2.2
		c0.5-0.6,1.1-1.5,1.5-0.9c0.4,0.6,1.3,1.2,2,0.4c0.7-0.8,0.9-0.9,0.9-0.9l0.3,0.3c0,0,0.8-0.4,0.8,0.3c0,0.8,0.8,1.6,0.3,2.2
		c-0.4,0.6-1,0.5-1,2s0,1.2,0.9,2.4c0.9,1.2,1.5,0.2,1.7,1.5c0.2,1.3,0.3,1,1.3,1.9c0.9,0.9,0.8,0.9,1.5,1.4c0.7,0.5,1,1,1,0.2
		c0-0.9,0.1-1.3,0-2.1c-0.1-0.8,0.7-1.4,0.2-2.7c-0.5-1.3-0.1-1.2-1.1-2.2c-1-0.9-1.7,0.2-2.1-1.2c-0.3-1.4,1.6-2,2.2-2.2
		s1.3-1.2,1.5-0.5c0.2,0.7-1.3,3.2,1.2,0.5c2.5-2.7,1.4-1.5,1.4-1.5s1.3-0.2,1.5,0c0.3,0.2,0.9-0.8,0.7-0.7
		c-0.3,0.1-2.8-1.4-2.8-1.4l-1.8-1c0,0,0.6-0.4,1-0.3s0.5-0.9,0.9-0.9c0.4-0.1,3.4,0.6,4,0.9c0.6,0.3,2.8,0.4,2.5,0.3
		c-0.3-0.2-1.6-1.2-1.7-1.5c-0.1-0.3-3.1-1-4-0.9c-0.9,0.1-1.8,0.3-2.6,0.1c-0.8-0.3-1.9-0.9-2.5-0.9c-0.6,0-8.2-1.5-8.5-1.4
		c-0.3,0.1-0.9,1.7-1.1,1.5c-0.3-0.3-0.7-0.3-1.9-0.6c-1.2-0.3-2.8-0.6-5-0.8c-2.2-0.2-3.6,0.2-4.2-0.5s-1.9-0.4-3.4-0.5
		c-1.5-0.1-3.2,0-4,0s-2.6-0.1-3-0.2c-0.4-0.1-0.9-0.7-1.5-0.8c-0.5-0.1-0.4-0.3-1.5-0.4c-1-0.2-0.9-1.3-1.3-0.3
		c-0.3,0.9-0.2,0.7-0.7,1c-0.5,0.3-1,1-1.4,1s-1.7,0.1-2-0.1c-0.3-0.2-0.7-0.3-1.5-0.3c-0.9,0-0.9,0.1-2-0.1c-1.1-0.2-2-0.1-3-0.6
		s-1-0.9-1.9-0.8s-0.9-0.2-2.1-0.2c-1.2,0-2.7,0.7-3.4,0.8c-0.8,0.1-2.5-0.1-3.1-0.3c-0.6-0.3-0.8-0.9-3-0.6
		c-2.2,0.3-3.5,0.3-3.1-0.4c0.4-0.7,0.9-1.4,1.2-1.5c0.3-0.1,0.9-0.5,0.4-0.7c-0.4-0.2-0.9-0.4-1.9-0.5c-1-0.1-0.9,0.3-2.5,0.2
		c-1.5-0.2,0.9-0.6-2.3-0.5c-3.2,0.1-4,0.3-4.3,0.3c-0.3,0-0.8-0.7-1.6,0.3c-0.9,1-2.1,1.6-3.8,1.7s-1.8-0.2-3.4,0.4
		c-1.6,0.6-2.7-0.2-2.3,1.2c0.3,1.4,0.8,1.9,0.8,2.2c0,0.3-0.8,2-1.7,0.9c-0.9-1-2.7-5.1-1.9-2.3c0.8,2.8,2.5,3.7,0.9,4.1
		s-1.5-0.2-1.7-0.3c-0.3-0.2,0-1.4-0.1-2.1c-0.1-0.7-0.3-1.1-0.6-1.5c-0.3-0.3-0.3-0.9-0.9-1c-0.7-0.2-0.1-0.5-1.2-0.5
		s-2.1-0.7-1.8,0.9s0.5,0.5,1.2,2c0.7,1.5,2,0.4,1,1.5c-0.9,1-3.4,0.7-4,0.3c-0.6-0.4-0.4,0.2-1.6-0.6c-1.1-0.8-0.8-1.4-2.1-0.8
		c-1.3,0.6-1.7,1.7-2.2,1.3c-0.5-0.4-1.7,0.6-2.2,0.1c-0.4-0.5-2.2-0.5-2.5,0c-0.3,0.5-1.4,0.4-2.8,1.1c-1.5,0.7-1,0.1-2.8,1.5
		s-2.8,2.7-3.4,1.7c-0.6-0.9-3.9-2.6-2.6-2.8s1.9-0.8,2.6-0.2s1.8,0.4,2,0s0.9-0.9-0.1-1.4c-1-0.5-1.1-0.2-2.8-0.8
		c-1.6-0.6,0-0.4-2.2-0.8c-2.2-0.3-3.2-0.5-3.8-0.7c-0.6-0.2-1.5,0-2.3-0.1c-0.9-0.1-1.5-0.3-2.2-0.2c-0.8,0.1-1.2-0.1-2.2,0.7
		c-1,0.8-1.8,1.1-2.5,1.7c-0.7,0.6-2.5,1.8-3,2.2s-2.3,1.8-2.5,2.3c-0.2,0.5,0.2,0.9-0.5,1.3c-0.7,0.3-1.4,0.3-1.9,0.4
		c-0.5,0.1,0-0.8-0.5,0.1c-0.5,0.9-0.3,4,0.1,3.5s0.2-1.8,2.1-0.5c1.9,1.3,3.1,1.1,3,2.3c-0.1,1.2,1.3,1.1,1.5,1.4
		c0.2,0.3,1-0.3,1-0.3s1.9-1.2,1.9-1.8s1.2-2,1.2-2s-0.9-0.4-0.9-1.3c0-0.9,0.3-1.1,0.4-2c0.2-0.9-0.9,0,1.6-1.6
		c2.6-1.6,2.8-0.5,2.8-0.5s0.3,0.3-0.1,0.9c-0.4,0.5-1.2,1.9-1.4,2.1c-0.2,0.2,0.8,1.5,1.2,1.5c0.4,0,1.3-0.3,1.8-0.3
		c0.5,0.1,1.4-0.3,1.6-0.1c0.3,0.2,0.9,0.7,0.4,1.1s-1.4,0.9-2.1,0.8s-1.7-1.4-1.1,0.3c0.6,1.7-0.1,2.2-0.6,2.1
		c-0.5-0.1-1.6-0.9-1.5,0.3c0.2,1.3-1.1,2.2-1.4,2.2s-0.8-0.1-0.8-0.1s-0.8-0.1-1.2-0.1c-0.4,0-1.3,0.4-1.5,0.8
		c-0.3,0.3-0.6,0.1-1,0.1c-0.4,0,0-0.5-0.9-0.7c-0.9-0.2-1.4-0.3-1.9,0c-0.5,0.3-1.3,0.5-1.6,0.3s0.2-0.9-0.5-0.5
		c-0.7,0.3-1.2,1.3-1.5,1.4c-0.3,0.1,0.8,0-0.3,0.1c-1,0.1-1.5,0.3-2,0.5s0.2,1.2-0.8,1.5s-0.3-0.4-1.2,0.3
		c-0.9,0.8-1.1,1.5-1.5,1.5c-0.3,0.1-0.3,0.3-1,0.3s-0.7,0.2-1.1,0.3c-0.4,0.1,0.1,0.3-0.9,0.1c-0.9-0.2-1.6,0.2-1.5,0.5
		c0.2,0.3,3.4,1.3,0.9,1.2c-2.4-0.1-1.6,0.3-1.1,0.7c0.5,0.3,0.8,0.7,1,0.8c0.3,0.1,0.7,1.1,0.7,1.1s0.7-0.1,0.3,0.5
		s0.2,0.8-0.3,1.5c-0.4,0.8-0.4,0.3-0.8,0.4s-0.9,0.8-1.8,0.3c-0.9-0.5-1.6-0.8-2.8-0.9c-1.1-0.1-0.3-0.3-1.1,0.3
		c-0.8,0.6-0.9,1.3-0.9,2.1c0.1,0.8,0.2,1.8-0.1,2.3c-0.3,0.5-0.3,1-0.1,1.8c0.2,0.8,0.7,1.1,0.7,1.1s1.2,0.2,1.5,0.3
		c0.3,0.1,0.8-0.2,1.5,0.3c0.7,0.4,1.4,0.6,1.8,0.1s2.2-1.1,2.7-1.6c0.5-0.5,0.9-0.7,0.6-1.2s0.5-1.8,0.9-2.1s1.4-0.5,1.4-0.5l1-1.5
		c0,0,0.9-0.9,1.3-0.9c0.4,0.1,2.8,0.9,2.7-0.2c-0.2-1.1,0.2-1.5,0.4-1c0.3,0.4,0.9,0.3,0.9,0.3s0.3-0.2,0.6,0.1
		c0.3,0.3,0.6,1.4,1.1,1.6c0.5,0.3,0.9,0.5,1.3,0.7c0.3,0.2,0.7,0,1.4,0.6c0.7,0.6,1.4,0.9,1.5,1.2c0.1,0.3,0.7,0.9,0.7,0.9
		s0.6,0.2,0.4,0.5c-0.2,0.3-1,1.4-1.5,1.5c-0.4,0.2-1.5-0.2-1.1,0.2c0.4,0.3,1,0.8,1.3,0.5c0.3-0.3,1.9-2,1.9-2s-0.1,0.1,0-0.4
		c0.1-0.5,0-1.1,0.4-0.9c0.4,0.3,0.7,0.6,0.9,0.3c0.2-0.3,0.3-0.2-0.1-0.4c-0.4-0.3-1.5-1.7-2-1.8c-0.5-0.1-1.8-0.9-1.8-0.9
		s-0.3-0.3-0.9-0.9c-0.6-0.7-0.8-0.5-0.9-1.1c-0.2-0.6-0.7-1.4,0.3-1.2s1.5,0.8,2.4,1.3s0.7,0.7,1.5,1.2s0.9,1,1.5,0.9
		c0.6-0.1,1.3,0.3,1.3,1.1c0,0.8,0.2,1.6,0.3,1.8c0.2,0.2,0.7,0.5,0.9,0.9c0.2,0.3,0.5,1.2,0.8,1.5c0.3,0.3,0.5,0.6,0.8,1
		c0.3,0.4,0.3-0.1,0.6,0.1c0.3,0.2,0.6,0.1,0.6-0.3c0-0.3,0.1-0.9,0.1-0.9s1.2-0.3,0.9-0.5c-0.3-0.2-1.4-1.2-1.3-1.5
		c0.1-0.3,0-1,0.4-0.9c0.4,0.1,0.9,0.9,1.8,0.2c0.9-0.7,2.1-1,1.7,0c-0.3,1,0.1,1.2,0,2.3c-0.1,1.1,0.3,0.8,0.9,1.4
		c0.6,0.6,1,0.7,1.5,0.9c0.4,0.2,1.1,0.1,1.8,0.2c0.7,0.1,1.1-0.3,1.7-0.1c0.6,0.2,2-0.1,2.2,0.1c0.3,0.2,1.3-0.3,1.4,0.3
		c0.1,0.6,0.4-0.1,0.2,1.3c-0.3,1.4-0.6,2.3-0.6,2.3c-0.9,1.8-1.3,2.2-1.7,2.3c-0.4,0.1-0.7,0.3-1.5,0.3c-0.8-0.1-1.7,0-2.8-0.3
		s-3.2,0.3-4-0.3c-0.9-0.5-2.1-0.1-2.6-0.7c-0.5-0.6-1.4-0.5-1.7-0.9c-0.3-0.3-0.5-1.3-0.5,0.1c0,1.4-0.8,1.5-0.9,2.2
		c-0.2,0.7,0.3,0.3-0.7,0.3c-0.9-0.1-1.2,0.4-2.6-0.6s-2.1-1-2.8-1.5c-0.7-0.4-1.4,0.8-2.1-0.6c-0.7-1.4-1.6-0.3-1.7-1.4
		c-0.1-1.1,0-1,0.1-1.7c0.1-0.7,1-1.3,0.6-1.5s-0.1-0.7-0.7-0.4s-1.5,0.3-2.2,0.6c-0.7,0.3,1.5,0-1.8,0.3c-3.4,0.3-4.3,0.6-4.3,0.6
		s-0.3-0.2-0.7,0.2c-0.4,0.3-1,0.9-1.6,0.6c-0.6-0.3-0.9-0.2-1.5-0.1c-0.5,0.1-0.9-0.4-1.5,0c-0.6,0.4-1.3,0.6-1.5,0.4
		C376.5,126.3,376.1,125.6,376.1,125.6L376.1,125.6z"/>
	<path class="st1" d="M433.7,182.2c-0.3,0.9-1.2,2.3-1.2,2.3l-1.7,0.9c0,0-0.6,0.5-0.9,0.6c-0.3,0.1-1.2,0.5-1.2,0.5
		s-0.8-0.2-0.5,0.6c0.3,0.8,0.3,1.7,0.3,2c-0.1,0.3-0.1,0.8-0.1,1.5c0,0.7-0.3,1.5-0.7,1.7s-0.9,0.3-0.8,0.9
		c0.1,0.6,0.1,2.4,0.1,2.4l1.1,1.7c0,0,0.3-0.3,1-0.3s1.4-0.6,1.4-0.6s0.8,0.2,0.7-0.8c-0.1-0.9,0.3-2.1,0.3-2.3
		c-0.1-0.3,0.8-1.4,0.8-1.6c0-0.3,0.9-1.5,0.9-1.9s0.6-1.1,0.7-1.6c0.1-0.5,0.2-1.7,0.3-2.1c0.2-0.3,0.3-0.7,0.3-1c0-0.3,0-1,0-1
		L433.7,182.2L433.7,182.2z"/>
	<path class="st1" d="M501.1,193.9c-0.3,0.3-0.4,4-0.6,4.5c-0.2,0.4-0.5,2.7-0.3,3.2c0.2,0.5,0.4,2.4,0.3,3s0.1,2.5-0.3,2.4
		c-0.4-0.1-0.6,0.1-0.6,0.3c0,0.3,0.6,0.8,0.6,0.8s1,0,1.5-0.1c0.4-0.1,1.3-0.5,2-0.5s1.1-0.5,1.7-0.5c0.6,0,1.9-0.4,2.2-0.3
		c0.3,0.2,0.9-1,1.5-0.8c0.6,0.3,1.9-0.6,2.5-0.6s0.9-0.9,1.5-0.8c0.7,0.2,2-0.3,2.6-0.1c0.6,0.3,1.5-0.9,2,0s1.7,1.2,1.7,1.6
		c0,0.4-0.1,1.4-0.1,1.4l1-0.1c0,0,1.6-1,1.9-1c0.3,0,0.9-0.9,0.9-0.4c0,0.4-0.5,1.4-0.7,1.8c-0.2,0.4,0.2,0.9,0.2,0.9
		s0.9,0.4,0.5,1.2c-0.3,0.8,0.1,0.6,0,1.2c-0.1,0.6,0,0.3,0.3,0.7c0.3,0.3,0.9,0.9,1.5,0.9s0.7-0.6,1.1-0.3c0.4,0.3,1.3,0.1,1.5,0.4
		c0.3,0.3-1.6,1.2,1.6-0.3c3.3-1.5,3.6-1.8,4-2.3c0.4-0.5,0.9-1,1.3-1.4c0.3-0.3,0.1-0.3,1.1-1c1-0.8,1-0.4,2-1.9
		c0.9-1.5,1.6-2,1.8-2.2c0.2-0.3,0.5-0.3,0.6-1.4c0.1-1,0.8-2,0.8-2.3c0-0.3,0.3-0.9,0.2-1.5c-0.1-0.6,0.3-1.5-0.2-2.3
		c-0.5-0.9,0.3-1.2-0.5-1.6c-0.8-0.3-1.3-0.2-1.5-0.8c-0.2-0.6-0.9-0.5-1.1-2.2c-0.3-1.6-1.3-1.8-1.3-1.8s-1-0.4-0.8-0.6
		c0.3-0.2,0.3-1.4,0.3-1.7c-0.1-0.3-0.1-1.1-0.3-1.6c-0.3-0.5-0.4-1.2-0.7-1.8c-0.3-0.6-0.7-0.8-0.9-1.5c-0.2-0.7-0.4-0.9-0.5-1.1
		c-0.1-0.2-0.3-1-0.4-0.1c-0.2,0.9-0.5,2.8-0.5,2.8s-0.7,1.5-0.9,1.9c-0.3,0.4-0.5,1.5-0.9,1.5c-0.4-0.1-0.7,0.4-1,0.3
		c-0.3-0.1-0.9,0.1-1.1-0.2c-0.3-0.3-0.9-0.9-1.3-1c-0.3-0.1-0.6-0.8-0.9-0.8s-0.7-0.6-0.6-0.9c0.1-0.3,0.2-1.1,0.3-1.5
		c0.1-0.3,0.6-1.1,0.6-1.1s0-0.5-0.4-0.5s-0.5,0-1.5-0.1c-0.9-0.1-1.2-0.2-1.5-0.2s0.3-0.2-0.6,0.1c-0.9,0.3-1.4,0.9-2,1.6
		c-0.6,0.6-0.1,0.4-0.6,0.6c-0.5,0.2-0.4-0.4-0.8,0.5c-0.3,0.9,0.2,1.2-0.1,1.4s-2.1-0.6-2.1-0.6s0.4-0.1,0.1-0.5
		c-0.3-0.4-0.7-1-1.2-0.8c-0.5,0.3-0.9,0.4-1.3,0.9c-0.3,0.4-0.3,0.8-0.6,1.1c-0.3,0.3-0.9,0.3-1,0.7c-0.1,0.3-0.1,1.2-0.3,1.3
		c-0.3,0.1-0.3-0.3-0.6-0.4c-0.3-0.1-0.2-0.8-0.3-0.3c-0.2,0.4-0.3,0.3-0.6,1c-0.3,0.7-0.3,1.3-0.6,1.4c-0.3,0.1,0,0.2-0.8,0.6
		c-0.8,0.4-0.9,0.4-2.1,0.9s-0.9,0.5-1.6,0.6c-0.8,0.1-0.9,0.3-1.5,0.4c-0.5,0.1-0.9,0.2-1.4,0.7s-0.9,0.7-1.3,0.8
		C501.4,193.5,501.1,193.9,501.1,193.9L501.1,193.9z"/>
	<path class="st1" d="M506.2,159.8c-0.3,0.5-1.5,2.1-1.9,2.2c-0.4,0.1-0.9,0.5-1.2,0.4c-0.3-0.1-1.1,0-1.4,1.1s-0.7,1.7-0.9,1.6
		s0.4,1.6-1,0.9c-1.5-0.7-0.9,0.6-1.1,0.9c-0.2,0.3,0.3,1.3,0.3,1.6c0.1,0.3,0.3,0.9,0.7,1.5c0.3,0.5,0.6,1.1,1.2,0.9
		c0.6-0.2,2.5,0,2.5,0s0.7,0.3,1.1,0.3c0.4,0,0.5-0.2,0.8-0.2s0.8-0.9,0.7-0.9c-0.1-0.1-0.3-0.3,0.2-0.9c0.5-0.5,1.1-0.7,1.2-1.3
		s-0.2-0.6,0.1-0.9s0.9-0.3,0.7-0.6c-0.2-0.3,0.2-0.3-0.2-0.9s-0.8-0.9-0.4-1.8c0.3-0.9,0.7-1,0.6-1.5s0.4-0.7-0.2-1.3
		c-0.6-0.6-0.9-0.8-1.3-0.9L506.2,159.8L506.2,159.8z"/>
	<path class="st1" d="M523.1,168.5c0.3-0.1,1.5-0.9,1.6,0.6c0.1,1.5,0.2,1.1,0.7,2s0.9,1.1,1.5,0.7c0.6-0.4,1.3-0.4,1.5-1.2
		c0.2-0.8,0.2-0.8,0.7-0.8s0.7-0.1,0.9,0.3c0.3,0.3,0.4,0,1.5,0.6c1.1,0.6,2.1,0.4,2.8,1s1,0.5,2,0.9c0.9,0.3,0.5-0.2,1.4,0.8
		c0.9,0.9,0.5,1.2,0.9,1.6c0.4,0.4,0.8-0.3,0.6,0.7c-0.2,1-1.4,0,0.4,1.5s2.1,1.7,2.7,2.2c0.6,0.4,1,0.9,0.5,0.9s-2.2,0-2.3-0.3
		c-0.2-0.3-0.9-0.4-1.5-1c-0.5-0.6-1.6-1-1.9-1.5c-0.3-0.5-0.6-0.7-1-0.7s-0.9,0.5-1.5,1.1c-0.6,0.6-0.3-0.3-1.1-0.1
		c-0.8,0.3-1.6-0.1-2.1-0.4s-0.3-0.9-1-0.6s-1.1,0.1-0.9-0.4c0.3-0.5,0.1-1.2,0.1-1.2s0.3-0.9-0.3-1s-0.6-0.8-1.2-0.9
		c-0.6-0.2-1.5-0.6-1.5-0.6s-0.1,0-0.3-0.1c-0.3-0.1-0.3-0.1-0.9-0.3c-0.7-0.2-1.2,0-1.5-0.4c-0.3-0.4-0.2-1-0.2-1s1.4,0.2,0-0.9
		l-1.4-1c0,0,0.2-0.1,0.1-0.3C522.1,168.3,523.1,168.5,523.1,168.5L523.1,168.5z"/>
	<path class="st1" d="M484.3,161.3c0,0,0.4,0.4,1.1,0.3s1.2,1.4,1.6,1.9c0.4,0.5,0.7,0.8,1.6,1.4c0.9,0.6,0.9-0.5,2.2,1.3
		c1.3,1.8,0.7,0.7,1.3,1.8c0.6,1.1,0.9,1.7,1.3,2s0.6,0.9,0.7,1.2c0.1,0.3,0.7,1,0.7,1.3c0,0.3,0.2,0.9-0.3,1.5s-0.9,0.7-0.9,0.7
		s-1-0.5-1.4-1c-0.3-0.5-0.8-0.9-1.4-2s-1.3-2.2-1.6-2.7c-0.3-0.5-0.9-1-1.1-1.5c-0.3-0.5-0.9-2.1-1.3-2.2c-0.3-0.2-0.4-0.7-1-1.3
		c-0.6-0.6-0.5-1.1-0.8-1.5c-0.3-0.3-0.9-1.1-0.9-1.1L484.3,161.3L484.3,161.3z"/>
	<path class="st1" d="M316.9,228.5c-0.6-0.3-1.9-0.9-2.3-1.3s-1.7-2.2-1.7-2.2l-0.9-1.8c0,0-1.1-1.4-0.9-1.9
		c0.3-0.5,0.8-0.9,0.8-1.1c0-0.3,0.5-0.9,0.1-1.2c-0.4-0.3-0.4-0.3-0.7-1.1c-0.3-0.8-0.3-1.5-0.6-1.6c-0.3-0.2-0.6-1.3-0.9-1.4
		c-0.3-0.1-0.7-0.7-0.7-0.7l-0.5-7c0,0-0.2-3.2-0.3-3.9s0.3-2.2-0.2-3.4c-0.4-1.3,0.1-2.8-0.2-3.4c-0.3-0.5,0.2-2-0.1-3.4
		c-0.3-1.4,1-3.1,0-3.6c-1-0.5-0.3-1.3-1.1-1.3s-1.5-0.4-2.2-1c-0.8-0.6-2.2-1.7-2.7-2.2c-0.4-0.4-1.8-1.5-2.2-1.9s-0.9-1.8-1.2-2.2
		c-0.3-0.4-0.5-1.7-1-2.5c-0.5-0.8-1.2-2.1-1.4-2.3s-2.1-2.5-2.1-2.5l0.2-1.4c0,0,1.3-0.8,1.1-1c-0.2-0.3,0.1-0.5-0.5-1
		c-0.6-0.5-0.5-1.5,0-1.9c0.5-0.4,1.3-1.8,1.3-1.8l1.3-2.2c0,0,1-1.1,1-1.9s1.5-1.3,0.6-2c-0.9-0.7-0.4-1.3-0.7-1.8
		c-0.3-0.5-0.1-0.9,0.7-1.4c0.8-0.5,2.2-2.4,2.2-2.4s1-0.3,1.3-0.3s0.7-2.8,1.5-0.9c0.8,1.8,1,0.9,0.8,2.2c-0.3,1.3,0.3,1,0.7,0.7
		c0.3-0.3-0.2,0.3,0.5-1.3s0.4-2.1,0.9-1.6c0.4,0.4,0.6,0.5,1.4,0.8c0.8,0.3,1,0.2,1.3,0.7c0.3,0.5,0.2-0.2,1.6,0.1s3.5-0.5,3.3,0.3
		c-0.3,0.9-0.8-0.1,0.4,0.9c1.2,0.9,1.4,1.1,2.1,1.3s1.3,0.1,2.3,1.1c1,1,1.3,1.1,1.5,1.6c0.3,0.5,0.7,0.2,1.1,0.7s1,0.5,1.6,0.5
		c0.6,0,0-0.5,0.9,0.2s1.6,0.8,2.1,2.2s1.3,1.3,0.6,2.7s-2.1,2-1.5,1.9c0.6-0.1,1.7-0.6,2.1-0.5c0.3,0.1,0.5-0.3,1,0
		c0.5,0.3,0.6-0.3,0.5,0.3c-0.1,0.6-0.1,0-0.1,0.6c0,0.6-0.2-0.6,0.9-0.3c1,0.3,0.4-0.5,1.6,0.6c1.2,1.1,1.2,0.8,1.6,1.4
		c0.4,0.6,0.9-0.3,1.1-0.1c0.3,0.3,1,0.1,1.8,0.3c0.8,0.2,0.3-0.5,1.5,0.3c1.2,0.8,2.4,0.5,2.7,1.2c0.3,0.7,0.9,0.4,1.3,0.9
		s0.5-0.2,0.9,0.4c0.3,0.6,1.4,0.4,1.2,1c-0.2,0.6,0.3,0.3,0.1,1.1c-0.2,0.9-0.8,2.2-1.3,2.6s-0.5,0.8-0.9,1.2
		c-0.3,0.4-0.3-0.4-0.7,0.8s-0.3,1.4-0.7,2.5c-0.3,1.1-0.1,0-0.3,1.1s-0.1,1.8-0.3,3.1s-0.2,1.3-0.3,2.2c-0.2,0.9,0.4-0.4-0.3,1.5
		c-0.8,2-0.9,1.9-1.1,2.8c-0.3,0.9,0.1,0.2-0.9,0.7s-0.4,0.3-1.5,0.7c-1.1,0.3-2.5,0.7-2.9,0.8s-2.2,0.6-1.6,1.6
		c0.5,1,0.5,1.2,0,2.5c-0.5,1.3-1.3,1.7-1.3,2.3c0,0.6-0.3,1.2-0.4,1.6c-0.1,0.4,0.8-0.4-0.3,0.9s-1.1,0.9-1.5,1.7
		c-0.3,0.8,0,0.2-0.3,0.8c-0.3,0.6-1.2,0.9-1.2,0.9s0.1,0.4-0.3,0.3c-0.3-0.2-0.3,0.1-1.5-0.3c-1.3-0.3-1.5-1.2-1.6-0.6
		c-0.2,0.6,0.1,0.9,0.9,1.5c0.8,0.6,2.1,0.8,1.7,1.4c-0.3,0.6-0.3,0.6-0.6,0.9c-0.3,0.3,0.3,0.1-0.3,0.3c-0.6,0.3-0.9,1.4-1.2,1.4
		s-0.4,0.4-0.8,0.3c-0.3-0.2-1.2-0.8-1.4-0.4c-0.2,0.3-0.5-0.4-0.4,0.8c0.1,1.2,0.3,1.9-0.2,2.2c-0.4,0.3-1.5,0-1.5,0l-0.2-0.4
		l-0.6,0.2c0,0-0.3,1,0.2,1.2c0.4,0.2,0.3,0.3,0.8,0.9s0.2,1.5,0.2,1.5s0,0.3-0.4,0.7c-0.4,0.4-0.6,0.8-0.7,1
		c-0.1,0.3-0.6,1.4,0.2,1.3c0.8-0.1,1.4-0.5,1.4,0.9s0.3,1-0.1,2c-0.4,0.9-0.8,1-0.9,1.9c-0.1,0.9,0.1,0.9,0.3,1.5s0.6,0.3,0.2,0.5
		C318.2,228.7,316.9,228.5,316.9,228.5L316.9,228.5z"/>
	<path class="st1" d="M294.7,158.4l-0.6-0.9c0,0-0.3-0.5-0.7-0.6c-0.4-0.1-1.4-1.2-1.4-1.2s-0.4-0.3-0.4-0.9s-0.3-1.5-0.1-2.6
		s0.3-2.3,0.3-2.7c-0.1-0.3,0.4-0.4-0.2-0.8c-0.6-0.3-1.8-0.4-2.6-0.4c-0.8,0-1.7,0.3-1.9,0.3c-0.2,0.1,0.9-2.6,1.1-3
		s0.9-2.3,0.9-2.6c0-0.3,0.3-0.3-0.3-0.7c-0.5-0.3-1.4-0.5-1.9-0.3c-0.5,0.3-0.4-0.3-0.9,0.7c-0.4,1-0.9,2.2-1.4,2.3
		c-0.5,0.2-1.5,0.7-1.5,0.7s-1.3-0.1-1.7-0.2c-0.4-0.1-2.2-1-2.6-1.6c-0.3-0.6-0.5-1.9-0.5-2.5c0-0.6,0.9-2.4,0.9-2.8
		c-0.1-0.4,0.9-2.2,0.9-2.4c-0.1-0.3,0.2-1.1,0.4-1.5c0.3-0.3,1.5-0.8,1.9-1.1c0.3-0.3,0.9-0.8,1.5-0.9c0.6-0.2,1.1-0.3,1.5-0.3
		s1.5-0.9,1.7,0c0.2,0.9,0.9,0.6,1.4,0.7c0.4,0.1,0.5,0.5,1.2-0.6s1.4-1.5,1.4-1.2c0,0.3,1.1-0.1,1.3,0.2c0.2,0.3,0.5-0.2,1.1,0.3
		c0.6,0.5,1.5,0.6,1.4,0.9c-0.1,0.3,0.3,0.3,0.3,0.5c0,0.3,0.3-0.6,0.3,0.9c0,1.5,0.4,2.5,0.4,2.5s0.6,1.3,0.9,1s0.8-0.9,0.8-0.9
		s0.9-0.5,0.3-2.3c-0.6-1.8-0.2-2.3-0.3-2.9s-0.2-0.9,0.9-1.7s3.5-2.5,4.1-2.8s2-1.3,2-1.3s0.5-0.3,0.6-0.9c0.1-0.7,1.7-1.9,1.8-2.2
		c0.1-0.3,1.2-1.2,1.2-1.2s1.2-0.7,1.1-1.1c-0.1-0.4,1.5-1.2,1.8-1.2c0.3,0,1.6,0.4,1.6-0.3c0-0.8,0-0.9,0.9-1.6
		c0.9-0.7,2-1.7,2.4-1.7c0.4,0,1.9-0.8,2.5-0.9c0.6-0.2,2.5-1,0.8,0c-1.7,1-0.6,0.4-0.9,1.3s-0.6,2,1,0.7c1.6-1.3,1.5-1.5,2.2-1.6
		c0.6-0.1,0.2,0.3,1.5-0.2s1.4-0.6,1.4-0.6s0.6-0.5,0.3-0.8c-0.3-0.3,0.3-0.6-0.9-0.1c-1.3,0.5-1.2,0.6-2.1,0.3
		c-0.9-0.3-2.2-0.2-1.2-1c0.9-0.9,2.2-1.1,1.4-1.5c-0.8-0.3-2.8,0.1-3,0.2c-0.3,0.1-0.9-0.1-1.4,0s-0.3-0.7,0-0.9
		c0.3-0.2,1.5-0.7,2.8-1s4.7-0.4,5.5-0.4s1.8,0.2,2.4-0.3c0.6-0.4,1.8-1.1,2-1.5s0.9-0.9,0.9-0.9s0.8-0.8,0.3-1.1
		c-0.4-0.3-0.9-1.1-1.2-0.9c-0.3,0.2-0.1,1.2-0.8,0.1c-0.7-1.1-0.6-1.3-0.9-1.5s-0.7-0.1-0.4-1.3c0.3-1.2,0.2-1.7,0.2-1.7
		s0.3-1,0-1.1c-0.3-0.1-0.4-0.3-0.9-0.1c-0.4,0.3-2.8,1.5-3.4,1.7c-0.5,0.3-1.2-1-0.9-1.6c0.3-0.6,0.1-0.3-0.3-1.1
		c-0.3-0.9-1.7-1-2.2-1c-0.5,0-1.7-0.8-2.1-0.3c-0.3,0.5-2.2,2.2-2.5,2.3c-0.3,0.2-0.9-1.5-1.1,1.2c-0.3,2.7,0.9,3.4-0.4,3.6
		c-1.4,0.2-2.6,0.9-2.6,0.9s-1.1,0.1-1.1,0.8s-0.4,2.3-0.9,2.5c-0.5,0.2-1.8-0.1-2.2-0.6c-0.4-0.5,0.1-2.4,0.1-2.4l0.8-0.8
		c0,0-5.5-0.9-5.4-1.2c0.1-0.3-1.6-0.9-1.8-1.5s-0.3-1.6-0.1-2.1c0.2-0.4,2.5-2.5,3.7-2.9s3.3-1.4,3.9-1.5c0.6-0.2,1.6-0.1,2-0.5
		c0.3-0.4,0.4-1.2,0.4-1.2s-0.2-1.2,0.2-1c0.3,0.2,0.9,0.4,1,0.7c0.1,0.3,0.1,0.9,0.7,0.2c0.6-0.7,1.4-0.9,2.1-1.3
		c0.7-0.3,1.7-0.3,2.3-0.6c0.6-0.3,1.6-0.7,1.7-1.5s-0.3-0.6-0.7-0.7c-0.4-0.1,0.2,0.1-1.3,0.8s-1,0.2-2.1,0.7s-1.1,0.6-1.2,0.2
		c-0.1-0.4,0.2-1.1,0.2-1.1s0.1-0.1-0.5-0.3c-0.6-0.2-0.6,0.1-0.7-0.7c-0.1-0.8,0.4-1.9-0.4-1.5c-0.9,0.3-1.6-0.3-2.2,1.5
		c-0.6,1.7-2.7,3.5-3.2,3.1s-0.6-0.5-1-0.5s-1-0.5-1.8-0.6c-0.8-0.1-3.1-0.1-3.7,0c-0.6,0.1-1.3-0.3-1.8,0.2s-1.3,1.2-1.3,1.5
		s-0.8-0.9-1-0.9c-0.3,0.1-0.9-0.3-1.7-0.3c-0.8,0-1.3-0.4-1.5-0.4c-0.3,0,0.3-0.7,0-0.8c-0.3-0.1-5.9-0.3-5.9-0.3s-1.8-0.7-2.5-0.6
		c-0.7,0.1-2.6,0.2-4,0.4c-1.5,0.3-3.6,1.1-4.3,1.2c-0.7,0.1-2.2,0.1-2.5-0.3c-0.3-0.4,0.1-0.3-0.3-0.4c-0.3-0.1-0.1-0.3-0.9-0.9
		c-0.8-0.6,0.3-1.1-1.2-1.1s-2.5-0.1-3.9,0s-4.2,0.8-4.6,0.7c-0.3-0.1-3.1,0.4-3.5,0.2c-0.4-0.3-2.6,0.9-3,0.9
		c-0.4-0.1-2.1,0.1-2.5,0.3c-0.4,0.3-2.5,0.8-1.8,1.2c0.7,0.4,0.6,0.9,0.7,1.1c0.1,0.3-0.7,0.9-0.7,0.9s-0.2,0-1.1-0.3
		s-2-0.5-2.4-0.3c-0.4,0.3-1.2,0.8-1,1.1c0.2,0.3,1.4,1.1,1.5,0.9c0.2-0.3,0.6-0.8,1.1-0.7c0.5,0.1,1.3-0.3,0.6,0.5
		c-0.7,0.9-1.3,1.3-1.7,1.4c-0.4,0.1-1.5,0.2-2.4,0.3s-0.9-0.3-1.7,0.5c-0.9,0.9-1.2,0.3-1.4,1.3c-0.2,0.9-0.3,0.9,0,1.2
		s-0.7,0.3,0.1,0.6c0.8,0.3,1.7,0.5,1.6,0.8c-0.1,0.3,0.9-0.3,0.3,0.3c-0.5,0.7-0.9,1.3,0.2,0.6c1-0.7,1.6-0.2,2.5-0.6
		c0.9-0.4,1.7-0.5,2.2-0.9c0.5-0.3,0.8-0.9,1.5-1.1c0.8-0.3,0.3,0.1,0.3,0.5c0.1,0.4,0,0.5,0.5,0.2c0.5-0.3,0.5-0.1,1.2-0.5
		s1.5-0.9,2-0.6c0.5,0.3,0.7,0.3,1,0.3c0.3,0-0.4-0.1,0.3,0c0.8,0.1-0.3-0.3,2.2,0.3c2.6,0.6,3.3,0.2,3.4,1.1
		c0.2,0.9,0.5-0.1,0.9,0.5s0.7,0.1,0.9,1.1c0.3,1,0,3.9-0.2,4.2s-0.3,0.3-0.2,1.1c0.1,0.8,1.1,4.5,0.8,4.7s-1.1,0.3-1.1,0.3
		l-0.4,1.5c0,0-0.7,1.3-1.3,2c-0.6,0.7-1.4,1.5-1.8,2.2c-0.4,0.6-0.8,1.6-1.4,2.2c-0.6,0.6-1.1,0.3-0.9,1.6c0.2,1.3,0,2.7,0.2,3.6
		s0.6,2.2,0.9,2.8c0.3,0.5,0.6,0.5,1.2,0.9c0.6,0.4,1.4,0.9,1.3,1.4c-0.1,0.4,0.1,3.1,0.1,3.1s0.5,0.9,0.6,1.8
		c0.1,0.9,0.7,1.9,0.7,1.9l0.5,1.1c0,0,0.3,0.1,0.6,0.8c0.3,0.7,0.3,0.7,0.4,1c0.1,0.3,0.1,0.3,0.1,0.3c0,0.1-0.1-1.5-0.3-1.9
		s-0.2-0.9-0.3-1.5c-0.2-0.5,0.1-1.1-0.4-1.9c-0.5-0.8-0.5-0.9-0.8-1.6c-0.3-0.8-0.6-1.6-0.3-1.8c0.3-0.2,0.6-1.3,1.3,0
		s0.8,0.9,0.9,2c0.1,1,0.3,1.4,0.6,1.8c0.3,0.4,0.9,1.9,1.2,2.5c0.3,0.6,0-0.3,0.8,0.9c0.8,1.2,0.9,1.5,1.3,2.4
		c0.4,0.9,0.7,0.9,0.9,1.6s0.1,0.5-0.1,1.3c-0.2,0.8,0.2,1.6,0.2,1.6s1.2,0.4,1.3,0.7s1.3,0.7,1.5,1c0.2,0.3,1.3,0.8,1.3,0.8
		s0.9,0.6,1.3,0.8c0.3,0.2,1.4,0.3,1.4,0.3s0.7,0.2,0.9,0.3c0.3,0.1,1,0.1,1,0.1s0.7-0.5,0.9-0.3c0.3,0.2,0.9-0.3,1.1,0.1
		c0.3,0.4,0.8,0.4,1,0.8s0.5,0.3,0.9,0.8c0.4,0.4,0.9,0.3,1.3,0.7c0.4,0.3,0.8,0.3,1.3,0.3c0.5,0,0.5,0,0.9,0.1
		c0.3,0.1,0.5-0.3,0.9,0.2c0.3,0.4,0.6,0.7,0.9,1.1s0.9,0.4,0.9,1.1s0.3,0.6,0.3,1.2c0,0.6,0.3,0.9,0.6,1c0.3,0.2,1.2,1,1.2,1
		l1.3,0.3l1,0.8L294.7,158.4L294.7,158.4z"/>
	<path class="st1" d="M322.2,78.4l5.2-0.6c0,0,1.8,0,2.7-0.6c0.9-0.6,0-0.6,2.7-1.2c2.7-0.5,1.9-0.8,3.4-0.5
		c1.4,0.3,1.8,0.3,3.4,0.5c1.5,0.3,1.9-0.1,3.4,0.3s2.1,0.3,3.2,0.3h3.6c1.8,0,3.5-1,4.1-0.4c0.6,0.6,1,0.4,3.2,0.6
		c2.2,0.3,3.1-0.3,4,0s2.5-0.1,4.3,0c1.8,0.1,2.7-0.1,3.4-0.1c0.6,0,1.3-0.9,2.2-0.1c0.9,0.8,2.1-0.3,2.2,0.8c0.1,1,1.8,0.3,0.1,1
		c-1.7,0.8-1.4,0.6-2.6,1.7c-1.2,1,0.8,1.9-1.7,2.8c-2.5,0.9-2.8-0.5-3.5,1c-0.6,1.5,0,1.9-0.1,2.7c-0.1,0.8-0.4,0.9-1.2,1.5
		c-0.8,0.6-0.8,0-2.6,0.4c-1.8,0.4-3.1,0.8-3.9,0.8s-2.5,0.6-3,0.9c-0.5,0.3,0.9,0.6-1.8,1.4c-2.7,0.8-3.4,0.6-4.1,1.7
		c-0.8,1-0.5,1.2-1,1.8c-0.5,0.6-2.1,3.2-2.8,2.6c-0.8-0.6-1.2-0.5-1.8-1.2c-0.6-0.6-1-1.5-1.4-2.1c-0.4-0.5-0.5-1.8-0.6-2.6
		c-0.1-0.8-1.3-2.6,0-2.3c1.3,0.3,2.1,0.1,2.5-0.1c0.4-0.3,0.8-1.2,0.8-1.2s-0.1-1.4-0.5-2.2c-0.4-0.8-0.1-1.4-0.8-2.2
		c-0.6-0.8-0.6-0.6-1.5-1.4c-0.9-0.8-0.6-1.2-2.1-1.3c-1.4-0.1-1.8-0.5-2.3-0.4s-2.2-0.9-0.4-1c1.8-0.1,3.5,0.1,3.5,0.1
		s2.3-1,1.5-1.2c-0.8-0.1,1.2-1.3-0.6-0.9s-3.9,0.9-4.4,1s-1.8,0.3-3.1,0.6c-1.3,0.4-2.8,0.3-3.6,1.2c-0.8,0.9,0,1-0.8,0.9
		c-0.8-0.1,0.6-0.9-1.2,0c-1.8,0.9-1.3,0.8-2.2,0.5c-0.9-0.3-1.5-0.6-1.5-0.6s1.2-0.1-0.5-0.3s-1.7-0.1-2.3-0.9
		c-0.6-0.8-0.3-0.8,0.1-1C322,78.9,322.2,78.4,322.2,78.4L322.2,78.4z"/>
</g>
<g id="Warstwa_6">
	<g>
		<path class="st1" d="M429.8,708H337c-16.6,0-30-13.4-30-30v-55.2c0-16.6,13.4-30,30-30h92.8c16.6,0,30,13.4,30,30V678
			C459.8,694.6,446.4,708,429.8,708z"/>
	</g>
	<g>
		<g>
			<path class="st1" d="M452,617.7c13.4,0,24.3,10.9,24.3,24.3v55.2c0,13.4-10.9,24.3-24.3,24.3h-92.8c-13.4,0-24.3-10.9-24.3-24.3
				V642c0-13.4,10.9-24.3,24.3-24.3H452 M452,612h-92.8c-16.6,0-30,13.4-30,30v55.2c0,16.6,13.4,30,30,30H452c16.6,0,30-13.4,30-30
				V642C482,625.4,468.6,612,452,612L452,612z"/>
		</g>
	</g>
</g>
<g id="Warstwa_3">
	<g transform="translate(-1263.2 -1267)">
		<path class="st1" d="M2840.2,1367.7c0,12.9-10.7,23.7-23.7,23.7s-23.7-10.7-23.7-23.7s10.7-23.7,23.7-23.7
			C2829.7,1344.3,2840.2,1354.7,2840.2,1367.7z"/>
		<path class="st1" d="M2800.4,1395.8c0.3,2.2,0.6,4.1,0.6,6.3c0,8.2-2.5,15.8-6.9,22.1h30c-0.6-2.2-0.9-4.7-0.9-7.3
			c0-6.9,2.2-13.6,6.3-18.6c-3.8,1.9-7.9,2.8-12.6,2.8C2810.8,1401.2,2805.1,1399,2800.4,1395.8L2800.4,1395.8z"/>
		<path class="st1" d="M2874.6,1417c0,12.3-10.1,22.4-22.4,22.4s-22.4-10.1-22.4-22.4c0-12.3,10.1-22.4,22.4-22.4
			S2874.6,1404.6,2874.6,1417z"/>
		<path class="st1" d="M2831.6,1438.1c-6.3,1.3-10.7,6.6-10.7,13.3v18.9h64.1v-18.9c0-6.6-4.4-12-10.7-13.3
			c-5.1,6.3-12.6,10.4-21.2,10.4C2844.6,1448.5,2836.7,1444.4,2831.6,1438.1L2831.6,1438.1L2831.6,1438.1L2831.6,1438.1z"/>
		<path class="st1" d="M2791.8,1402.1c0,15.8-12.6,28.4-28.4,28.4c-15.8,0-28.4-12.6-28.4-28.4c0-15.8,12.6-28.4,28.4-28.4
			C2778.9,1373.7,2791.8,1386.3,2791.8,1402.1z"/>
		<path class="st1" d="M2736.6,1429.3c-7.9,1.6-13.9,8.5-13.9,17.1v24h82.1v-24c0-8.5-6-15.5-13.9-17.1
			c-6.3,7.9-16.1,13.3-27.2,13.3S2743.2,1437.2,2736.6,1429.3C2736.9,1429.3,2736.6,1429.3,2736.6,1429.3L2736.6,1429.3
			L2736.6,1429.3z"/>
	</g>
</g>
<g id="Warstwa_4">
	<g>
		<path class="st1" d="M972.5,106.1c8.6,0,15.7-7,15.7-15.7s-7-15.7-15.7-15.7c-8.6,0-15.7,7-15.7,15.7S963.8,106.1,972.5,106.1z"/>
		<path class="st1" d="M931.4,161.2h13.8l8.3-30.3h3.4l-8.1,30.3h48.7l-8.7-30.3h3.5l4.6,14.8c2.2,6.3,7.7,7.7,12,2.4l16.9-20.4
			c5.3-6.9-4.3-14.1-9.8-8l-9.9,11.9c0,0.2-1.9-6.5-1.9-6.5c-2.3-8-9.9-15.9-21.3-15.9h-21.5c-10.1,0-18.1,8.8-19.7,14.4
			L931.4,161.2L931.4,161.2z"/>
		<path class="st1" d="M1012.4,171.9v-7.2H928v7.2H1012.4z"/>
		<path class="st1" d="M1012.4,236.9v-63.6h-75.2v63.6L1012.4,236.9L1012.4,236.9z"/>
		<path class="st1" d="M1063.1,79.8l-1.5-1.4l-39,41l1.5,1.4L1063.1,79.8z"/>
		<path class="st1" d="M1008.2,232.4v-55.1h-70.9v55.1L1008.2,232.4L1008.2,232.4z"/>
		<path class="st1" d="M1007.1,231.7v-53.8h-69.8v53.8H1007.1z"/>
		<path class="st1" d="M1011.5,237v-63.6h-83.1V237H1011.5z"/>
	</g>
</g>
<g id="Warstwa_5">
	<g>
		<g>
			<path class="st1" d="M1009.4,592h-83.9c-9.7,0-17.6,7.9-17.6,17.6v125.9c0,9.7,7.9,17.6,17.6,17.6h83.9c9.7,0,17.6-7.9,17.6-17.6
				V609.6C1027,599.9,1019.1,592,1009.4,592z M922.4,649.4c0-2.5,2-4.5,4.5-4.5h48c2.5,0,4.5,2,4.5,4.5v0.8c0,2.5-2,4.5-4.5,4.5h-48
				c-2.5,0-4.5-2-4.5-4.5V649.4L922.4,649.4z M1011,681.9c0,2.5-2,4.5-4.5,4.5h-79.7c-2.5,0-4.5-2-4.5-4.5v-0.8c0-2.5,2-4.5,4.5-4.5
				h79.7c2.5,0,4.5,2,4.5,4.5L1011,681.9L1011,681.9z M1012.4,621.9c0,2.5-2,4.5-4.5,4.5h-81.2c-2.5,0-4.5-2-4.5-4.5v-0.8
				c0-2.5,2-4.5,4.5-4.5h81.2c2.5,0,4.5,2,4.5,4.5L1012.4,621.9L1012.4,621.9z"/>
		</g>
	</g>
</g>
<g id="Warstwa_2">
	<path class="st2" d="M1501.8,610H1463c-6,0-10.7,3.9-9.9,8.4c2.8,16.3,15.8,50.9,75.3,51.5c70,0.6-4.2-48.2-20.1-58.1
		C1506.4,610.6,1504.2,610,1501.8,610z"/>
	<path class="st1" d="M1580.6,634.2h-76c-9.1,0-16.5-7.4-16.5-16.5v-25.9c0-9.1,7.4-16.5,16.5-16.5h76c9.1,0,16.5,7.4,16.5,16.5
		v25.9C1597.1,626.8,1589.7,634.2,1580.6,634.2z"/>
	<path class="st1" d="M1580,588c-9.5,0.2-19,0.4-28.5,0.3c-9.6-0.1-19.2-0.7-28.8-1c-10.3-0.3-20.5,0.6-30.7,1.3
		c-2.5,8.9-3.9,18.7-3.9,29c0,43.1,24.4,78,54.5,78c30.1,0,54.5-34.9,54.5-78c0-10.6-1.5-20.6-4.1-29.8
		C1588.7,587.8,1584.3,587.9,1580,588z"/>
	<rect x="1529.9" y="672.3" class="st1" width="25.4" height="60.8"/>
	<path class="st1" d="M1582.7,747.8v-9.1c0-7.6-3.5-13.8-7.9-13.8H1510c-4.4,0-7.9,6.2-7.9,13.8v9.1H1582.7z"/>
	<path class="st2" d="M1576.2,608h38.9c6,0,10.7,3.9,9.9,8.4c-2.8,16.3-15.8,50.9-75.3,51.5c-70,0.6,4.2-48.2,20.1-58.1
		C1571.5,608.6,1573.8,608,1576.2,608z"/>
</g>
<g id="Warstwa_7">
	<g>
		<path class="st3" d="M332.3,329.5c5,4.2,7.5,9.8,7.5,16.7c0,4.5-1.1,8.6-3.4,12.3c-2.3,3.7-5.7,6.7-10.3,8.9
			c-4.6,2.2-10.3,3.3-17.1,3.3c-5.2,0-10.4-0.7-15.4-2.1c-5.1-1.4-9.3-3.3-12.9-5.9l6.8-13.1c2.8,2.1,6.1,3.8,9.8,4.9
			c3.7,1.2,7.5,1.7,11.3,1.7c4.3,0,7.7-0.8,10.2-2.5c2.5-1.7,3.7-4.1,3.7-7.1c0-3.2-1.3-5.6-3.9-7.2c-2.6-1.6-7-2.4-13.4-2.4h-19
			l3.8-41.8h45.3v13.8h-31l-1.2,14.1h6C319.6,323.2,327.3,325.3,332.3,329.5z"/>
		<path class="st3" d="M362.1,366.3c-4.8-3-8.6-7.4-11.3-13.2c-2.7-5.8-4.1-12.6-4.1-20.6c0-8,1.4-14.9,4.1-20.6
			c2.7-5.8,6.5-10.2,11.3-13.2c4.8-3,10.3-4.6,16.4-4.6s11.6,1.5,16.4,4.6c4.8,3,8.6,7.4,11.3,13.2c2.7,5.8,4.1,12.6,4.1,20.6
			c0,8-1.4,14.9-4.1,20.6c-2.7,5.8-6.5,10.2-11.3,13.2c-4.8,3-10.3,4.6-16.4,4.6S367,369.3,362.1,366.3z M389.2,350.5
			c2.6-3.9,3.9-9.9,3.9-18c0-8.1-1.3-14.1-3.9-18c-2.6-3.9-6.1-5.8-10.7-5.8c-4.5,0-8,1.9-10.5,5.8c-2.6,3.9-3.9,9.9-3.9,18
			c0,8.1,1.3,14.1,3.9,18c2.6,3.9,6.1,5.8,10.5,5.8C383.1,356.3,386.6,354.4,389.2,350.5z"/>
		<path class="st3" d="M422.6,329.9c-3.4-3.7-5.1-8.7-5.1-14.9c0-6.2,1.7-11.2,5.1-14.9c3.4-3.7,7.9-5.6,13.3-5.6
			c5.4,0,9.9,1.9,13.3,5.6s5.1,8.7,5.1,14.9c0,6.2-1.7,11.2-5.1,14.9c-3.4,3.7-7.8,5.6-13.3,5.6C430.5,335.4,426,333.6,422.6,329.9z
			 M441.6,323.8c1.4-2,2.1-4.9,2.1-8.8c0-3.9-0.7-6.8-2.1-8.8c-1.4-2-3.3-3-5.7-3c-2.3,0-4.2,1-5.6,3c-1.4,2-2.1,4.9-2.1,8.7
			s0.7,6.7,2.1,8.7c1.4,2,3.3,3,5.6,3C438.3,326.7,440.2,325.7,441.6,323.8z M480.1,295.4h12.6l-50.7,74.2h-12.6L480.1,295.4z
			 M476.8,367.9c-2.8-1.7-5-4-6.5-7.2c-1.6-3.1-2.3-6.7-2.3-10.8c0-4.1,0.8-7.7,2.3-10.8c1.6-3.1,3.7-5.5,6.5-7.2
			c2.8-1.7,6-2.5,9.5-2.5c5.4,0,9.9,1.9,13.3,5.6c3.4,3.7,5.1,8.7,5.1,14.9c0,6.2-1.7,11.2-5.1,14.9c-3.4,3.7-7.9,5.6-13.3,5.6
			C482.7,370.4,479.6,369.6,476.8,367.9z M491.9,358.7c1.4-2,2.1-4.9,2.1-8.7s-0.7-6.7-2.1-8.7s-3.3-3-5.7-3c-2.3,0-4.2,1-5.6,3
			c-1.4,2-2.1,4.9-2.1,8.8c0,3.9,0.7,6.8,2.1,8.8c1.4,2,3.3,3,5.6,3C488.7,361.7,490.6,360.7,491.9,358.7z"/>
	</g>
	<g>
		<path class="st3" d="M990.4,329.6c5,4.2,7.5,9.8,7.5,16.7c0,4.5-1.1,8.6-3.4,12.3c-2.3,3.7-5.7,6.7-10.3,8.9
			c-4.6,2.2-10.3,3.3-17.1,3.3c-5.2,0-10.4-0.7-15.4-2.1c-5.1-1.4-9.3-3.3-12.9-5.9l6.8-13.1c2.8,2.1,6.1,3.8,9.8,4.9
			c3.7,1.2,7.5,1.7,11.3,1.7c4.3,0,7.7-0.8,10.2-2.5c2.5-1.7,3.7-4.1,3.7-7.1c0-3.2-1.3-5.6-3.9-7.2c-2.6-1.6-7-2.4-13.4-2.4h-19
			l3.8-41.8h45.3v13.8h-31l-1.2,14.1h6C977.7,323.4,985.5,325.4,990.4,329.6z"/>
	</g>
	<g>
		<path class="st3" d="M1482.3,302.7v74.2h-17.2v-60.4h-14.8v-13.8H1482.3z"/>
		<path class="st3" d="M1510.6,373.6c-4.8-3-8.6-7.4-11.3-13.2c-2.7-5.8-4.1-12.6-4.1-20.6c0-8,1.4-14.9,4.1-20.6
			c2.7-5.8,6.5-10.2,11.3-13.2c4.8-3,10.3-4.6,16.4-4.6c6.1,0,11.6,1.5,16.4,4.6c4.8,3,8.6,7.4,11.3,13.2c2.7,5.8,4.1,12.6,4.1,20.6
			c0,8-1.4,14.9-4.1,20.6c-2.7,5.8-6.5,10.2-11.3,13.2c-4.8,3-10.3,4.6-16.4,4.6C1520.9,378.1,1515.4,376.6,1510.6,373.6z
			 M1537.7,357.8c2.6-3.9,3.9-9.9,3.9-18c0-8.1-1.3-14.1-3.9-18c-2.6-3.9-6.1-5.8-10.7-5.8c-4.5,0-8,1.9-10.5,5.8
			c-2.6,3.9-3.9,9.9-3.9,18c0,8.1,1.3,14.1,3.9,18c2.6,3.9,6.1,5.8,10.5,5.8C1531.6,363.6,1535.1,361.7,1537.7,357.8z"/>
		<path class="st3" d="M1582.6,373.6c-4.8-3-8.6-7.4-11.3-13.2c-2.7-5.8-4.1-12.6-4.1-20.6c0-8,1.4-14.9,4.1-20.6
			c2.7-5.8,6.5-10.2,11.3-13.2c4.8-3,10.3-4.6,16.4-4.6c6.1,0,11.6,1.5,16.4,4.6c4.8,3,8.6,7.4,11.3,13.2c2.7,5.8,4.1,12.6,4.1,20.6
			c0,8-1.4,14.9-4.1,20.6c-2.7,5.8-6.5,10.2-11.3,13.2c-4.8,3-10.3,4.6-16.4,4.6C1592.9,378.1,1587.4,376.6,1582.6,373.6z
			 M1609.7,357.8c2.6-3.9,3.9-9.9,3.9-18c0-8.1-1.3-14.1-3.9-18c-2.6-3.9-6.1-5.8-10.7-5.8c-4.5,0-8,1.9-10.5,5.8
			c-2.6,3.9-3.9,9.9-3.9,18c0,8.1,1.3,14.1,3.9,18c2.6,3.9,6.1,5.8,10.5,5.8C1603.6,363.6,1607.1,361.7,1609.7,357.8z"/>
	</g>
	<g>
		<path class="st3" d="M391.4,809.5v11.1l-27.6,63.1h-18.7l26.6-60.2h-24.6v12.1h-15.3v-26.1H391.4z"/>
		<path class="st3" d="M445.8,843.6c5,4.2,7.5,9.8,7.5,16.7c0,4.5-1.1,8.6-3.4,12.3c-2.3,3.7-5.7,6.7-10.3,8.9
			c-4.6,2.2-10.3,3.3-17.1,3.3c-5.2,0-10.4-0.7-15.4-2.1c-5.1-1.4-9.3-3.3-12.9-5.9l6.8-13.1c2.8,2.1,6.1,3.8,9.8,4.9
			c3.7,1.2,7.5,1.7,11.3,1.7c4.3,0,7.7-0.8,10.2-2.5c2.5-1.7,3.7-4.1,3.7-7.1c0-3.2-1.3-5.6-3.9-7.2c-2.6-1.6-7-2.4-13.4-2.4h-19
			l3.8-41.8h45.3v13.8h-31l-1.2,14.1h6C433.1,837.4,440.8,839.4,445.8,843.6z"/>
	</g>
	<g>
		<path class="st3" d="M955.7,845.4c3.5,3.8,5.2,8.5,5.2,14c0,4.3-1.1,8.3-3.4,11.9c-2.3,3.6-5.7,6.6-10.3,8.7
			c-4.6,2.2-10.3,3.3-17,3.3c-5.2,0-10.4-0.7-15.4-2.1c-5.1-1.4-9.3-3.3-12.9-5.9l6.7-13.1c2.8,2.1,6.1,3.8,9.8,4.9
			s7.5,1.7,11.4,1.7c4.3,0,7.7-0.8,10.2-2.5c2.5-1.7,3.7-4,3.7-7c0-6.1-4.6-9.1-13.9-9.1h-7.8v-11.3l15.3-17.3h-31.6v-13.8h51.9V819
			l-16.7,19.1C947.2,839.2,952.2,841.6,955.7,845.4z"/>
		<path class="st3" d="M1017.5,838.4c3.9,1.9,7,4.6,9.2,8.1c2.3,3.5,3.4,7.5,3.4,12.1c0,4.9-1.2,9.3-3.7,13
			c-2.5,3.7-5.8,6.6-10.1,8.6c-4.3,2-9,3-14.3,3c-10.4,0-18.5-3.2-24.4-9.5c-5.9-6.4-8.8-15.4-8.8-27.2c0-8.4,1.6-15.6,4.8-21.6
			c3.2-6,7.6-10.6,13.3-13.7c5.7-3.1,12.3-4.7,19.8-4.7c4,0,7.8,0.4,11.4,1.3c3.6,0.9,6.7,2.1,9.3,3.8l-6.4,12.6
			c-3.7-2.5-8.3-3.7-13.9-3.7c-6.3,0-11.3,1.8-14.9,5.5c-3.7,3.7-5.7,9-5.9,16c4.4-4.4,10.5-6.6,18.3-6.6
			C1009.3,835.6,1013.6,836.5,1017.5,838.4z M1010,867.6c2.3-2,3.4-4.7,3.4-8.1c0-3.4-1.1-6.1-3.4-8.1c-2.3-2-5.4-3-9.2-3
			c-3.7,0-6.8,1-9.2,3.1c-2.4,2.1-3.6,4.8-3.6,8c0,3.3,1.2,5.9,3.5,8c2.3,2.1,5.5,3.1,9.5,3.1C1004.7,870.5,1007.7,869.5,1010,867.6
			z"/>
	</g>
	<g>
		<path class="st3" d="M1534.1,846.9c3.5,3.8,5.2,8.5,5.2,14c0,4.3-1.1,8.3-3.4,11.9c-2.3,3.6-5.7,6.6-10.3,8.7
			c-4.6,2.2-10.3,3.3-17,3.3c-5.2,0-10.4-0.7-15.4-2.1c-5.1-1.4-9.3-3.3-12.9-5.9l6.7-13.1c2.8,2.1,6.1,3.8,9.8,4.9
			s7.5,1.7,11.4,1.7c4.3,0,7.7-0.8,10.2-2.5c2.5-1.7,3.7-4,3.7-7c0-6.1-4.6-9.1-13.9-9.1h-7.8v-11.3l15.3-17.3h-31.6v-13.8h51.9
			v11.1l-16.7,19.1C1525.6,840.7,1530.6,843.2,1534.1,846.9z"/>
		<path class="st3" d="M1595.9,840c3.9,1.9,7,4.6,9.2,8.1c2.3,3.5,3.4,7.5,3.4,12.1c0,4.9-1.2,9.3-3.7,13c-2.5,3.7-5.8,6.6-10.1,8.6
			c-4.3,2-9,3-14.3,3c-10.4,0-18.5-3.2-24.4-9.5c-5.9-6.4-8.8-15.4-8.8-27.2c0-8.4,1.6-15.6,4.8-21.6c3.2-6,7.6-10.6,13.3-13.7
			c5.7-3.1,12.3-4.7,19.8-4.7c4,0,7.8,0.4,11.4,1.3c3.6,0.9,6.7,2.1,9.3,3.8l-6.4,12.6c-3.7-2.5-8.3-3.7-13.9-3.7
			c-6.3,0-11.3,1.8-14.9,5.5c-3.7,3.7-5.7,9-5.9,16c4.4-4.4,10.5-6.6,18.3-6.6C1587.7,837.1,1592,838.1,1595.9,840z M1588.4,869.1
			c2.3-2,3.4-4.7,3.4-8.1c0-3.4-1.1-6.1-3.4-8.1c-2.3-2-5.4-3-9.2-3c-3.7,0-6.8,1-9.2,3.1c-2.4,2.1-3.6,4.8-3.6,8
			c0,3.3,1.2,5.9,3.5,8c2.3,2.1,5.5,3.1,9.5,3.1C1583.1,872.1,1586.1,871.1,1588.4,869.1z"/>
	</g>
</g>
<g id="Warstwa_8">
	<g>
		<g>
			<line class="st4" x1="680.5" y1="61" x2="680.5" y2="66"/>
			<line class="st5" x1="680.5" y1="70.9" x2="680.5" y2="512"/>
			<line class="st4" x1="680.5" y1="514.5" x2="680.5" y2="519.5"/>
		</g>
	</g>
	<g>
		<g>
			<line class="st4" x1="1253.4" y1="61.1" x2="1253.4" y2="66.1"/>
			<line class="st5" x1="1253.4" y1="71.1" x2="1253.4" y2="512.2"/>
			<line class="st4" x1="1253.4" y1="514.6" x2="1253.4" y2="519.6"/>
		</g>
	</g>
	<g>
		<g>
			<line class="st4" x1="680.7" y1="567.2" x2="680.7" y2="572.2"/>
			<line class="st5" x1="680.7" y1="577.1" x2="680.7" y2="1018.2"/>
			<line class="st4" x1="680.7" y1="1020.7" x2="680.7" y2="1025.7"/>
		</g>
	</g>
	<g>
		<g>
			<line class="st4" x1="1253.7" y1="567.2" x2="1253.7" y2="572.2"/>
			<line class="st5" x1="1253.7" y1="577.1" x2="1253.7" y2="1018.2"/>
			<line class="st4" x1="1253.7" y1="1020.7" x2="1253.7" y2="1025.7"/>
		</g>
	</g>
</g>
<g id="Warstwa_10">
	<g>
		<path d="M251.3,436.3c-1.9-1.1-3.3-2.5-4.4-4.4c-1.1-1.9-1.6-4-1.6-6.3c0-2.4,0.5-4.5,1.6-6.3c1.1-1.9,2.5-3.3,4.4-4.4
			c1.9-1,4-1.6,6.3-1.6s4.4,0.5,6.3,1.6c1.9,1,3.3,2.5,4.4,4.4c1.1,1.9,1.6,4,1.6,6.3c0,2.4-0.5,4.5-1.6,6.3
			c-1.1,1.9-2.5,3.3-4.4,4.4c-1.9,1.1-4,1.6-6.3,1.6S253.2,437.4,251.3,436.3z M262.3,433.8c1.4-0.8,2.4-1.9,3.2-3.3
			c0.8-1.4,1.1-3.1,1.1-4.9c0-1.8-0.4-3.5-1.1-4.9c-0.8-1.4-1.8-2.6-3.2-3.3c-1.4-0.8-2.9-1.2-4.6-1.2c-1.7,0-3.3,0.4-4.6,1.2
			c-1.4,0.8-2.4,1.9-3.2,3.3c-0.8,1.4-1.2,3.1-1.2,4.9c0,1.8,0.4,3.5,1.2,4.9c0.8,1.4,1.9,2.6,3.2,3.3c1.4,0.8,2.9,1.2,4.6,1.2
			C259.4,435,260.9,434.6,262.3,433.8z"/>
		<path d="M281.4,407.2c-0.7,0.8-1.1,1.9-1.1,3.4v2.9h7.5v2.8h-7.4v21.4h-3.3v-21.4h-4.3v-2.8h4.3v-3c0-2.2,0.6-4,1.9-5.2
			c1.3-1.3,3.1-1.9,5.4-1.9c0.9,0,1.8,0.1,2.7,0.4c0.9,0.3,1.6,0.6,2.2,1.1l-1.1,2.4c-1-0.8-2.1-1.2-3.6-1.2
			C283.2,406.1,282.1,406.4,281.4,407.2z"/>
		<path d="M323.8,415.9c1.8,1.8,2.7,4.3,2.7,7.7v14h-3.3V424c0-2.5-0.6-4.4-1.9-5.8c-1.3-1.3-3.1-2-5.4-2c-2.6,0-4.7,0.8-6.2,2.3
			c-1.5,1.5-2.3,3.7-2.3,6.4v12.7h-3.3v-24.2h3.1v4.5c0.9-1.5,2.1-2.6,3.7-3.4c1.6-0.8,3.4-1.2,5.5-1.2
			C319.6,413.3,322,414.2,323.8,415.9z"/>
		<path d="M339.1,436.3c-1.9-1.1-3.3-2.5-4.4-4.4c-1.1-1.9-1.6-4-1.6-6.3c0-2.4,0.5-4.5,1.6-6.3c1.1-1.9,2.5-3.3,4.4-4.4
			c1.9-1,4-1.6,6.3-1.6s4.4,0.5,6.3,1.6c1.9,1,3.3,2.5,4.4,4.4c1.1,1.9,1.6,4,1.6,6.3c0,2.4-0.5,4.5-1.6,6.3
			c-1.1,1.9-2.5,3.3-4.4,4.4c-1.9,1.1-4,1.6-6.3,1.6S340.9,437.4,339.1,436.3z M350,433.8c1.4-0.8,2.4-1.9,3.2-3.3
			c0.8-1.4,1.1-3.1,1.1-4.9c0-1.8-0.4-3.5-1.1-4.9c-0.8-1.4-1.8-2.6-3.2-3.3c-1.4-0.8-2.9-1.2-4.6-1.2c-1.7,0-3.3,0.4-4.6,1.2
			c-1.4,0.8-2.4,1.9-3.2,3.3c-0.8,1.4-1.2,3.1-1.2,4.9c0,1.8,0.4,3.5,1.2,4.9c0.8,1.4,1.9,2.6,3.2,3.3c1.4,0.8,2.9,1.2,4.6,1.2
			C347.1,435,348.6,434.6,350,433.8z"/>
		<path d="M383.9,415.9c1.8,1.8,2.7,4.3,2.7,7.7v14h-3.3V424c0-2.5-0.6-4.4-1.9-5.8c-1.3-1.3-3.1-2-5.4-2c-2.6,0-4.7,0.8-6.2,2.3
			c-1.5,1.5-2.3,3.7-2.3,6.4v12.7h-3.3v-24.2h3.1v4.5c0.9-1.5,2.1-2.6,3.7-3.4c1.6-0.8,3.4-1.2,5.5-1.2
			C379.7,413.3,382.1,414.2,383.9,415.9z"/>
		<path d="M393.7,423.8h12.1v2.9h-12.1V423.8z"/>
		<path d="M431.7,414.8c1.8,1,3.3,2.5,4.3,4.3c1,1.9,1.6,4,1.6,6.4c0,2.4-0.5,4.6-1.6,6.4c-1,1.9-2.5,3.3-4.3,4.3
			c-1.8,1-3.9,1.5-6.2,1.5c-2,0-3.7-0.4-5.3-1.2c-1.6-0.8-2.9-2-3.9-3.6v13.5H413v-33.1h3.1v4.8c1-1.6,2.3-2.8,3.9-3.7
			c1.6-0.9,3.4-1.3,5.5-1.3C427.8,413.3,429.8,413.8,431.7,414.8z M429.9,433.8c1.4-0.8,2.5-1.9,3.2-3.3c0.8-1.4,1.2-3.1,1.2-4.9
			c0-1.8-0.4-3.5-1.2-4.9c-0.8-1.4-1.9-2.5-3.2-3.3c-1.4-0.8-2.9-1.2-4.6-1.2c-1.7,0-3.3,0.4-4.6,1.2c-1.4,0.8-2.4,1.9-3.2,3.3
			c-0.8,1.4-1.2,3.1-1.2,4.9c0,1.8,0.4,3.5,1.2,4.9c0.8,1.4,1.9,2.6,3.2,3.3c1.4,0.8,2.9,1.2,4.6,1.2
			C426.9,435,428.5,434.6,429.9,433.8z"/>
		<path d="M447.8,436.3c-1.9-1.1-3.3-2.5-4.4-4.4c-1.1-1.9-1.6-4-1.6-6.3c0-2.4,0.5-4.5,1.6-6.3c1.1-1.9,2.5-3.3,4.4-4.4
			c1.9-1,4-1.6,6.3-1.6s4.4,0.5,6.3,1.6c1.9,1,3.3,2.5,4.4,4.4c1.1,1.9,1.6,4,1.6,6.3c0,2.4-0.5,4.5-1.6,6.3
			c-1.1,1.9-2.5,3.3-4.4,4.4c-1.9,1.1-4,1.6-6.3,1.6S449.7,437.4,447.8,436.3z M458.7,433.8c1.4-0.8,2.4-1.9,3.2-3.3
			c0.8-1.4,1.1-3.1,1.1-4.9c0-1.8-0.4-3.5-1.1-4.9c-0.8-1.4-1.8-2.6-3.2-3.3c-1.4-0.8-2.9-1.2-4.6-1.2c-1.7,0-3.3,0.4-4.6,1.2
			c-1.4,0.8-2.4,1.9-3.2,3.3c-0.8,1.4-1.2,3.1-1.2,4.9c0,1.8,0.4,3.5,1.2,4.9c0.8,1.4,1.9,2.6,3.2,3.3c1.4,0.8,2.9,1.2,4.6,1.2
			C455.8,435,457.4,434.6,458.7,433.8z"/>
		<path d="M473.1,403.5h3.3v34.1h-3.3V403.5z"/>
		<path d="M485.4,407.5c-0.5-0.5-0.7-1-0.7-1.7c0-0.6,0.2-1.1,0.7-1.6s1-0.7,1.7-0.7c0.7,0,1.2,0.2,1.7,0.7c0.5,0.4,0.7,1,0.7,1.6
			c0,0.7-0.2,1.2-0.7,1.7c-0.5,0.5-1,0.7-1.7,0.7C486.4,408.2,485.8,407.9,485.4,407.5z M485.4,413.5h3.3v24.2h-3.3V413.5z"/>
		<path d="M498.7,437c-1.8-0.6-3.2-1.3-4.2-2.1l1.5-2.6c1,0.8,2.3,1.4,3.8,2c1.5,0.5,3.1,0.8,4.8,0.8c2.2,0,3.8-0.3,4.9-1
			c1.1-0.7,1.6-1.7,1.6-2.9c0-0.9-0.3-1.6-0.9-2.1s-1.3-0.9-2.2-1.1c-0.9-0.3-2.1-0.5-3.5-0.8c-2-0.4-3.5-0.7-4.7-1.1
			c-1.2-0.4-2.2-1-3.1-2c-0.8-0.9-1.3-2.2-1.3-3.8c0-2,0.8-3.7,2.5-5c1.7-1.3,4-1.9,7-1.9c1.6,0,3.1,0.2,4.7,0.6
			c1.6,0.4,2.9,1,3.9,1.6l-1.4,2.6c-2-1.4-4.4-2.1-7.1-2.1c-2.1,0-3.7,0.4-4.7,1.1c-1.1,0.7-1.6,1.7-1.6,2.9c0,0.9,0.3,1.7,0.9,2.2
			c0.6,0.6,1.3,1,2.2,1.2c0.9,0.3,2.1,0.5,3.7,0.8c1.9,0.4,3.5,0.7,4.6,1.1c1.2,0.4,2.2,1,3,1.9c0.8,0.9,1.2,2.1,1.2,3.7
			c0,2.1-0.9,3.8-2.6,5c-1.8,1.2-4.2,1.9-7.3,1.9C502.3,437.9,500.5,437.6,498.7,437z"/>
		<path d="M539.9,415.9c1.8,1.8,2.7,4.3,2.7,7.7v14h-3.3V424c0-2.5-0.6-4.4-1.9-5.8c-1.3-1.3-3.1-2-5.4-2c-2.6,0-4.7,0.8-6.2,2.3
			c-1.5,1.5-2.3,3.7-2.3,6.4v12.7h-3.3v-34.1h3.3v14.2c0.9-1.4,2.1-2.5,3.7-3.3c1.6-0.8,3.4-1.1,5.4-1.1
			C535.7,413.3,538.1,414.2,539.9,415.9z"/>
		<path d="M279.7,470c1.8,1,3.3,2.5,4.3,4.3c1,1.9,1.6,4,1.6,6.4c0,2.4-0.5,4.6-1.6,6.4c-1,1.9-2.5,3.3-4.3,4.3
			c-1.8,1-3.9,1.5-6.2,1.5c-2,0-3.7-0.4-5.3-1.2c-1.6-0.8-2.9-2-3.9-3.6v13.5H261v-33.1h3.1v4.8c1-1.6,2.3-2.8,3.9-3.7
			c1.6-0.9,3.4-1.3,5.5-1.3C275.8,468.5,277.8,469,279.7,470z M277.9,489c1.4-0.8,2.5-1.9,3.2-3.3c0.8-1.4,1.2-3.1,1.2-4.9
			c0-1.8-0.4-3.5-1.2-4.9c-0.8-1.4-1.9-2.5-3.2-3.3c-1.4-0.8-2.9-1.2-4.6-1.2c-1.7,0-3.3,0.4-4.6,1.2c-1.4,0.8-2.4,1.9-3.2,3.3
			c-0.8,1.4-1.2,3.1-1.2,4.9c0,1.8,0.4,3.5,1.2,4.9c0.8,1.4,1.9,2.6,3.2,3.3c1.4,0.8,2.9,1.2,4.6,1.2
			C274.9,490.2,276.5,489.8,277.9,489z"/>
		<path d="M307.8,470.8c1.7,1.6,2.5,3.9,2.5,7v15h-3.1v-3.8c-0.7,1.3-1.8,2.2-3.2,2.9c-1.4,0.7-3.1,1.1-5.1,1.1
			c-2.7,0-4.8-0.6-6.4-1.9c-1.6-1.3-2.4-3-2.4-5.1c0-2.1,0.7-3.7,2.2-5c1.5-1.3,3.9-1.9,7.1-1.9h7.7v-1.5c0-2.1-0.6-3.7-1.7-4.8
			c-1.2-1.1-2.9-1.6-5.1-1.6c-1.5,0-3,0.3-4.4,0.8s-2.6,1.2-3.6,2.1l-1.5-2.4c1.2-1,2.7-1.8,4.4-2.4c1.7-0.6,3.5-0.9,5.4-0.9
			C303.7,468.5,306.1,469.3,307.8,470.8z M304.1,489.2c1.3-0.8,2.3-2.1,2.9-3.7v-4h-7.6c-4.1,0-6.2,1.4-6.2,4.3
			c0,1.4,0.5,2.5,1.6,3.3c1.1,0.8,2.6,1.2,4.5,1.2C301.2,490.5,302.8,490.1,304.1,489.2z"/>
		<path d="M325.8,469.7c1.5-0.8,3.4-1.2,5.6-1.2v3.2l-0.8,0c-2.5,0-4.5,0.8-6,2.3c-1.4,1.6-2.2,3.8-2.2,6.6v12.3h-3.3v-24.2h3.1v4.7
			C323.1,471.8,324.3,470.5,325.8,469.7z"/>
		<path d="M351.1,491.4c-0.6,0.6-1.4,1-2.3,1.3c-0.9,0.3-1.8,0.4-2.8,0.4c-2.3,0-4-0.6-5.2-1.8s-1.8-3-1.8-5.2v-14.6h-4.3v-2.8h4.3
			v-5.3h3.3v5.3h7.4v2.8h-7.4v14.4c0,1.4,0.4,2.5,1.1,3.3c0.7,0.8,1.8,1.1,3.1,1.1c0.7,0,1.3-0.1,2-0.3c0.6-0.2,1.2-0.5,1.6-0.9
			L351.1,491.4z"/>
		<path d="M357,462.7c-0.5-0.5-0.7-1-0.7-1.7c0-0.6,0.2-1.1,0.7-1.6s1-0.7,1.7-0.7c0.7,0,1.2,0.2,1.7,0.7c0.5,0.4,0.7,1,0.7,1.6
			c0,0.7-0.2,1.2-0.7,1.7c-0.5,0.5-1,0.7-1.7,0.7C358,463.4,357.4,463.1,357,462.7z M357,468.7h3.3v24.2H357V468.7z"/>
		<path d="M373,491.5c-1.9-1-3.4-2.5-4.4-4.4c-1.1-1.9-1.6-4-1.6-6.4c0-2.4,0.5-4.5,1.6-6.3c1.1-1.9,2.6-3.3,4.4-4.4
			c1.9-1,4-1.6,6.4-1.6c2.1,0,3.9,0.4,5.6,1.2c1.6,0.8,2.9,2,3.9,3.6l-2.4,1.7c-0.8-1.2-1.8-2.1-3-2.7c-1.2-0.6-2.6-0.9-4-0.9
			c-1.7,0-3.3,0.4-4.7,1.2c-1.4,0.8-2.5,1.9-3.3,3.3c-0.8,1.4-1.2,3.1-1.2,4.9c0,1.9,0.4,3.5,1.2,4.9c0.8,1.4,1.9,2.5,3.3,3.3
			c1.4,0.8,3,1.2,4.7,1.2c1.4,0,2.8-0.3,4-0.9c1.2-0.6,2.2-1.5,3-2.7l2.4,1.7c-1,1.6-2.3,2.8-3.9,3.6c-1.7,0.8-3.5,1.2-5.6,1.2
			C377,493.1,374.9,492.6,373,491.5z"/>
		<path d="M395.2,462.7c-0.5-0.5-0.7-1-0.7-1.7c0-0.6,0.2-1.1,0.7-1.6s1-0.7,1.7-0.7c0.7,0,1.2,0.2,1.7,0.7c0.5,0.4,0.7,1,0.7,1.6
			c0,0.7-0.2,1.2-0.7,1.7c-0.5,0.5-1,0.7-1.7,0.7C396.3,463.4,395.7,463.1,395.2,462.7z M395.3,468.7h3.3v24.2h-3.3V468.7z"/>
		<path d="M426.3,470c1.8,1,3.3,2.5,4.3,4.3c1,1.9,1.6,4,1.6,6.4c0,2.4-0.5,4.6-1.6,6.4c-1,1.9-2.5,3.3-4.3,4.3
			c-1.8,1-3.9,1.5-6.2,1.5c-2,0-3.7-0.4-5.3-1.2c-1.6-0.8-2.9-2-3.9-3.6v13.5h-3.3v-33.1h3.1v4.8c1-1.6,2.3-2.8,3.9-3.7
			c1.6-0.9,3.4-1.3,5.5-1.3C422.4,468.5,424.5,469,426.3,470z M424.5,489c1.4-0.8,2.5-1.9,3.2-3.3c0.8-1.4,1.2-3.1,1.2-4.9
			c0-1.8-0.4-3.5-1.2-4.9c-0.8-1.4-1.9-2.5-3.2-3.3c-1.4-0.8-2.9-1.2-4.6-1.2c-1.7,0-3.3,0.4-4.6,1.2c-1.4,0.8-2.4,1.9-3.2,3.3
			c-0.8,1.4-1.2,3.1-1.2,4.9c0,1.8,0.4,3.5,1.2,4.9c0.8,1.4,1.9,2.6,3.2,3.3c1.4,0.8,2.9,1.2,4.6,1.2
			C421.6,490.2,423.1,489.8,424.5,489z"/>
		<path d="M454.5,470.8c1.7,1.6,2.5,3.9,2.5,7v15h-3.1v-3.8c-0.7,1.3-1.8,2.2-3.2,2.9c-1.4,0.7-3.1,1.1-5.1,1.1
			c-2.7,0-4.8-0.6-6.4-1.9c-1.6-1.3-2.4-3-2.4-5.1c0-2.1,0.7-3.7,2.2-5c1.5-1.3,3.9-1.9,7.1-1.9h7.7v-1.5c0-2.1-0.6-3.7-1.7-4.8
			c-1.2-1.1-2.9-1.6-5.1-1.6c-1.5,0-3,0.3-4.4,0.8s-2.6,1.2-3.6,2.1l-1.5-2.4c1.2-1,2.7-1.8,4.4-2.4c1.7-0.6,3.5-0.9,5.4-0.9
			C450.3,468.5,452.8,469.3,454.5,470.8z M450.8,489.2c1.3-0.8,2.3-2.1,2.9-3.7v-4h-7.6c-4.1,0-6.2,1.4-6.2,4.3
			c0,1.4,0.5,2.5,1.6,3.3c1.1,0.8,2.6,1.2,4.5,1.2C447.9,490.5,449.5,490.1,450.8,489.2z"/>
		<path d="M485.4,471.1c1.8,1.8,2.7,4.3,2.7,7.7v14h-3.3v-13.7c0-2.5-0.6-4.4-1.9-5.8c-1.3-1.3-3.1-2-5.4-2c-2.6,0-4.7,0.8-6.2,2.3
			c-1.5,1.5-2.3,3.7-2.3,6.4v12.7h-3.3v-24.2h3.1v4.5c0.9-1.5,2.1-2.6,3.7-3.4c1.6-0.8,3.4-1.2,5.5-1.2
			C481.2,468.5,483.6,469.4,485.4,471.1z"/>
		<path d="M509.7,491.4c-0.6,0.6-1.4,1-2.3,1.3c-0.9,0.3-1.8,0.4-2.8,0.4c-2.3,0-4-0.6-5.2-1.8s-1.8-3-1.8-5.2v-14.6h-4.3v-2.8h4.3
			v-5.3h3.3v5.3h7.4v2.8h-7.4v14.4c0,1.4,0.4,2.5,1.1,3.3c0.7,0.8,1.8,1.1,3.1,1.1c0.7,0,1.3-0.1,2-0.3c0.6-0.2,1.2-0.5,1.6-0.9
			L509.7,491.4z"/>
		<path d="M516.5,492.2c-1.8-0.6-3.2-1.3-4.2-2.1l1.5-2.6c1,0.8,2.3,1.4,3.8,2c1.5,0.5,3.1,0.8,4.8,0.8c2.2,0,3.8-0.3,4.9-1
			c1.1-0.7,1.6-1.7,1.6-2.9c0-0.9-0.3-1.6-0.9-2.1s-1.3-0.9-2.2-1.1c-0.9-0.3-2.1-0.5-3.5-0.8c-2-0.4-3.5-0.7-4.7-1.1
			c-1.2-0.4-2.2-1-3.1-2c-0.8-0.9-1.3-2.2-1.3-3.8c0-2,0.8-3.7,2.5-5c1.7-1.3,4-1.9,7-1.9c1.6,0,3.1,0.2,4.7,0.6
			c1.6,0.4,2.9,1,3.9,1.6l-1.4,2.6c-2-1.4-4.4-2.1-7.1-2.1c-2.1,0-3.7,0.4-4.7,1.1c-1.1,0.7-1.6,1.7-1.6,2.9c0,0.9,0.3,1.7,0.9,2.2
			c0.6,0.6,1.3,1,2.2,1.2c0.9,0.3,2.1,0.5,3.7,0.8c1.9,0.4,3.5,0.7,4.6,1.1c1.2,0.4,2.2,1,3,1.9c0.8,0.9,1.2,2.1,1.2,3.7
			c0,2.1-0.9,3.8-2.6,5c-1.8,1.2-4.2,1.9-7.3,1.9C520.2,493.1,518.3,492.8,516.5,492.2z"/>
	</g>
	<g>
		<path d="M841.6,414.4v20.8c0,4-1,7-2.9,8.9c-2,1.9-4.9,2.9-8.9,2.9c-2.2,0-4.3-0.3-6.2-1c-2-0.6-3.6-1.5-4.8-2.7l1.6-2.4
			c1.1,1,2.5,1.8,4.2,2.4c1.6,0.6,3.4,0.9,5.2,0.9c3,0,5.2-0.7,6.6-2.1c1.4-1.4,2.1-3.6,2.1-6.5v-3c-1,1.5-2.3,2.6-3.9,3.4
			c-1.6,0.8-3.4,1.2-5.3,1.2c-2.2,0-4.2-0.5-6.1-1.5c-1.8-1-3.2-2.3-4.3-4.1s-1.6-3.7-1.6-6c0-2.2,0.5-4.2,1.6-5.9
			c1-1.7,2.5-3.1,4.3-4.1c1.8-1,3.8-1.4,6.1-1.4c2,0,3.8,0.4,5.4,1.2c1.6,0.8,2.9,2,3.9,3.5v-4.5H841.6z M834.1,433.3
			c1.4-0.7,2.5-1.8,3.2-3.1c0.8-1.3,1.1-2.8,1.1-4.5c0-1.7-0.4-3.2-1.1-4.5c-0.8-1.3-1.8-2.3-3.2-3.1c-1.4-0.7-2.9-1.1-4.7-1.1
			c-1.7,0-3.2,0.4-4.6,1.1c-1.4,0.7-2.4,1.7-3.2,3.1c-0.8,1.3-1.1,2.8-1.1,4.5c0,1.7,0.4,3.2,1.1,4.5c0.8,1.3,1.8,2.3,3.2,3.1
			c1.4,0.7,2.9,1.1,4.6,1.1S832.7,434,834.1,433.3z"/>
		<path d="M871.9,414.4v23.7h-3.1v-4.3c-0.8,1.4-2,2.6-3.5,3.4c-1.5,0.8-3.1,1.2-5,1.2c-3.1,0-5.5-0.9-7.3-2.6
			c-1.8-1.7-2.7-4.3-2.7-7.6v-13.7h3.2v13.4c0,2.5,0.6,4.4,1.8,5.7c1.2,1.3,3,1.9,5.3,1.9c2.5,0,4.5-0.8,5.9-2.3
			c1.4-1.5,2.2-3.6,2.2-6.3v-12.4H871.9z"/>
		<path d="M901.4,427.3h-19.8c0.2,2.5,1.1,4.4,2.8,6c1.7,1.5,3.9,2.3,6.5,2.3c1.5,0,2.8-0.3,4-0.8c1.2-0.5,2.3-1.3,3.2-2.3l1.8,2.1
			c-1.1,1.3-2.4,2.2-3.9,2.9c-1.6,0.7-3.3,1-5.2,1c-2.4,0-4.6-0.5-6.5-1.6c-1.9-1-3.3-2.5-4.4-4.3c-1.1-1.8-1.6-3.9-1.6-6.2
			c0-2.3,0.5-4.4,1.5-6.2c1-1.8,2.4-3.3,4.1-4.3c1.8-1,3.7-1.5,5.9-1.5s4.2,0.5,5.9,1.5c1.7,1,3.1,2.4,4.1,4.3
			c1,1.8,1.5,3.9,1.5,6.2L901.4,427.3z M884.2,419.2c-1.5,1.5-2.4,3.4-2.6,5.7h16.8c-0.2-2.3-1.1-4.2-2.6-5.7
			c-1.5-1.5-3.5-2.2-5.8-2.2C887.7,417,885.8,417.7,884.2,419.2z"/>
		<path d="M908.8,437.5c-1.8-0.6-3.1-1.3-4.1-2.1l1.4-2.5c1,0.8,2.2,1.4,3.7,1.9c1.5,0.5,3.1,0.7,4.7,0.7c2.2,0,3.8-0.3,4.8-1
			c1-0.7,1.6-1.6,1.6-2.9c0-0.9-0.3-1.6-0.9-2c-0.6-0.5-1.3-0.9-2.2-1.1c-0.9-0.3-2-0.5-3.5-0.7c-1.9-0.4-3.5-0.7-4.6-1.1
			c-1.2-0.4-2.2-1-3-1.9c-0.8-0.9-1.2-2.1-1.2-3.7c0-2,0.8-3.6,2.5-4.9c1.6-1.3,3.9-1.9,6.9-1.9c1.5,0,3.1,0.2,4.6,0.6
			c1.5,0.4,2.8,0.9,3.8,1.6l-1.4,2.6c-2-1.4-4.3-2-7-2c-2,0-3.6,0.4-4.6,1.1c-1,0.7-1.6,1.7-1.6,2.8c0,0.9,0.3,1.6,0.9,2.2
			c0.6,0.5,1.3,0.9,2.2,1.2c0.9,0.3,2.1,0.5,3.6,0.8c1.9,0.4,3.4,0.7,4.5,1.1c1.1,0.4,2.1,1,2.9,1.8c0.8,0.9,1.2,2.1,1.2,3.6
			c0,2.1-0.9,3.7-2.6,4.9c-1.7,1.2-4.1,1.8-7.2,1.8C912.4,438.3,910.6,438.1,908.8,437.5z"/>
		<path d="M942.5,436.7c-0.6,0.5-1.3,1-2.2,1.2c-0.9,0.3-1.8,0.4-2.8,0.4c-2.2,0-3.9-0.6-5.1-1.8c-1.2-1.2-1.8-2.9-1.8-5.1v-14.3
			h-4.2v-2.7h4.2v-5.2h3.2v5.2h7.2v2.7h-7.2v14.1c0,1.4,0.4,2.5,1.1,3.2c0.7,0.7,1.7,1.1,3,1.1c0.7,0,1.3-0.1,1.9-0.3
			c0.6-0.2,1.1-0.5,1.6-0.9L942.5,436.7z"/>
		<path d="M960.1,404.7h3.2v33.4h-3.2V404.7z"/>
		<path d="M992.8,427.3H973c0.2,2.5,1.1,4.4,2.8,6c1.7,1.5,3.9,2.3,6.5,2.3c1.5,0,2.8-0.3,4-0.8c1.2-0.5,2.3-1.3,3.2-2.3l1.8,2.1
			c-1,1.3-2.4,2.2-3.9,2.9c-1.6,0.7-3.3,1-5.2,1c-2.4,0-4.6-0.5-6.5-1.6c-1.9-1-3.3-2.5-4.4-4.3c-1.1-1.8-1.6-3.9-1.6-6.2
			c0-2.3,0.5-4.4,1.5-6.2c1-1.8,2.4-3.3,4.1-4.3c1.8-1,3.7-1.5,5.9-1.5c2.2,0,4.2,0.5,5.9,1.5c1.7,1,3.1,2.4,4.1,4.3
			c1,1.8,1.5,3.9,1.5,6.2L992.8,427.3z M975.6,419.2c-1.5,1.5-2.4,3.4-2.6,5.7h16.8c-0.2-2.3-1.1-4.2-2.6-5.7
			c-1.5-1.5-3.5-2.2-5.8-2.2C979.1,417,977.1,417.7,975.6,419.2z"/>
		<path d="M1002.9,436.8c-1.8-1-3.3-2.5-4.3-4.3c-1.1-1.8-1.6-3.9-1.6-6.2c0-2.3,0.5-4.4,1.6-6.2c1-1.8,2.5-3.3,4.3-4.3
			c1.8-1,3.9-1.5,6.3-1.5c2,0,3.9,0.4,5.5,1.2c1.6,0.8,2.9,2,3.8,3.5l-2.4,1.6c-0.8-1.2-1.8-2-3-2.6c-1.2-0.6-2.5-0.9-3.9-0.9
			c-1.7,0-3.2,0.4-4.6,1.1s-2.4,1.9-3.2,3.3c-0.8,1.4-1.1,3-1.1,4.8c0,1.8,0.4,3.4,1.1,4.8c0.8,1.4,1.8,2.5,3.2,3.2
			c1.4,0.8,2.9,1.1,4.6,1.1c1.4,0,2.7-0.3,3.9-0.9c1.2-0.6,2.2-1.4,3-2.6l2.4,1.6c-0.9,1.5-2.2,2.7-3.8,3.5s-3.4,1.2-5.4,1.2
			C1006.8,438.3,1004.7,437.8,1002.9,436.8z"/>
		<path d="M1037.4,436.7c-0.6,0.5-1.3,1-2.2,1.2s-1.8,0.4-2.8,0.4c-2.2,0-3.9-0.6-5.1-1.8c-1.2-1.2-1.8-2.9-1.8-5.1v-14.3h-4.2v-2.7
			h4.2v-5.2h3.2v5.2h7.2v2.7h-7.2v14.1c0,1.4,0.4,2.5,1.1,3.2c0.7,0.7,1.7,1.1,3,1.1c0.7,0,1.3-0.1,1.9-0.3c0.6-0.2,1.1-0.5,1.6-0.9
			L1037.4,436.7z"/>
		<path d="M1064.5,414.4v23.7h-3.1v-4.3c-0.8,1.4-2,2.6-3.5,3.4s-3.1,1.2-5,1.2c-3.1,0-5.5-0.9-7.3-2.6c-1.8-1.7-2.7-4.3-2.7-7.6
			v-13.7h3.2v13.4c0,2.5,0.6,4.4,1.8,5.7c1.2,1.3,3,1.9,5.3,1.9c2.5,0,4.5-0.8,5.9-2.3c1.4-1.5,2.2-3.6,2.2-6.3v-12.4H1064.5z"/>
		<path d="M1079.9,415.5c1.5-0.8,3.3-1.2,5.5-1.2v3.1l-0.8,0c-2.5,0-4.4,0.8-5.8,2.3c-1.4,1.5-2.1,3.7-2.1,6.4v12.1h-3.2v-23.7h3.1
			v4.6C1077.3,417.5,1078.4,416.3,1079.9,415.5z"/>
		<path d="M1111.6,427.3h-19.8c0.2,2.5,1.1,4.4,2.8,6c1.7,1.5,3.9,2.3,6.5,2.3c1.5,0,2.8-0.3,4-0.8c1.2-0.5,2.3-1.3,3.2-2.3l1.8,2.1
			c-1,1.3-2.4,2.2-3.9,2.9c-1.6,0.7-3.3,1-5.2,1c-2.4,0-4.6-0.5-6.5-1.6c-1.9-1-3.3-2.5-4.4-4.3c-1.1-1.8-1.6-3.9-1.6-6.2
			c0-2.3,0.5-4.4,1.5-6.2c1-1.8,2.4-3.3,4.1-4.3c1.8-1,3.7-1.5,5.9-1.5c2.2,0,4.2,0.5,5.9,1.5c1.7,1,3.1,2.4,4.1,4.3
			c1,1.8,1.5,3.9,1.5,6.2L1111.6,427.3z M1094.4,419.2c-1.5,1.5-2.4,3.4-2.6,5.7h16.8c-0.2-2.3-1.1-4.2-2.6-5.7
			c-1.5-1.5-3.5-2.2-5.8-2.2C1097.9,417,1095.9,417.7,1094.4,419.2z"/>
		<path d="M1119,437.5c-1.8-0.6-3.1-1.3-4.1-2.1l1.4-2.5c1,0.8,2.2,1.4,3.7,1.9c1.5,0.5,3.1,0.7,4.7,0.7c2.2,0,3.8-0.3,4.8-1
			c1-0.7,1.6-1.6,1.6-2.9c0-0.9-0.3-1.6-0.9-2c-0.6-0.5-1.3-0.9-2.2-1.1c-0.9-0.3-2-0.5-3.5-0.7c-1.9-0.4-3.5-0.7-4.6-1.1
			c-1.2-0.4-2.2-1-3-1.9c-0.8-0.9-1.2-2.1-1.2-3.7c0-2,0.8-3.6,2.5-4.9c1.6-1.3,3.9-1.9,6.9-1.9c1.5,0,3.1,0.2,4.6,0.6
			c1.5,0.4,2.8,0.9,3.8,1.6l-1.4,2.6c-2-1.4-4.3-2-7-2c-2,0-3.6,0.4-4.6,1.1c-1,0.7-1.6,1.7-1.6,2.8c0,0.9,0.3,1.6,0.9,2.2
			c0.6,0.5,1.3,0.9,2.2,1.2c0.9,0.3,2.1,0.5,3.6,0.8c1.9,0.4,3.4,0.7,4.5,1.1c1.1,0.4,2.1,1,2.9,1.8c0.8,0.9,1.2,2.1,1.2,3.6
			c0,2.1-0.9,3.7-2.6,4.9c-1.7,1.2-4.1,1.8-7.2,1.8C1122.6,438.3,1120.7,438.1,1119,437.5z"/>
	</g>
	<g>
		<path d="M1499.3,280.4c-1.8-1-3.3-2.5-4.3-4.3c-1.1-1.8-1.6-3.9-1.6-6.2c0-2.3,0.5-4.4,1.6-6.2c1-1.8,2.5-3.3,4.3-4.3
			c1.8-1,3.9-1.5,6.2-1.5c2.3,0,4.3,0.5,6.2,1.5c1.8,1,3.3,2.4,4.3,4.3c1,1.8,1.6,3.9,1.6,6.2c0,2.3-0.5,4.4-1.6,6.2
			c-1,1.8-2.5,3.3-4.3,4.3c-1.8,1-3.9,1.6-6.2,1.6C1503.2,281.9,1501.1,281.4,1499.3,280.4z M1510,277.9c1.3-0.8,2.4-1.9,3.1-3.3
			c0.7-1.4,1.1-3,1.1-4.8s-0.4-3.4-1.1-4.8c-0.8-1.4-1.8-2.5-3.1-3.3s-2.8-1.1-4.5-1.1s-3.2,0.4-4.5,1.1s-2.4,1.9-3.1,3.3
			c-0.8,1.4-1.1,3-1.1,4.8s0.4,3.4,1.1,4.8c0.8,1.4,1.8,2.5,3.1,3.3c1.3,0.8,2.8,1.1,4.5,1.1S1508.6,278.7,1510,277.9z"/>
		<path d="M1543.2,258l-10.5,23.7h-3.3l-10.5-23.7h3.3l8.9,20.2l9-20.2H1543.2z"/>
		<path d="M1567.6,270.8h-19.8c0.2,2.5,1.1,4.4,2.8,6c1.7,1.5,3.9,2.3,6.5,2.3c1.5,0,2.8-0.3,4-0.8c1.2-0.5,2.3-1.3,3.2-2.3l1.8,2.1
			c-1.1,1.3-2.4,2.2-3.9,2.9c-1.6,0.7-3.3,1-5.2,1c-2.4,0-4.6-0.5-6.5-1.6c-1.9-1-3.3-2.5-4.4-4.3c-1-1.8-1.6-3.9-1.6-6.2
			c0-2.3,0.5-4.4,1.5-6.2c1-1.8,2.4-3.3,4.1-4.3c1.8-1,3.7-1.5,5.9-1.5s4.2,0.5,5.9,1.5c1.7,1,3.1,2.4,4.1,4.3
			c1,1.8,1.5,3.9,1.5,6.2L1567.6,270.8z M1550.5,262.8c-1.5,1.5-2.4,3.4-2.6,5.7h16.8c-0.2-2.3-1.1-4.2-2.6-5.7
			c-1.5-1.5-3.5-2.2-5.8-2.2C1553.9,260.6,1552,261.3,1550.5,262.8z"/>
		<path d="M1580.6,259c1.5-0.8,3.3-1.2,5.5-1.2v3.1l-0.8,0c-2.5,0-4.4,0.8-5.9,2.3c-1.4,1.5-2.1,3.7-2.1,6.4v12.1h-3.2V258h3.1v4.6
			C1578,261.1,1579.1,259.9,1580.6,259z"/>
	</g>
	<g>
		<path d="M1427.9,421.1c1.8,1,3.2,2.4,4.2,4.3c1,1.8,1.5,3.9,1.5,6.3c0,2.4-0.5,4.5-1.5,6.3c-1,1.8-2.4,3.2-4.2,4.3
			c-1.8,1-3.8,1.5-6.1,1.5c-1.9,0-3.7-0.4-5.2-1.2s-2.8-2-3.8-3.5v13.2h-3.2v-32.4h3.1v4.7c1-1.6,2.2-2.8,3.8-3.6
			c1.6-0.8,3.4-1.3,5.3-1.3C1424,419.6,1426.1,420.1,1427.9,421.1z M1426.1,439.7c1.3-0.8,2.4-1.9,3.2-3.3c0.8-1.4,1.1-3,1.1-4.8
			s-0.4-3.4-1.1-4.8s-1.8-2.5-3.2-3.3c-1.3-0.8-2.8-1.2-4.5-1.2c-1.7,0-3.2,0.4-4.5,1.2c-1.3,0.8-2.4,1.9-3.1,3.3
			c-0.8,1.4-1.1,3-1.1,4.8s0.4,3.4,1.1,4.8c0.8,1.4,1.8,2.5,3.1,3.3c1.3,0.8,2.8,1.1,4.5,1.1
			C1423.3,440.8,1424.8,440.4,1426.1,439.7z"/>
		<path d="M1455.4,421.9c1.7,1.5,2.5,3.8,2.5,6.9v14.7h-3.1v-3.7c-0.7,1.2-1.8,2.2-3.2,2.9c-1.4,0.7-3.1,1-5,1
			c-2.6,0-4.7-0.6-6.3-1.9c-1.6-1.3-2.3-2.9-2.3-5c0-2,0.7-3.6,2.2-4.9c1.5-1.2,3.8-1.8,7-1.8h7.5v-1.4c0-2-0.6-3.6-1.7-4.7
			c-1.1-1.1-2.8-1.6-5-1.6c-1.5,0-2.9,0.2-4.3,0.7c-1.4,0.5-2.6,1.2-3.6,2l-1.4-2.4c1.2-1,2.6-1.8,4.3-2.4c1.7-0.6,3.4-0.8,5.3-0.8
			C1451.4,419.6,1453.7,420.3,1455.4,421.9z M1451.8,439.9c1.3-0.8,2.3-2,2.9-3.6v-3.9h-7.4c-4.1,0-6.1,1.4-6.1,4.2
			c0,1.4,0.5,2.5,1.6,3.3c1,0.8,2.5,1.2,4.4,1.2C1449,441.1,1450.5,440.7,1451.8,439.9z"/>
		<path d="M1473,420.8c1.5-0.8,3.3-1.2,5.5-1.2v3.1l-0.8,0c-2.5,0-4.4,0.8-5.8,2.3c-1.4,1.5-2.1,3.7-2.1,6.4v12.1h-3.2v-23.7h3.1
			v4.6C1470.4,422.8,1471.5,421.6,1473,420.8z"/>
		<path d="M1497.7,442c-0.6,0.5-1.3,1-2.2,1.2s-1.8,0.4-2.8,0.4c-2.2,0-3.9-0.6-5.1-1.8c-1.2-1.2-1.8-2.9-1.8-5.1v-14.3h-4.2v-2.7
			h4.2v-5.2h3.2v5.2h7.2v2.7h-7.2v14.1c0,1.4,0.4,2.5,1.1,3.2c0.7,0.7,1.7,1.1,3,1.1c0.7,0,1.3-0.1,1.9-0.3c0.6-0.2,1.1-0.5,1.6-0.9
			L1497.7,442z"/>
		<path d="M1503.5,413.9c-0.5-0.5-0.7-1-0.7-1.6c0-0.6,0.2-1.1,0.7-1.6c0.5-0.5,1-0.7,1.7-0.7c0.7,0,1.2,0.2,1.7,0.7
			c0.5,0.4,0.7,1,0.7,1.6c0,0.7-0.2,1.2-0.7,1.7s-1,0.7-1.7,0.7C1504.5,414.6,1504,414.4,1503.5,413.9z M1503.5,419.8h3.2v23.7h-3.2
			V419.8z"/>
		<path d="M1519.2,442.1c-1.8-1-3.3-2.5-4.3-4.3c-1-1.8-1.6-3.9-1.6-6.2c0-2.3,0.5-4.4,1.6-6.2c1.1-1.8,2.5-3.3,4.3-4.3
			c1.8-1,3.9-1.5,6.3-1.5c2,0,3.9,0.4,5.5,1.2c1.6,0.8,2.9,2,3.8,3.5l-2.4,1.6c-0.8-1.2-1.8-2-3-2.6s-2.5-0.9-3.9-0.9
			c-1.7,0-3.2,0.4-4.6,1.1s-2.4,1.9-3.2,3.3c-0.8,1.4-1.1,3-1.1,4.8c0,1.8,0.4,3.4,1.1,4.8c0.8,1.4,1.8,2.5,3.2,3.2
			c1.4,0.8,2.9,1.1,4.6,1.1c1.4,0,2.7-0.3,3.9-0.9c1.2-0.6,2.2-1.4,3-2.6l2.4,1.6c-0.9,1.5-2.2,2.7-3.8,3.5s-3.4,1.2-5.4,1.2
			C1523.1,443.6,1521,443.1,1519.2,442.1z"/>
		<path d="M1540.9,413.9c-0.4-0.5-0.7-1-0.7-1.6c0-0.6,0.2-1.1,0.7-1.6c0.5-0.5,1-0.7,1.7-0.7c0.7,0,1.2,0.2,1.7,0.7
			c0.5,0.4,0.7,1,0.7,1.6c0,0.7-0.2,1.2-0.7,1.7c-0.4,0.5-1,0.7-1.7,0.7C1541.9,414.6,1541.4,414.4,1540.9,413.9z M1541,419.8h3.2
			v23.7h-3.2V419.8z"/>
		<path d="M1571.3,421.1c1.8,1,3.2,2.4,4.2,4.3c1,1.8,1.5,3.9,1.5,6.3c0,2.4-0.5,4.5-1.5,6.3c-1,1.8-2.4,3.2-4.2,4.3
			c-1.8,1-3.8,1.5-6.1,1.5c-1.9,0-3.7-0.4-5.2-1.2c-1.5-0.8-2.8-2-3.8-3.5v13.2h-3.2v-32.4h3.1v4.7c1-1.6,2.2-2.8,3.8-3.6
			s3.4-1.3,5.3-1.3C1567.5,419.6,1569.5,420.1,1571.3,421.1z M1569.6,439.7c1.4-0.8,2.4-1.9,3.2-3.3c0.8-1.4,1.1-3,1.1-4.8
			s-0.4-3.4-1.1-4.8c-0.8-1.4-1.8-2.5-3.2-3.3c-1.3-0.8-2.9-1.2-4.5-1.2c-1.7,0-3.2,0.4-4.5,1.2c-1.3,0.8-2.4,1.9-3.2,3.3
			c-0.8,1.4-1.1,3-1.1,4.8s0.4,3.4,1.1,4.8c0.8,1.4,1.8,2.5,3.2,3.3c1.3,0.8,2.8,1.1,4.5,1.1
			C1566.7,440.8,1568.2,440.4,1569.6,439.7z"/>
		<path d="M1598.9,421.9c1.6,1.5,2.5,3.8,2.5,6.9v14.7h-3.1v-3.7c-0.7,1.2-1.8,2.2-3.2,2.9c-1.4,0.7-3.1,1-5,1
			c-2.6,0-4.7-0.6-6.3-1.9c-1.6-1.3-2.3-2.9-2.3-5c0-2,0.7-3.6,2.2-4.9c1.5-1.2,3.8-1.8,7-1.8h7.5v-1.4c0-2-0.6-3.6-1.7-4.7
			c-1.1-1.1-2.8-1.6-5-1.6c-1.5,0-2.9,0.2-4.3,0.7s-2.6,1.2-3.6,2l-1.4-2.4c1.2-1,2.6-1.8,4.3-2.4c1.7-0.6,3.5-0.8,5.3-0.8
			C1594.8,419.6,1597.2,420.3,1598.9,421.9z M1595.3,439.9c1.3-0.8,2.3-2,2.9-3.6v-3.9h-7.4c-4,0-6.1,1.4-6.1,4.2
			c0,1.4,0.5,2.5,1.6,3.3c1,0.8,2.5,1.2,4.4,1.2C1592.4,441.1,1594,440.7,1595.3,439.9z"/>
		<path d="M1629.2,422.2c1.8,1.7,2.6,4.2,2.6,7.5v13.7h-3.2V430c0-2.5-0.6-4.3-1.8-5.6c-1.2-1.3-3-1.9-5.3-1.9
			c-2.6,0-4.6,0.8-6.1,2.3c-1.5,1.5-2.2,3.6-2.2,6.3v12.4h-3.2v-23.7h3.1v4.4c0.9-1.4,2.1-2.6,3.6-3.4c1.5-0.8,3.3-1.2,5.4-1.2
			C1625,419.6,1627.4,420.4,1629.2,422.2z"/>
		<path d="M1652.9,442c-0.6,0.5-1.3,1-2.2,1.2s-1.8,0.4-2.8,0.4c-2.2,0-3.9-0.6-5.1-1.8c-1.2-1.2-1.8-2.9-1.8-5.1v-14.3h-4.2v-2.7
			h4.2v-5.2h3.2v5.2h7.2v2.7h-7.2v14.1c0,1.4,0.4,2.5,1.1,3.2c0.7,0.7,1.7,1.1,3,1.1c0.7,0,1.3-0.1,1.9-0.3c0.6-0.2,1.1-0.5,1.6-0.9
			L1652.9,442z"/>
		<path d="M1659.6,442.8c-1.8-0.6-3.1-1.3-4.1-2.1l1.4-2.5c1,0.8,2.2,1.4,3.7,1.9s3.1,0.7,4.7,0.7c2.2,0,3.8-0.3,4.8-1
			c1-0.7,1.6-1.6,1.6-2.9c0-0.9-0.3-1.6-0.9-2s-1.3-0.9-2.2-1.1c-0.9-0.3-2-0.5-3.5-0.7c-1.9-0.4-3.5-0.7-4.6-1.1
			c-1.2-0.4-2.2-1-3-1.9c-0.8-0.9-1.2-2.1-1.2-3.7c0-2,0.8-3.6,2.5-4.9c1.6-1.3,3.9-1.9,6.9-1.9c1.5,0,3.1,0.2,4.6,0.6
			c1.5,0.4,2.8,0.9,3.8,1.6l-1.4,2.6c-2-1.4-4.3-2-7-2c-2,0-3.6,0.4-4.6,1.1c-1,0.7-1.6,1.7-1.6,2.8c0,0.9,0.3,1.6,0.9,2.2
			c0.6,0.5,1.3,0.9,2.2,1.2c0.9,0.3,2.1,0.5,3.6,0.8c1.9,0.4,3.4,0.7,4.5,1.1c1.1,0.4,2.1,1,2.9,1.8c0.8,0.9,1.2,2.1,1.2,3.6
			c0,2.1-0.9,3.7-2.6,4.9c-1.7,1.2-4.1,1.8-7.2,1.8C1663.2,443.6,1661.3,443.4,1659.6,442.8z"/>
		<path d="M1461.3,486.6h-19.8c0.2,2.5,1.1,4.4,2.8,6c1.7,1.5,3.9,2.3,6.5,2.3c1.5,0,2.8-0.3,4.1-0.8c1.2-0.5,2.3-1.3,3.2-2.3
			l1.8,2.1c-1,1.3-2.4,2.2-3.9,2.9c-1.6,0.7-3.3,1-5.2,1c-2.4,0-4.6-0.5-6.5-1.6c-1.9-1-3.3-2.5-4.4-4.3c-1-1.8-1.6-3.9-1.6-6.2
			c0-2.3,0.5-4.4,1.5-6.2c1-1.8,2.4-3.3,4.1-4.3c1.8-1,3.7-1.5,5.9-1.5c2.2,0,4.2,0.5,5.9,1.5c1.7,1,3.1,2.4,4.1,4.3
			c1,1.8,1.5,3.9,1.5,6.2L1461.3,486.6z M1444.2,478.5c-1.5,1.5-2.4,3.4-2.6,5.7h16.8c-0.2-2.3-1.1-4.2-2.6-5.7
			c-1.5-1.5-3.5-2.2-5.8-2.2C1447.6,476.3,1445.7,477,1444.2,478.5z"/>
		<path d="M1482.3,497.4l-7.5-9.9l-7.6,9.9h-3.6l9.4-12.1l-8.9-11.5h3.6l7.1,9.3l7.1-9.3h3.5l-8.9,11.5l9.4,12.1H1482.3z"/>
		<path d="M1509.5,475.1c1.8,1,3.2,2.4,4.2,4.3c1,1.8,1.5,3.9,1.5,6.3c0,2.4-0.5,4.5-1.5,6.3c-1,1.8-2.4,3.2-4.2,4.3
			c-1.8,1-3.8,1.5-6.1,1.5c-1.9,0-3.7-0.4-5.2-1.2c-1.5-0.8-2.8-2-3.8-3.5v13.2h-3.2v-32.4h3.1v4.7c1-1.6,2.2-2.8,3.8-3.6
			c1.6-0.8,3.4-1.3,5.3-1.3C1505.7,473.6,1507.7,474.1,1509.5,475.1z M1507.7,493.7c1.4-0.8,2.4-1.9,3.2-3.3c0.8-1.4,1.1-3,1.1-4.8
			s-0.4-3.4-1.1-4.8c-0.8-1.4-1.8-2.5-3.2-3.3c-1.3-0.8-2.8-1.2-4.5-1.2c-1.7,0-3.2,0.4-4.5,1.2c-1.3,0.8-2.4,1.9-3.2,3.3
			s-1.1,3-1.1,4.8s0.4,3.4,1.1,4.8c0.8,1.4,1.8,2.5,3.2,3.3c1.3,0.8,2.8,1.1,4.5,1.1C1504.9,494.8,1506.4,494.4,1507.7,493.7z"/>
		<path d="M1542.4,486.6h-19.8c0.2,2.5,1.1,4.4,2.8,6c1.7,1.5,3.9,2.3,6.5,2.3c1.5,0,2.8-0.3,4-0.8c1.2-0.5,2.3-1.3,3.2-2.3l1.8,2.1
			c-1.1,1.3-2.4,2.2-3.9,2.9c-1.6,0.7-3.3,1-5.2,1c-2.4,0-4.6-0.5-6.5-1.6c-1.9-1-3.3-2.5-4.4-4.3c-1.1-1.8-1.6-3.9-1.6-6.2
			c0-2.3,0.5-4.4,1.5-6.2c1-1.8,2.4-3.3,4.1-4.3c1.8-1,3.7-1.5,5.9-1.5c2.2,0,4.2,0.5,5.9,1.5c1.7,1,3.1,2.4,4.1,4.3
			c1,1.8,1.5,3.9,1.5,6.2L1542.4,486.6z M1525.2,478.5c-1.5,1.5-2.4,3.4-2.6,5.7h16.8c-0.2-2.3-1.1-4.2-2.6-5.7
			c-1.5-1.5-3.5-2.2-5.8-2.2C1528.7,476.3,1526.8,477,1525.2,478.5z"/>
		<path d="M1552.5,496.1c-1.8-1-3.3-2.5-4.3-4.3c-1.1-1.8-1.6-3.9-1.6-6.2c0-2.3,0.5-4.4,1.6-6.2c1-1.8,2.5-3.3,4.3-4.3
			c1.8-1,3.9-1.5,6.3-1.5c2,0,3.9,0.4,5.5,1.2c1.6,0.8,2.9,2,3.8,3.5l-2.4,1.6c-0.8-1.2-1.8-2-3-2.6c-1.2-0.6-2.5-0.9-3.9-0.9
			c-1.7,0-3.2,0.4-4.6,1.1c-1.4,0.8-2.4,1.9-3.2,3.3c-0.8,1.4-1.1,3-1.1,4.8c0,1.8,0.4,3.4,1.1,4.8s1.8,2.5,3.2,3.2
			c1.4,0.8,2.9,1.1,4.6,1.1c1.4,0,2.7-0.3,3.9-0.9c1.2-0.6,2.2-1.4,3-2.6l2.4,1.6c-0.9,1.5-2.2,2.7-3.8,3.5
			c-1.6,0.8-3.4,1.2-5.4,1.2C1556.4,497.6,1554.3,497.1,1552.5,496.1z"/>
		<path d="M1587,496c-0.6,0.5-1.3,1-2.2,1.2c-0.9,0.3-1.8,0.4-2.8,0.4c-2.2,0-3.9-0.6-5.1-1.8c-1.2-1.2-1.8-2.9-1.8-5.1v-14.3h-4.2
			v-2.7h4.2v-5.2h3.2v5.2h7.2v2.7h-7.2v14.1c0,1.4,0.4,2.5,1.1,3.2c0.7,0.7,1.7,1.1,3,1.1c0.7,0,1.3-0.1,1.9-0.3
			c0.6-0.2,1.1-0.5,1.6-0.9L1587,496z"/>
		<path d="M1612.6,486.6h-19.8c0.2,2.5,1.1,4.4,2.8,6c1.7,1.5,3.9,2.3,6.5,2.3c1.5,0,2.8-0.3,4-0.8c1.2-0.5,2.3-1.3,3.2-2.3l1.8,2.1
			c-1,1.3-2.4,2.2-3.9,2.9c-1.6,0.7-3.3,1-5.2,1c-2.4,0-4.6-0.5-6.5-1.6c-1.9-1-3.3-2.5-4.4-4.3c-1.1-1.8-1.6-3.9-1.6-6.2
			c0-2.3,0.5-4.4,1.5-6.2c1-1.8,2.4-3.3,4.1-4.3c1.8-1,3.7-1.5,5.9-1.5s4.2,0.5,5.9,1.5c1.7,1,3.1,2.4,4.1,4.3
			c1,1.8,1.5,3.9,1.5,6.2L1612.6,486.6z M1595.4,478.5c-1.5,1.5-2.4,3.4-2.6,5.7h16.8c-0.2-2.3-1.1-4.2-2.6-5.7
			c-1.5-1.5-3.5-2.2-5.8-2.2C1598.9,476.3,1597,477,1595.4,478.5z"/>
		<path d="M1640.8,464v33.4h-3.1v-4.7c-1,1.6-2.2,2.8-3.8,3.6c-1.6,0.8-3.4,1.3-5.3,1.3c-2.2,0-4.2-0.5-6-1.5
			c-1.8-1-3.2-2.4-4.2-4.3c-1-1.8-1.5-3.9-1.5-6.3s0.5-4.4,1.5-6.3c1-1.8,2.4-3.2,4.2-4.3c1.8-1,3.8-1.5,6-1.5
			c1.9,0,3.7,0.4,5.2,1.2c1.5,0.8,2.8,2,3.8,3.5V464H1640.8z M1633.3,493.7c1.3-0.8,2.4-1.9,3.2-3.3c0.8-1.4,1.1-3,1.1-4.8
			s-0.4-3.4-1.1-4.8c-0.8-1.4-1.8-2.5-3.2-3.3c-1.3-0.8-2.8-1.1-4.5-1.1c-1.7,0-3.2,0.4-4.5,1.1c-1.3,0.8-2.4,1.9-3.1,3.3
			c-0.8,1.4-1.1,3-1.1,4.8s0.4,3.4,1.1,4.8c0.8,1.4,1.8,2.5,3.1,3.3c1.3,0.8,2.8,1.1,4.5,1.1C1630.5,494.8,1632,494.4,1633.3,493.7z
			"/>
	</g>
	<g>
		<path d="M259.7,930.2c1.8,1,3.2,2.4,4.2,4.3c1,1.8,1.5,3.9,1.5,6.3c0,2.4-0.5,4.5-1.5,6.3c-1,1.8-2.4,3.2-4.2,4.3
			c-1.8,1-3.8,1.5-6.1,1.5c-1.9,0-3.7-0.4-5.2-1.2c-1.5-0.8-2.8-2-3.8-3.5v13.2h-3.2v-32.4h3.1v4.7c1-1.6,2.2-2.8,3.8-3.6
			c1.6-0.8,3.4-1.3,5.3-1.3C255.9,928.7,257.9,929.2,259.7,930.2z M257.9,948.8c1.4-0.8,2.4-1.9,3.2-3.3c0.8-1.4,1.1-3,1.1-4.8
			s-0.4-3.4-1.1-4.8c-0.8-1.4-1.8-2.5-3.2-3.3c-1.3-0.8-2.9-1.2-4.5-1.2c-1.7,0-3.2,0.4-4.5,1.2c-1.3,0.8-2.4,1.9-3.1,3.3
			c-0.8,1.4-1.1,3-1.1,4.8s0.4,3.4,1.1,4.8c0.8,1.4,1.8,2.5,3.1,3.3c1.3,0.8,2.8,1.1,4.5,1.1C255.1,949.9,256.6,949.5,257.9,948.8z"
			/>
		<path d="M278.4,929.9c1.5-0.8,3.3-1.2,5.5-1.2v3.1l-0.8,0c-2.5,0-4.4,0.8-5.9,2.3c-1.4,1.5-2.1,3.7-2.1,6.4v12.1H272v-23.7h3.1
			v4.6C275.8,931.9,276.9,930.7,278.4,929.9z"/>
		<path d="M310,941.7h-19.8c0.2,2.5,1.1,4.4,2.8,6c1.7,1.5,3.9,2.3,6.5,2.3c1.5,0,2.8-0.3,4-0.8c1.2-0.5,2.3-1.3,3.2-2.3l1.8,2.1
			c-1.1,1.3-2.4,2.2-3.9,2.9c-1.6,0.7-3.3,1-5.2,1c-2.4,0-4.6-0.5-6.5-1.6c-1.9-1-3.3-2.5-4.4-4.3c-1.1-1.8-1.6-3.9-1.6-6.2
			c0-2.3,0.5-4.4,1.5-6.2c1-1.8,2.4-3.3,4.1-4.3c1.8-1,3.7-1.5,5.9-1.5s4.2,0.5,5.9,1.5c1.7,1,3.1,2.4,4.1,4.3s1.5,3.9,1.5,6.2
			L310,941.7z M292.9,933.6c-1.5,1.5-2.4,3.4-2.6,5.7H307c-0.2-2.3-1.1-4.2-2.6-5.7c-1.5-1.5-3.5-2.2-5.8-2.2
			C296.3,931.4,294.4,932.2,292.9,933.6z"/>
		<path d="M317.4,951.9c-1.8-0.6-3.1-1.3-4.1-2.1l1.4-2.5c1,0.8,2.2,1.4,3.7,1.9c1.5,0.5,3.1,0.7,4.7,0.7c2.2,0,3.8-0.3,4.8-1
			c1-0.7,1.6-1.6,1.6-2.9c0-0.9-0.3-1.6-0.9-2c-0.6-0.5-1.3-0.9-2.2-1.1c-0.9-0.3-2-0.5-3.5-0.7c-1.9-0.4-3.5-0.7-4.6-1.1
			c-1.2-0.4-2.2-1-3-1.9c-0.8-0.9-1.2-2.1-1.2-3.7c0-2,0.8-3.6,2.5-4.9c1.6-1.3,3.9-1.9,6.9-1.9c1.5,0,3.1,0.2,4.6,0.6
			c1.5,0.4,2.8,0.9,3.8,1.6l-1.4,2.6c-2-1.4-4.3-2-7-2c-2,0-3.6,0.4-4.6,1.1s-1.6,1.7-1.6,2.8c0,0.9,0.3,1.6,0.9,2.2
			s1.3,0.9,2.2,1.2c0.9,0.3,2.1,0.5,3.6,0.8c1.9,0.4,3.4,0.7,4.5,1.1c1.1,0.4,2.1,1,2.9,1.8s1.2,2.1,1.2,3.6c0,2.1-0.9,3.7-2.6,4.9
			c-1.7,1.2-4.1,1.8-7.2,1.8C321,952.8,319.2,952.5,317.4,951.9z"/>
		<path d="M359.2,941.7h-19.8c0.2,2.5,1.1,4.4,2.8,6c1.7,1.5,3.9,2.3,6.5,2.3c1.5,0,2.8-0.3,4-0.8c1.2-0.5,2.3-1.3,3.2-2.3l1.8,2.1
			c-1.1,1.3-2.4,2.2-3.9,2.9c-1.6,0.7-3.3,1-5.2,1c-2.4,0-4.6-0.5-6.5-1.6c-1.9-1-3.3-2.5-4.4-4.3c-1.1-1.8-1.6-3.9-1.6-6.2
			c0-2.3,0.5-4.4,1.5-6.2c1-1.8,2.4-3.3,4.1-4.3c1.8-1,3.7-1.5,5.9-1.5s4.2,0.5,5.9,1.5c1.7,1,3.1,2.4,4.1,4.3s1.5,3.9,1.5,6.2
			L359.2,941.7z M342,933.6c-1.5,1.5-2.4,3.4-2.6,5.7h16.8c-0.2-2.3-1.1-4.2-2.6-5.7c-1.5-1.5-3.5-2.2-5.8-2.2
			C345.5,931.4,343.6,932.2,342,933.6z"/>
		<path d="M384.9,931.3c1.8,1.7,2.6,4.2,2.6,7.5v13.7h-3.2v-13.4c0-2.5-0.6-4.3-1.8-5.6c-1.2-1.3-3-1.9-5.3-1.9
			c-2.6,0-4.6,0.8-6.1,2.3s-2.2,3.6-2.2,6.3v12.4h-3.2v-23.7h3.1v4.4c0.9-1.4,2.1-2.6,3.6-3.4c1.5-0.8,3.3-1.2,5.4-1.2
			C380.8,928.7,383.2,929.5,384.9,931.3z"/>
		<path d="M408.7,951.1c-0.6,0.5-1.3,1-2.2,1.2c-0.9,0.3-1.8,0.4-2.8,0.4c-2.2,0-3.9-0.6-5.1-1.8c-1.2-1.2-1.8-2.9-1.8-5.1v-14.3
			h-4.2v-2.7h4.2v-5.2h3.2v5.2h7.2v2.7H400v14.1c0,1.4,0.4,2.5,1.1,3.2c0.7,0.7,1.7,1.1,3,1.1c0.7,0,1.3-0.1,1.9-0.3
			c0.6-0.2,1.1-0.5,1.6-0.9L408.7,951.1z"/>
		<path d="M429.9,931c1.6,1.5,2.5,3.8,2.5,6.9v14.7h-3.1v-3.7c-0.7,1.2-1.8,2.2-3.2,2.9c-1.4,0.7-3.1,1-5,1c-2.6,0-4.7-0.6-6.3-1.9
			c-1.6-1.3-2.3-2.9-2.3-5c0-2,0.7-3.6,2.2-4.9c1.5-1.2,3.8-1.8,7-1.8h7.5v-1.4c0-2-0.6-3.6-1.7-4.7c-1.1-1.1-2.8-1.6-5-1.6
			c-1.5,0-2.9,0.2-4.3,0.7c-1.4,0.5-2.6,1.2-3.6,2l-1.4-2.4c1.2-1,2.6-1.8,4.3-2.4c1.7-0.6,3.4-0.8,5.3-0.8
			C425.9,928.7,428.3,929.5,429.9,931z M426.3,949c1.3-0.8,2.3-2,2.9-3.6v-3.9h-7.4c-4.1,0-6.1,1.4-6.1,4.2c0,1.4,0.5,2.5,1.6,3.3
			c1,0.8,2.5,1.2,4.4,1.2C423.5,950.2,425,949.8,426.3,949z"/>
		<path d="M453.5,951.1c-0.6,0.5-1.3,1-2.2,1.2c-0.9,0.3-1.8,0.4-2.8,0.4c-2.2,0-3.9-0.6-5.1-1.8c-1.2-1.2-1.8-2.9-1.8-5.1v-14.3
			h-4.2v-2.7h4.2v-5.2h3.2v5.2h7.2v2.7h-7.2v14.1c0,1.4,0.4,2.5,1.1,3.2c0.7,0.7,1.7,1.1,3,1.1c0.7,0,1.3-0.1,1.9-0.3
			c0.6-0.2,1.1-0.5,1.6-0.9L453.5,951.1z"/>
		<path d="M459.3,923c-0.5-0.5-0.7-1-0.7-1.6c0-0.6,0.2-1.1,0.7-1.6c0.4-0.5,1-0.7,1.7-0.7c0.7,0,1.2,0.2,1.7,0.7
			c0.4,0.4,0.7,1,0.7,1.6c0,0.7-0.2,1.2-0.7,1.7c-0.5,0.5-1,0.7-1.7,0.7C460.3,923.7,459.7,923.5,459.3,923z M459.3,928.9h3.2v23.7
			h-3.2V928.9z"/>
		<path d="M475,951.2c-1.8-1-3.3-2.5-4.3-4.3c-1.1-1.8-1.6-3.9-1.6-6.2c0-2.3,0.5-4.4,1.6-6.2c1-1.8,2.5-3.3,4.3-4.3
			c1.8-1,3.9-1.5,6.2-1.5c2.3,0,4.3,0.5,6.2,1.5c1.8,1,3.3,2.4,4.3,4.3c1,1.8,1.6,3.9,1.6,6.2c0,2.3-0.5,4.4-1.6,6.2
			c-1,1.8-2.5,3.3-4.3,4.3c-1.8,1-3.9,1.6-6.2,1.6C478.8,952.8,476.8,952.2,475,951.2z M485.6,948.8c1.3-0.8,2.4-1.9,3.1-3.3
			c0.7-1.4,1.1-3,1.1-4.8s-0.4-3.4-1.1-4.8c-0.8-1.4-1.8-2.5-3.1-3.3c-1.3-0.8-2.8-1.1-4.5-1.1c-1.7,0-3.2,0.4-4.5,1.1
			c-1.3,0.8-2.4,1.9-3.1,3.3c-0.8,1.4-1.1,3-1.1,4.8s0.4,3.4,1.1,4.8c0.8,1.4,1.8,2.5,3.1,3.3c1.3,0.8,2.8,1.1,4.5,1.1
			C482.8,949.9,484.3,949.5,485.6,948.8z"/>
		<path d="M518.8,931.3c1.8,1.7,2.6,4.2,2.6,7.5v13.7h-3.2v-13.4c0-2.5-0.6-4.3-1.8-5.6c-1.2-1.3-3-1.9-5.3-1.9
			c-2.6,0-4.6,0.8-6.1,2.3s-2.2,3.6-2.2,6.3v12.4h-3.2v-23.7h3.1v4.4c0.9-1.4,2.1-2.6,3.6-3.4c1.5-0.8,3.3-1.2,5.4-1.2
			C514.7,928.7,517.1,929.5,518.8,931.3z"/>
		<path d="M531,951.9c-1.8-0.6-3.1-1.3-4.1-2.1l1.4-2.5c1,0.8,2.2,1.4,3.7,1.9c1.5,0.5,3.1,0.7,4.7,0.7c2.2,0,3.8-0.3,4.8-1
			c1-0.7,1.6-1.6,1.6-2.9c0-0.9-0.3-1.6-0.9-2c-0.6-0.5-1.3-0.9-2.2-1.1c-0.9-0.3-2-0.5-3.5-0.7c-1.9-0.4-3.5-0.7-4.6-1.1
			c-1.2-0.4-2.2-1-3-1.9c-0.8-0.9-1.2-2.1-1.2-3.7c0-2,0.8-3.6,2.5-4.9c1.6-1.3,3.9-1.9,6.9-1.9c1.5,0,3.1,0.2,4.6,0.6
			c1.5,0.4,2.8,0.9,3.8,1.6l-1.4,2.6c-2-1.4-4.3-2-7-2c-2,0-3.6,0.4-4.6,1.1s-1.6,1.7-1.6,2.8c0,0.9,0.3,1.6,0.9,2.2
			s1.3,0.9,2.2,1.2c0.9,0.3,2.1,0.5,3.6,0.8c1.9,0.4,3.4,0.7,4.5,1.1c1.1,0.4,2.1,1,2.9,1.8s1.2,2.1,1.2,3.6c0,2.1-0.9,3.7-2.6,4.9
			c-1.7,1.2-4.1,1.8-7.2,1.8C534.5,952.8,532.7,952.5,531,951.9z"/>
	</g>
	<g>
		<path d="M905.4,930.2c1.8,1,3.2,2.4,4.2,4.3c1,1.8,1.5,3.9,1.5,6.3c0,2.4-0.5,4.5-1.5,6.3c-1,1.8-2.4,3.2-4.2,4.3
			c-1.8,1-3.8,1.5-6.1,1.5c-1.9,0-3.7-0.4-5.2-1.2c-1.5-0.8-2.8-2-3.8-3.5v13.2h-3.2v-32.4h3.1v4.7c1-1.6,2.2-2.8,3.8-3.6
			c1.6-0.8,3.4-1.3,5.3-1.3C901.6,928.7,903.6,929.2,905.4,930.2z M903.7,948.8c1.4-0.8,2.4-1.9,3.2-3.3c0.8-1.4,1.1-3,1.1-4.8
			s-0.4-3.4-1.1-4.8c-0.8-1.4-1.8-2.5-3.2-3.3c-1.3-0.8-2.9-1.2-4.5-1.2c-1.7,0-3.2,0.4-4.5,1.2c-1.3,0.8-2.4,1.9-3.1,3.3
			c-0.8,1.4-1.1,3-1.1,4.8s0.4,3.4,1.1,4.8c0.8,1.4,1.8,2.5,3.1,3.3c1.3,0.8,2.8,1.1,4.5,1.1C900.8,949.9,902.3,949.5,903.7,948.8z"
			/>
		<path d="M921.2,951.2c-1.8-1-3.3-2.5-4.3-4.3c-1.1-1.8-1.6-3.9-1.6-6.2c0-2.3,0.5-4.4,1.6-6.2c1-1.8,2.5-3.3,4.3-4.3
			c1.8-1,3.9-1.5,6.2-1.5c2.3,0,4.3,0.5,6.2,1.5c1.8,1,3.3,2.4,4.3,4.3c1,1.8,1.6,3.9,1.6,6.2c0,2.3-0.5,4.4-1.6,6.2
			c-1,1.8-2.5,3.3-4.3,4.3c-1.8,1-3.9,1.6-6.2,1.6C925.1,952.8,923,952.2,921.2,951.2z M931.9,948.8c1.3-0.8,2.4-1.9,3.1-3.3
			c0.7-1.4,1.1-3,1.1-4.8s-0.4-3.4-1.1-4.8c-0.8-1.4-1.8-2.5-3.1-3.3c-1.3-0.8-2.8-1.1-4.5-1.1c-1.7,0-3.2,0.4-4.5,1.1
			c-1.3,0.8-2.4,1.9-3.1,3.3c-0.8,1.4-1.1,3-1.1,4.8s0.4,3.4,1.1,4.8c0.8,1.4,1.8,2.5,3.1,3.3c1.3,0.8,2.8,1.1,4.5,1.1
			C929.1,949.9,930.6,949.5,931.9,948.8z"/>
		<path d="M946.8,951.9c-1.8-0.6-3.1-1.3-4.1-2.1l1.4-2.5c1,0.8,2.2,1.4,3.7,1.9c1.5,0.5,3.1,0.7,4.7,0.7c2.2,0,3.8-0.3,4.8-1
			c1-0.7,1.6-1.6,1.6-2.9c0-0.9-0.3-1.6-0.9-2c-0.6-0.5-1.3-0.9-2.2-1.1c-0.9-0.3-2-0.5-3.5-0.7c-1.9-0.4-3.5-0.7-4.6-1.1
			c-1.2-0.4-2.2-1-3-1.9c-0.8-0.9-1.2-2.1-1.2-3.7c0-2,0.8-3.6,2.5-4.9c1.6-1.3,3.9-1.9,6.9-1.9c1.5,0,3.1,0.2,4.6,0.6
			c1.5,0.4,2.8,0.9,3.8,1.6l-1.4,2.6c-2-1.4-4.3-2-7-2c-2,0-3.6,0.4-4.6,1.1s-1.6,1.7-1.6,2.8c0,0.9,0.3,1.6,0.9,2.2
			s1.3,0.9,2.2,1.2c0.9,0.3,2.1,0.5,3.6,0.8c1.9,0.4,3.4,0.7,4.5,1.1c1.1,0.4,2.1,1,2.9,1.8c0.8,0.9,1.2,2.1,1.2,3.6
			c0,2.1-0.9,3.7-2.6,4.9c-1.7,1.2-4.1,1.8-7.2,1.8C950.3,952.8,948.5,952.5,946.8,951.9z"/>
		<path d="M980.4,951.1c-0.6,0.5-1.3,1-2.2,1.2c-0.9,0.3-1.8,0.4-2.8,0.4c-2.2,0-3.9-0.6-5.1-1.8c-1.2-1.2-1.8-2.9-1.8-5.1v-14.3
			h-4.2v-2.7h4.2v-5.2h3.2v5.2h7.2v2.7h-7.2v14.1c0,1.4,0.4,2.5,1.1,3.2c0.7,0.7,1.7,1.1,3,1.1c0.7,0,1.3-0.1,1.9-0.3
			c0.6-0.2,1.1-0.5,1.6-0.9L980.4,951.1z"/>
		<path d="M1005.9,941.7h-19.8c0.2,2.5,1.1,4.4,2.8,6c1.7,1.5,3.9,2.3,6.5,2.3c1.5,0,2.8-0.3,4-0.8c1.2-0.5,2.3-1.3,3.2-2.3l1.8,2.1
			c-1.1,1.3-2.4,2.2-3.9,2.9c-1.6,0.7-3.3,1-5.2,1c-2.4,0-4.6-0.5-6.5-1.6c-1.9-1-3.3-2.5-4.4-4.3s-1.6-3.9-1.6-6.2
			c0-2.3,0.5-4.4,1.5-6.2s2.4-3.3,4.1-4.3c1.8-1,3.7-1.5,5.9-1.5c2.2,0,4.2,0.5,5.9,1.5c1.7,1,3.1,2.4,4.1,4.3s1.5,3.9,1.5,6.2
			L1005.9,941.7z M988.8,933.6c-1.5,1.5-2.4,3.4-2.6,5.7h16.8c-0.2-2.3-1.1-4.2-2.6-5.7c-1.5-1.5-3.5-2.2-5.8-2.2
			C992.2,931.4,990.3,932.2,988.8,933.6z"/>
		<path d="M1018.9,929.9c1.5-0.8,3.3-1.2,5.5-1.2v3.1l-0.8,0c-2.5,0-4.4,0.8-5.8,2.3c-1.4,1.5-2.1,3.7-2.1,6.4v12.1h-3.2v-23.7h3.1
			v4.6C1016.3,931.9,1017.4,930.7,1018.9,929.9z"/>
		<path d="M1031.2,951.9c-1.8-0.6-3.1-1.3-4.1-2.1l1.4-2.5c1,0.8,2.2,1.4,3.7,1.9s3.1,0.7,4.7,0.7c2.2,0,3.8-0.3,4.8-1
			c1-0.7,1.6-1.6,1.6-2.9c0-0.9-0.3-1.6-0.9-2c-0.6-0.5-1.3-0.9-2.2-1.1s-2-0.5-3.5-0.7c-1.9-0.4-3.5-0.7-4.6-1.1
			c-1.2-0.4-2.2-1-3-1.9c-0.8-0.9-1.2-2.1-1.2-3.7c0-2,0.8-3.6,2.5-4.9c1.6-1.3,3.9-1.9,6.9-1.9c1.5,0,3.1,0.2,4.6,0.6
			c1.5,0.4,2.8,0.9,3.8,1.6l-1.4,2.6c-2-1.4-4.3-2-7-2c-2,0-3.6,0.4-4.6,1.1s-1.6,1.7-1.6,2.8c0,0.9,0.3,1.6,0.9,2.2
			s1.3,0.9,2.2,1.2c0.9,0.3,2.1,0.5,3.6,0.8c1.9,0.4,3.4,0.7,4.5,1.1c1.1,0.4,2.1,1,2.9,1.8c0.8,0.9,1.2,2.1,1.2,3.6
			c0,2.1-0.9,3.7-2.6,4.9c-1.7,1.2-4.1,1.8-7.2,1.8C1034.8,952.8,1033,952.5,1031.2,951.9z"/>
	</g>
	<g>
		<path d="M1464.6,929.1c1.8,1,3.2,2.4,4.2,4.3c1,1.8,1.5,3.9,1.5,6.3c0,2.4-0.5,4.5-1.5,6.3c-1,1.8-2.4,3.2-4.2,4.3
			c-1.8,1-3.8,1.5-6.1,1.5c-1.9,0-3.7-0.4-5.2-1.2s-2.8-2-3.8-3.5v13.2h-3.2v-32.4h3.1v4.7c1-1.6,2.2-2.8,3.8-3.6s3.4-1.3,5.3-1.3
			C1460.8,927.6,1462.8,928.1,1464.6,929.1z M1462.8,947.7c1.3-0.8,2.4-1.9,3.2-3.3c0.8-1.4,1.1-3,1.1-4.8s-0.4-3.4-1.1-4.8
			c-0.8-1.4-1.8-2.5-3.2-3.3s-2.9-1.2-4.5-1.2c-1.7,0-3.2,0.4-4.5,1.2c-1.3,0.8-2.4,1.9-3.2,3.3c-0.8,1.4-1.1,3-1.1,4.8
			s0.4,3.4,1.1,4.8c0.8,1.4,1.8,2.5,3.2,3.3c1.3,0.8,2.8,1.1,4.5,1.1C1460,948.9,1461.5,948.5,1462.8,947.7z"/>
		<path d="M1483.3,928.9c1.5-0.8,3.3-1.2,5.5-1.2v3.1l-0.8,0c-2.5,0-4.4,0.8-5.9,2.3c-1.4,1.5-2.1,3.7-2.1,6.4v12.1h-3.2v-23.7h3.1
			v4.6C1480.7,930.9,1481.8,929.7,1483.3,928.9z"/>
		<path d="M1494.5,922c-0.5-0.5-0.7-1-0.7-1.6c0-0.6,0.2-1.1,0.7-1.6c0.4-0.5,1-0.7,1.7-0.7c0.7,0,1.2,0.2,1.7,0.7
			c0.4,0.4,0.7,1,0.7,1.6c0,0.7-0.2,1.2-0.7,1.7c-0.5,0.5-1,0.7-1.7,0.7C1495.5,922.6,1495,922.4,1494.5,922z M1494.6,927.8h3.2
			v23.7h-3.2V927.8z"/>
		<path d="M1523.4,948.8v2.7h-19.3v-2.1l14.9-18.9h-14.6v-2.7h18.7v2.1l-14.9,18.9H1523.4z"/>
		<path d="M1549.9,940.6h-19.8c0.2,2.5,1.1,4.4,2.8,6s3.9,2.3,6.5,2.3c1.5,0,2.8-0.3,4-0.8c1.2-0.5,2.3-1.3,3.2-2.3l1.8,2.1
			c-1,1.3-2.4,2.2-3.9,2.9c-1.6,0.7-3.3,1-5.2,1c-2.4,0-4.6-0.5-6.5-1.6c-1.9-1-3.3-2.5-4.4-4.3c-1.1-1.8-1.6-3.9-1.6-6.2
			c0-2.3,0.5-4.4,1.5-6.2c1-1.8,2.4-3.3,4.1-4.3s3.7-1.5,5.9-1.5c2.2,0,4.2,0.5,5.9,1.5c1.7,1,3.1,2.4,4.1,4.3
			c1,1.8,1.5,3.9,1.5,6.2L1549.9,940.6z M1532.7,932.6c-1.5,1.5-2.4,3.4-2.6,5.7h16.8c-0.2-2.3-1.1-4.2-2.6-5.7
			c-1.5-1.5-3.5-2.2-5.8-2.2C1536.2,930.4,1534.2,931.1,1532.7,932.6z"/>
		<path d="M1557.3,950.9c-1.8-0.6-3.1-1.3-4.1-2.1l1.4-2.5c1,0.8,2.2,1.4,3.7,1.9s3.1,0.7,4.7,0.7c2.2,0,3.8-0.3,4.8-1
			s1.6-1.6,1.6-2.9c0-0.9-0.3-1.6-0.9-2c-0.6-0.5-1.3-0.9-2.2-1.1c-0.9-0.3-2-0.5-3.5-0.7c-1.9-0.4-3.5-0.7-4.6-1.1s-2.2-1-3-1.9
			c-0.8-0.9-1.2-2.1-1.2-3.7c0-2,0.8-3.6,2.5-4.9c1.6-1.3,3.9-1.9,6.9-1.9c1.5,0,3.1,0.2,4.6,0.6s2.8,0.9,3.8,1.6l-1.4,2.6
			c-2-1.3-4.3-2-7-2c-2,0-3.6,0.4-4.6,1.1c-1,0.7-1.6,1.7-1.6,2.8c0,0.9,0.3,1.6,0.9,2.2c0.6,0.5,1.3,0.9,2.2,1.2s2.1,0.5,3.6,0.8
			c1.9,0.4,3.4,0.7,4.5,1.1c1.1,0.4,2.1,1,2.9,1.8c0.8,0.9,1.2,2.1,1.2,3.6c0,2.1-0.9,3.7-2.6,4.9c-1.7,1.2-4.1,1.8-7.2,1.8
			C1560.9,951.7,1559,951.4,1557.3,950.9z"/>
		<path d="M1594.9,921.7c-0.7,0.8-1.1,1.9-1.1,3.3v2.8h7.3v2.7h-7.2v21h-3.2v-21h-4.2v-2.7h4.2v-2.9c0-2.2,0.6-3.9,1.9-5.1
			c1.2-1.3,3-1.9,5.3-1.9c0.9,0,1.8,0.1,2.6,0.4c0.8,0.3,1.5,0.6,2.1,1.1l-1.1,2.4c-0.9-0.8-2.1-1.2-3.5-1.2
			C1596.7,920.6,1595.6,920.9,1594.9,921.7z"/>
		<path d="M1608.6,950.2c-1.8-1-3.3-2.5-4.3-4.3c-1.1-1.8-1.6-3.9-1.6-6.2c0-2.3,0.5-4.4,1.6-6.2c1-1.8,2.5-3.3,4.3-4.3
			s3.9-1.5,6.2-1.5s4.3,0.5,6.2,1.5s3.3,2.4,4.3,4.3c1,1.8,1.6,3.9,1.6,6.2c0,2.3-0.5,4.4-1.6,6.2c-1,1.8-2.5,3.3-4.3,4.3
			s-3.9,1.6-6.2,1.6S1610.4,951.2,1608.6,950.2z M1619.3,947.7c1.3-0.8,2.4-1.9,3.1-3.3c0.7-1.4,1.1-3,1.1-4.8s-0.4-3.4-1.1-4.8
			c-0.8-1.4-1.8-2.5-3.1-3.3c-1.3-0.8-2.8-1.1-4.5-1.1s-3.2,0.4-4.5,1.1c-1.3,0.8-2.4,1.9-3.1,3.3c-0.8,1.4-1.1,3-1.1,4.8
			s0.4,3.4,1.1,4.8c0.8,1.4,1.8,2.5,3.1,3.3c1.3,0.8,2.8,1.1,4.5,1.1S1617.9,948.5,1619.3,947.7z"/>
		<path d="M1639.7,928.9c1.5-0.8,3.3-1.2,5.5-1.2v3.1l-0.8,0c-2.5,0-4.4,0.8-5.8,2.3c-1.4,1.5-2.1,3.7-2.1,6.4v12.1h-3.2v-23.7h3.1
			v4.6C1637.1,930.9,1638.2,929.7,1639.7,928.9z"/>
		<path d="M1431.5,983.1c1.8,1,3.2,2.4,4.2,4.3c1,1.8,1.5,3.9,1.5,6.3c0,2.4-0.5,4.5-1.5,6.3c-1,1.8-2.4,3.2-4.2,4.3
			c-1.8,1-3.8,1.5-6.1,1.5c-1.9,0-3.7-0.4-5.2-1.2c-1.5-0.8-2.8-2-3.8-3.5v13.2h-3.2v-32.4h3.1v4.7c1-1.6,2.2-2.8,3.8-3.6
			c1.6-0.8,3.4-1.3,5.3-1.3C1427.7,981.6,1429.7,982.1,1431.5,983.1z M1429.8,1001.7c1.4-0.8,2.4-1.9,3.2-3.3s1.1-3,1.1-4.8
			s-0.4-3.4-1.1-4.8c-0.8-1.4-1.8-2.5-3.2-3.3c-1.3-0.8-2.8-1.2-4.5-1.2c-1.7,0-3.2,0.4-4.5,1.2s-2.4,1.9-3.1,3.3
			c-0.8,1.4-1.1,3-1.1,4.8s0.4,3.4,1.1,4.8c0.8,1.4,1.8,2.5,3.1,3.3c1.3,0.8,2.8,1.1,4.5,1.1
			C1426.9,1002.9,1428.4,1002.5,1429.8,1001.7z"/>
		<path d="M1459.1,984c1.6,1.5,2.5,3.8,2.5,6.9v14.7h-3.1v-3.7c-0.7,1.2-1.8,2.2-3.2,2.9c-1.4,0.7-3.1,1-5,1c-2.6,0-4.7-0.6-6.3-1.9
			c-1.6-1.3-2.3-2.9-2.3-5c0-2,0.7-3.6,2.2-4.9c1.5-1.2,3.8-1.8,7-1.8h7.5v-1.4c0-2-0.6-3.6-1.7-4.7c-1.1-1.1-2.8-1.6-5-1.6
			c-1.5,0-2.9,0.2-4.3,0.7c-1.4,0.5-2.6,1.2-3.6,2l-1.4-2.4c1.2-1,2.6-1.8,4.3-2.4c1.7-0.6,3.5-0.8,5.3-0.8
			C1455,981.6,1457.4,982.4,1459.1,984z M1455.5,1002c1.3-0.8,2.3-2,2.9-3.6v-3.9h-7.4c-4,0-6.1,1.4-6.1,4.2c0,1.4,0.5,2.5,1.6,3.3
			c1,0.8,2.5,1.2,4.4,1.2C1452.6,1003.2,1454.2,1002.8,1455.5,1002z"/>
		<path d="M1476.6,982.9c1.5-0.8,3.3-1.2,5.5-1.2v3.1l-0.8,0c-2.5,0-4.4,0.8-5.8,2.3c-1.4,1.5-2.1,3.7-2.1,6.4v12.1h-3.2v-23.7h3.1
			v4.6C1474,984.9,1475.1,983.7,1476.6,982.9z"/>
		<path d="M1501.4,1004c-0.6,0.5-1.3,1-2.2,1.2c-0.9,0.3-1.8,0.4-2.8,0.4c-2.2,0-3.9-0.6-5.1-1.8c-1.2-1.2-1.8-2.9-1.8-5.1v-14.3
			h-4.2v-2.7h4.2v-5.2h3.2v5.2h7.2v2.7h-7.2v14.1c0,1.4,0.4,2.5,1.1,3.2c0.7,0.7,1.7,1.1,3,1.1c0.7,0,1.3-0.1,1.9-0.3
			c0.6-0.2,1.1-0.5,1.6-0.9L1501.4,1004z"/>
		<path d="M1507.2,976c-0.5-0.5-0.7-1-0.7-1.6c0-0.6,0.2-1.1,0.7-1.6s1-0.7,1.7-0.7c0.7,0,1.2,0.2,1.7,0.7c0.5,0.4,0.7,1,0.7,1.6
			c0,0.7-0.2,1.2-0.7,1.7s-1,0.7-1.7,0.7C1508.2,976.6,1507.6,976.4,1507.2,976z M1507.2,981.8h3.2v23.7h-3.2V981.8z"/>
		<path d="M1522.8,1004.2c-1.8-1-3.3-2.5-4.3-4.3c-1.1-1.8-1.6-3.9-1.6-6.2c0-2.3,0.5-4.4,1.6-6.2c1-1.8,2.5-3.3,4.3-4.3
			c1.8-1,3.9-1.5,6.3-1.5c2,0,3.9,0.4,5.5,1.2s2.9,2,3.8,3.5l-2.4,1.6c-0.8-1.2-1.8-2-3-2.6c-1.2-0.6-2.5-0.9-3.9-0.9
			c-1.7,0-3.2,0.4-4.6,1.1c-1.4,0.8-2.4,1.9-3.2,3.3c-0.8,1.4-1.1,3-1.1,4.8c0,1.8,0.4,3.4,1.1,4.8c0.8,1.4,1.8,2.5,3.2,3.2
			c1.4,0.8,2.9,1.1,4.6,1.1c1.4,0,2.7-0.3,3.9-0.9c1.2-0.6,2.2-1.4,3-2.6l2.4,1.6c-0.9,1.5-2.2,2.7-3.8,3.5s-3.4,1.2-5.4,1.2
			C1526.8,1005.7,1524.7,1005.2,1522.8,1004.2z"/>
		<path d="M1544.6,976c-0.5-0.5-0.7-1-0.7-1.6c0-0.6,0.2-1.1,0.7-1.6c0.4-0.5,1-0.7,1.7-0.7c0.7,0,1.2,0.2,1.7,0.7
			c0.4,0.4,0.7,1,0.7,1.6c0,0.7-0.2,1.2-0.7,1.7c-0.5,0.5-1,0.7-1.7,0.7C1545.6,976.6,1545.1,976.4,1544.6,976z M1544.6,981.8h3.2
			v23.7h-3.2V981.8z"/>
		<path d="M1575,983.1c1.8,1,3.2,2.4,4.2,4.3c1,1.8,1.5,3.9,1.5,6.3c0,2.4-0.5,4.5-1.5,6.3c-1,1.8-2.4,3.2-4.2,4.3
			c-1.8,1-3.8,1.5-6.1,1.5c-1.9,0-3.7-0.4-5.2-1.2c-1.5-0.8-2.8-2-3.8-3.5v13.2h-3.2v-32.4h3.1v4.7c1-1.6,2.2-2.8,3.8-3.6
			c1.6-0.8,3.4-1.3,5.3-1.3C1571.2,981.6,1573.2,982.1,1575,983.1z M1573.2,1001.7c1.4-0.8,2.4-1.9,3.2-3.3s1.1-3,1.1-4.8
			s-0.4-3.4-1.1-4.8c-0.8-1.4-1.8-2.5-3.2-3.3c-1.3-0.8-2.8-1.2-4.5-1.2c-1.7,0-3.2,0.4-4.5,1.2s-2.4,1.9-3.1,3.3
			c-0.8,1.4-1.1,3-1.1,4.8s0.4,3.4,1.1,4.8c0.8,1.4,1.8,2.5,3.1,3.3c1.3,0.8,2.8,1.1,4.5,1.1
			C1570.4,1002.9,1571.9,1002.5,1573.2,1001.7z"/>
		<path d="M1602.5,984c1.6,1.5,2.5,3.8,2.5,6.9v14.7h-3.1v-3.7c-0.7,1.2-1.8,2.2-3.2,2.9c-1.4,0.7-3.1,1-5,1c-2.6,0-4.7-0.6-6.3-1.9
			c-1.6-1.3-2.3-2.9-2.3-5c0-2,0.7-3.6,2.2-4.9c1.5-1.2,3.8-1.8,7-1.8h7.5v-1.4c0-2-0.6-3.6-1.7-4.7c-1.1-1.1-2.8-1.6-5-1.6
			c-1.5,0-2.9,0.2-4.3,0.7c-1.4,0.5-2.6,1.2-3.6,2l-1.4-2.4c1.2-1,2.6-1.8,4.3-2.4c1.7-0.6,3.5-0.8,5.3-0.8
			C1598.5,981.6,1600.9,982.4,1602.5,984z M1598.9,1002c1.3-0.8,2.3-2,2.9-3.6v-3.9h-7.4c-4,0-6.1,1.4-6.1,4.2
			c0,1.4,0.5,2.5,1.6,3.3c1,0.8,2.5,1.2,4.4,1.2C1596.1,1003.2,1597.6,1002.8,1598.9,1002z"/>
		<path d="M1632.8,984.2c1.8,1.7,2.6,4.2,2.6,7.5v13.7h-3.2v-13.4c0-2.5-0.6-4.3-1.8-5.6c-1.2-1.3-3-1.9-5.3-1.9
			c-2.5,0-4.6,0.8-6.1,2.3c-1.5,1.5-2.2,3.6-2.2,6.3v12.4h-3.2v-23.7h3.1v4.4c0.9-1.4,2.1-2.6,3.6-3.4c1.5-0.8,3.3-1.2,5.4-1.2
			C1628.7,981.6,1631.1,982.5,1632.8,984.2z"/>
		<path d="M1656.6,1004c-0.6,0.5-1.3,1-2.2,1.2c-0.9,0.3-1.8,0.4-2.8,0.4c-2.2,0-3.9-0.6-5.1-1.8c-1.2-1.2-1.8-2.9-1.8-5.1v-14.3
			h-4.2v-2.7h4.2v-5.2h3.2v5.2h7.2v2.7h-7.2v14.1c0,1.4,0.4,2.5,1.1,3.2c0.7,0.7,1.7,1.1,3,1.1c0.7,0,1.3-0.1,1.9-0.3
			c0.6-0.2,1.1-0.5,1.6-0.9L1656.6,1004z"/>
		<path d="M1663.2,1004.9c-1.8-0.6-3.1-1.3-4.1-2.1l1.4-2.5c1,0.8,2.2,1.4,3.7,1.9c1.5,0.5,3.1,0.7,4.7,0.7c2.2,0,3.8-0.3,4.8-1
			c1-0.7,1.6-1.6,1.6-2.9c0-0.9-0.3-1.6-0.9-2c-0.6-0.5-1.3-0.9-2.2-1.1c-0.9-0.3-2-0.5-3.5-0.7c-1.9-0.4-3.5-0.7-4.6-1.1
			s-2.2-1-3-1.9c-0.8-0.9-1.2-2.1-1.2-3.7c0-2,0.8-3.6,2.5-4.9c1.6-1.3,3.9-1.9,6.9-1.9c1.5,0,3.1,0.2,4.6,0.6
			c1.5,0.4,2.8,0.9,3.8,1.6l-1.4,2.6c-2-1.3-4.3-2-7-2c-2,0-3.6,0.4-4.6,1.1c-1,0.7-1.6,1.7-1.6,2.8c0,0.9,0.3,1.6,0.9,2.2
			c0.6,0.5,1.3,0.9,2.2,1.2s2.1,0.5,3.6,0.8c1.9,0.4,3.4,0.7,4.5,1.1c1.1,0.4,2.1,1,2.9,1.8c0.8,0.9,1.2,2.1,1.2,3.6
			c0,2.1-0.9,3.7-2.6,4.9c-1.7,1.2-4.1,1.8-7.2,1.8C1666.8,1005.7,1665,1005.4,1663.2,1004.9z"/>
	</g>
	<g>
	</g>
	<g>
	</g>
	<g>
	</g>
	<g>
	</g>
	<g>
	</g>
	<g>
	</g>
	<g>
	</g>
	<g>
	</g>
	<g>
	</g>
	<g>
	</g>
	<g>
	</g>
	<g>
	</g>
	<g>
	</g>
	<g>
	</g>
	<g>
	</g>
</g>
</svg>
