<?xml version="1.0" encoding="utf-8"?>
<!-- Generator: Adobe Illustrator 25.2.1, SVG Export Plug-In . SVG Version: 6.00 Build 0)  -->
<svg version="1.1" xmlns="http://www.w3.org/2000/svg" xmlns:xlink="http://www.w3.org/1999/xlink" x="0px" y="0px"
	 viewBox="0 0 1351 576" style="enable-background:new 0 0 1351 576;" xml:space="preserve">
<style type="text/css">
	.st0{display:none;}
	.st1{fill:#B2B2B2;}
	.st2{fill:#F08118;}
	.st3{fill:none;stroke:#878789;stroke-width:3;stroke-linejoin:round;}
	.st4{fill:none;stroke:#878789;stroke-width:3;stroke-linejoin:round;stroke-dasharray:9.8571,4.9286;}
</style>
<g id="Warstwa_1" class="st0">
	
		<image style="display:inline;overflow:visible;" width="3007" height="2010" xlink:href="numbers.png"  transform="matrix(0.6046 0 0 0.6046 57.9626 -65.5747)">
	</image>
</g>
<g id="Warstwa_9">
	<path class="st1" d="M290.6,85.8c0.8-0.8,2.8-2.6,3.6-2.1c0.8,0.5,1.9-0.4,2.8,0.4c0.9,0.8,1.9,1.7,2.7,1.9
		c0.8,0.3,1.7-0.6,2.5-0.3c0.8,0.4,3.5-1.9,3-0.1c-0.5,1.8,0.6,2.3-0.8,2.5c-1.4,0.1-3,1.2-3.6,0.8s-1.2-0.8-2.2-0.3
		c-1,0.5-0.5,0.5-1.7,0.3c-1.2-0.3-1.4,0.3-1.7-0.1c-0.3-0.4-1-0.3-0.9-1.4c0.1-1.2,0.5-1-0.3-1c-0.8,0-1.4,0.1-1.9-0.3
		C291.6,85.6,290.6,85.8,290.6,85.8L290.6,85.8z"/>
	<path class="st1" d="M319.4,84.2c-0.6,0.6-2.2,1.5-1.8,1.9s0.6,1.8,1.4,1.4c0.8-0.4-0.1-1.7,2.8-0.6c3,1,2.7-0.1,3.4,1.4
		c0.6,1.5,1.2,2.7,0.8,3.1c-0.4,0.4-0.5,0.8-1.8,1.2c-1.3,0.4-1.8,0.9-0.9,1.5c0.9,0.6,2.6,1.3,3.4,1.7c0.8,0.4,3.1,0.5,1.9-0.8
		c-1.2-1.3,0.3-1.7,0.3-1.7s2.2,1.7,1.4-0.3c-0.8-1.9-1.3-1.9-0.8-1.9c0.5,0,1.5,0.6,1.5,0.6l0.5-1l-0.5-1.7l-1.7-1.7
		c0,0,1.4-1.3-0.5-1.5c-1.9-0.3-1.8-0.3-2.8-0.9c-1-0.6-1.2-0.9-3.1-0.5c-1.9,0.4-2.6,0.6-2.6,0.6L319.4,84.2z"/>
	<path class="st1" d="M376.1,125.6l-1.3,1.7l-0.9,0.9l-1.7,0.9l-0.3,0.8c0,0-0.7,0.7-0.6,1.1s0.1,1.2,0.1,1.2s-1.2,1.1-1.7,1.5
		c-0.5,0.3-1.2,1.1-1.2,1.1s-0.4,0.5-0.7,0.7s-0.7,0.7-1,1.2c-0.3,0.5-0.7,0.9-0.9,1.1c-0.2,0.3-0.7,0.9-0.9,1.8
		c-0.3,0.9-0.9,2.1-0.9,2.1l-0.2,0.4c0.1,1.5,0.1,1.7,0.3,2.2c0.2,0.5,0.3,0.3,0.2,1.5c-0.2,1.1-0.2,1.5-0.3,2.1
		c-0.2,0.5-0.7,1.5-0.9,1.9c-0.2,0.4,0.3,1.2,0.3,1.2s0.3,1.1,0.1,1.4c-0.2,0.3,0.1,0.8,0.1,0.8s1,0.6,1.4,0.9s0.9,0.9,1,1.1
		s0.8,1.5,0.9,1.7c0.1,0.3,0.8,1.2,0.9,1.5c0.2,0.3,1,1.2,1,1.2s1.1,0.9,1.4,1.2c0.3,0.3,1,0.5,1.3,0.8c0.3,0.3,0.9,0.2,1.2,0.4
		c0.3,0.3,1-0.2,1.4,0c0.3,0.2,1.3-0.2,1.5-0.3c0.3-0.2,0.9-0.8,1.3-0.5s0.7,0,1,0.1s0.9-0.3,1.2-0.3c0.3,0,1.2-0.3,1.5-0.3
		s1.1-0.5,1.5-0.5s0.8-0.3,1.2-0.2c0.4,0.2,0.3-0.3,1-0.1s1,0,1.3,0.3c0.3,0.3,0.6,0,0.9,0.3c0.3,0.3,0.7,0.6,0.8,0.9
		c0.1,0.3,0.6,0.7,0.6,0.7l0.5,0.1c0,0,0.7-0.5,0.9-0.2c0.2,0.3,0.9,0.3,0.9,0.3l0.8,0.9l0.3,0.3c0,0,0.5,1.4,0.4,1.9
		c-0.1,0.5-0.1,1.6-0.3,1.9c-0.3,0.3-0.4,1.4-0.4,1.4s-0.3,0.3,0.4,1s1.3,1.3,1.5,1.6c0.3,0.3,0.9,1.3,1,1.9
		c0.1,0.6,0.3,0.9,0.6,1.7s0.8,0.9,0.9,1.7c0.1,0.9,0.3,0.9,0.2,1.5c-0.1,0.6-0.3,0.7-0.1,1.1c0.3,0.4,0.6,1.2,0.5,1.5
		c-0.1,0.3-0.3,1.4-0.3,1.4l-0.2,0.5l-0.8,1.5l-0.5,0.8c-0.2,0.6-0.5,1.2-0.4,2.1c0.1,0.9-0.4,0.9,0.3,1.7s1,1.8,1.5,2.6
		c0.4,0.8,0.7,1.5,0.8,2.1c0.1,0.5,0.4,0.7,0.6,1.4c0.2,0.7,0.3,1,0.3,1.5c0,0.4-0.1,1.5,0.1,1.8c0.2,0.3,0.3,1,0.3,1.4
		c0.1,0.3-0.3,0.4,0.3,1c0.5,0.6,0.9,0.9,1.2,1.4s0.3,0.3,0.5,0.9s0.6,0.9,0.7,1.5c0.1,0.5,0.2,1.8,0.4,2.4c0.3,0.6,0.6,1.2,0.6,1.2
		s0.9,0.6,1.3,0.5c0.3-0.1,1-0.9,1.5-0.6c0.5,0.3,0.9,0,1.4,0c0.4,0,0.9-0.5,1.3-0.5s1-0.7,1.4-0.5s0.8-0.2,1.2-0.6
		c0.4-0.4,0.7-0.8,1.5-1.5c0.8-0.7,0.7-0.7,1.2-1.1c0.5-0.4,1-1.4,1.6-1.5c0.6-0.2,0.8-0.8,0.9-1.2c0.2-0.4,0.3-0.7,0.5-1
		c0.3-0.3,0.1,0.1,0.5-1c0.4-1.1,0.9-1.5,1.4-1.8s0.7-0.8,0.9-0.9c0.3-0.1,0.7,0.3,0.5-0.5c-0.2-0.8,0-1.9-0.2-2.2s-0.4,0.6-0.3-0.7
		c0.1-1.3,1-2.6,1-2.6s1.3-1.6,1.7-1.9s0.5-0.5,1.1-0.9c0.6-0.3,1.9-1.2,1.9-1.6c0-0.4,0.5-1.5,0.5-1.8s0-0.5-0.2-2
		c-0.2-1.5,0.2-1.1-0.3-2.5s-0.6-3.1-0.9-3.5c-0.3-0.4-0.2-1.6-0.2-1.9s0.6-1.2,0.9-1.5c0.3-0.3,1.4-1.7,1.4-1.7s1.7-2,2.3-2.9
		c0.6-0.9,1.2-1.8,1.6-2.2c0.4-0.3,1.5-1.1,2.1-2c0.6-0.9,1.8-2.5,1.9-2.8c0.1-0.3,0.8-1.1,0.8-1.1s0.9-1.1,1.1-1.7
		c0.2-0.6,1-4,0.9-3.8c-0.2,0.2-1.2,0.3-1.5,0.4c-0.3,0.1,0.5,0.4-2,0.3s-3.8,0.3-3.8,0.3c-0.8-0.2-1.4,0.7-1.6-0.5
		s-0.4-1.9-0.9-2.8c-0.5-0.9-0.9-1.2-1.6-2.3c-0.8-1.1-0.7-0.6-1.4-1.5c-0.7-0.9-0.9-0.6-1.3-1.7c-0.4-1.1-0.8-0.7-1.3-2.2
		c-0.5-1.5-0.9-1.7-1.1-2.6c-0.3-0.9-0.6-1.1-0.8-1.9c-0.2-0.8-2.2-4.7-2.4-5c-0.3-0.3-0.7-1.6-0.6-1.4c0.1,0.3,1.3,1.1,1.3,1.1
		s0.7-0.3,0.9-0.3s1.3,0.9,1.3,1.3c0,0.3,1.8,2,2.2,3.2c0.4,1.2,0.9,2.1,1,2.4c0.1,0.3,0.9,1.7,1.3,2.2c0.3,0.5,1.5,1.5,1.6,2.1
		c0.2,0.5,1.8,2.2,1.8,3.4s0.8,2.6,0.9,2.9c0.1,0.3,1.6,0.8,1.6,0.8l2.1-0.5c0,0,3.1-2,3.4-2c0.3,0,3.1-1.3,3.1-1.3s1.1-1,1.9-1.6
		c0.8-0.6,1.6-1.7,1.8-2.2c0.2-0.5,0.5-0.6,1.2-1.4s1.6-1.5,1-2.1c-0.6-0.5-0.9-0.3-1.8-1.2c-0.9-0.9-0.8-0.7-1.4-1.8
		c-0.6-1.1,0.1-2.4-1.2-1.1s-0.8,1.6-2.1,1.9c-1.3,0.3-1.8,1.1-2.4,0.3c-0.6-0.9-1.2-0.3-1.5-1.6c-0.3-1.3-0.6-1.4-0.7-1.9
		c-0.1-0.5,0-0.5-0.7-1.8c-0.7-1.3-0.2-3.3,0.3-2.2s1.1,1.3,2.2,2.1c1.1,0.8,1.6,1.4,2.7,1.5c1,0.1,1.9,0,2.1,0.2s0.3-0.1,0.8,0.1
		c0.4,0.2,0.6-0.3,0.8,0.4c0.2,0.7,1.1,0.8,1.5,1.2s0.4,0.3,1.6,0.4c1.1,0.2,2.7,0.2,2.7,0.2l1.6-0.1l1.9,0.2c0,0,1.4,0.8,1.7,0.8
		c0.3,0,0.4,0.9,1.3,1.5s1,0.6,1.5,1.2c0.5,0.6,0.4,0.9,1.1,1.5c0.7,0.6,1.8-0.1,2-0.3c0.2-0.3,1-0.7,0.9,0
		c-0.2,0.7,0.9,0.4,0.6,2.1c-0.3,1.6-0.4,1.2,0,2.3c0.4,1.1,2.3,4.6,2.4,5.6s0.6,0.7,0.7,1.6c0.1,0.9,0.6,1.3,0.6,2
		c0,0.7,0.6,0.9,0.7,1.4c0.1,0.5,1,0.1,1.3,0c0.3-0.1,1.5-1.2,1.5-1.2s0.5-0.2,0.4-1s0-0.7,0-2s-0.5-1.3-0.3-2.6s0.9-2.1,1.1-2.7
		c0.2-0.6,0.9-1.6,1.2-1.7c0.3-0.1,2.2-1,2.7-1.6c0.4-0.6,1.1-1.3,1.8-2c0.7-0.7,1.9-1.5,2.2-1.3s0.2,0.2,0.6,0.2
		c0.4,0,1.2,0.3,1.8,0.4c0.6,0.1,1.8,1.5,2.1,2.3s0.1,0.6,1,1.7c0.9,1.1,1.8,0.4,1.8,1.8c0,1.4,0,1.3,0.4,1.8
		c0.4,0.5,0.9-0.9,1.5-0.8s0.6-0.2,1,1.2c0.4,1.4,0.7,1.4,0.8,2.8c0.1,1.4-0.1,0.1-0.1,1.2c0,1.1-0.1,1.2,0.1,2.2
		c0.2,1,0.8,1.4,0.7,1.6c0,0,0.5-1.5,0.3-2.5c-0.2-1,0-2.5,0.4-2.9c0.4-0.4,0.9-0.9,1.2,0.3c0.3,1.1,0.5,0.3,1.3,1.5
		c0.8,1.3,1.5,1,1.5,1.6c0.1,0.6,0.5,0.7,1.1,1.2c0.6,0.5,1.1-0.1,1.8-0.6c0.7-0.5,2.6-2.4,2.7-3.2c0.1-0.8,0.9-0.6-0.5-2.6
		s-1.4-2.7-2.8-3.9c-1.5-1.2-2.3-1.3-1.2-2.8c1.1-1.5,1.6-2.6,2.3-2.2c0.7,0.4,1.9,0.3,1.9,2.1c0,1.7-0.3,3.6,0.9,1.5
		c1.2-2.1,1.8-3.3,1.5-2.9c-0.3,0.3,0.8-0.7,0.8-0.7s0.1-0.8,1.6-1.1c1.5-0.3,1.9-0.5,2.4-0.8c0.5-0.3,2-2,2.2-2.8s0.9-2.2,0.8-2.8
		c-0.2-0.6-1-3.5-1.2-3.4c-0.2,0.1-0.1,0.1-1.2-1.1c-1.1-1.2-1.9-2.1-2.1-2.6c-0.2-0.5-0.6-0.6-0.1-1.3c0.5-0.7,0.8-0.6,0.9-1.2
		c0.1-0.6,0.8-1.1-0.5-0.7c-1.3,0.4-0.3,0.2-1.5,0.1c-1.1-0.1-4,0.6-2.6-1.2c1.5-1.8,1.9-2.9,2.2-2.9s1.6-1.5,1.6-0.1
		c0.1,1.4,0.6,1,0.7,1.9s1.8-0.9,1.8-0.9s0.6,0.2,1,0.6s0.4,1.8,0.4,1.8s-0.3-0.4,0.6,0.3c0.9,0.7,2,0.3,2,1.8s0,1.5,0.6,1.9
		s1.2,0.2,1.7-0.3c0.5-0.4,1.4-2,1.4-2s0.1-0.6-1.3-1.5s-2.2-1.5-2.8-1.9s-0.3-1.7,0.2-2.2s0.8-0.8,0.6-1.5
		c-0.2-0.7,0.3-1.2,1.5-1.1c1.3,0.1,1.5-0.1,1.5-0.1s0.3,0.2,0.3-0.3s1.6-2.9,1.2-2.9c-0.4,0,0.1-0.6-0.2-1.5
		c-0.3-0.9,0.9-2.4-0.1-3.1c-0.9-0.7-1.2-1-1.8-2.1c-0.6-1-0.5-1.2-2.8-1.5c-2.2-0.3-3.3,0.5-3.8-0.2s-0.8,1-1.1-1
		c-0.3-2.1,0.5-3.4,0.5-3.4s1.4-0.9,1.7-1.5c0.3-0.6,1.7-0.9,2.8-0.4s2.8,0.3,4.1,0.6c1.4,0.3,1.3,1.1,2,0c0.7-1.1,0-1.6,0.5-2.2
		c0.5-0.6,1.1-1.5,1.5-0.9c0.4,0.6,1.3,1.2,2,0.4c0.7-0.8,0.9-0.9,0.9-0.9l0.3,0.3c0,0,0.8-0.4,0.8,0.3c0,0.8,0.8,1.6,0.3,2.2
		c-0.4,0.6-1,0.5-1,2s0,1.2,0.9,2.4c0.9,1.2,1.5,0.2,1.7,1.5c0.2,1.3,0.3,1,1.3,1.9c0.9,0.9,0.8,0.9,1.5,1.4c0.7,0.5,1,1,1,0.2
		c0-0.9,0.1-1.3,0-2.1c-0.1-0.8,0.7-1.4,0.2-2.7c-0.5-1.3-0.1-1.2-1.1-2.2c-1-0.9-1.7,0.2-2.1-1.2c-0.3-1.4,1.6-2,2.2-2.2
		s1.3-1.2,1.5-0.5c0.2,0.7-1.3,3.2,1.2,0.5c2.5-2.7,1.4-1.5,1.4-1.5s1.3-0.2,1.5,0c0.3,0.2,0.9-0.8,0.7-0.7
		c-0.3,0.1-2.8-1.4-2.8-1.4l-1.8-1c0,0,0.6-0.4,1-0.3s0.5-0.9,0.9-0.9c0.4-0.1,3.4,0.6,4,0.9c0.6,0.3,2.8,0.4,2.5,0.3
		c-0.3-0.2-1.6-1.2-1.7-1.5c-0.1-0.3-3.1-1-4-0.9c-0.9,0.1-1.8,0.3-2.6,0.1c-0.8-0.3-1.9-0.9-2.5-0.9c-0.6,0-8.2-1.5-8.5-1.4
		c-0.3,0.1-0.9,1.7-1.1,1.5c-0.3-0.3-0.7-0.3-1.9-0.6c-1.2-0.3-2.8-0.6-5-0.8c-2.2-0.2-3.6,0.2-4.2-0.5s-1.9-0.4-3.4-0.5
		c-1.5-0.1-3.2,0-4,0s-2.6-0.1-3-0.2c-0.4-0.1-0.9-0.7-1.5-0.8c-0.5-0.1-0.4-0.3-1.5-0.4c-1-0.2-0.9-1.3-1.3-0.3
		c-0.3,0.9-0.2,0.7-0.7,1c-0.5,0.3-1,1-1.4,1s-1.7,0.1-2-0.1c-0.3-0.2-0.7-0.3-1.5-0.3c-0.9,0-0.9,0.1-2-0.1c-1.1-0.2-2-0.1-3-0.6
		s-1-0.9-1.9-0.8s-0.9-0.2-2.1-0.2c-1.2,0-2.7,0.7-3.4,0.8c-0.8,0.1-2.5-0.1-3.1-0.3c-0.6-0.3-0.8-0.9-3-0.6
		c-2.2,0.3-3.5,0.3-3.1-0.4c0.4-0.7,0.9-1.4,1.2-1.5c0.3-0.1,0.9-0.5,0.4-0.7c-0.4-0.2-0.9-0.4-1.9-0.5c-1-0.1-0.9,0.3-2.5,0.2
		c-1.5-0.2,0.9-0.6-2.3-0.5c-3.2,0.1-4,0.3-4.3,0.3c-0.3,0-0.8-0.7-1.6,0.3c-0.9,1-2.1,1.6-3.8,1.7s-1.8-0.2-3.4,0.4
		c-1.6,0.6-2.7-0.2-2.3,1.2c0.3,1.4,0.8,1.9,0.8,2.2c0,0.3-0.8,2-1.7,0.9c-0.9-1-2.7-5.1-1.9-2.3c0.8,2.8,2.5,3.7,0.9,4.1
		s-1.5-0.2-1.7-0.3c-0.3-0.2,0-1.4-0.1-2.1c-0.1-0.7-0.3-1.1-0.6-1.5c-0.3-0.3-0.3-0.9-0.9-1c-0.7-0.2-0.1-0.5-1.2-0.5
		s-2.1-0.7-1.8,0.9s0.5,0.5,1.2,2c0.7,1.5,2,0.4,1,1.5c-0.9,1-3.4,0.7-4,0.3c-0.6-0.4-0.4,0.2-1.6-0.6c-1.1-0.8-0.8-1.4-2.1-0.8
		c-1.3,0.6-1.7,1.7-2.2,1.3c-0.5-0.4-1.7,0.6-2.2,0.1c-0.4-0.5-2.2-0.5-2.5,0c-0.3,0.5-1.4,0.4-2.8,1.1c-1.5,0.7-1,0.1-2.8,1.5
		s-2.8,2.7-3.4,1.7c-0.6-0.9-3.9-2.6-2.6-2.8s1.9-0.8,2.6-0.2s1.8,0.4,2,0s0.9-0.9-0.1-1.4c-1-0.5-1.1-0.2-2.8-0.8
		c-1.6-0.6,0-0.4-2.2-0.8c-2.2-0.3-3.2-0.5-3.8-0.7c-0.6-0.2-1.5,0-2.3-0.1c-0.9-0.1-1.5-0.3-2.2-0.2c-0.8,0.1-1.2-0.1-2.2,0.7
		c-1,0.8-1.8,1.1-2.5,1.7c-0.7,0.6-2.5,1.8-3,2.2s-2.3,1.8-2.5,2.3c-0.2,0.5,0.2,0.9-0.5,1.3c-0.7,0.3-1.4,0.3-1.9,0.4
		c-0.5,0.1,0-0.8-0.5,0.1c-0.5,0.9-0.3,4,0.1,3.5s0.2-1.8,2.1-0.5c1.9,1.3,3.1,1.1,3,2.3c-0.1,1.2,1.3,1.1,1.5,1.4
		c0.2,0.3,1-0.3,1-0.3s1.9-1.2,1.9-1.8s1.2-2,1.2-2s-0.9-0.4-0.9-1.3c0-0.9,0.3-1.1,0.4-2c0.2-0.9-0.9,0,1.6-1.6
		c2.6-1.6,2.8-0.5,2.8-0.5s0.3,0.3-0.1,0.9c-0.4,0.5-1.2,1.9-1.4,2.1c-0.2,0.2,0.8,1.5,1.2,1.5c0.4,0,1.3-0.3,1.8-0.3
		c0.5,0.1,1.4-0.3,1.6-0.1c0.3,0.2,0.9,0.7,0.4,1.1s-1.4,0.9-2.1,0.8s-1.7-1.4-1.1,0.3c0.6,1.7-0.1,2.2-0.6,2.1
		c-0.5-0.1-1.6-0.9-1.5,0.3c0.2,1.3-1.1,2.2-1.4,2.2s-0.8-0.1-0.8-0.1s-0.8-0.1-1.2-0.1c-0.4,0-1.3,0.4-1.5,0.8
		c-0.3,0.3-0.6,0.1-1,0.1c-0.4,0,0-0.5-0.9-0.7c-0.9-0.2-1.4-0.3-1.9,0c-0.5,0.3-1.3,0.5-1.6,0.3s0.2-0.9-0.5-0.5
		c-0.7,0.3-1.2,1.3-1.5,1.4c-0.3,0.1,0.8,0-0.3,0.1c-1,0.1-1.5,0.3-2,0.5s0.2,1.2-0.8,1.5s-0.3-0.4-1.2,0.3
		c-0.9,0.8-1.1,1.5-1.5,1.5c-0.3,0.1-0.3,0.3-1,0.3s-0.7,0.2-1.1,0.3c-0.4,0.1,0.1,0.3-0.9,0.1c-0.9-0.2-1.6,0.2-1.5,0.5
		c0.2,0.3,3.4,1.3,0.9,1.2c-2.4-0.1-1.6,0.3-1.1,0.7c0.5,0.3,0.8,0.7,1,0.8c0.3,0.1,0.7,1.1,0.7,1.1s0.7-0.1,0.3,0.5
		s0.2,0.8-0.3,1.5c-0.4,0.8-0.4,0.3-0.8,0.4s-0.9,0.8-1.8,0.3c-0.9-0.5-1.6-0.8-2.8-0.9c-1.1-0.1-0.3-0.3-1.1,0.3
		c-0.8,0.6-0.9,1.3-0.9,2.1c0.1,0.8,0.2,1.8-0.1,2.3c-0.3,0.5-0.3,1-0.1,1.8c0.2,0.8,0.7,1.1,0.7,1.1s1.2,0.2,1.5,0.3
		c0.3,0.1,0.8-0.2,1.5,0.3c0.7,0.4,1.4,0.6,1.8,0.1s2.2-1.1,2.7-1.6c0.5-0.5,0.9-0.7,0.6-1.2s0.5-1.8,0.9-2.1s1.4-0.5,1.4-0.5l1-1.5
		c0,0,0.9-0.9,1.3-0.9c0.4,0.1,2.8,0.9,2.7-0.2c-0.2-1.1,0.2-1.5,0.4-1c0.3,0.4,0.9,0.3,0.9,0.3s0.3-0.2,0.6,0.1
		c0.3,0.3,0.6,1.4,1.1,1.6c0.5,0.3,0.9,0.5,1.3,0.7c0.3,0.2,0.7,0,1.4,0.6c0.7,0.6,1.4,0.9,1.5,1.2c0.1,0.3,0.7,0.9,0.7,0.9
		s0.6,0.2,0.4,0.5c-0.2,0.3-1,1.4-1.5,1.5c-0.4,0.2-1.5-0.2-1.1,0.2c0.4,0.3,1,0.8,1.3,0.5c0.3-0.3,1.9-2,1.9-2s-0.1,0.1,0-0.4
		c0.1-0.5,0-1.1,0.4-0.9c0.4,0.3,0.7,0.6,0.9,0.3c0.2-0.3,0.3-0.2-0.1-0.4c-0.4-0.3-1.5-1.7-2-1.8c-0.5-0.1-1.8-0.9-1.8-0.9
		s-0.3-0.3-0.9-0.9c-0.6-0.7-0.8-0.5-0.9-1.1c-0.2-0.6-0.7-1.4,0.3-1.2s1.5,0.8,2.4,1.3s0.7,0.7,1.5,1.2s0.9,1,1.5,0.9
		c0.6-0.1,1.3,0.3,1.3,1.1c0,0.8,0.2,1.6,0.3,1.8c0.2,0.2,0.7,0.5,0.9,0.9c0.2,0.3,0.5,1.2,0.8,1.5c0.3,0.3,0.5,0.6,0.8,1
		c0.3,0.4,0.3-0.1,0.6,0.1c0.3,0.2,0.6,0.1,0.6-0.3c0-0.3,0.1-0.9,0.1-0.9s1.2-0.3,0.9-0.5c-0.3-0.2-1.4-1.2-1.3-1.5
		c0.1-0.3,0-1,0.4-0.9c0.4,0.1,0.9,0.9,1.8,0.2c0.9-0.7,2.1-1,1.7,0c-0.3,1,0.1,1.2,0,2.3c-0.1,1.1,0.3,0.8,0.9,1.4
		c0.6,0.6,1,0.7,1.5,0.9c0.4,0.2,1.1,0.1,1.8,0.2c0.7,0.1,1.1-0.3,1.7-0.1c0.6,0.2,2-0.1,2.2,0.1c0.3,0.2,1.3-0.3,1.4,0.3
		c0.1,0.6,0.4-0.1,0.2,1.3c-0.3,1.4-0.6,2.3-0.6,2.3c-0.9,1.8-1.3,2.2-1.7,2.3c-0.4,0.1-0.7,0.3-1.5,0.3c-0.8-0.1-1.7,0-2.8-0.3
		s-3.2,0.3-4-0.3c-0.9-0.5-2.1-0.1-2.6-0.7c-0.5-0.6-1.4-0.5-1.7-0.9c-0.3-0.3-0.5-1.3-0.5,0.1c0,1.4-0.8,1.5-0.9,2.2
		c-0.2,0.7,0.3,0.3-0.7,0.3c-0.9-0.1-1.2,0.4-2.6-0.6s-2.1-1-2.8-1.5c-0.7-0.4-1.4,0.8-2.1-0.6c-0.7-1.4-1.6-0.3-1.7-1.4
		c-0.1-1.1,0-1,0.1-1.7c0.1-0.7,1-1.3,0.6-1.5s-0.1-0.7-0.7-0.4s-1.5,0.3-2.2,0.6c-0.7,0.3,1.5,0-1.8,0.3c-3.4,0.3-4.3,0.6-4.3,0.6
		s-0.3-0.2-0.7,0.2c-0.4,0.3-1,0.9-1.6,0.6c-0.6-0.3-0.9-0.2-1.5-0.1c-0.5,0.1-0.9-0.4-1.5,0c-0.6,0.4-1.3,0.6-1.5,0.4
		C376.5,126.3,376.1,125.6,376.1,125.6L376.1,125.6z"/>
	<path class="st1" d="M433.7,182.2c-0.3,0.9-1.2,2.3-1.2,2.3l-1.7,0.9c0,0-0.6,0.5-0.9,0.6c-0.3,0.1-1.2,0.5-1.2,0.5
		s-0.8-0.2-0.5,0.6c0.3,0.8,0.3,1.7,0.3,2c-0.1,0.3-0.1,0.8-0.1,1.5c0,0.7-0.3,1.5-0.7,1.7s-0.9,0.3-0.8,0.9
		c0.1,0.6,0.1,2.4,0.1,2.4l1.1,1.7c0,0,0.3-0.3,1-0.3s1.4-0.6,1.4-0.6s0.8,0.2,0.7-0.8c-0.1-0.9,0.3-2.1,0.3-2.3
		c-0.1-0.3,0.8-1.4,0.8-1.6c0-0.3,0.9-1.5,0.9-1.9s0.6-1.1,0.7-1.6c0.1-0.5,0.2-1.7,0.3-2.1c0.2-0.3,0.3-0.7,0.3-1c0-0.3,0-1,0-1
		L433.7,182.2L433.7,182.2z"/>
	<path class="st1" d="M501.1,193.9c-0.3,0.3-0.4,4-0.6,4.5c-0.2,0.4-0.5,2.7-0.3,3.2c0.2,0.5,0.4,2.4,0.3,3s0.1,2.5-0.3,2.4
		c-0.4-0.1-0.6,0.1-0.6,0.3c0,0.3,0.6,0.8,0.6,0.8s1,0,1.5-0.1c0.4-0.1,1.3-0.5,2-0.5s1.1-0.5,1.7-0.5c0.6,0,1.9-0.4,2.2-0.3
		c0.3,0.2,0.9-1,1.5-0.8c0.6,0.3,1.9-0.6,2.5-0.6s0.9-0.9,1.5-0.8c0.7,0.2,2-0.3,2.6-0.1c0.6,0.3,1.5-0.9,2,0s1.7,1.2,1.7,1.6
		c0,0.4-0.1,1.4-0.1,1.4l1-0.1c0,0,1.6-1,1.9-1c0.3,0,0.9-0.9,0.9-0.4c0,0.4-0.5,1.4-0.7,1.8c-0.2,0.4,0.2,0.9,0.2,0.9
		s0.9,0.4,0.5,1.2c-0.3,0.8,0.1,0.6,0,1.2c-0.1,0.6,0,0.3,0.3,0.7c0.3,0.3,0.9,0.9,1.5,0.9s0.7-0.6,1.1-0.3c0.4,0.3,1.3,0.1,1.5,0.4
		c0.3,0.3-1.6,1.2,1.6-0.3c3.3-1.5,3.6-1.8,4-2.3c0.4-0.5,0.9-1,1.3-1.4c0.3-0.3,0.1-0.3,1.1-1c1-0.8,1-0.4,2-1.9
		c0.9-1.5,1.6-2,1.8-2.2c0.2-0.3,0.5-0.3,0.6-1.4c0.1-1,0.8-2,0.8-2.3c0-0.3,0.3-0.9,0.2-1.5c-0.1-0.6,0.3-1.5-0.2-2.3
		c-0.5-0.9,0.3-1.2-0.5-1.6c-0.8-0.3-1.3-0.2-1.5-0.8c-0.2-0.6-0.9-0.5-1.1-2.2c-0.3-1.6-1.3-1.8-1.3-1.8s-1-0.4-0.8-0.6
		c0.3-0.2,0.3-1.4,0.3-1.7c-0.1-0.3-0.1-1.1-0.3-1.6c-0.3-0.5-0.4-1.2-0.7-1.8c-0.3-0.6-0.7-0.8-0.9-1.5c-0.2-0.7-0.4-0.9-0.5-1.1
		c-0.1-0.2-0.3-1-0.4-0.1c-0.2,0.9-0.5,2.8-0.5,2.8s-0.7,1.5-0.9,1.9c-0.3,0.4-0.5,1.5-0.9,1.5c-0.4-0.1-0.7,0.4-1,0.3
		c-0.3-0.1-0.9,0.1-1.1-0.2c-0.3-0.3-0.9-0.9-1.3-1c-0.3-0.1-0.6-0.8-0.9-0.8s-0.7-0.6-0.6-0.9c0.1-0.3,0.2-1.1,0.3-1.5
		c0.1-0.3,0.6-1.1,0.6-1.1s0-0.5-0.4-0.5s-0.5,0-1.5-0.1c-0.9-0.1-1.2-0.2-1.5-0.2s0.3-0.2-0.6,0.1c-0.9,0.3-1.4,0.9-2,1.6
		c-0.6,0.6-0.1,0.4-0.6,0.6c-0.5,0.2-0.4-0.4-0.8,0.5c-0.3,0.9,0.2,1.2-0.1,1.4s-2.1-0.6-2.1-0.6s0.4-0.1,0.1-0.5
		c-0.3-0.4-0.7-1-1.2-0.8c-0.5,0.3-0.9,0.4-1.3,0.9c-0.3,0.4-0.3,0.8-0.6,1.1c-0.3,0.3-0.9,0.3-1,0.7c-0.1,0.3-0.1,1.2-0.3,1.3
		c-0.3,0.1-0.3-0.3-0.6-0.4c-0.3-0.1-0.2-0.8-0.3-0.3c-0.2,0.4-0.3,0.3-0.6,1c-0.3,0.7-0.3,1.3-0.6,1.4c-0.3,0.1,0,0.2-0.8,0.6
		c-0.8,0.4-0.9,0.4-2.1,0.9s-0.9,0.5-1.6,0.6c-0.8,0.1-0.9,0.3-1.5,0.4c-0.5,0.1-0.9,0.2-1.4,0.7s-0.9,0.7-1.3,0.8
		C501.4,193.5,501.1,193.9,501.1,193.9L501.1,193.9z"/>
	<path class="st1" d="M506.2,159.8c-0.3,0.5-1.5,2.1-1.9,2.2c-0.4,0.1-0.9,0.5-1.2,0.4c-0.3-0.1-1.1,0-1.4,1.1s-0.7,1.7-0.9,1.6
		s0.4,1.6-1,0.9c-1.5-0.7-0.9,0.6-1.1,0.9c-0.2,0.3,0.3,1.3,0.3,1.6c0.1,0.3,0.3,0.9,0.7,1.5c0.3,0.5,0.6,1.1,1.2,0.9
		c0.6-0.2,2.5,0,2.5,0s0.7,0.3,1.1,0.3c0.4,0,0.5-0.2,0.8-0.2s0.8-0.9,0.7-0.9c-0.1-0.1-0.3-0.3,0.2-0.9c0.5-0.5,1.1-0.7,1.2-1.3
		s-0.2-0.6,0.1-0.9s0.9-0.3,0.7-0.6c-0.2-0.3,0.2-0.3-0.2-0.9s-0.8-0.9-0.4-1.8c0.3-0.9,0.7-1,0.6-1.5s0.4-0.7-0.2-1.3
		c-0.6-0.6-0.9-0.8-1.3-0.9L506.2,159.8L506.2,159.8z"/>
	<path class="st1" d="M523.1,168.5c0.3-0.1,1.5-0.9,1.6,0.6c0.1,1.5,0.2,1.1,0.7,2s0.9,1.1,1.5,0.7c0.6-0.4,1.3-0.4,1.5-1.2
		c0.2-0.8,0.2-0.8,0.7-0.8s0.7-0.1,0.9,0.3c0.3,0.3,0.4,0,1.5,0.6c1.1,0.6,2.1,0.4,2.8,1s1,0.5,2,0.9c0.9,0.3,0.5-0.2,1.4,0.8
		c0.9,0.9,0.5,1.2,0.9,1.6c0.4,0.4,0.8-0.3,0.6,0.7c-0.2,1-1.4,0,0.4,1.5s2.1,1.7,2.7,2.2c0.6,0.4,1,0.9,0.5,0.9s-2.2,0-2.3-0.3
		c-0.2-0.3-0.9-0.4-1.5-1c-0.5-0.6-1.6-1-1.9-1.5c-0.3-0.5-0.6-0.7-1-0.7s-0.9,0.5-1.5,1.1c-0.6,0.6-0.3-0.3-1.1-0.1
		c-0.8,0.3-1.6-0.1-2.1-0.4s-0.3-0.9-1-0.6s-1.1,0.1-0.9-0.4c0.3-0.5,0.1-1.2,0.1-1.2s0.3-0.9-0.3-1s-0.6-0.8-1.2-0.9
		c-0.6-0.2-1.5-0.6-1.5-0.6s-0.1,0-0.3-0.1c-0.3-0.1-0.3-0.1-0.9-0.3c-0.7-0.2-1.2,0-1.5-0.4c-0.3-0.4-0.2-1-0.2-1s1.4,0.2,0-0.9
		l-1.4-1c0,0,0.2-0.1,0.1-0.3C522.1,168.3,523.1,168.5,523.1,168.5L523.1,168.5z"/>
	<path class="st1" d="M484.3,161.3c0,0,0.4,0.4,1.1,0.3s1.2,1.4,1.6,1.9c0.4,0.5,0.7,0.8,1.6,1.4c0.9,0.6,0.9-0.5,2.2,1.3
		c1.3,1.8,0.7,0.7,1.3,1.8c0.6,1.1,0.9,1.7,1.3,2s0.6,0.9,0.7,1.2c0.1,0.3,0.7,1,0.7,1.3c0,0.3,0.2,0.9-0.3,1.5s-0.9,0.7-0.9,0.7
		s-1-0.5-1.4-1c-0.3-0.5-0.8-0.9-1.4-2s-1.3-2.2-1.6-2.7c-0.3-0.5-0.9-1-1.1-1.5c-0.3-0.5-0.9-2.1-1.3-2.2c-0.3-0.2-0.4-0.7-1-1.3
		c-0.6-0.6-0.5-1.1-0.8-1.5c-0.3-0.3-0.9-1.1-0.9-1.1L484.3,161.3L484.3,161.3z"/>
	<path class="st1" d="M316.9,228.5c-0.6-0.3-1.9-0.9-2.3-1.3s-1.7-2.2-1.7-2.2l-0.9-1.8c0,0-1.1-1.4-0.9-1.9
		c0.3-0.5,0.8-0.9,0.8-1.1c0-0.3,0.5-0.9,0.1-1.2c-0.4-0.3-0.4-0.3-0.7-1.1c-0.3-0.8-0.3-1.5-0.6-1.6c-0.3-0.2-0.6-1.3-0.9-1.4
		c-0.3-0.1-0.7-0.7-0.7-0.7l-0.5-7c0,0-0.2-3.2-0.3-3.9s0.3-2.2-0.2-3.4c-0.4-1.3,0.1-2.8-0.2-3.4c-0.3-0.5,0.2-2-0.1-3.4
		c-0.3-1.4,1-3.1,0-3.6c-1-0.5-0.3-1.3-1.1-1.3s-1.5-0.4-2.2-1c-0.8-0.6-2.2-1.7-2.7-2.2c-0.4-0.4-1.8-1.5-2.2-1.9s-0.9-1.8-1.2-2.2
		c-0.3-0.4-0.5-1.7-1-2.5c-0.5-0.8-1.2-2.1-1.4-2.3s-2.1-2.5-2.1-2.5l0.2-1.4c0,0,1.3-0.8,1.1-1c-0.2-0.3,0.1-0.5-0.5-1
		c-0.6-0.5-0.5-1.5,0-1.9c0.5-0.4,1.3-1.8,1.3-1.8l1.3-2.2c0,0,1-1.1,1-1.9s1.5-1.3,0.6-2c-0.9-0.7-0.4-1.3-0.7-1.8
		c-0.3-0.5-0.1-0.9,0.7-1.4c0.8-0.5,2.2-2.4,2.2-2.4s1-0.3,1.3-0.3s0.7-2.8,1.5-0.9c0.8,1.8,1,0.9,0.8,2.2c-0.3,1.3,0.3,1,0.7,0.7
		c0.3-0.3-0.2,0.3,0.5-1.3s0.4-2.1,0.9-1.6c0.4,0.4,0.6,0.5,1.4,0.8c0.8,0.3,1,0.2,1.3,0.7c0.3,0.5,0.2-0.2,1.6,0.1s3.5-0.5,3.3,0.3
		c-0.3,0.9-0.8-0.1,0.4,0.9c1.2,0.9,1.4,1.1,2.1,1.3s1.3,0.1,2.3,1.1c1,1,1.3,1.1,1.5,1.6c0.3,0.5,0.7,0.2,1.1,0.7s1,0.5,1.6,0.5
		c0.6,0,0-0.5,0.9,0.2s1.6,0.8,2.1,2.2s1.3,1.3,0.6,2.7s-2.1,2-1.5,1.9c0.6-0.1,1.7-0.6,2.1-0.5c0.3,0.1,0.5-0.3,1,0
		c0.5,0.3,0.6-0.3,0.5,0.3c-0.1,0.6-0.1,0-0.1,0.6c0,0.6-0.2-0.6,0.9-0.3c1,0.3,0.4-0.5,1.6,0.6c1.2,1.1,1.2,0.8,1.6,1.4
		c0.4,0.6,0.9-0.3,1.1-0.1c0.3,0.3,1,0.1,1.8,0.3c0.8,0.2,0.3-0.5,1.5,0.3c1.2,0.8,2.4,0.5,2.7,1.2c0.3,0.7,0.9,0.4,1.3,0.9
		s0.5-0.2,0.9,0.4c0.3,0.6,1.4,0.4,1.2,1c-0.2,0.6,0.3,0.3,0.1,1.1c-0.2,0.9-0.8,2.2-1.3,2.6s-0.5,0.8-0.9,1.2
		c-0.3,0.4-0.3-0.4-0.7,0.8s-0.3,1.4-0.7,2.5c-0.3,1.1-0.1,0-0.3,1.1s-0.1,1.8-0.3,3.1s-0.2,1.3-0.3,2.2c-0.2,0.9,0.4-0.4-0.3,1.5
		c-0.8,2-0.9,1.9-1.1,2.8c-0.3,0.9,0.1,0.2-0.9,0.7s-0.4,0.3-1.5,0.7c-1.1,0.3-2.5,0.7-2.9,0.8s-2.2,0.6-1.6,1.6
		c0.5,1,0.5,1.2,0,2.5c-0.5,1.3-1.3,1.7-1.3,2.3c0,0.6-0.3,1.2-0.4,1.6c-0.1,0.4,0.8-0.4-0.3,0.9s-1.1,0.9-1.5,1.7
		c-0.3,0.8,0,0.2-0.3,0.8c-0.3,0.6-1.2,0.9-1.2,0.9s0.1,0.4-0.3,0.3c-0.3-0.2-0.3,0.1-1.5-0.3c-1.3-0.3-1.5-1.2-1.6-0.6
		c-0.2,0.6,0.1,0.9,0.9,1.5c0.8,0.6,2.1,0.8,1.7,1.4c-0.3,0.6-0.3,0.6-0.6,0.9c-0.3,0.3,0.3,0.1-0.3,0.3c-0.6,0.3-0.9,1.4-1.2,1.4
		s-0.4,0.4-0.8,0.3c-0.3-0.2-1.2-0.8-1.4-0.4c-0.2,0.3-0.5-0.4-0.4,0.8c0.1,1.2,0.3,1.9-0.2,2.2c-0.4,0.3-1.5,0-1.5,0l-0.2-0.4
		l-0.6,0.2c0,0-0.3,1,0.2,1.2c0.4,0.2,0.3,0.3,0.8,0.9s0.2,1.5,0.2,1.5s0,0.3-0.4,0.7c-0.4,0.4-0.6,0.8-0.7,1
		c-0.1,0.3-0.6,1.4,0.2,1.3c0.8-0.1,1.4-0.5,1.4,0.9s0.3,1-0.1,2c-0.4,0.9-0.8,1-0.9,1.9c-0.1,0.9,0.1,0.9,0.3,1.5s0.6,0.3,0.2,0.5
		C318.2,228.7,316.9,228.5,316.9,228.5L316.9,228.5z"/>
	<path class="st1" d="M294.7,158.4l-0.6-0.9c0,0-0.3-0.5-0.7-0.6c-0.4-0.1-1.4-1.2-1.4-1.2s-0.4-0.3-0.4-0.9s-0.3-1.5-0.1-2.6
		s0.3-2.3,0.3-2.7c-0.1-0.3,0.4-0.4-0.2-0.8c-0.6-0.3-1.8-0.4-2.6-0.4c-0.8,0-1.7,0.3-1.9,0.3c-0.2,0.1,0.9-2.6,1.1-3
		s0.9-2.3,0.9-2.6c0-0.3,0.3-0.3-0.3-0.7c-0.5-0.3-1.4-0.5-1.9-0.3c-0.5,0.3-0.4-0.3-0.9,0.7c-0.4,1-0.9,2.2-1.4,2.3
		c-0.5,0.2-1.5,0.7-1.5,0.7s-1.3-0.1-1.7-0.2c-0.4-0.1-2.2-1-2.6-1.6c-0.3-0.6-0.5-1.9-0.5-2.5c0-0.6,0.9-2.4,0.9-2.8
		c-0.1-0.4,0.9-2.2,0.9-2.4c-0.1-0.3,0.2-1.1,0.4-1.5c0.3-0.3,1.5-0.8,1.9-1.1c0.3-0.3,0.9-0.8,1.5-0.9c0.6-0.2,1.1-0.3,1.5-0.3
		s1.5-0.9,1.7,0c0.2,0.9,0.9,0.6,1.4,0.7c0.4,0.1,0.5,0.5,1.2-0.6s1.4-1.5,1.4-1.2c0,0.3,1.1-0.1,1.3,0.2c0.2,0.3,0.5-0.2,1.1,0.3
		c0.6,0.5,1.5,0.6,1.4,0.9c-0.1,0.3,0.3,0.3,0.3,0.5c0,0.3,0.3-0.6,0.3,0.9c0,1.5,0.4,2.5,0.4,2.5s0.6,1.3,0.9,1s0.8-0.9,0.8-0.9
		s0.9-0.5,0.3-2.3c-0.6-1.8-0.2-2.3-0.3-2.9s-0.2-0.9,0.9-1.7s3.5-2.5,4.1-2.8s2-1.3,2-1.3s0.5-0.3,0.6-0.9c0.1-0.7,1.7-1.9,1.8-2.2
		c0.1-0.3,1.2-1.2,1.2-1.2s1.2-0.7,1.1-1.1c-0.1-0.4,1.5-1.2,1.8-1.2c0.3,0,1.6,0.4,1.6-0.3c0-0.8,0-0.9,0.9-1.6
		c0.9-0.7,2-1.7,2.4-1.7c0.4,0,1.9-0.8,2.5-0.9c0.6-0.2,2.5-1,0.8,0c-1.7,1-0.6,0.4-0.9,1.3s-0.6,2,1,0.7c1.6-1.3,1.5-1.5,2.2-1.6
		c0.6-0.1,0.2,0.3,1.5-0.2s1.4-0.6,1.4-0.6s0.6-0.5,0.3-0.8c-0.3-0.3,0.3-0.6-0.9-0.1c-1.3,0.5-1.2,0.6-2.1,0.3
		c-0.9-0.3-2.2-0.2-1.2-1c0.9-0.9,2.2-1.1,1.4-1.5c-0.8-0.3-2.8,0.1-3,0.2c-0.3,0.1-0.9-0.1-1.4,0s-0.3-0.7,0-0.9
		c0.3-0.2,1.5-0.7,2.8-1s4.7-0.4,5.5-0.4s1.8,0.2,2.4-0.3c0.6-0.4,1.8-1.1,2-1.5s0.9-0.9,0.9-0.9s0.8-0.8,0.3-1.1
		c-0.4-0.3-0.9-1.1-1.2-0.9c-0.3,0.2-0.1,1.2-0.8,0.1c-0.7-1.1-0.6-1.3-0.9-1.5s-0.7-0.1-0.4-1.3c0.3-1.2,0.2-1.7,0.2-1.7
		s0.3-1,0-1.1c-0.3-0.1-0.4-0.3-0.9-0.1c-0.4,0.3-2.8,1.5-3.4,1.7c-0.5,0.3-1.2-1-0.9-1.6c0.3-0.6,0.1-0.3-0.3-1.1
		c-0.3-0.9-1.7-1-2.2-1c-0.5,0-1.7-0.8-2.1-0.3c-0.3,0.5-2.2,2.2-2.5,2.3c-0.3,0.2-0.9-1.5-1.1,1.2c-0.3,2.7,0.9,3.4-0.4,3.6
		c-1.4,0.2-2.6,0.9-2.6,0.9s-1.1,0.1-1.1,0.8s-0.4,2.3-0.9,2.5c-0.5,0.2-1.8-0.1-2.2-0.6c-0.4-0.5,0.1-2.4,0.1-2.4l0.8-0.8
		c0,0-5.5-0.9-5.4-1.2c0.1-0.3-1.6-0.9-1.8-1.5s-0.3-1.6-0.1-2.1c0.2-0.4,2.5-2.5,3.7-2.9s3.3-1.4,3.9-1.5c0.6-0.2,1.6-0.1,2-0.5
		c0.3-0.4,0.4-1.2,0.4-1.2s-0.2-1.2,0.2-1c0.3,0.2,0.9,0.4,1,0.7c0.1,0.3,0.1,0.9,0.7,0.2c0.6-0.7,1.4-0.9,2.1-1.3
		c0.7-0.3,1.7-0.3,2.3-0.6c0.6-0.3,1.6-0.7,1.7-1.5s-0.3-0.6-0.7-0.7c-0.4-0.1,0.2,0.1-1.3,0.8s-1,0.2-2.1,0.7s-1.1,0.6-1.2,0.2
		c-0.1-0.4,0.2-1.1,0.2-1.1s0.1-0.1-0.5-0.3c-0.6-0.2-0.6,0.1-0.7-0.7c-0.1-0.8,0.4-1.9-0.4-1.5c-0.9,0.3-1.6-0.3-2.2,1.5
		c-0.6,1.7-2.7,3.5-3.2,3.1s-0.6-0.5-1-0.5s-1-0.5-1.8-0.6c-0.8-0.1-3.1-0.1-3.7,0c-0.6,0.1-1.3-0.3-1.8,0.2s-1.3,1.2-1.3,1.5
		s-0.8-0.9-1-0.9c-0.3,0.1-0.9-0.3-1.7-0.3c-0.8,0-1.3-0.4-1.5-0.4c-0.3,0,0.3-0.7,0-0.8c-0.3-0.1-5.9-0.3-5.9-0.3s-1.8-0.7-2.5-0.6
		c-0.7,0.1-2.6,0.2-4,0.4c-1.5,0.3-3.6,1.1-4.3,1.2c-0.7,0.1-2.2,0.1-2.5-0.3c-0.3-0.4,0.1-0.3-0.3-0.4c-0.3-0.1-0.1-0.3-0.9-0.9
		c-0.8-0.6,0.3-1.1-1.2-1.1s-2.5-0.1-3.9,0s-4.2,0.8-4.6,0.7c-0.3-0.1-3.1,0.4-3.5,0.2c-0.4-0.3-2.6,0.9-3,0.9
		c-0.4-0.1-2.1,0.1-2.5,0.3c-0.4,0.3-2.5,0.8-1.8,1.2c0.7,0.4,0.6,0.9,0.7,1.1c0.1,0.3-0.7,0.9-0.7,0.9s-0.2,0-1.1-0.3
		s-2-0.5-2.4-0.3c-0.4,0.3-1.2,0.8-1,1.1c0.2,0.3,1.4,1.1,1.5,0.9c0.2-0.3,0.6-0.8,1.1-0.7c0.5,0.1,1.3-0.3,0.6,0.5
		c-0.7,0.9-1.3,1.3-1.7,1.4c-0.4,0.1-1.5,0.2-2.4,0.3s-0.9-0.3-1.7,0.5c-0.9,0.9-1.2,0.3-1.4,1.3c-0.2,0.9-0.3,0.9,0,1.2
		s-0.7,0.3,0.1,0.6c0.8,0.3,1.7,0.5,1.6,0.8c-0.1,0.3,0.9-0.3,0.3,0.3c-0.5,0.7-0.9,1.3,0.2,0.6c1-0.7,1.6-0.2,2.5-0.6
		c0.9-0.4,1.7-0.5,2.2-0.9c0.5-0.3,0.8-0.9,1.5-1.1c0.8-0.3,0.3,0.1,0.3,0.5c0.1,0.4,0,0.5,0.5,0.2c0.5-0.3,0.5-0.1,1.2-0.5
		s1.5-0.9,2-0.6c0.5,0.3,0.7,0.3,1,0.3c0.3,0-0.4-0.1,0.3,0c0.8,0.1-0.3-0.3,2.2,0.3c2.6,0.6,3.3,0.2,3.4,1.1
		c0.2,0.9,0.5-0.1,0.9,0.5s0.7,0.1,0.9,1.1c0.3,1,0,3.9-0.2,4.2s-0.3,0.3-0.2,1.1c0.1,0.8,1.1,4.5,0.8,4.7s-1.1,0.3-1.1,0.3
		l-0.4,1.5c0,0-0.7,1.3-1.3,2c-0.6,0.7-1.4,1.5-1.8,2.2c-0.4,0.6-0.8,1.6-1.4,2.2c-0.6,0.6-1.1,0.3-0.9,1.6c0.2,1.3,0,2.7,0.2,3.6
		s0.6,2.2,0.9,2.8c0.3,0.5,0.6,0.5,1.2,0.9c0.6,0.4,1.4,0.9,1.3,1.4c-0.1,0.4,0.1,3.1,0.1,3.1s0.5,0.9,0.6,1.8
		c0.1,0.9,0.7,1.9,0.7,1.9l0.5,1.1c0,0,0.3,0.1,0.6,0.8c0.3,0.7,0.3,0.7,0.4,1c0.1,0.3,0.1,0.3,0.1,0.3c0,0.1-0.1-1.5-0.3-1.9
		s-0.2-0.9-0.3-1.5c-0.2-0.5,0.1-1.1-0.4-1.9c-0.5-0.8-0.5-0.9-0.8-1.6c-0.3-0.8-0.6-1.6-0.3-1.8c0.3-0.2,0.6-1.3,1.3,0
		s0.8,0.9,0.9,2c0.1,1,0.3,1.4,0.6,1.8c0.3,0.4,0.9,1.9,1.2,2.5c0.3,0.6,0-0.3,0.8,0.9c0.8,1.2,0.9,1.5,1.3,2.4
		c0.4,0.9,0.7,0.9,0.9,1.6s0.1,0.5-0.1,1.3c-0.2,0.8,0.2,1.6,0.2,1.6s1.2,0.4,1.3,0.7s1.3,0.7,1.5,1c0.2,0.3,1.3,0.8,1.3,0.8
		s0.9,0.6,1.3,0.8c0.3,0.2,1.4,0.3,1.4,0.3s0.7,0.2,0.9,0.3c0.3,0.1,1,0.1,1,0.1s0.7-0.5,0.9-0.3c0.3,0.2,0.9-0.3,1.1,0.1
		c0.3,0.4,0.8,0.4,1,0.8s0.5,0.3,0.9,0.8c0.4,0.4,0.9,0.3,1.3,0.7c0.4,0.3,0.8,0.3,1.3,0.3c0.5,0,0.5,0,0.9,0.1
		c0.3,0.1,0.5-0.3,0.9,0.2c0.3,0.4,0.6,0.7,0.9,1.1s0.9,0.4,0.9,1.1s0.3,0.6,0.3,1.2c0,0.6,0.3,0.9,0.6,1c0.3,0.2,1.2,1,1.2,1
		l1.3,0.3l1,0.8L294.7,158.4L294.7,158.4z"/>
	<path class="st1" d="M322.2,78.4l5.2-0.6c0,0,1.8,0,2.7-0.6c0.9-0.6,0-0.6,2.7-1.2c2.7-0.5,1.9-0.8,3.4-0.5
		c1.4,0.3,1.8,0.3,3.4,0.5c1.5,0.3,1.9-0.1,3.4,0.3s2.1,0.3,3.2,0.3h3.6c1.8,0,3.5-1,4.1-0.4c0.6,0.6,1,0.4,3.2,0.6
		c2.2,0.3,3.1-0.3,4,0s2.5-0.1,4.3,0c1.8,0.1,2.7-0.1,3.4-0.1c0.6,0,1.3-0.9,2.2-0.1c0.9,0.8,2.1-0.3,2.2,0.8c0.1,1,1.8,0.3,0.1,1
		c-1.7,0.8-1.4,0.6-2.6,1.7c-1.2,1,0.8,1.9-1.7,2.8c-2.5,0.9-2.8-0.5-3.5,1c-0.6,1.5,0,1.9-0.1,2.7c-0.1,0.8-0.4,0.9-1.2,1.5
		c-0.8,0.6-0.8,0-2.6,0.4c-1.8,0.4-3.1,0.8-3.9,0.8s-2.5,0.6-3,0.9c-0.5,0.3,0.9,0.6-1.8,1.4c-2.7,0.8-3.4,0.6-4.1,1.7
		c-0.8,1-0.5,1.2-1,1.8c-0.5,0.6-2.1,3.2-2.8,2.6c-0.8-0.6-1.2-0.5-1.8-1.2c-0.6-0.6-1-1.5-1.4-2.1c-0.4-0.5-0.5-1.8-0.6-2.6
		c-0.1-0.8-1.3-2.6,0-2.3c1.3,0.3,2.1,0.1,2.5-0.1c0.4-0.3,0.8-1.2,0.8-1.2s-0.1-1.4-0.5-2.2c-0.4-0.8-0.1-1.4-0.8-2.2
		c-0.6-0.8-0.6-0.6-1.5-1.4c-0.9-0.8-0.6-1.2-2.1-1.3c-1.4-0.1-1.8-0.5-2.3-0.4s-2.2-0.9-0.4-1c1.8-0.1,3.5,0.1,3.5,0.1
		s2.3-1,1.5-1.2c-0.8-0.1,1.2-1.3-0.6-0.9s-3.9,0.9-4.4,1s-1.8,0.3-3.1,0.6c-1.3,0.4-2.8,0.3-3.6,1.2c-0.8,0.9,0,1-0.8,0.9
		c-0.8-0.1,0.6-0.9-1.2,0c-1.8,0.9-1.3,0.8-2.2,0.5c-0.9-0.3-1.5-0.6-1.5-0.6s1.2-0.1-0.5-0.3s-1.7-0.1-2.3-0.9
		c-0.6-0.8-0.3-0.8,0.1-1C322,78.9,322.2,78.4,322.2,78.4L322.2,78.4z"/>
</g>
<g id="Warstwa_4">
	<g>
		<path class="st1" d="M972.5,106.1c8.6,0,15.7-7,15.7-15.7s-7-15.7-15.7-15.7c-8.6,0-15.7,7-15.7,15.7S963.8,106.1,972.5,106.1z"/>
		<path class="st1" d="M931.4,161.2h13.8l8.3-30.3h3.4l-8.1,30.3h48.7l-8.7-30.3h3.5l4.6,14.8c2.2,6.3,7.7,7.7,12,2.4l16.9-20.4
			c5.3-6.9-4.3-14.1-9.8-8l-9.9,11.9c0,0.2-1.9-6.5-1.9-6.5c-2.3-8-9.9-15.9-21.3-15.9h-21.5c-10.1,0-18.1,8.8-19.7,14.4
			L931.4,161.2L931.4,161.2z"/>
		<path class="st1" d="M1012.4,171.9v-7.2H928v7.2H1012.4z"/>
		<path class="st1" d="M1012.4,236.9v-63.6h-75.2v63.6L1012.4,236.9L1012.4,236.9z"/>
		<path class="st1" d="M1063.1,79.8l-1.5-1.4l-39,41l1.5,1.4L1063.1,79.8z"/>
		<path class="st1" d="M1008.2,232.4v-55.1h-70.9v55.1L1008.2,232.4L1008.2,232.4z"/>
		<path class="st1" d="M1007.1,231.7v-53.8h-69.8v53.8H1007.1z"/>
		<path class="st1" d="M1011.5,237v-63.6h-83.1V237H1011.5z"/>
	</g>
</g>
<g id="Warstwa_7">
	<g>
		<path class="st2" d="M332.3,329.5c5,4.2,7.5,9.8,7.5,16.7c0,4.5-1.1,8.6-3.4,12.3c-2.3,3.7-5.7,6.7-10.3,8.9
			c-4.6,2.2-10.3,3.3-17.1,3.3c-5.2,0-10.4-0.7-15.4-2.1c-5.1-1.4-9.3-3.3-12.9-5.9l6.8-13.1c2.8,2.1,6.1,3.8,9.8,4.9
			c3.7,1.2,7.5,1.7,11.3,1.7c4.3,0,7.7-0.8,10.2-2.5c2.5-1.7,3.7-4.1,3.7-7.1c0-3.2-1.3-5.6-3.9-7.2c-2.6-1.6-7-2.4-13.4-2.4h-19
			l3.8-41.8h45.3v13.8h-31l-1.2,14.1h6C319.6,323.2,327.3,325.3,332.3,329.5z"/>
		<path class="st2" d="M362.1,366.3c-4.8-3-8.6-7.4-11.3-13.2c-2.7-5.8-4.1-12.6-4.1-20.6c0-8,1.4-14.9,4.1-20.6
			c2.7-5.8,6.5-10.2,11.3-13.2c4.8-3,10.3-4.6,16.4-4.6s11.6,1.5,16.4,4.6c4.8,3,8.6,7.4,11.3,13.2c2.7,5.8,4.1,12.6,4.1,20.6
			c0,8-1.4,14.9-4.1,20.6c-2.7,5.8-6.5,10.2-11.3,13.2c-4.8,3-10.3,4.6-16.4,4.6S367,369.3,362.1,366.3z M389.2,350.5
			c2.6-3.9,3.9-9.9,3.9-18c0-8.1-1.3-14.1-3.9-18c-2.6-3.9-6.1-5.8-10.7-5.8c-4.5,0-8,1.9-10.5,5.8c-2.6,3.9-3.9,9.9-3.9,18
			c0,8.1,1.3,14.1,3.9,18c2.6,3.9,6.1,5.8,10.5,5.8C383.1,356.3,386.6,354.4,389.2,350.5z"/>
		<path class="st2" d="M422.6,329.9c-3.4-3.7-5.1-8.7-5.1-14.9c0-6.2,1.7-11.2,5.1-14.9c3.4-3.7,7.9-5.6,13.3-5.6
			c5.4,0,9.9,1.9,13.3,5.6s5.1,8.7,5.1,14.9c0,6.2-1.7,11.2-5.1,14.9c-3.4,3.7-7.8,5.6-13.3,5.6C430.5,335.4,426,333.6,422.6,329.9z
			 M441.6,323.8c1.4-2,2.1-4.9,2.1-8.8c0-3.9-0.7-6.8-2.1-8.8c-1.4-2-3.3-3-5.7-3c-2.3,0-4.2,1-5.6,3c-1.4,2-2.1,4.9-2.1,8.7
			s0.7,6.7,2.1,8.7c1.4,2,3.3,3,5.6,3C438.3,326.7,440.2,325.7,441.6,323.8z M480.1,295.4h12.6l-50.7,74.2h-12.6L480.1,295.4z
			 M476.8,367.9c-2.8-1.7-5-4-6.5-7.2c-1.6-3.1-2.3-6.7-2.3-10.8c0-4.1,0.8-7.7,2.3-10.8c1.6-3.1,3.7-5.5,6.5-7.2
			c2.8-1.7,6-2.5,9.5-2.5c5.4,0,9.9,1.9,13.3,5.6c3.4,3.7,5.1,8.7,5.1,14.9c0,6.2-1.7,11.2-5.1,14.9c-3.4,3.7-7.9,5.6-13.3,5.6
			C482.7,370.4,479.6,369.6,476.8,367.9z M491.9,358.7c1.4-2,2.1-4.9,2.1-8.7s-0.7-6.7-2.1-8.7s-3.3-3-5.7-3c-2.3,0-4.2,1-5.6,3
			c-1.4,2-2.1,4.9-2.1,8.8c0,3.9,0.7,6.8,2.1,8.8c1.4,2,3.3,3,5.6,3C488.7,361.7,490.6,360.7,491.9,358.7z"/>
	</g>
	<g>
		<path class="st2" d="M990.4,329.6c5,4.2,7.5,9.8,7.5,16.7c0,4.5-1.1,8.6-3.4,12.3c-2.3,3.7-5.7,6.7-10.3,8.9
			c-4.6,2.2-10.3,3.3-17.1,3.3c-5.2,0-10.4-0.7-15.4-2.1c-5.1-1.4-9.3-3.3-12.9-5.9l6.8-13.1c2.8,2.1,6.1,3.8,9.8,4.9
			c3.7,1.2,7.5,1.7,11.3,1.7c4.3,0,7.7-0.8,10.2-2.5c2.5-1.7,3.7-4.1,3.7-7.1c0-3.2-1.3-5.6-3.9-7.2c-2.6-1.6-7-2.4-13.4-2.4h-19
			l3.8-41.8h45.3v13.8h-31l-1.2,14.1h6C977.7,323.4,985.5,325.4,990.4,329.6z"/>
	</g>
</g>
<g id="Warstwa_8">
	<g>
		<g>
			<line class="st3" x1="680.5" y1="61" x2="680.5" y2="66"/>
			<line class="st4" x1="680.5" y1="70.9" x2="680.5" y2="512"/>
			<line class="st3" x1="680.5" y1="514.5" x2="680.5" y2="519.5"/>
		</g>
	</g>
</g>
<g id="Warstwa_10">
	<g>
		<path d="M251.3,436.3c-1.9-1.1-3.3-2.5-4.4-4.4c-1.1-1.9-1.6-4-1.6-6.3c0-2.4,0.5-4.5,1.6-6.3c1.1-1.9,2.5-3.3,4.4-4.4
			c1.9-1,4-1.6,6.3-1.6s4.4,0.5,6.3,1.6c1.9,1,3.3,2.5,4.4,4.4c1.1,1.9,1.6,4,1.6,6.3c0,2.4-0.5,4.5-1.6,6.3
			c-1.1,1.9-2.5,3.3-4.4,4.4c-1.9,1.1-4,1.6-6.3,1.6S253.2,437.4,251.3,436.3z M262.3,433.8c1.4-0.8,2.4-1.9,3.2-3.3
			c0.8-1.4,1.1-3.1,1.1-4.9c0-1.8-0.4-3.5-1.1-4.9c-0.8-1.4-1.8-2.6-3.2-3.3c-1.4-0.8-2.9-1.2-4.6-1.2c-1.7,0-3.3,0.4-4.6,1.2
			c-1.4,0.8-2.4,1.9-3.2,3.3c-0.8,1.4-1.2,3.1-1.2,4.9c0,1.8,0.4,3.5,1.2,4.9c0.8,1.4,1.9,2.6,3.2,3.3c1.4,0.8,2.9,1.2,4.6,1.2
			C259.4,435,260.9,434.6,262.3,433.8z"/>
		<path d="M281.4,407.2c-0.7,0.8-1.1,1.9-1.1,3.4v2.9h7.5v2.8h-7.4v21.4h-3.3v-21.4h-4.3v-2.8h4.3v-3c0-2.2,0.6-4,1.9-5.2
			c1.3-1.3,3.1-1.9,5.4-1.9c0.9,0,1.8,0.1,2.7,0.4c0.9,0.3,1.6,0.6,2.2,1.1l-1.1,2.4c-1-0.8-2.1-1.2-3.6-1.2
			C283.2,406.1,282.1,406.4,281.4,407.2z"/>
		<path d="M323.8,415.9c1.8,1.8,2.7,4.3,2.7,7.7v14h-3.3V424c0-2.5-0.6-4.4-1.9-5.8c-1.3-1.3-3.1-2-5.4-2c-2.6,0-4.7,0.8-6.2,2.3
			c-1.5,1.5-2.3,3.7-2.3,6.4v12.7h-3.3v-24.2h3.1v4.5c0.9-1.5,2.1-2.6,3.7-3.4c1.6-0.8,3.4-1.2,5.5-1.2
			C319.6,413.3,322,414.2,323.8,415.9z"/>
		<path d="M339.1,436.3c-1.9-1.1-3.3-2.5-4.4-4.4c-1.1-1.9-1.6-4-1.6-6.3c0-2.4,0.5-4.5,1.6-6.3c1.1-1.9,2.5-3.3,4.4-4.4
			c1.9-1,4-1.6,6.3-1.6s4.4,0.5,6.3,1.6c1.9,1,3.3,2.5,4.4,4.4c1.1,1.9,1.6,4,1.6,6.3c0,2.4-0.5,4.5-1.6,6.3
			c-1.1,1.9-2.5,3.3-4.4,4.4c-1.9,1.1-4,1.6-6.3,1.6S340.9,437.4,339.1,436.3z M350,433.8c1.4-0.8,2.4-1.9,3.2-3.3
			c0.8-1.4,1.1-3.1,1.1-4.9c0-1.8-0.4-3.5-1.1-4.9c-0.8-1.4-1.8-2.6-3.2-3.3c-1.4-0.8-2.9-1.2-4.6-1.2c-1.7,0-3.3,0.4-4.6,1.2
			c-1.4,0.8-2.4,1.9-3.2,3.3c-0.8,1.4-1.2,3.1-1.2,4.9c0,1.8,0.4,3.5,1.2,4.9c0.8,1.4,1.9,2.6,3.2,3.3c1.4,0.8,2.9,1.2,4.6,1.2
			C347.1,435,348.6,434.6,350,433.8z"/>
		<path d="M383.9,415.9c1.8,1.8,2.7,4.3,2.7,7.7v14h-3.3V424c0-2.5-0.6-4.4-1.9-5.8c-1.3-1.3-3.1-2-5.4-2c-2.6,0-4.7,0.8-6.2,2.3
			c-1.5,1.5-2.3,3.7-2.3,6.4v12.7h-3.3v-24.2h3.1v4.5c0.9-1.5,2.1-2.6,3.7-3.4c1.6-0.8,3.4-1.2,5.5-1.2
			C379.7,413.3,382.1,414.2,383.9,415.9z"/>
		<path d="M393.7,423.8h12.1v2.9h-12.1V423.8z"/>
		<path d="M431.7,414.8c1.8,1,3.3,2.5,4.3,4.3c1,1.9,1.6,4,1.6,6.4c0,2.4-0.5,4.6-1.6,6.4c-1,1.9-2.5,3.3-4.3,4.3
			c-1.8,1-3.9,1.5-6.2,1.5c-2,0-3.7-0.4-5.3-1.2c-1.6-0.8-2.9-2-3.9-3.6v13.5H413v-33.1h3.1v4.8c1-1.6,2.3-2.8,3.9-3.7
			c1.6-0.9,3.4-1.3,5.5-1.3C427.8,413.3,429.8,413.8,431.7,414.8z M429.9,433.8c1.4-0.8,2.5-1.9,3.2-3.3c0.8-1.4,1.2-3.1,1.2-4.9
			c0-1.8-0.4-3.5-1.2-4.9c-0.8-1.4-1.9-2.5-3.2-3.3c-1.4-0.8-2.9-1.2-4.6-1.2c-1.7,0-3.3,0.4-4.6,1.2c-1.4,0.8-2.4,1.9-3.2,3.3
			c-0.8,1.4-1.2,3.1-1.2,4.9c0,1.8,0.4,3.5,1.2,4.9c0.8,1.4,1.9,2.6,3.2,3.3c1.4,0.8,2.9,1.2,4.6,1.2
			C426.9,435,428.5,434.6,429.9,433.8z"/>
		<path d="M447.8,436.3c-1.9-1.1-3.3-2.5-4.4-4.4c-1.1-1.9-1.6-4-1.6-6.3c0-2.4,0.5-4.5,1.6-6.3c1.1-1.9,2.5-3.3,4.4-4.4
			c1.9-1,4-1.6,6.3-1.6s4.4,0.5,6.3,1.6c1.9,1,3.3,2.5,4.4,4.4c1.1,1.9,1.6,4,1.6,6.3c0,2.4-0.5,4.5-1.6,6.3
			c-1.1,1.9-2.5,3.3-4.4,4.4c-1.9,1.1-4,1.6-6.3,1.6S449.7,437.4,447.8,436.3z M458.7,433.8c1.4-0.8,2.4-1.9,3.2-3.3
			c0.8-1.4,1.1-3.1,1.1-4.9c0-1.8-0.4-3.5-1.1-4.9c-0.8-1.4-1.8-2.6-3.2-3.3c-1.4-0.8-2.9-1.2-4.6-1.2c-1.7,0-3.3,0.4-4.6,1.2
			c-1.4,0.8-2.4,1.9-3.2,3.3c-0.8,1.4-1.2,3.1-1.2,4.9c0,1.8,0.4,3.5,1.2,4.9c0.8,1.4,1.9,2.6,3.2,3.3c1.4,0.8,2.9,1.2,4.6,1.2
			C455.8,435,457.4,434.6,458.7,433.8z"/>
		<path d="M473.1,403.5h3.3v34.1h-3.3V403.5z"/>
		<path d="M485.4,407.5c-0.5-0.5-0.7-1-0.7-1.7c0-0.6,0.2-1.1,0.7-1.6s1-0.7,1.7-0.7c0.7,0,1.2,0.2,1.7,0.7c0.5,0.4,0.7,1,0.7,1.6
			c0,0.7-0.2,1.2-0.7,1.7c-0.5,0.5-1,0.7-1.7,0.7C486.4,408.2,485.8,407.9,485.4,407.5z M485.4,413.5h3.3v24.2h-3.3V413.5z"/>
		<path d="M498.7,437c-1.8-0.6-3.2-1.3-4.2-2.1l1.5-2.6c1,0.8,2.3,1.4,3.8,2c1.5,0.5,3.1,0.8,4.8,0.8c2.2,0,3.8-0.3,4.9-1
			c1.1-0.7,1.6-1.7,1.6-2.9c0-0.9-0.3-1.6-0.9-2.1s-1.3-0.9-2.2-1.1c-0.9-0.3-2.1-0.5-3.5-0.8c-2-0.4-3.5-0.7-4.7-1.1
			c-1.2-0.4-2.2-1-3.1-2c-0.8-0.9-1.3-2.2-1.3-3.8c0-2,0.8-3.7,2.5-5c1.7-1.3,4-1.9,7-1.9c1.6,0,3.1,0.2,4.7,0.6
			c1.6,0.4,2.9,1,3.9,1.6l-1.4,2.6c-2-1.4-4.4-2.1-7.1-2.1c-2.1,0-3.7,0.4-4.7,1.1c-1.1,0.7-1.6,1.7-1.6,2.9c0,0.9,0.3,1.7,0.9,2.2
			c0.6,0.6,1.3,1,2.2,1.2c0.9,0.3,2.1,0.5,3.7,0.8c1.9,0.4,3.5,0.7,4.6,1.1c1.2,0.4,2.2,1,3,1.9c0.8,0.9,1.2,2.1,1.2,3.7
			c0,2.1-0.9,3.8-2.6,5c-1.8,1.2-4.2,1.9-7.3,1.9C502.3,437.9,500.5,437.6,498.7,437z"/>
		<path d="M539.9,415.9c1.8,1.8,2.7,4.3,2.7,7.7v14h-3.3V424c0-2.5-0.6-4.4-1.9-5.8c-1.3-1.3-3.1-2-5.4-2c-2.6,0-4.7,0.8-6.2,2.3
			c-1.5,1.5-2.3,3.7-2.3,6.4v12.7h-3.3v-34.1h3.3v14.2c0.9-1.4,2.1-2.5,3.7-3.3c1.6-0.8,3.4-1.1,5.4-1.1
			C535.7,413.3,538.1,414.2,539.9,415.9z"/>
		<path d="M279.7,470c1.8,1,3.3,2.5,4.3,4.3c1,1.9,1.6,4,1.6,6.4c0,2.4-0.5,4.6-1.6,6.4c-1,1.9-2.5,3.3-4.3,4.3
			c-1.8,1-3.9,1.5-6.2,1.5c-2,0-3.7-0.4-5.3-1.2c-1.6-0.8-2.9-2-3.9-3.6v13.5H261v-33.1h3.1v4.8c1-1.6,2.3-2.8,3.9-3.7
			c1.6-0.9,3.4-1.3,5.5-1.3C275.8,468.5,277.8,469,279.7,470z M277.9,489c1.4-0.8,2.5-1.9,3.2-3.3c0.8-1.4,1.2-3.1,1.2-4.9
			c0-1.8-0.4-3.5-1.2-4.9c-0.8-1.4-1.9-2.5-3.2-3.3c-1.4-0.8-2.9-1.2-4.6-1.2c-1.7,0-3.3,0.4-4.6,1.2c-1.4,0.8-2.4,1.9-3.2,3.3
			c-0.8,1.4-1.2,3.1-1.2,4.9c0,1.8,0.4,3.5,1.2,4.9c0.8,1.4,1.9,2.6,3.2,3.3c1.4,0.8,2.9,1.2,4.6,1.2
			C274.9,490.2,276.5,489.8,277.9,489z"/>
		<path d="M307.8,470.8c1.7,1.6,2.5,3.9,2.5,7v15h-3.1v-3.8c-0.7,1.3-1.8,2.2-3.2,2.9c-1.4,0.7-3.1,1.1-5.1,1.1
			c-2.7,0-4.8-0.6-6.4-1.9c-1.6-1.3-2.4-3-2.4-5.1c0-2.1,0.7-3.7,2.2-5c1.5-1.3,3.9-1.9,7.1-1.9h7.7v-1.5c0-2.1-0.6-3.7-1.7-4.8
			c-1.2-1.1-2.9-1.6-5.1-1.6c-1.5,0-3,0.3-4.4,0.8s-2.6,1.2-3.6,2.1l-1.5-2.4c1.2-1,2.7-1.8,4.4-2.4c1.7-0.6,3.5-0.9,5.4-0.9
			C303.7,468.5,306.1,469.3,307.8,470.8z M304.1,489.2c1.3-0.8,2.3-2.1,2.9-3.7v-4h-7.6c-4.1,0-6.2,1.4-6.2,4.3
			c0,1.4,0.5,2.5,1.6,3.3c1.1,0.8,2.6,1.2,4.5,1.2C301.2,490.5,302.8,490.1,304.1,489.2z"/>
		<path d="M325.8,469.7c1.5-0.8,3.4-1.2,5.6-1.2v3.2l-0.8,0c-2.5,0-4.5,0.8-6,2.3c-1.4,1.6-2.2,3.8-2.2,6.6v12.3h-3.3v-24.2h3.1v4.7
			C323.1,471.8,324.3,470.5,325.8,469.7z"/>
		<path d="M351.1,491.4c-0.6,0.6-1.4,1-2.3,1.3c-0.9,0.3-1.8,0.4-2.8,0.4c-2.3,0-4-0.6-5.2-1.8s-1.8-3-1.8-5.2v-14.6h-4.3v-2.8h4.3
			v-5.3h3.3v5.3h7.4v2.8h-7.4v14.4c0,1.4,0.4,2.5,1.1,3.3c0.7,0.8,1.8,1.1,3.1,1.1c0.7,0,1.3-0.1,2-0.3c0.6-0.2,1.2-0.5,1.6-0.9
			L351.1,491.4z"/>
		<path d="M357,462.7c-0.5-0.5-0.7-1-0.7-1.7c0-0.6,0.2-1.1,0.7-1.6s1-0.7,1.7-0.7c0.7,0,1.2,0.2,1.7,0.7c0.5,0.4,0.7,1,0.7,1.6
			c0,0.7-0.2,1.2-0.7,1.7c-0.5,0.5-1,0.7-1.7,0.7C358,463.4,357.4,463.1,357,462.7z M357,468.7h3.3v24.2H357V468.7z"/>
		<path d="M373,491.5c-1.9-1-3.4-2.5-4.4-4.4c-1.1-1.9-1.6-4-1.6-6.4c0-2.4,0.5-4.5,1.6-6.3c1.1-1.9,2.6-3.3,4.4-4.4
			c1.9-1,4-1.6,6.4-1.6c2.1,0,3.9,0.4,5.6,1.2c1.6,0.8,2.9,2,3.9,3.6l-2.4,1.7c-0.8-1.2-1.8-2.1-3-2.7c-1.2-0.6-2.6-0.9-4-0.9
			c-1.7,0-3.3,0.4-4.7,1.2c-1.4,0.8-2.5,1.9-3.3,3.3c-0.8,1.4-1.2,3.1-1.2,4.9c0,1.9,0.4,3.5,1.2,4.9c0.8,1.4,1.9,2.5,3.3,3.3
			c1.4,0.8,3,1.2,4.7,1.2c1.4,0,2.8-0.3,4-0.9c1.2-0.6,2.2-1.5,3-2.7l2.4,1.7c-1,1.6-2.3,2.8-3.9,3.6c-1.7,0.8-3.5,1.2-5.6,1.2
			C377,493.1,374.9,492.6,373,491.5z"/>
		<path d="M395.2,462.7c-0.5-0.5-0.7-1-0.7-1.7c0-0.6,0.2-1.1,0.7-1.6s1-0.7,1.7-0.7c0.7,0,1.2,0.2,1.7,0.7c0.5,0.4,0.7,1,0.7,1.6
			c0,0.7-0.2,1.2-0.7,1.7c-0.5,0.5-1,0.7-1.7,0.7C396.3,463.4,395.7,463.1,395.2,462.7z M395.3,468.7h3.3v24.2h-3.3V468.7z"/>
		<path d="M426.3,470c1.8,1,3.3,2.5,4.3,4.3c1,1.9,1.6,4,1.6,6.4c0,2.4-0.5,4.6-1.6,6.4c-1,1.9-2.5,3.3-4.3,4.3
			c-1.8,1-3.9,1.5-6.2,1.5c-2,0-3.7-0.4-5.3-1.2c-1.6-0.8-2.9-2-3.9-3.6v13.5h-3.3v-33.1h3.1v4.8c1-1.6,2.3-2.8,3.9-3.7
			c1.6-0.9,3.4-1.3,5.5-1.3C422.4,468.5,424.5,469,426.3,470z M424.5,489c1.4-0.8,2.5-1.9,3.2-3.3c0.8-1.4,1.2-3.1,1.2-4.9
			c0-1.8-0.4-3.5-1.2-4.9c-0.8-1.4-1.9-2.5-3.2-3.3c-1.4-0.8-2.9-1.2-4.6-1.2c-1.7,0-3.3,0.4-4.6,1.2c-1.4,0.8-2.4,1.9-3.2,3.3
			c-0.8,1.4-1.2,3.1-1.2,4.9c0,1.8,0.4,3.5,1.2,4.9c0.8,1.4,1.9,2.6,3.2,3.3c1.4,0.8,2.9,1.2,4.6,1.2
			C421.6,490.2,423.1,489.8,424.5,489z"/>
		<path d="M454.5,470.8c1.7,1.6,2.5,3.9,2.5,7v15h-3.1v-3.8c-0.7,1.3-1.8,2.2-3.2,2.9c-1.4,0.7-3.1,1.1-5.1,1.1
			c-2.7,0-4.8-0.6-6.4-1.9c-1.6-1.3-2.4-3-2.4-5.1c0-2.1,0.7-3.7,2.2-5c1.5-1.3,3.9-1.9,7.1-1.9h7.7v-1.5c0-2.1-0.6-3.7-1.7-4.8
			c-1.2-1.1-2.9-1.6-5.1-1.6c-1.5,0-3,0.3-4.4,0.8s-2.6,1.2-3.6,2.1l-1.5-2.4c1.2-1,2.7-1.8,4.4-2.4c1.7-0.6,3.5-0.9,5.4-0.9
			C450.3,468.5,452.8,469.3,454.5,470.8z M450.8,489.2c1.3-0.8,2.3-2.1,2.9-3.7v-4h-7.6c-4.1,0-6.2,1.4-6.2,4.3
			c0,1.4,0.5,2.5,1.6,3.3c1.1,0.8,2.6,1.2,4.5,1.2C447.9,490.5,449.5,490.1,450.8,489.2z"/>
		<path d="M485.4,471.1c1.8,1.8,2.7,4.3,2.7,7.7v14h-3.3v-13.7c0-2.5-0.6-4.4-1.9-5.8c-1.3-1.3-3.1-2-5.4-2c-2.6,0-4.7,0.8-6.2,2.3
			c-1.5,1.5-2.3,3.7-2.3,6.4v12.7h-3.3v-24.2h3.1v4.5c0.9-1.5,2.1-2.6,3.7-3.4c1.6-0.8,3.4-1.2,5.5-1.2
			C481.2,468.5,483.6,469.4,485.4,471.1z"/>
		<path d="M509.7,491.4c-0.6,0.6-1.4,1-2.3,1.3c-0.9,0.3-1.8,0.4-2.8,0.4c-2.3,0-4-0.6-5.2-1.8s-1.8-3-1.8-5.2v-14.6h-4.3v-2.8h4.3
			v-5.3h3.3v5.3h7.4v2.8h-7.4v14.4c0,1.4,0.4,2.5,1.1,3.3c0.7,0.8,1.8,1.1,3.1,1.1c0.7,0,1.3-0.1,2-0.3c0.6-0.2,1.2-0.5,1.6-0.9
			L509.7,491.4z"/>
		<path d="M516.5,492.2c-1.8-0.6-3.2-1.3-4.2-2.1l1.5-2.6c1,0.8,2.3,1.4,3.8,2c1.5,0.5,3.1,0.8,4.8,0.8c2.2,0,3.8-0.3,4.9-1
			c1.1-0.7,1.6-1.7,1.6-2.9c0-0.9-0.3-1.6-0.9-2.1s-1.3-0.9-2.2-1.1c-0.9-0.3-2.1-0.5-3.5-0.8c-2-0.4-3.5-0.7-4.7-1.1
			c-1.2-0.4-2.2-1-3.1-2c-0.8-0.9-1.3-2.2-1.3-3.8c0-2,0.8-3.7,2.5-5c1.7-1.3,4-1.9,7-1.9c1.6,0,3.1,0.2,4.7,0.6
			c1.6,0.4,2.9,1,3.9,1.6l-1.4,2.6c-2-1.4-4.4-2.1-7.1-2.1c-2.1,0-3.7,0.4-4.7,1.1c-1.1,0.7-1.6,1.7-1.6,2.9c0,0.9,0.3,1.7,0.9,2.2
			c0.6,0.6,1.3,1,2.2,1.2c0.9,0.3,2.1,0.5,3.7,0.8c1.9,0.4,3.5,0.7,4.6,1.1c1.2,0.4,2.2,1,3,1.9c0.8,0.9,1.2,2.1,1.2,3.7
			c0,2.1-0.9,3.8-2.6,5c-1.8,1.2-4.2,1.9-7.3,1.9C520.2,493.1,518.3,492.8,516.5,492.2z"/>
	</g>
	<g>
		<path d="M841.6,414.4v20.8c0,4-1,7-2.9,8.9c-2,1.9-4.9,2.9-8.9,2.9c-2.2,0-4.3-0.3-6.2-1c-2-0.6-3.6-1.5-4.8-2.7l1.6-2.4
			c1.1,1,2.5,1.8,4.2,2.4c1.6,0.6,3.4,0.9,5.2,0.9c3,0,5.2-0.7,6.6-2.1c1.4-1.4,2.1-3.6,2.1-6.5v-3c-1,1.5-2.3,2.6-3.9,3.4
			c-1.6,0.8-3.4,1.2-5.3,1.2c-2.2,0-4.2-0.5-6.1-1.5c-1.8-1-3.2-2.3-4.3-4.1s-1.6-3.7-1.6-6c0-2.2,0.5-4.2,1.6-5.9
			c1-1.7,2.5-3.1,4.3-4.1c1.8-1,3.8-1.4,6.1-1.4c2,0,3.8,0.4,5.4,1.2c1.6,0.8,2.9,2,3.9,3.5v-4.5H841.6z M834.1,433.3
			c1.4-0.7,2.5-1.8,3.2-3.1c0.8-1.3,1.1-2.8,1.1-4.5c0-1.7-0.4-3.2-1.1-4.5c-0.8-1.3-1.8-2.3-3.2-3.1c-1.4-0.7-2.9-1.1-4.7-1.1
			c-1.7,0-3.2,0.4-4.6,1.1c-1.4,0.7-2.4,1.7-3.2,3.1c-0.8,1.3-1.1,2.8-1.1,4.5c0,1.7,0.4,3.2,1.1,4.5c0.8,1.3,1.8,2.3,3.2,3.1
			c1.4,0.7,2.9,1.1,4.6,1.1S832.7,434,834.1,433.3z"/>
		<path d="M871.9,414.4v23.7h-3.1v-4.3c-0.8,1.4-2,2.6-3.5,3.4c-1.5,0.8-3.1,1.2-5,1.2c-3.1,0-5.5-0.9-7.3-2.6
			c-1.8-1.7-2.7-4.3-2.7-7.6v-13.7h3.2v13.4c0,2.5,0.6,4.4,1.8,5.7c1.2,1.3,3,1.9,5.3,1.9c2.5,0,4.5-0.8,5.9-2.3
			c1.4-1.5,2.2-3.6,2.2-6.3v-12.4H871.9z"/>
		<path d="M901.4,427.3h-19.8c0.2,2.5,1.1,4.4,2.8,6c1.7,1.5,3.9,2.3,6.5,2.3c1.5,0,2.8-0.3,4-0.8c1.2-0.5,2.3-1.3,3.2-2.3l1.8,2.1
			c-1.1,1.3-2.4,2.2-3.9,2.9c-1.6,0.7-3.3,1-5.2,1c-2.4,0-4.6-0.5-6.5-1.6c-1.9-1-3.3-2.5-4.4-4.3c-1.1-1.8-1.6-3.9-1.6-6.2
			c0-2.3,0.5-4.4,1.5-6.2c1-1.8,2.4-3.3,4.1-4.3c1.8-1,3.7-1.5,5.9-1.5s4.2,0.5,5.9,1.5c1.7,1,3.1,2.4,4.1,4.3
			c1,1.8,1.5,3.9,1.5,6.2L901.4,427.3z M884.2,419.2c-1.5,1.5-2.4,3.4-2.6,5.7h16.8c-0.2-2.3-1.1-4.2-2.6-5.7
			c-1.5-1.5-3.5-2.2-5.8-2.2C887.7,417,885.8,417.7,884.2,419.2z"/>
		<path d="M908.8,437.5c-1.8-0.6-3.1-1.3-4.1-2.1l1.4-2.5c1,0.8,2.2,1.4,3.7,1.9c1.5,0.5,3.1,0.7,4.7,0.7c2.2,0,3.8-0.3,4.8-1
			c1-0.7,1.6-1.6,1.6-2.9c0-0.9-0.3-1.6-0.9-2c-0.6-0.5-1.3-0.9-2.2-1.1c-0.9-0.3-2-0.5-3.5-0.7c-1.9-0.4-3.5-0.7-4.6-1.1
			c-1.2-0.4-2.2-1-3-1.9c-0.8-0.9-1.2-2.1-1.2-3.7c0-2,0.8-3.6,2.5-4.9c1.6-1.3,3.9-1.9,6.9-1.9c1.5,0,3.1,0.2,4.6,0.6
			c1.5,0.4,2.8,0.9,3.8,1.6l-1.4,2.6c-2-1.4-4.3-2-7-2c-2,0-3.6,0.4-4.6,1.1c-1,0.7-1.6,1.7-1.6,2.8c0,0.9,0.3,1.6,0.9,2.2
			c0.6,0.5,1.3,0.9,2.2,1.2c0.9,0.3,2.1,0.5,3.6,0.8c1.9,0.4,3.4,0.7,4.5,1.1c1.1,0.4,2.1,1,2.9,1.8c0.8,0.9,1.2,2.1,1.2,3.6
			c0,2.1-0.9,3.7-2.6,4.9c-1.7,1.2-4.1,1.8-7.2,1.8C912.4,438.3,910.6,438.1,908.8,437.5z"/>
		<path d="M942.5,436.7c-0.6,0.5-1.3,1-2.2,1.2c-0.9,0.3-1.8,0.4-2.8,0.4c-2.2,0-3.9-0.6-5.1-1.8c-1.2-1.2-1.8-2.9-1.8-5.1v-14.3
			h-4.2v-2.7h4.2v-5.2h3.2v5.2h7.2v2.7h-7.2v14.1c0,1.4,0.4,2.5,1.1,3.2c0.7,0.7,1.7,1.1,3,1.1c0.7,0,1.3-0.1,1.9-0.3
			c0.6-0.2,1.1-0.5,1.6-0.9L942.5,436.7z"/>
		<path d="M960.1,404.7h3.2v33.4h-3.2V404.7z"/>
		<path d="M992.8,427.3H973c0.2,2.5,1.1,4.4,2.8,6c1.7,1.5,3.9,2.3,6.5,2.3c1.5,0,2.8-0.3,4-0.8c1.2-0.5,2.3-1.3,3.2-2.3l1.8,2.1
			c-1,1.3-2.4,2.2-3.9,2.9c-1.6,0.7-3.3,1-5.2,1c-2.4,0-4.6-0.5-6.5-1.6c-1.9-1-3.3-2.5-4.4-4.3c-1.1-1.8-1.6-3.9-1.6-6.2
			c0-2.3,0.5-4.4,1.5-6.2c1-1.8,2.4-3.3,4.1-4.3c1.8-1,3.7-1.5,5.9-1.5c2.2,0,4.2,0.5,5.9,1.5c1.7,1,3.1,2.4,4.1,4.3
			c1,1.8,1.5,3.9,1.5,6.2L992.8,427.3z M975.6,419.2c-1.5,1.5-2.4,3.4-2.6,5.7h16.8c-0.2-2.3-1.1-4.2-2.6-5.7
			c-1.5-1.5-3.5-2.2-5.8-2.2C979.1,417,977.1,417.7,975.6,419.2z"/>
		<path d="M1002.9,436.8c-1.8-1-3.3-2.5-4.3-4.3c-1.1-1.8-1.6-3.9-1.6-6.2c0-2.3,0.5-4.4,1.6-6.2c1-1.8,2.5-3.3,4.3-4.3
			c1.8-1,3.9-1.5,6.3-1.5c2,0,3.9,0.4,5.5,1.2c1.6,0.8,2.9,2,3.8,3.5l-2.4,1.6c-0.8-1.2-1.8-2-3-2.6c-1.2-0.6-2.5-0.9-3.9-0.9
			c-1.7,0-3.2,0.4-4.6,1.1s-2.4,1.9-3.2,3.3c-0.8,1.4-1.1,3-1.1,4.8c0,1.8,0.4,3.4,1.1,4.8c0.8,1.4,1.8,2.5,3.2,3.2
			c1.4,0.8,2.9,1.1,4.6,1.1c1.4,0,2.7-0.3,3.9-0.9c1.2-0.6,2.2-1.4,3-2.6l2.4,1.6c-0.9,1.5-2.2,2.7-3.8,3.5s-3.4,1.2-5.4,1.2
			C1006.8,438.3,1004.7,437.8,1002.9,436.8z"/>
		<path d="M1037.4,436.7c-0.6,0.5-1.3,1-2.2,1.2s-1.8,0.4-2.8,0.4c-2.2,0-3.9-0.6-5.1-1.8c-1.2-1.2-1.8-2.9-1.8-5.1v-14.3h-4.2v-2.7
			h4.2v-5.2h3.2v5.2h7.2v2.7h-7.2v14.1c0,1.4,0.4,2.5,1.1,3.2c0.7,0.7,1.7,1.1,3,1.1c0.7,0,1.3-0.1,1.9-0.3c0.6-0.2,1.1-0.5,1.6-0.9
			L1037.4,436.7z"/>
		<path d="M1064.5,414.4v23.7h-3.1v-4.3c-0.8,1.4-2,2.6-3.5,3.4s-3.1,1.2-5,1.2c-3.1,0-5.5-0.9-7.3-2.6c-1.8-1.7-2.7-4.3-2.7-7.6
			v-13.7h3.2v13.4c0,2.5,0.6,4.4,1.8,5.7c1.2,1.3,3,1.9,5.3,1.9c2.5,0,4.5-0.8,5.9-2.3c1.4-1.5,2.2-3.6,2.2-6.3v-12.4H1064.5z"/>
		<path d="M1079.9,415.5c1.5-0.8,3.3-1.2,5.5-1.2v3.1l-0.8,0c-2.5,0-4.4,0.8-5.8,2.3c-1.4,1.5-2.1,3.7-2.1,6.4v12.1h-3.2v-23.7h3.1
			v4.6C1077.3,417.5,1078.4,416.3,1079.9,415.5z"/>
		<path d="M1111.6,427.3h-19.8c0.2,2.5,1.1,4.4,2.8,6c1.7,1.5,3.9,2.3,6.5,2.3c1.5,0,2.8-0.3,4-0.8c1.2-0.5,2.3-1.3,3.2-2.3l1.8,2.1
			c-1,1.3-2.4,2.2-3.9,2.9c-1.6,0.7-3.3,1-5.2,1c-2.4,0-4.6-0.5-6.5-1.6c-1.9-1-3.3-2.5-4.4-4.3c-1.1-1.8-1.6-3.9-1.6-6.2
			c0-2.3,0.5-4.4,1.5-6.2c1-1.8,2.4-3.3,4.1-4.3c1.8-1,3.7-1.5,5.9-1.5c2.2,0,4.2,0.5,5.9,1.5c1.7,1,3.1,2.4,4.1,4.3
			c1,1.8,1.5,3.9,1.5,6.2L1111.6,427.3z M1094.4,419.2c-1.5,1.5-2.4,3.4-2.6,5.7h16.8c-0.2-2.3-1.1-4.2-2.6-5.7
			c-1.5-1.5-3.5-2.2-5.8-2.2C1097.9,417,1095.9,417.7,1094.4,419.2z"/>
		<path d="M1119,437.5c-1.8-0.6-3.1-1.3-4.1-2.1l1.4-2.5c1,0.8,2.2,1.4,3.7,1.9c1.5,0.5,3.1,0.7,4.7,0.7c2.2,0,3.8-0.3,4.8-1
			c1-0.7,1.6-1.6,1.6-2.9c0-0.9-0.3-1.6-0.9-2c-0.6-0.5-1.3-0.9-2.2-1.1c-0.9-0.3-2-0.5-3.5-0.7c-1.9-0.4-3.5-0.7-4.6-1.1
			c-1.2-0.4-2.2-1-3-1.9c-0.8-0.9-1.2-2.1-1.2-3.7c0-2,0.8-3.6,2.5-4.9c1.6-1.3,3.9-1.9,6.9-1.9c1.5,0,3.1,0.2,4.6,0.6
			c1.5,0.4,2.8,0.9,3.8,1.6l-1.4,2.6c-2-1.4-4.3-2-7-2c-2,0-3.6,0.4-4.6,1.1c-1,0.7-1.6,1.7-1.6,2.8c0,0.9,0.3,1.6,0.9,2.2
			c0.6,0.5,1.3,0.9,2.2,1.2c0.9,0.3,2.1,0.5,3.6,0.8c1.9,0.4,3.4,0.7,4.5,1.1c1.1,0.4,2.1,1,2.9,1.8c0.8,0.9,1.2,2.1,1.2,3.6
			c0,2.1-0.9,3.7-2.6,4.9c-1.7,1.2-4.1,1.8-7.2,1.8C1122.6,438.3,1120.7,438.1,1119,437.5z"/>
	</g>
	<g>
	</g>
	<g>
	</g>
	<g>
	</g>
	<g>
	</g>
	<g>
	</g>
	<g>
	</g>
	<g>
	</g>
	<g>
	</g>
	<g>
	</g>
	<g>
	</g>
	<g>
	</g>
	<g>
	</g>
	<g>
	</g>
	<g>
	</g>
	<g>
	</g>
</g>
</svg>
