<?xml version="1.0" encoding="utf-8"?>
<!-- Generator: Adobe Illustrator 24.1.1, SVG Export Plug-In . SVG Version: 6.00 Build 0)  -->
<svg version="1.2" baseProfile="tiny" id="Layer_1" xmlns="http://www.w3.org/2000/svg" xmlns:xlink="http://www.w3.org/1999/xlink"
	 x="0px" y="0px" viewBox="0 0 360.78 312.1" xml:space="preserve">
<rect fill="#323A3F" width="360.78" height="312.1"/>
<g>
	<g>
		<path fill="#FFFFFF" d="M141.08,84.51c-0.18-2.03-0.67-3.81-1.47-5.34c-0.8-1.53-1.8-2.85-3-3.96s-2.56-2.02-4.08-2.75
			c-1.51-0.72-3.07-1.3-4.66-1.73c-1.59-0.43-3.18-0.72-4.77-0.9c-1.59-0.17-3.06-0.26-4.42-0.26h-2.99v14.92H105.6V47.16h10.08
			v14.41h2.07c1.39,0,2.85-0.11,4.38-0.33c1.52-0.22,3.03-0.56,4.53-1.03c1.49-0.47,2.93-1.08,4.31-1.82
			c1.38-0.74,2.61-1.65,3.7-2.72c1.09-1.07,1.99-2.31,2.72-3.71c0.72-1.4,1.18-3,1.36-4.8h10.28c-0.18,1.98-0.58,3.76-1.18,5.35
			c-0.61,1.59-1.36,3.02-2.26,4.28c-0.9,1.26-1.9,2.36-3,3.3c-1.11,0.94-2.24,1.75-3.4,2.43c-1.16,0.68-2.32,1.24-3.47,1.69
			c-1.15,0.44-2.22,0.78-3.22,1.02c1.27,0.2,2.59,0.51,3.96,0.94c1.37,0.43,2.72,0.99,4.06,1.69c1.34,0.7,2.62,1.55,3.85,2.57
			c1.22,1.02,2.32,2.2,3.3,3.56c0.98,1.36,1.79,2.91,2.45,4.65s1.07,3.7,1.25,5.87H141.08z"/>
	</g>
	<g>
		<path fill="#FFFFFF" d="M169.92,47.16V68.2c0,1.4,0.12,2.66,0.35,3.79c0.24,1.13,0.67,2.1,1.3,2.91c0.63,0.81,1.52,1.43,2.66,1.88
			c1.14,0.44,2.63,0.67,4.46,0.67c1.38,0,2.82-0.19,4.34-0.57c1.51-0.38,3.01-0.89,4.5-1.52c1.49-0.63,2.9-1.36,4.25-2.19
			c1.35-0.82,2.56-1.68,3.63-2.57V47.16h10.06v37.35h-10.06V79.4c-1.27,0.73-2.62,1.45-4.05,2.19c-1.43,0.73-2.95,1.4-4.57,1.98
			c-1.61,0.59-3.33,1.07-5.14,1.44c-1.81,0.37-3.72,0.56-5.74,0.56c-2.52,0-4.78-0.3-6.77-0.91c-1.99-0.61-3.68-1.47-5.06-2.58
			c-1.38-1.11-2.43-2.46-3.17-4.05c-0.73-1.59-1.1-3.36-1.1-5.31V47.16H169.92z"/>
	</g>
	<g>
		<path fill="#FFFFFF" d="M227.24,47.16v4.1c0.89-0.56,1.85-1.14,2.9-1.74c1.04-0.6,2.17-1.14,3.4-1.63
			c1.22-0.49,2.54-0.89,3.94-1.21c1.4-0.32,2.92-0.48,4.55-0.48c1.59,0,2.99,0.17,4.19,0.5c1.2,0.34,2.23,0.77,3.11,1.3
			c0.88,0.53,1.63,1.13,2.24,1.79c0.62,0.66,1.15,1.32,1.6,1.97c1.29-0.83,2.56-1.59,3.81-2.28c1.25-0.69,2.51-1.28,3.78-1.77
			s2.56-0.87,3.89-1.13c1.32-0.26,2.7-0.39,4.13-0.39c2.28,0,4.33,0.32,6.13,0.95c1.8,0.63,3.33,1.5,4.58,2.61
			c1.25,1.11,2.21,2.41,2.87,3.9c0.66,1.5,0.99,3.09,0.99,4.8v26.04h-10.08v-24.6c0-1-0.15-1.86-0.46-2.58
			c-0.31-0.72-0.72-1.31-1.24-1.77c-0.52-0.45-1.12-0.79-1.82-1.01c-0.7-0.22-1.44-0.33-2.22-0.33c-3.63,0-7.76,1.63-12.4,4.89
			c0.05,0.31,0.1,0.67,0.12,1.09c0.03,0.42,0.04,0.83,0.04,1.25v23.05h-10.08V59.69c0-1-0.15-1.84-0.46-2.54
			c-0.31-0.7-0.73-1.26-1.26-1.7c-0.54-0.44-1.15-0.75-1.85-0.94c-0.7-0.19-1.44-0.29-2.22-0.29c-0.94,0-1.93,0.14-2.98,0.41
			c-1.04,0.27-2.09,0.65-3.15,1.14c-1.06,0.49-2.1,1.07-3.13,1.74c-1.02,0.67-2,1.4-2.92,2.17v24.82h-10.08V47.16H227.24z"/>
	</g>
	<g>
		<path fill="#FFFFFF" d="M154.04,112.85c0,2.03-0.24,3.9-0.72,5.6c-0.48,1.7-1.17,3.27-2.08,4.7c1.11,0.27,2.12,0.51,3.04,0.71
			c0.92,0.2,1.73,0.37,2.42,0.52l2.17,0.43l-2.72,8.48l-12.26-3.81c-4.08,2.01-9.14,3.02-15.2,3.02c-3.9,0-7.42-0.42-10.56-1.26
			c-3.14-0.84-5.82-2.09-8.03-3.74c-2.21-1.65-3.92-3.7-5.11-6.16c-1.2-2.46-1.79-5.29-1.79-8.49c0-3.21,0.6-6.04,1.79-8.5
			c1.2-2.46,2.9-4.51,5.11-6.16c2.21-1.65,4.89-2.9,8.03-3.74c3.14-0.84,6.66-1.26,10.56-1.26c3.9,0,7.41,0.42,10.53,1.26
			c3.13,0.84,5.79,2.09,7.98,3.74c2.19,1.65,3.88,3.7,5.06,6.16C153.45,106.81,154.04,109.64,154.04,112.85z M143.85,112.85
			c0-1.4-0.22-2.79-0.67-4.17c-0.44-1.39-1.23-2.63-2.37-3.74s-2.68-2-4.63-2.69c-1.96-0.69-4.45-1.03-7.47-1.03
			c-2.03,0-3.82,0.16-5.36,0.48c-1.54,0.32-2.87,0.76-4,1.32c-1.12,0.56-2.07,1.22-2.83,1.97c-0.76,0.75-1.37,1.56-1.82,2.42
			c-0.45,0.86-0.78,1.76-0.96,2.69c-0.19,0.93-0.29,1.85-0.29,2.76c0,0.92,0.1,1.86,0.29,2.8c0.19,0.94,0.51,1.84,0.96,2.7
			c0.45,0.86,1.06,1.66,1.82,2.41c0.76,0.74,1.7,1.39,2.83,1.94c1.12,0.55,2.46,0.99,4,1.3c1.54,0.32,3.33,0.48,5.36,0.48
			c3.03,0,5.52-0.34,7.47-1.03c1.96-0.69,3.5-1.59,4.63-2.69s1.92-2.35,2.37-3.74C143.63,115.64,143.85,114.25,143.85,112.85z"/>
	</g>
	<g>
		<path fill="#FFFFFF" d="M175.64,94.15v21.04c0,1.4,0.12,2.66,0.35,3.79s0.67,2.1,1.3,2.91c0.63,0.81,1.52,1.43,2.66,1.88
			s2.63,0.67,4.46,0.67c1.38,0,2.82-0.19,4.34-0.57c1.51-0.38,3.01-0.89,4.5-1.52c1.49-0.63,2.9-1.36,4.25-2.19
			c1.35-0.83,2.56-1.68,3.63-2.57V94.15h10.06v37.35h-10.06v-5.11c-1.27,0.72-2.62,1.45-4.05,2.19c-1.43,0.73-2.95,1.4-4.57,1.98
			c-1.61,0.59-3.33,1.07-5.14,1.44c-1.81,0.37-3.72,0.56-5.74,0.56c-2.52,0-4.78-0.3-6.77-0.91c-1.99-0.61-3.68-1.47-5.06-2.58
			c-1.38-1.12-2.43-2.46-3.17-4.05c-0.73-1.58-1.1-3.36-1.1-5.31V94.15H175.64z"/>
	</g>
	<g>
		<path fill="#FFFFFF" d="M255,131.5v-3.67c-1.29,0.71-2.67,1.33-4.14,1.88c-1.48,0.54-3.01,1.01-4.61,1.39
			c-1.6,0.38-3.24,0.67-4.93,0.86s-3.4,0.29-5.12,0.29c-2.01,0-3.96-0.19-5.83-0.57c-1.88-0.38-3.54-1-4.99-1.85
			s-2.61-1.97-3.49-3.34c-0.88-1.38-1.32-3.06-1.32-5.06c0-2.52,0.69-4.62,2.07-6.29c1.38-1.68,3.48-3.05,6.31-4.12
			c2.83-1.07,6.4-1.89,10.72-2.47c4.32-0.58,9.44-1.03,15.34-1.36v-0.79c0-0.62-0.16-1.23-0.49-1.83c-0.33-0.61-0.92-1.14-1.78-1.6
			s-2.04-0.84-3.53-1.13s-3.4-0.44-5.72-0.44c-1.83,0-3.64,0.1-5.42,0.29s-3.51,0.45-5.16,0.77s-3.23,0.71-4.72,1.14
			s-2.84,0.89-4.05,1.36v-8.97c1.27-0.33,2.69-0.64,4.27-0.95c1.58-0.31,3.22-0.58,4.92-0.8s3.42-0.41,5.17-0.54
			c1.74-0.14,3.41-0.2,5-0.2c3.14,0,6.03,0.26,8.67,0.78c2.65,0.52,4.92,1.32,6.84,2.41c1.91,1.09,3.41,2.46,4.49,4.13
			c1.08,1.67,1.62,3.65,1.62,5.95v24.76H255z M255,114.45c-3.88,0.15-7.17,0.35-9.88,0.63c-2.71,0.27-4.96,0.59-6.75,0.95
			s-3.2,0.75-4.23,1.17c-1.02,0.42-1.79,0.84-2.3,1.28c-0.51,0.43-0.82,0.87-0.94,1.3c-0.12,0.43-0.18,0.83-0.18,1.2
			c0,0.43,0.12,0.86,0.35,1.26c0.23,0.41,0.65,0.77,1.24,1.07c0.59,0.31,1.37,0.55,2.35,0.73c0.98,0.18,2.21,0.27,3.7,0.27
			c1.65,0,3.26-0.13,4.84-0.38s3.07-0.6,4.49-1.05c1.41-0.44,2.74-0.97,3.98-1.58c1.24-0.61,2.35-1.25,3.33-1.94V114.45z"/>
	</g>
	<g>
		<path fill="#FFFFFF" d="M297.27,102.28v29.22h-10.08v-29.22h-15.85v-8.13h41.81v8.13H297.27z"/>
	</g>
</g>
<g>
	<g>
		<path fill="#72B62B" d="M70.3,56.16c9.17,0,16.63,7.46,16.63,16.63v2.72H73.27c-9.17,0-16.63-7.46-16.63-16.63v-2.72H70.3
			 M70.3,47.16H47.63v11.72c0,14.16,11.48,25.63,25.63,25.63h22.67V72.79C95.93,58.63,84.46,47.16,70.3,47.16L70.3,47.16z"/>
	</g>
</g>
<g>
	<g>
		<path fill="#F08118" d="M86.93,103.17v2.72c0,9.17-7.46,16.63-16.63,16.63H56.63v-2.72c0-9.17,7.46-16.63,16.63-16.63H86.93
			 M95.93,94.17H73.27c-14.16,0-25.63,11.48-25.63,25.63v11.72H70.3c14.16,0,25.63-11.48,25.63-25.63V94.17L95.93,94.17z"/>
	</g>
</g>
<g>
	<path fill="#FFFFFF" d="M50.99,166.23H47.7v-1.19h7.94v1.19h-3.29v8.41h-1.36V166.23z"/>
	<path fill="#FFFFFF" d="M65.81,165.04v9.6h-1.37v-4.28h-5.51v4.28h-1.37v-9.6h1.37v4.13h5.51v-4.13H65.81z"/>
	<path fill="#FFFFFF" d="M76.06,173.44v1.19h-6.97v-9.6h6.78v1.19h-5.4v2.95h4.81v1.17h-4.81v3.1H76.06z"/>
	<path fill="#FFFFFF" d="M77.87,169.84c0-2.81,2.17-4.91,5.12-4.91c2.92,0,5.09,2.09,5.09,4.91c0,2.83-2.17,4.91-5.09,4.91
		C80.04,174.75,77.87,172.65,77.87,169.84z M86.7,169.84c0-2.13-1.59-3.69-3.72-3.69c-2.15,0-3.74,1.56-3.74,3.69
		c0,2.13,1.59,3.69,3.74,3.69C85.11,173.53,86.7,171.96,86.7,169.84z"/>
	<path fill="#FFFFFF" d="M97,174.64l-2.07-2.95c-0.19,0.01-0.4,0.03-0.6,0.03h-2.37v2.92h-1.37v-9.6h3.75c2.5,0,4,1.26,4,3.35
		c0,1.48-0.77,2.55-2.11,3.03l2.28,3.22H97z M96.96,168.38c0-1.37-0.92-2.15-2.68-2.15h-2.33v4.32h2.33
		C96.04,170.55,96.96,169.75,96.96,168.38z"/>
	<path fill="#FFFFFF" d="M107.93,173.44v1.19h-6.97v-9.6h6.78v1.19h-5.4v2.95h4.81v1.17h-4.81v3.1H107.93z"/>
	<path fill="#FFFFFF" d="M112.47,166.23h-3.29v-1.19h7.94v1.19h-3.29v8.41h-1.36V166.23z"/>
	<path fill="#FFFFFF" d="M119.02,165.04h1.37v9.6h-1.37V165.04z"/>
	<path fill="#FFFFFF" d="M122.9,169.84c0-2.84,2.17-4.91,5.09-4.91c1.48,0,2.77,0.51,3.65,1.49l-0.89,0.86
		c-0.74-0.78-1.65-1.14-2.7-1.14c-2.17,0-3.77,1.56-3.77,3.69c0,2.13,1.6,3.69,3.77,3.69c1.06,0,1.96-0.37,2.7-1.15l0.89,0.86
		c-0.88,0.99-2.17,1.51-3.66,1.51C125.07,174.75,122.9,172.68,122.9,169.84z"/>
	<path fill="#FFFFFF" d="M139.89,172.24h-5.1l-1.06,2.4h-1.41l4.35-9.6h1.36l4.36,9.6h-1.44L139.89,172.24z M139.41,171.14
		l-2.07-4.7l-2.07,4.7H139.41z"/>
	<path fill="#FFFFFF" d="M144.22,165.04h1.37v8.41h5.2v1.19h-6.57V165.04z"/>
	<path fill="#FFFFFF" d="M164.63,168.38c0,2.09-1.51,3.35-4,3.35h-2.37v2.91h-1.37v-9.6h3.75
		C163.12,165.04,164.63,166.3,164.63,168.38z M163.26,168.38c0-1.37-0.92-2.15-2.68-2.15h-2.33v4.31h2.33
		C162.34,170.54,163.26,169.75,163.26,168.38z"/>
	<path fill="#FFFFFF" d="M175.31,165.04v9.6h-1.37v-4.28h-5.51v4.28h-1.37v-9.6h1.37v4.13h5.51v-4.13H175.31z"/>
	<path fill="#FFFFFF" d="M182.28,171.32v3.32h-1.36v-3.35l-3.81-6.26h1.47l3.07,5.06l3.09-5.06h1.36L182.28,171.32z"/>
	<path fill="#FFFFFF" d="M186.8,173.54l0.51-1.07c0.71,0.64,1.93,1.11,3.17,1.11c1.66,0,2.37-0.65,2.37-1.48
		c0-2.35-5.82-0.86-5.82-4.43c0-1.48,1.15-2.74,3.67-2.74c1.13,0,2.29,0.3,3.09,0.85l-0.45,1.1c-0.84-0.53-1.78-0.78-2.63-0.78
		c-1.63,0-2.33,0.69-2.33,1.52c0,2.35,5.82,0.88,5.82,4.4c0,1.47-1.18,2.73-3.72,2.73C189.01,174.75,187.57,174.25,186.8,173.54z"/>
	<path fill="#FFFFFF" d="M196.6,165.04h1.37v9.6h-1.37V165.04z"/>
	<path fill="#FFFFFF" d="M200.49,169.84c0-2.84,2.17-4.91,5.09-4.91c1.48,0,2.77,0.51,3.65,1.49l-0.89,0.86
		c-0.74-0.78-1.65-1.14-2.7-1.14c-2.17,0-3.77,1.56-3.77,3.69c0,2.13,1.6,3.69,3.77,3.69c1.06,0,1.96-0.37,2.7-1.15l0.89,0.86
		c-0.88,0.99-2.17,1.51-3.66,1.51C202.65,174.75,200.49,172.68,200.49,169.84z"/>
	<path fill="#FFFFFF" d="M210.67,173.54l0.51-1.07c0.71,0.64,1.93,1.11,3.17,1.11c1.66,0,2.37-0.65,2.37-1.48
		c0-2.35-5.82-0.86-5.82-4.43c0-1.48,1.15-2.74,3.67-2.74c1.13,0,2.29,0.3,3.09,0.85l-0.45,1.1c-0.84-0.53-1.78-0.78-2.63-0.78
		c-1.63,0-2.33,0.69-2.33,1.52c0,2.35,5.82,0.88,5.82,4.4c0,1.47-1.18,2.73-3.72,2.73C212.88,174.75,211.44,174.25,210.67,173.54z"
		/>
	<path fill="#FFFFFF" d="M221.78,173.77c0,0.27-0.05,0.48-0.23,0.99l-0.65,1.91h-0.86l0.51-2.04c-0.34-0.12-0.58-0.44-0.58-0.85
		c0-0.55,0.4-0.93,0.92-0.93S221.78,173.24,221.78,173.77z"/>
	<path fill="#FFFFFF" d="M58.98,195.95c-0.62,0.73-1.45,1.12-2.41,1.12c-1.21,0-2.15-0.52-3.5-1.91c-2.76-0.15-4.76-2.2-4.76-4.9
		c0-2.81,2.17-4.91,5.12-4.91c2.92,0,5.09,2.09,5.09,4.91c0,2.39-1.54,4.24-3.77,4.76c0.65,0.69,1.22,0.96,1.84,0.96
		c0.69,0,1.26-0.27,1.76-0.82L58.98,195.95z M53.42,193.96c2.13,0,3.72-1.58,3.72-3.69c0-2.11-1.59-3.69-3.72-3.69
		c-2.15,0-3.74,1.58-3.74,3.69C49.68,192.38,51.27,193.96,53.42,193.96z"/>
	<path fill="#FFFFFF" d="M60.94,190.93v-5.46h1.37v5.4c0,2.13,0.97,3.09,2.7,3.09s2.72-0.96,2.72-3.09v-5.4h1.33v5.46
		c0,2.78-1.52,4.25-4.06,4.25C62.47,195.18,60.94,193.71,60.94,190.93z"/>
	<path fill="#FFFFFF" d="M78.19,192.67h-5.1l-1.06,2.4h-1.41l4.35-9.6h1.36l4.36,9.6h-1.44L78.19,192.67z M77.71,191.57l-2.07-4.7
		l-2.07,4.7H77.71z"/>
	<path fill="#FFFFFF" d="M90.78,185.47v9.6h-1.12l-5.76-7.16v7.16h-1.37v-9.6h1.13l5.76,7.16v-7.16H90.78z"/>
	<path fill="#FFFFFF" d="M95.97,186.66h-3.29v-1.19h7.94v1.19h-3.29v8.41h-1.36V186.66z"/>
	<path fill="#FFFFFF" d="M102.26,190.93v-5.46h1.37v5.4c0,2.13,0.97,3.09,2.7,3.09s2.72-0.96,2.72-3.09v-5.4h1.33v5.46
		c0,2.78-1.52,4.25-4.06,4.25C103.8,195.18,102.26,193.71,102.26,190.93z"/>
	<path fill="#FFFFFF" d="M122.51,195.07l-0.01-7l-3.47,5.83h-0.63l-3.47-5.79v6.95h-1.32v-9.6h1.13l4,6.75l3.95-6.75h1.12l0.01,9.6
		H122.51z"/>
	<path fill="#FFFFFF" d="M130.43,190.27c0-2.84,2.17-4.91,5.09-4.91c1.48,0,2.77,0.51,3.65,1.49l-0.89,0.86
		c-0.74-0.78-1.65-1.14-2.7-1.14c-2.17,0-3.77,1.56-3.77,3.69c0,2.13,1.6,3.69,3.77,3.69c1.06,0,1.96-0.37,2.7-1.15l0.89,0.86
		c-0.88,0.99-2.17,1.51-3.66,1.51C132.6,195.18,130.43,193.11,130.43,190.27z"/>
	<path fill="#FFFFFF" d="M140.55,190.27c0-2.81,2.17-4.91,5.12-4.91c2.92,0,5.09,2.09,5.09,4.91c0,2.83-2.17,4.91-5.09,4.91
		C142.72,195.18,140.55,193.08,140.55,190.27z M149.38,190.27c0-2.13-1.59-3.69-3.72-3.69c-2.15,0-3.74,1.56-3.74,3.69
		c0,2.13,1.59,3.69,3.74,3.69C147.79,193.96,149.38,192.4,149.38,190.27z"/>
	<path fill="#FFFFFF" d="M162.16,195.07l-0.01-7l-3.47,5.83h-0.63l-3.47-5.79v6.95h-1.32v-9.6h1.13l4,6.75l3.95-6.75h1.12l0.01,9.6
		H162.16z"/>
	<path fill="#FFFFFF" d="M174.52,188.82c0,2.09-1.51,3.35-4,3.35h-2.37v2.91h-1.37v-9.6h3.75
		C173.01,185.47,174.52,186.73,174.52,188.82z M173.15,188.82c0-1.37-0.92-2.15-2.68-2.15h-2.33v4.31h2.33
		C172.23,190.97,173.15,190.19,173.15,188.82z"/>
	<path fill="#FFFFFF" d="M176.89,190.93v-5.46h1.37v5.4c0,2.13,0.97,3.09,2.7,3.09c1.73,0,2.72-0.96,2.72-3.09v-5.4h1.33v5.46
		c0,2.78-1.52,4.25-4.06,4.25C178.42,195.18,176.89,193.71,176.89,190.93z"/>
	<path fill="#FFFFFF" d="M189.95,186.66h-3.29v-1.19h7.94v1.19h-3.29v8.41h-1.36V186.66z"/>
	<path fill="#FFFFFF" d="M196.51,185.47h1.37v9.6h-1.37V185.47z"/>
	<path fill="#FFFFFF" d="M209.43,185.47v9.6h-1.12l-5.76-7.16v7.16h-1.37v-9.6h1.13l5.76,7.16v-7.16H209.43z"/>
	<path fill="#FFFFFF" d="M219.37,190.21h1.32v3.75c-0.96,0.81-2.29,1.22-3.64,1.22c-2.95,0-5.12-2.07-5.12-4.91
		c0-2.84,2.17-4.91,5.14-4.91c1.52,0,2.81,0.51,3.69,1.48l-0.85,0.85c-0.79-0.77-1.7-1.11-2.78-1.11c-2.22,0-3.83,1.55-3.83,3.69
		c0,2.11,1.6,3.69,3.81,3.69c0.81,0,1.56-0.18,2.25-0.62V190.21z"/>
	<path fill="#FFFFFF" d="M55.21,213.1h-5.1l-1.06,2.4h-1.41l4.35-9.6h1.36l4.36,9.6h-1.44L55.21,213.1z M54.73,212.01l-2.07-4.7
		l-2.07,4.7H54.73z"/>
	<path fill="#FFFFFF" d="M67.79,205.9v9.6h-1.12l-5.76-7.16v7.16h-1.37v-9.6h1.13l5.76,7.16v-7.16H67.79z"/>
	<path fill="#FFFFFF" d="M71.08,205.9h4.05c3.09,0,5.19,1.95,5.19,4.8c0,2.85-2.1,4.8-5.19,4.8h-4.05V205.9z M75.05,214.31
		c2.37,0,3.9-1.45,3.9-3.61c0-2.15-1.52-3.61-3.9-3.61h-2.59v7.21H75.05z"/>
	<path fill="#FFFFFF" d="M86.14,210.7c0-2.84,2.17-4.91,5.09-4.91c1.48,0,2.77,0.51,3.65,1.49l-0.89,0.86
		c-0.74-0.78-1.65-1.14-2.7-1.14c-2.17,0-3.77,1.56-3.77,3.69c0,2.13,1.6,3.69,3.77,3.69c1.06,0,1.96-0.37,2.7-1.15l0.89,0.86
		c-0.88,0.99-2.17,1.51-3.66,1.51C88.31,215.61,86.14,213.54,86.14,210.7z"/>
	<path fill="#FFFFFF" d="M96.26,210.7c0-2.81,2.17-4.91,5.12-4.91c2.92,0,5.09,2.09,5.09,4.91s-2.17,4.91-5.09,4.91
		C98.42,215.61,96.26,213.51,96.26,210.7z M105.09,210.7c0-2.13-1.59-3.69-3.72-3.69c-2.15,0-3.74,1.56-3.74,3.69
		c0,2.13,1.59,3.69,3.74,3.69C103.5,214.39,105.09,212.83,105.09,210.7z"/>
	<path fill="#FFFFFF" d="M117.87,215.5l-0.01-7l-3.47,5.83h-0.63l-3.47-5.79v6.95h-1.32v-9.6h1.13l4,6.75l3.95-6.75h1.12l0.01,9.6
		H117.87z"/>
	<path fill="#FFFFFF" d="M130.23,209.25c0,2.09-1.51,3.35-4,3.35h-2.37v2.91h-1.37v-9.6h3.75
		C128.72,205.9,130.23,207.16,130.23,209.25z M128.85,209.25c0-1.37-0.92-2.15-2.68-2.15h-2.33v4.31h2.33
		C127.93,211.4,128.85,210.62,128.85,209.25z"/>
	<path fill="#FFFFFF" d="M132.65,205.9h1.37v8.41h5.2v1.19h-6.57V205.9z"/>
	<path fill="#FFFFFF" d="M148.18,214.31v1.19h-6.97v-9.6h6.78v1.19h-5.4v2.95h4.81v1.17h-4.81v3.1H148.18z"/>
	<path fill="#FFFFFF" d="M156.73,215.5l-2.88-3.96l-2.84,3.96h-1.58l3.61-4.92l-3.39-4.68h1.56l2.69,3.69l2.66-3.69h1.49l-3.39,4.64
		l3.64,4.97H156.73z"/>
	<path fill="#FFFFFF" d="M163.56,214.41l0.51-1.07c0.71,0.64,1.93,1.11,3.17,1.11c1.66,0,2.37-0.65,2.37-1.48
		c0-2.35-5.82-0.86-5.82-4.43c0-1.48,1.15-2.74,3.67-2.74c1.13,0,2.29,0.3,3.09,0.85l-0.45,1.1c-0.84-0.53-1.78-0.78-2.63-0.78
		c-1.63,0-2.33,0.69-2.33,1.52c0,2.35,5.82,0.88,5.82,4.4c0,1.47-1.18,2.73-3.72,2.73C165.77,215.61,164.33,215.12,163.56,214.41z"
		/>
	<path fill="#FFFFFF" d="M176.83,212.18v3.32h-1.36v-3.35l-3.81-6.26h1.47l3.07,5.06l3.09-5.06h1.36L176.83,212.18z"/>
	<path fill="#FFFFFF" d="M181.36,214.41l0.51-1.07c0.71,0.64,1.93,1.11,3.17,1.11c1.66,0,2.37-0.65,2.37-1.48
		c0-2.35-5.82-0.86-5.82-4.43c0-1.48,1.15-2.74,3.67-2.74c1.13,0,2.29,0.3,3.09,0.85l-0.45,1.1c-0.84-0.53-1.78-0.78-2.63-0.78
		c-1.63,0-2.33,0.69-2.33,1.52c0,2.35,5.82,0.88,5.82,4.4c0,1.47-1.18,2.73-3.72,2.73C183.56,215.61,182.12,215.12,181.36,214.41z"
		/>
	<path fill="#FFFFFF" d="M192.93,207.09h-3.29v-1.19h7.94v1.19h-3.29v8.41h-1.36V207.09z"/>
	<path fill="#FFFFFF" d="M206.45,214.31v1.19h-6.97v-9.6h6.78v1.19h-5.4v2.95h4.81v1.17h-4.81v3.1H206.45z"/>
	<path fill="#FFFFFF" d="M217.98,215.5l-0.01-7l-3.47,5.83h-0.63l-3.47-5.79v6.95h-1.32v-9.6h1.13l4,6.75l3.95-6.75h1.12l0.01,9.6
		H217.98z"/>
	<path fill="#FFFFFF" d="M221.71,214.41l0.51-1.07c0.71,0.64,1.93,1.11,3.17,1.11c1.66,0,2.37-0.65,2.37-1.48
		c0-2.35-5.82-0.86-5.82-4.43c0-1.48,1.15-2.74,3.67-2.74c1.13,0,2.29,0.3,3.09,0.85l-0.45,1.1c-0.84-0.53-1.78-0.78-2.63-0.78
		c-1.63,0-2.33,0.69-2.33,1.52c0,2.35,5.82,0.88,5.82,4.4c0,1.47-1.18,2.73-3.72,2.73C223.92,215.61,222.48,215.12,221.71,214.41z"
		/>
	<path fill="#FFFFFF" d="M49.09,226.33h1.37v9.6h-1.37V226.33z"/>
	<path fill="#FFFFFF" d="M62.01,226.33v9.6h-1.12l-5.76-7.16v7.16h-1.37v-9.6h1.13l5.76,7.16v-7.16H62.01z"/>
	<path fill="#FFFFFF" d="M67.2,227.53h-3.29v-1.19h7.94v1.19h-3.29v8.41H67.2V227.53z"/>
	<path fill="#FFFFFF" d="M80.72,234.74v1.19h-6.97v-9.6h6.78v1.19h-5.4v2.95h4.81v1.17h-4.81v3.1H80.72z"/>
	<path fill="#FFFFFF" d="M89.77,235.94l-2.07-2.95c-0.19,0.01-0.4,0.03-0.6,0.03h-2.37v2.92h-1.37v-9.6h3.75c2.5,0,4,1.26,4,3.35
		c0,1.48-0.77,2.55-2.11,3.03l2.28,3.22H89.77z M89.73,229.68c0-1.37-0.92-2.15-2.68-2.15h-2.33v4.32h2.33
		C88.81,231.85,89.73,231.05,89.73,229.68z"/>
	<path fill="#FFFFFF" d="M101.99,226.33v9.6h-1.12l-5.76-7.16v7.16h-1.37v-9.6h1.13l5.76,7.16v-7.16H101.99z"/>
	<path fill="#FFFFFF" d="M111.4,233.54h-5.1l-1.06,2.4h-1.41l4.35-9.6h1.36l4.36,9.6h-1.44L111.4,233.54z M110.92,232.44l-2.07-4.7
		l-2.07,4.7H110.92z"/>
	<path fill="#FFFFFF" d="M117.16,227.53h-3.29v-1.19h7.94v1.19h-3.29v8.41h-1.36V227.53z"/>
	<path fill="#FFFFFF" d="M123.71,226.33h1.37v9.6h-1.37V226.33z"/>
	<path fill="#FFFFFF" d="M127.59,231.14c0-2.81,2.17-4.91,5.12-4.91c2.92,0,5.09,2.09,5.09,4.91s-2.17,4.91-5.09,4.91
		C129.76,236.05,127.59,233.95,127.59,231.14z M136.42,231.14c0-2.13-1.59-3.69-3.72-3.69c-2.15,0-3.74,1.56-3.74,3.69
		s1.59,3.69,3.74,3.69C134.83,234.83,136.42,233.26,136.42,231.14z"/>
	<path fill="#FFFFFF" d="M148.56,226.33v9.6h-1.12l-5.76-7.16v7.16h-1.37v-9.6h1.13l5.76,7.16v-7.16H148.56z"/>
	<path fill="#FFFFFF" d="M157.97,233.54h-5.1l-1.06,2.4h-1.41l4.35-9.6h1.36l4.36,9.6h-1.44L157.97,233.54z M157.49,232.44
		l-2.07-4.7l-2.07,4.7H157.49z"/>
	<path fill="#FFFFFF" d="M162.3,226.33h1.37v8.41h5.2v1.19h-6.57V226.33z"/>
	<path fill="#FFFFFF" d="M174.17,231.14c0-2.84,2.17-4.91,5.09-4.91c1.48,0,2.77,0.51,3.65,1.49l-0.89,0.86
		c-0.74-0.78-1.65-1.14-2.7-1.14c-2.17,0-3.77,1.56-3.77,3.69s1.6,3.69,3.77,3.69c1.06,0,1.96-0.37,2.7-1.15l0.89,0.86
		c-0.88,0.99-2.17,1.51-3.66,1.51C176.34,236.05,174.17,233.98,174.17,231.14z"/>
	<path fill="#FFFFFF" d="M184.29,231.14c0-2.81,2.17-4.91,5.12-4.91c2.92,0,5.09,2.09,5.09,4.91s-2.17,4.91-5.09,4.91
		C186.46,236.05,184.29,233.95,184.29,231.14z M193.12,231.14c0-2.13-1.59-3.69-3.72-3.69c-2.15,0-3.74,1.56-3.74,3.69
		s1.59,3.69,3.74,3.69C191.53,234.83,193.12,233.26,193.12,231.14z"/>
	<path fill="#FFFFFF" d="M205.26,226.33v9.6h-1.12l-5.76-7.16v7.16H197v-9.6h1.13l5.76,7.16v-7.16H205.26z"/>
	<path fill="#FFFFFF" d="M209.92,227.53v3.35h4.81v1.18h-4.81v3.88h-1.37v-9.6h6.78v1.19H209.92z"/>
	<path fill="#FFFFFF" d="M224.63,234.74v1.19h-6.97v-9.6h6.78v1.19h-5.4v2.95h4.81v1.17h-4.81v3.1H224.63z"/>
	<path fill="#FFFFFF" d="M233.68,235.94l-2.07-2.95c-0.19,0.01-0.4,0.03-0.6,0.03h-2.37v2.92h-1.37v-9.6h3.75c2.5,0,4,1.26,4,3.35
		c0,1.48-0.77,2.55-2.11,3.03l2.28,3.22H233.68z M233.64,229.68c0-1.37-0.92-2.15-2.68-2.15h-2.33v4.32h2.33
		C232.72,231.85,233.64,231.05,233.64,229.68z"/>
	<path fill="#FFFFFF" d="M244.61,234.74v1.19h-6.97v-9.6h6.78v1.19h-5.4v2.95h4.81v1.17h-4.81v3.1H244.61z"/>
	<path fill="#FFFFFF" d="M255.5,226.33v9.6h-1.12l-5.76-7.16v7.16h-1.37v-9.6h1.13l5.76,7.16v-7.16H255.5z"/>
	<path fill="#FFFFFF" d="M258.01,231.14c0-2.84,2.17-4.91,5.09-4.91c1.48,0,2.77,0.51,3.65,1.49l-0.89,0.86
		c-0.74-0.78-1.65-1.14-2.7-1.14c-2.17,0-3.77,1.56-3.77,3.69s1.6,3.69,3.77,3.69c1.06,0,1.96-0.37,2.7-1.15l0.89,0.86
		c-0.88,0.99-2.17,1.51-3.66,1.51C260.17,236.05,258.01,233.98,258.01,231.14z"/>
	<path fill="#FFFFFF" d="M276.08,234.74v1.19h-6.97v-9.6h6.78v1.19h-5.4v2.95h4.81v1.17h-4.81v3.1H276.08z"/>
	<path fill="#FFFFFF" d="M288.78,234.74v1.19h-6.9V235l3.91-3.77c1.02-0.99,1.21-1.59,1.21-2.19c0-0.99-0.7-1.59-2.04-1.59
		c-1.03,0-1.86,0.33-2.46,1.04l-0.93-0.81c0.74-0.92,2.02-1.45,3.51-1.45c2,0,3.29,1.03,3.29,2.67c0,0.93-0.27,1.77-1.58,3.02
		l-2.94,2.83H288.78z"/>
	<path fill="#FFFFFF" d="M290.27,231.14c0-3.13,1.67-4.91,3.92-4.91c2.24,0,3.91,1.78,3.91,4.91c0,3.13-1.67,4.91-3.91,4.91
		C291.95,236.05,290.27,234.26,290.27,231.14z M296.73,231.14c0-2.46-1.04-3.69-2.54-3.69c-1.51,0-2.55,1.23-2.55,3.69
		s1.04,3.69,2.55,3.69C295.69,234.83,296.73,233.59,296.73,231.14z"/>
	<path fill="#FFFFFF" d="M306.54,234.74v1.19h-6.9V235l3.91-3.77c1.02-0.99,1.21-1.59,1.21-2.19c0-0.99-0.7-1.59-2.04-1.59
		c-1.03,0-1.86,0.33-2.46,1.04l-0.93-0.81c0.74-0.92,2.02-1.45,3.51-1.45c2,0,3.29,1.03,3.29,2.67c0,0.93-0.27,1.77-1.58,3.02
		l-2.94,2.83H306.54z"/>
	<path fill="#FFFFFF" d="M311.05,226.33v9.6h-1.36v-8.41h-2.17v-1.19H311.05z"/>
</g>
<g>
	<rect x="47.65" y="261.67" fill="#72B62B" width="265.49" height="2.33"/>
</g>
</svg>
