<?xml version="1.0" encoding="utf-8"?>
<!-- Generator: Adobe Illustrator 25.2.1, SVG Export Plug-In . SVG Version: 6.00 Build 0)  -->
<svg version="1.1" id="Warstwa_1" xmlns="http://www.w3.org/2000/svg" xmlns:xlink="http://www.w3.org/1999/xlink" x="0px" y="0px"
	 viewBox="0 0 343 131.7" style="enable-background:new 0 0 343 131.7;" xml:space="preserve">
<style type="text/css">
	.st0{fill-rule:evenodd;clip-rule:evenodd;fill:#FFFFFF;}
	.st1{fill-rule:evenodd;clip-rule:evenodd;fill:#B12009;}
	.st2{fill-rule:evenodd;clip-rule:evenodd;fill:#FCD2A0;}
	.st3{fill-rule:evenodd;clip-rule:evenodd;}
</style>
<g>
	<rect x="41.3" y="26.2" class="st0" width="301.7" height="77.5"/>
	<g>
		<g>
			<rect x="50.1" y="36" class="st1" width="60" height="60"/>
			<path class="st2" d="M71.4,55.1c0.1,6.8,3.4,12.1,10.2,12.6l0-1.9c-5.5-0.2-9.6-5.6-10.1-10.6H71.4L71.4,55.1z M70.3,56.2
				c-0.4,0-0.7-0.3-0.7-0.7s0.3-0.7,0.7-0.7c0.4,0,0.7,0.3,0.7,0.7S70.7,56.2,70.3,56.2L70.3,56.2z M72.6,56c-0.4,0-0.7-0.3-0.7-0.7
				c0-0.4,0.3-0.7,0.7-0.7c0.4,0,0.7,0.3,0.7,0.7C73.3,55.7,73,56,72.6,56L72.6,56z M71.4,54.7c0.4,0,0.7-0.3,0.7-0.7
				c0-0.4-0.3-0.7-0.7-0.7c-0.4,0-0.7,0.3-0.7,0.7C70.7,54.4,71,54.7,71.4,54.7L71.4,54.7z M81.6,89.9L81.6,89.9
				c-0.5-1.1-0.8-2.1-0.9-2.9c-0.1-0.6-0.1-1.1-0.1-1.6c0-0.5,0-0.9,0.1-1.2c0.1-0.7,0.2-1.2,0-1.7c-0.2-0.1-1.4,1.4-2.3,1.5
				c-1.3,0.2-1.5-0.8-2.5-1.2c0.7-0.3,1.3-0.2,1.9-0.5c0.6-0.3,0.9-0.9,1.5-1c0.4-0.1,0.9-0.1,1.4,0.2c0.2,0,0-0.4-0.1-0.9
				c-0.1-0.4-0.3-0.8-0.3-1.2c0-0.4,0.1-0.7,0.4-0.9c-0.3-0.5-0.5-1-0.5-1.4c-0.1-0.9,0.2-1.3,0.2-2c0-0.4,0-1.1-0.2-1.3
				c-0.7,0.3-1.7,4-1.8,4.7l-1-0.6l-0.6,1c-0.2,0.4,0.9,1.6-0.3,2.2l0,0c0.1-0.3,0.1-0.7-0.1-1c-0.5-0.6-1.1-0.2-2-0.8
				c-0.5-0.5-1.1-0.6-1.5-0.4c-0.3,0.1-0.5,0.3-0.5,0.7l-0.1,0c-0.3-0.6,0-1,0.3-1.3c0.9-0.7,3.1,0.4,3.3,0l0.6-0.9l-0.9-0.6
				c2.4-1.7,2.4-4.6,2.2-7.3l-0.2-0.1c-0.4,2.4-1.5,4.3-3.1,5.6c-0.6,0.5-1.4,0.9-2.3,0.2c1-0.7,2.1-2.2,2.4-3.4
				c0.3-1.2,0.5-2.6,0.4-4.2l-0.1-0.1c-0.5,2.7-1.9,4.1-2.9,4.8c-0.7,0.5-1.5,1-2.3,0.3c1.1-0.9,2-2.2,2.5-3.4
				c0.5-1.3,0.6-2.8,0.5-4.3l-0.1-0.1c-0.6,2.5-1.2,3.8-2.7,4.9c-0.7,0.6-1.6,0.9-2.4,0.1c1.5-1.2,2.1-2.2,2.6-3.9
				c0.4-1.7,0.7-3.2,0.6-5.2l-0.1-0.4c-0.6,3.2-1.5,5.2-2.5,6.1c-0.7,0.6-1.6,1-2.2,0.4c0.7-0.8,1.1-1.7,1.4-2.6
				c0.5-1.9,0.4-3.5,0.3-6.1c0-1.7,0.2-3.3,0.9-4.7c0.8-1.5,2.6-1.8,3.9-1.4c2.1,0.6,2.7,3.2,1.7,4.8c-0.5,0.8-0.4,1.9-0.2,2.4
				c0.3,0.6,1.1,1.3,1.8,1.9c0.6,0.5,2.4,1.8,3.6,1.6c-0.1-0.7,0.1-1.4,0.3-2.1c0.2-0.7,0.5-1.5,0.6-2.2c0.1-0.6,0-1.4-0.3-1.8
				c-0.4-0.4-0.8-0.6-1.1-0.7c-0.5-0.2-0.8-0.3-1.1-0.6c-0.2-0.2-0.2-0.6-0.2-1c0.3,0.3,0.5,0.5,0.7,0.6c0.2,0.1,0.8,0.3,1,0.1
				c-0.2-0.4-0.6-0.8-1-1c-0.6-0.3-1.1-0.2-1.6,0.3c-0.1-0.5,0-1,0.3-1.4c0.4-0.4,1.2-0.2,1.6,0c-0.1-0.3,0.1-0.7,0.6-0.7
				c0.3,0,0.7,0.1,1,0.2c0.5,0.1,0.8,0.3,1.3,0.6L81.6,89.9L81.6,89.9z M79.1,52.9c0.2,0.1,0.3,0.2,0.4,0.3c0.2,0.2,0.8,0.1,1.1,0.2
				c0.2,0.1,0.3,0.1,0.3,0.1c-0.1-0.2-0.2-0.4-0.3-0.6C80.2,52.6,79.1,52.4,79.1,52.9L79.1,52.9z M91.8,55.1
				c-0.1,6.8-3.4,12.1-10.2,12.6l0-1.9c5.5-0.2,9.6-5.6,10.1-10.6H91.8L91.8,55.1z M92.9,56.2c0.4,0,0.7-0.3,0.7-0.7
				s-0.3-0.7-0.7-0.7c-0.4,0-0.7,0.3-0.7,0.7S92.5,56.2,92.9,56.2L92.9,56.2z M90.6,56c0.4,0,0.7-0.3,0.7-0.7c0-0.4-0.3-0.7-0.7-0.7
				c-0.4,0-0.7,0.3-0.7,0.7C89.9,55.7,90.2,56,90.6,56L90.6,56z M91.8,54.7c-0.4,0-0.7-0.3-0.7-0.7c0-0.4,0.3-0.7,0.7-0.7
				c0.4,0,0.7,0.3,0.7,0.7C92.5,54.4,92.2,54.7,91.8,54.7L91.8,54.7z M100.1,50.2H81.6l0,2.6c0.4-0.2,0.8-0.4,1.3-0.6
				c0.3-0.1,0.7-0.2,1-0.2c0.5,0,0.7,0.4,0.6,0.7c0.4-0.2,1.2-0.4,1.6,0c0.4,0.3,0.4,0.9,0.3,1.4c-0.4-0.5-1-0.6-1.6-0.3
				c-0.4,0.2-0.8,0.6-1,1c0.2,0.2,0.8,0,1-0.1c0.2-0.1,0.4-0.3,0.7-0.6c0,0.4-0.1,0.8-0.2,1c-0.3,0.4-0.6,0.5-1.1,0.6
				c-0.4,0.1-0.8,0.3-1.1,0.7c-0.3,0.4-0.4,1.2-0.3,1.8c0.1,0.7,0.4,1.4,0.6,2.2c0.2,0.7,0.4,1.4,0.3,2.1c1.1,0.2,2.9-1.1,3.6-1.6
				c0.7-0.6,1.4-1.2,1.8-1.9c0.3-0.5,0.4-1.6-0.2-2.4c-1-1.6-0.5-4.1,1.7-4.8c1.3-0.4,3.1,0,3.9,1.4c0.8,1.4,1,3,0.9,4.7
				c0,2.6-0.1,4.2,0.3,6.1c0.2,0.9,0.7,1.8,1.4,2.6c-0.5,0.6-1.5,0.2-2.2-0.4c-1-0.9-1.9-2.9-2.5-6.1l-0.1,0.4
				c0,1.9,0.2,3.4,0.6,5.2c0.4,1.8,1,2.8,2.5,3.9c-0.8,0.7-1.7,0.4-2.4-0.1c-1.4-1.1-2.1-2.4-2.7-4.9L90.4,65c-0.1,1.5,0,3,0.5,4.3
				c0.5,1.3,1.3,2.5,2.5,3.4c-0.8,0.7-1.6,0.2-2.3-0.3c-1-0.7-2.5-2.1-2.9-4.8L88,67.7c-0.1,1.6,0.1,3,0.4,4.2
				c0.3,1.2,1.4,2.7,2.4,3.4C90,76,89.2,75.5,88.5,75c-1.7-1.3-2.8-3.1-3.1-5.6l-0.2,0.1c-0.2,2.7-0.2,5.6,2.2,7.3l-0.9,0.6l0.6,0.9
				c0.2,0.4,2.4-0.7,3.3,0c0.4,0.3,0.6,0.8,0.3,1.3l-0.1,0c0-0.4-0.2-0.6-0.5-0.7c-0.4-0.2-1-0.1-1.5,0.4c-0.9,0.6-1.5,0.2-2,0.8
				c-0.3,0.4-0.3,0.7-0.2,1l0,0c-1.2-0.6-0.1-1.8-0.3-2.2l-0.6-1l-1,0.6c-0.1-0.7-1.2-4.4-1.8-4.7c-0.2,0.2-0.2,0.9-0.2,1.3
				c0,0.6,0.3,1.1,0.2,2c0,0.4-0.2,0.9-0.5,1.4c0.3,0.2,0.4,0.5,0.4,0.9c0,0.4-0.2,0.9-0.3,1.2c-0.2,0.5-0.3,0.9-0.1,0.9
				c0.5-0.3,1-0.3,1.4-0.2c0.6,0.2,1,0.8,1.5,1c0.6,0.3,1.2,0.3,1.9,0.5c-1,0.4-1.1,1.4-2.5,1.2c-0.8-0.1-2-1.7-2.3-1.5
				c-0.2,0.5-0.1,1,0,1.7c0,0.4,0.1,0.8,0.1,1.2c0,0.5,0,1-0.1,1.6c-0.1,0.8-0.4,1.8-0.9,2.9h0C99.8,83.8,100,58.3,100.1,50.2
				L100.1,50.2z M84.1,52.9c-0.2,0.1-0.3,0.2-0.4,0.3c-0.2,0.2-0.8,0.1-1.1,0.2c-0.2,0.1-0.3,0.1-0.3,0.1c0.1-0.2,0.2-0.4,0.3-0.6
				C83,52.6,84.1,52.4,84.1,52.9L84.1,52.9z M63.9,89.9h-0.2l-3.6-45.1h0.1c0.6,1.8,2.3,2.2,3.7,1.2V89.9L63.9,89.9z M100.1,45.9
				L63,42V42c1.7,0.7,2.2,2.7,0.9,4h36.2V45.9z"/>
		</g>
		<polygon class="st3" points="331,96 331,95.4 277.1,95.4 170.2,95.4 116.3,95.4 116.3,96 170.2,96 277.1,96 		"/>
		<path class="st3" d="M140.7,53.4c-0.8,2.5-2.3,6.9-4.5,13.4c-0.2-0.1-0.4-0.1-0.7-0.1c-0.3,0-0.5,0-0.7,0.1c-1-3.3-2.2-7-3.6-11
			l-3.7,10.9c-0.3-0.1-0.5-0.1-0.7-0.1c-0.2,0-0.4,0-0.7,0.1c-1-3.3-2.4-7.8-4.2-13.4c0.3,0.1,0.6,0.1,0.9,0.1c0.4,0,0.7,0,0.9-0.1
			c1.1,4,2.2,7.8,3.4,11.5c1.4-3.7,2.6-7.5,3.7-11.5c0.2,0.1,0.4,0.1,0.6,0.1c0.2,0,0.5,0,0.6-0.1c1.1,3.8,2.4,7.5,3.8,11.3
			c1.3-3.7,2.4-7.5,3.4-11.3c0.2,0.1,0.4,0.1,0.6,0.1C140.3,53.5,140.5,53.5,140.7,53.4L140.7,53.4z M331.1,78.4
			c-0.4,0.8-1,2.1-1.9,4l-2.6,5.9c-1,2.2-1.5,3.7-1.8,4.6c-0.2,0-0.4-0.1-0.7-0.1c-0.2,0-0.5,0-0.7,0.1c0.7-1.1,1.4-2.5,2.2-4.4
			l0.4-1l-0.8-2.2c-0.4-1-1.4-3.2-2.9-6.8v0.4c-0.4,0-0.8-0.1-1.2-0.1h-0.4c0.5,0.7,0.8,1.4,0.8,2.2c0,1-0.3,1.7-0.9,2.3
			c-0.6,0.6-1.5,0.8-2.6,0.8c-0.2,0-0.4,0-0.6,0c-0.2,0-0.4,0-0.5,0c-0.6,0-0.9,0.3-0.9,0.9c0,0.7,0.5,1.1,1.5,1.1c0,0,0.1,0,0.4,0
			h0.7c1.4,0,2.4,0.2,3,0.5c0.7,0.4,1,1.1,1,2.1c0,1.2-0.5,2.2-1.4,2.9c-0.9,0.8-2.1,1.1-3.6,1.1c-1.1,0-2-0.3-2.6-0.8
			c-0.6-0.5-0.9-1.2-0.9-2c0-1.3,0.7-2.2,2.2-2.6c-1-0.2-1.5-0.8-1.5-1.6c0-0.7,0.5-1.3,1.5-1.8c-1.3-0.4-2-1.3-2-2.6
			c0-1,0.3-1.8,1-2.4c0.7-0.6,1.6-0.9,2.8-0.9c0.4,0,0.8,0,1.3,0.1c0.5,0.1,0.8,0.1,1,0.1c0.3,0,1-0.1,1.9-0.2v0.2
			c0.2,0,0.5,0.1,0.8,0.1c0.4,0,0.7,0,0.9-0.1c0.3,1.2,1,3.1,2.1,5.7l0.7,1.7l0.7-1.6c1-2.3,1.7-4.2,2.2-5.7
			c0.2,0.1,0.4,0.1,0.7,0.1C330.7,78.5,330.9,78.5,331.1,78.4L331.1,78.4z M320,81.4c0-1.7-0.7-2.6-2-2.6c-0.6,0-1.2,0.2-1.6,0.7
			c-0.4,0.5-0.6,1.1-0.6,1.9c0,0.8,0.2,1.5,0.6,1.9c0.4,0.5,0.9,0.7,1.6,0.7C319.3,83.9,320,83.1,320,81.4L320,81.4z M321.1,89.7
			c0-0.8-0.3-1.4-0.9-1.7c-0.5-0.2-1.4-0.4-2.8-0.4c-0.1,0-0.3,0-0.6,0c-1.1,0.4-1.7,1.1-1.7,2.3c0,0.7,0.2,1.3,0.7,1.8
			c0.5,0.5,1.1,0.7,2,0.7c1,0,1.8-0.3,2.4-0.8C320.8,91.2,321.1,90.5,321.1,89.7L321.1,89.7z M311.4,83.2c0-2.9-1-4.3-3-4.3
			c-2,0-2.9,1.4-2.9,4.2c0,2.8,1,4.2,3,4.2C310.4,87.3,311.4,85.9,311.4,83.2L311.4,83.2z M313.1,83.1c0,1.4-0.4,2.6-1.3,3.5
			c-0.9,0.9-2,1.3-3.3,1.3c-1.4,0-2.5-0.4-3.3-1.3c-0.9-0.9-1.3-2-1.3-3.5c0-1.4,0.4-2.6,1.3-3.5c0.9-0.9,2-1.3,3.3-1.3
			c1.4,0,2.5,0.4,3.3,1.3C312.7,80.5,313.1,81.6,313.1,83.1L313.1,83.1z M302,87.7c-0.3,0-0.6-0.1-0.8-0.1c-0.3,0-0.5,0-0.8,0.1
			c0.1-0.9,0.1-2.8,0.1-5.7v-5.1c0-1.8,0-3.1-0.1-3.8c0.3,0,0.6,0,0.8,0c0.2,0,0.5,0,0.8,0c-0.1,1.2-0.1,3.2-0.1,6
			C301.9,83.4,302,86.3,302,87.7L302,87.7z M296.9,83.2c0-2.9-1-4.3-3-4.3c-2,0-2.9,1.4-2.9,4.2c0,2.8,1,4.2,3,4.2
			C295.9,87.3,296.9,85.9,296.9,83.2L296.9,83.2z M298.6,83.1c0,1.4-0.4,2.6-1.3,3.5c-0.9,0.9-2,1.3-3.3,1.3c-1.4,0-2.5-0.4-3.3-1.3
			c-0.9-0.9-1.3-2-1.3-3.5c0-1.4,0.4-2.6,1.3-3.5c0.9-0.9,2-1.3,3.3-1.3c1.4,0,2.5,0.4,3.3,1.3C298.2,80.5,298.6,81.6,298.6,83.1
			L298.6,83.1z M287.6,87.7c-0.3-0.1-0.6-0.1-0.8-0.1c-0.2,0-0.5,0-0.8,0.1c0.1-1.4,0.1-3.2,0.1-5.5c0-1.9-0.7-2.9-2.2-2.9
			c-0.8,0-1.4,0.3-1.8,0.8c-0.4,0.6-0.7,1.6-0.7,3.1V84c0,1.8,0,3,0.1,3.7c-0.3-0.1-0.6-0.1-0.8-0.1c-0.2,0-0.5,0-0.8,0.1
			c0.1-0.7,0.1-1.9,0.1-3.4v-1.4c0-2,0-3.5-0.1-4.4c0.2,0.1,0.5,0.1,0.8,0.1c0.3,0,0.6,0,0.8-0.1c0,0.5,0,0.8,0,1c0,0.1,0,0.2,0,0.4
			v0.4c0.7-1.3,1.8-1.9,3.1-1.9c2.1,0,3.1,1.2,3.1,3.5c0,0.3,0,0.8,0,1.4c0,0.6,0,1.1,0,1.4C287.5,85.6,287.5,86.6,287.6,87.7
			L287.6,87.7z M277.3,87.7c-0.3-0.1-0.6-0.1-0.8-0.1c-0.2,0-0.5,0-0.8,0.1c0.1-2.4,0.1-4.1,0.1-5.2c0-1.1-0.2-1.9-0.5-2.5
			c-0.3-0.5-0.9-0.8-1.7-0.8c-1,0-1.7,0.4-2.1,1.3c-0.3,0.5-0.4,1.7-0.4,3.5v1.4c0,0.5,0,1.2,0.1,2.3c-0.3-0.1-0.6-0.1-0.8-0.1
			c-0.2,0-0.5,0-0.8,0.1c0.1-2.9,0.1-5.4,0.1-7.3c0-2.3,0-4.8-0.1-7.3c0.4,0.1,0.7,0.1,0.8,0.1c0.2,0,0.5,0,0.8-0.1
			c-0.1,1.5-0.1,2.9-0.1,4.4c0,0.5,0,1.4,0,2.7c0.8-1.2,1.8-1.8,3-1.8c2.1,0,3.1,1.1,3.1,3.4c0,0.2,0,0.7,0,1.4c0,0.7,0,1.2,0,1.6
			C277.2,84.9,277.2,85.9,277.3,87.7L277.3,87.7z M268.1,79.1c-0.2,0.5-0.4,1-0.5,1.7c-0.5-1.2-1.4-1.8-2.7-1.8
			c-1,0-1.8,0.4-2.4,1.1c-0.6,0.7-0.9,1.7-0.9,3.1c0,1.3,0.3,2.3,0.9,3c0.6,0.7,1.4,1.1,2.5,1.1c1,0,2-0.5,3-1.4c0,0.4,0,0.6,0,0.7
			c0,0.2,0,0.3,0,0.4c-0.8,0.7-1.9,1-3.3,1c-1.4,0-2.5-0.4-3.3-1.3c-0.8-0.9-1.3-2-1.3-3.5c0-1.5,0.4-2.6,1.3-3.5
			c0.9-0.9,2.1-1.3,3.5-1.3C266,78.3,267.1,78.5,268.1,79.1L268.1,79.1z M257.4,82.3v-0.3c0-1-0.2-1.7-0.7-2.3
			c-0.4-0.5-1-0.8-1.8-0.8c-0.7,0-1.4,0.3-1.9,0.9c-0.5,0.6-0.8,1.5-0.8,2.5H257.4L257.4,82.3z M259,82.5v0.2c0,0.1,0,0.2,0,0.2
			h-6.7V83c0,2.7,1.1,4.1,3.3,4.1c1.1,0,2.1-0.4,3-1.3c0,0.3,0,0.6,0,0.7v0.2c-1,0.7-2.1,1.1-3.3,1.1c-1.4,0-2.5-0.4-3.3-1.3
			c-0.9-0.9-1.3-2-1.3-3.4c0-1.5,0.4-2.6,1.2-3.5c0.8-0.9,1.9-1.3,3.3-1.3c1.3,0,2.2,0.4,2.9,1.1C258.6,80.1,259,81.1,259,82.5
			L259,82.5z M252.1,75.5c0-0.2-0.1-0.4-0.1-0.6c0-0.2,0-0.4,0.1-0.6c-1.8,0-3.5,0.1-5.2,0.1c-1.6,0-3.2,0-4.7-0.1
			c0,0.3,0,0.5,0,0.6c0,0.1,0,0.3,0,0.5c0.8-0.2,2-0.2,3.6-0.2h0.5v3.3c0,2.5,0,5.6-0.1,9.2c0.2,0,0.5,0,0.9,0c0.4,0,0.7,0,0.9,0
			c-0.1-3-0.1-5.7-0.1-8.1c0-1.8,0-3.3,0.1-4.4h0.6C250.1,75.2,251.2,75.3,252.1,75.5L252.1,75.5z M234.3,82.8
			c0-1.2-0.2-2.1-0.7-2.8c-0.5-0.7-1.2-1-2-1c-0.9,0-1.6,0.4-2.1,1.1c-0.5,0.7-0.8,1.7-0.8,3.1c0,1.3,0.2,2.2,0.7,2.9
			c0.5,0.7,1.1,1,2,1c0.9,0,1.7-0.4,2.2-1.1C234,85.3,234.3,84.2,234.3,82.8L234.3,82.8z M235.9,87.7c-0.3-0.1-0.6-0.1-0.8-0.1
			c-0.2,0-0.5,0-0.8,0.1c0-0.5,0-0.9,0-1.2c0-0.3,0-0.6,0-0.7c-0.7,1.4-1.8,2.1-3.3,2.1c-1.2,0-2.1-0.4-2.8-1.3
			c-0.7-0.8-1.1-2-1.1-3.4c0-1.5,0.4-2.7,1.2-3.6c0.8-0.9,1.8-1.4,3-1.4c1.3,0,2.4,0.6,3.1,1.8c0-0.7,0-1.4,0-2.2v-1.4
			c0-1.2,0-2.4-0.1-3.5c0.3,0.1,0.6,0.1,0.8,0.1c0.2,0,0.5,0,0.8-0.1c-0.1,1.6-0.1,3.6-0.1,6.3C235.8,82.4,235.8,85.2,235.9,87.7
			L235.9,87.7z M225.2,87.7c-0.3-0.1-0.6-0.1-0.8-0.1c-0.2,0-0.5,0-0.8,0.1c0.1-1.4,0.1-3.2,0.1-5.5c0-1.9-0.7-2.9-2.2-2.9
			c-0.8,0-1.4,0.3-1.8,0.8c-0.4,0.6-0.7,1.6-0.7,3.1V84c0,1.8,0,3,0.1,3.7c-0.3-0.1-0.6-0.1-0.8-0.1c-0.2,0-0.5,0-0.8,0.1
			c0.1-0.7,0.1-1.9,0.1-3.4v-1.4c0-2,0-3.5-0.1-4.4c0.2,0.1,0.5,0.1,0.8,0.1c0.3,0,0.6,0,0.8-0.1c0,0.5,0,0.8,0,1c0,0.1,0,0.2,0,0.4
			v0.4c0.7-1.3,1.8-1.9,3.1-1.9c2.1,0,3.1,1.2,3.1,3.5c0,0.3,0,0.8,0,1.4c0,0.6,0,1.1,0,1.4C225.2,85.6,225.2,86.6,225.2,87.7
			L225.2,87.7z M213.3,85.4v-2.5c-1.5,0.3-2.6,0.5-3.1,0.8c-0.6,0.3-1,0.9-1,1.6c0,1.2,0.6,1.9,1.7,1.9c0.7,0,1.4-0.3,2-0.9
			C213.2,86,213.3,85.7,213.3,85.4L213.3,85.4z M215.9,87.4c-0.7,0.2-1.2,0.3-1.6,0.3c-0.6,0-1-0.4-1.1-1.1
			c-0.8,0.9-1.8,1.3-2.9,1.3c-1.8,0-2.7-0.8-2.7-2.4c0-1.4,0.8-2.2,2.3-2.5c0.7-0.1,1.4-0.3,2.2-0.4c0.6-0.1,1-0.3,1.2-0.5v-0.4
			c0-0.9-0.2-1.5-0.5-1.9c-0.3-0.4-0.9-0.6-1.7-0.6c-1.1,0-1.9,0.5-2.5,1.4h-0.2l0-1c0.9-0.7,1.9-1.1,3.1-1.1c1.1,0,1.9,0.3,2.4,0.8
			c0.5,0.5,0.7,1.4,0.7,2.5v0.2l-0.1,3.9c0,0.4,0,0.7,0.1,0.9c0.1,0.3,0.4,0.4,0.8,0.4c0.1,0,0.3,0,0.3,0L215.9,87.4L215.9,87.4z
			 M200,82.3v-0.3c0-1-0.2-1.7-0.7-2.3c-0.4-0.5-1-0.8-1.8-0.8c-0.7,0-1.4,0.3-1.9,0.9c-0.5,0.6-0.8,1.5-0.8,2.5H200L200,82.3z
			 M201.6,82.5v0.2c0,0.1,0,0.2,0,0.2h-6.7V83c0,2.7,1.1,4.1,3.3,4.1c1.1,0,2.1-0.4,3-1.3c0,0.3,0,0.6,0,0.7v0.2
			c-1,0.7-2.1,1.1-3.3,1.1c-1.4,0-2.5-0.4-3.3-1.3c-0.9-0.9-1.3-2-1.3-3.4c0-1.5,0.4-2.6,1.2-3.5c0.8-0.9,1.9-1.3,3.3-1.3
			c1.3,0,2.2,0.4,2.9,1.1C201.3,80.1,201.6,81.1,201.6,82.5L201.6,82.5z M192.5,79.1c-0.2,0.5-0.4,1-0.5,1.7
			c-0.5-1.2-1.4-1.8-2.7-1.8c-1,0-1.8,0.4-2.4,1.1c-0.6,0.7-0.9,1.7-0.9,3.1c0,1.3,0.3,2.3,0.9,3c0.6,0.7,1.4,1.1,2.5,1.1
			c1,0,2-0.5,3-1.4c0,0.4,0,0.6,0,0.7c0,0.2,0,0.3,0,0.4c-0.8,0.7-1.9,1-3.3,1c-1.4,0-2.5-0.4-3.3-1.3c-0.8-0.9-1.3-2-1.3-3.5
			c0-1.5,0.4-2.6,1.3-3.5c0.9-0.9,2.1-1.3,3.5-1.3C190.4,78.3,191.5,78.5,192.5,79.1L192.5,79.1z M182.7,87.7
			c-0.3-0.1-0.6-0.1-0.8-0.1c-0.2,0-0.5,0-0.8,0.1c0.1-1.4,0.1-3.2,0.1-5.5c0-1.9-0.7-2.9-2.2-2.9c-0.8,0-1.4,0.3-1.8,0.8
			c-0.4,0.6-0.7,1.6-0.7,3.1V84c0,1.8,0,3,0.1,3.7c-0.3-0.1-0.6-0.1-0.8-0.1c-0.2,0-0.5,0-0.8,0.1c0.1-0.7,0.1-1.9,0.1-3.4v-1.4
			c0-2,0-3.5-0.1-4.4c0.2,0.1,0.5,0.1,0.8,0.1c0.3,0,0.6,0,0.8-0.1c0,0.5,0,0.8,0,1c0,0.1,0,0.2,0,0.4v0.4c0.7-1.3,1.8-1.9,3.1-1.9
			c2.1,0,3.1,1.2,3.1,3.5c0,0.3,0,0.8,0,1.4c0,0.6,0,1.1,0,1.4C182.7,85.6,182.7,86.6,182.7,87.7L182.7,87.7z M171.6,82.3v-0.3
			c0-1-0.2-1.7-0.7-2.3c-0.4-0.5-1-0.8-1.8-0.8c-0.7,0-1.4,0.3-1.9,0.9c-0.5,0.6-0.8,1.5-0.8,2.5H171.6L171.6,82.3z M173.1,82.5v0.2
			c0,0.1,0,0.2,0,0.2h-6.7V83c0,2.7,1.1,4.1,3.3,4.1c1.1,0,2.1-0.4,3-1.3c0,0.3,0,0.6,0,0.7v0.2c-1,0.7-2.1,1.1-3.3,1.1
			c-1.4,0-2.5-0.4-3.3-1.3c-0.9-0.9-1.3-2-1.3-3.4c0-1.5,0.4-2.6,1.2-3.5c0.8-0.9,1.9-1.3,3.3-1.3c1.3,0,2.2,0.4,2.9,1.1
			C172.8,80.1,173.1,81.1,173.1,82.5L173.1,82.5z M162.7,87.7c-0.3-0.1-0.6-0.1-0.8-0.1c-0.2,0-0.5,0-0.8,0.1
			c0.1-1.8,0.1-3.4,0.1-4.9c0-1.3,0-2.8-0.1-4.4c0.2,0.1,0.5,0.1,0.8,0.1c0.3,0,0.6,0,0.8-0.1c-0.1,1.6-0.1,3.1-0.1,4.4
			C162.6,84.3,162.7,85.9,162.7,87.7L162.7,87.7z M162.9,75c0,0.3-0.1,0.5-0.3,0.7c-0.2,0.2-0.4,0.3-0.7,0.3c-0.3,0-0.5-0.1-0.7-0.3
			c-0.2-0.2-0.3-0.4-0.3-0.7c0-0.3,0.1-0.5,0.3-0.7c0.2-0.2,0.4-0.3,0.7-0.3c0.3,0,0.5,0.1,0.7,0.3C162.8,74.5,162.9,74.8,162.9,75
			L162.9,75z M159.6,79.1c-0.2,0.5-0.4,1-0.5,1.7c-0.5-1.2-1.4-1.8-2.7-1.8c-1,0-1.8,0.4-2.4,1.1c-0.6,0.7-0.9,1.7-0.9,3.1
			c0,1.3,0.3,2.3,0.9,3c0.6,0.7,1.4,1.1,2.5,1.1c1,0,2-0.5,3-1.4c0,0.4,0,0.6,0,0.7c0,0.2,0,0.3,0,0.4c-0.8,0.7-2,1-3.3,1
			c-1.4,0-2.5-0.4-3.3-1.3c-0.8-0.9-1.3-2-1.3-3.5c0-1.5,0.4-2.6,1.3-3.5c0.9-0.9,2-1.3,3.5-1.3C157.5,78.3,158.5,78.5,159.6,79.1
			L159.6,79.1z M150.4,83.7c0,1.3-0.4,2.3-1.3,3.1c-0.8,0.8-2,1.2-3.4,1.2c-1.3,0-2.4-0.3-3.3-1c0.2-0.7,0.4-1.4,0.4-2.1
			c0.6,1.6,1.7,2.3,3.2,2.3c0.8,0,1.5-0.3,2-0.8c0.5-0.5,0.8-1.2,0.8-2.1c0-0.6-0.2-1.1-0.5-1.5c-0.3-0.3-0.8-0.7-1.5-1l-1.6-0.7
			c-1.7-0.7-2.6-1.8-2.6-3.3c0-1.1,0.4-2,1.1-2.7c0.8-0.7,1.8-1.1,3-1.1c1,0,2,0.2,3,0.7c-0.2,0.4-0.4,0.9-0.5,1.5
			c-0.7-1-1.6-1.5-2.7-1.5c-0.7,0-1.3,0.2-1.7,0.7c-0.4,0.4-0.6,1-0.6,1.8c0,1,0.7,1.8,2,2.4l1.6,0.7c0.9,0.4,1.6,0.8,2,1.4
			C150.2,82.2,150.4,82.9,150.4,83.7L150.4,83.7z M137.5,73l-0.2,1.5c-0.3-0.2-0.7-0.2-1.1-0.2c-1.1,0-1.7,0.6-1.7,1.8
			c0,0.5,0.1,1.3,0.2,2.4h0.4c0.2,0,0.3,0,0.4,0c0.3,0,0.7,0,1.2,0v0.8c-0.1,0-0.7,0-2-0.1c0,4.3,0.1,7.1,0.2,8.4
			c-0.3-0.1-0.6-0.1-0.9-0.1c-0.2,0-0.5,0-0.9,0.1c0.1-0.8,0.1-2.8,0.1-5.9v-2.5c-0.3,0-0.7,0-1.3,0v-0.7c0.4,0,0.7,0,0.8,0
			c0.1,0,0.2,0,0.3,0h0.3c0-1.7,0.4-3.1,1.1-4.1c0.7-1,1.6-1.4,2.7-1.4C137.3,73,137.4,73,137.5,73L137.5,73z M129.6,83.2
			c0-2.9-1-4.3-3-4.3c-2,0-2.9,1.4-2.9,4.2c0,2.8,1,4.2,3,4.2C128.6,87.3,129.6,85.9,129.6,83.2L129.6,83.2z M131.3,83.1
			c0,1.4-0.4,2.6-1.3,3.5c-0.9,0.9-2,1.3-3.3,1.3c-1.4,0-2.5-0.4-3.3-1.3c-0.9-0.9-1.3-2-1.3-3.5c0-1.4,0.4-2.6,1.3-3.5
			c0.9-0.9,2-1.3,3.3-1.3c1.4,0,2.5,0.4,3.3,1.3C130.9,80.5,131.3,81.6,131.3,83.1L131.3,83.1z M277.6,57.5c-0.4,0.8-1,2.1-1.9,4
			l-2.6,5.9c-1,2.2-1.5,3.4-1.7,4.3c-0.2,0-0.4-0.1-0.7-0.1c-0.2,0-0.5,0-0.7,0.1c0.7-1.1,1.3-2.2,2.1-4l0.5-1l-0.8-2.2
			c-0.4-1-1.4-3.3-3-7c0,0.2,0,0.4,0,0.6v0.2c-0.7,0-1.3-0.1-1.8-0.1c-0.3,0-0.6,0-0.7,0l0,1c0,0.4,0,1.1,0,2.1c0,1,0,1.8,0,2.5
			c0,0.9,0.1,1.5,0.4,1.9c0.2,0.4,0.7,0.6,1.3,0.6c0.3,0,0.8-0.1,1.4-0.4l0.1,0.4c-0.7,0.4-1.4,0.7-2.1,0.7c-0.9,0-1.5-0.2-1.9-0.6
			c-0.4-0.4-0.6-1.1-0.6-2c0-0.2,0-0.9,0-2.1c0-1.2,0-2.3,0-3.3v-0.7h-0.2c-0.3,0-0.7,0-1,0.1c0-0.2,0-0.4,0-0.5v-0.2
			c0-0.1,0-0.1,0-0.2c0.4,0,0.8,0.1,1.3,0.1v-0.6c0-0.4,0-1,0-1.6c0.6-0.1,1.1-0.3,1.6-0.5c0,0.8-0.1,1.3-0.1,1.5v1.3
			c0.7,0,1.5,0,2.5-0.1l0,0l0,0l0,0l0,0c0.3,0,0.6,0.1,0.9,0.1c0.4,0,0.7,0,0.9-0.1c0.3,1.2,1,3.1,2.1,5.7l0.7,1.7l0.7-1.6
			c1-2.3,1.7-4.2,2.2-5.7c0.2,0.1,0.4,0.1,0.7,0.1C277.2,57.6,277.4,57.6,277.6,57.5L277.6,57.5z M262,66.8
			c-0.3-0.1-0.6-0.1-0.8-0.1c-0.2,0-0.5,0-0.8,0.1c0.1-1.8,0.1-3.4,0.1-4.9c0-1.3,0-2.8-0.1-4.4c0.2,0.1,0.5,0.1,0.8,0.1
			c0.3,0,0.6,0,0.8-0.1c-0.1,1.6-0.1,3.1-0.1,4.4C261.9,63.4,262,65,262,66.8L262,66.8z M262.2,54.1c0,0.3-0.1,0.5-0.3,0.7
			c-0.2,0.2-0.4,0.3-0.7,0.3c-0.3,0-0.5-0.1-0.7-0.3c-0.2-0.2-0.3-0.4-0.3-0.7c0-0.3,0.1-0.5,0.3-0.7c0.2-0.2,0.4-0.3,0.7-0.3
			c0.3,0,0.5,0.1,0.7,0.3C262.1,53.6,262.2,53.9,262.2,54.1L262.2,54.1z M258.7,63.9c0,0.9-0.3,1.6-1,2.2c-0.6,0.6-1.5,0.9-2.5,0.9
			c-1,0-1.9-0.2-2.5-0.7c0.2-0.5,0.4-1,0.5-1.5c0.6,1,1.4,1.5,2.4,1.5c0.6,0,1.1-0.2,1.4-0.5c0.3-0.3,0.5-0.8,0.5-1.3
			c0-0.8-0.5-1.3-1.5-1.6l-0.9-0.3c-0.7-0.2-1.3-0.5-1.6-0.9c-0.3-0.4-0.5-0.9-0.5-1.6c0-0.8,0.3-1.4,0.8-1.9
			c0.5-0.5,1.3-0.8,2.2-0.8c0.9,0,1.8,0.2,2.4,0.6c-0.2,0.4-0.3,0.8-0.4,1.2c-0.7-0.9-1.5-1.3-2.3-1.3c-0.5,0-0.9,0.2-1.2,0.5
			c-0.3,0.3-0.5,0.7-0.5,1.2c0,0.8,0.5,1.4,1.5,1.6l1.3,0.4C258,62,258.7,62.7,258.7,63.9L258.7,63.9z M252.3,57.5
			c-0.1,0.3-0.1,0.8-0.1,1.5l-0.2,0.1c-0.3-0.2-0.6-0.3-0.9-0.3c-0.7,0-1.3,0.3-1.6,1c-0.3,0.6-0.5,1.6-0.5,3c0,1.7,0,3,0.1,4
			c-0.2-0.1-0.5-0.1-0.8-0.1c-0.2,0-0.5,0-0.7,0.1c0.1-1.5,0.1-3.7,0.1-6.4c0-1.2,0-2.1-0.1-2.8c0.3,0.1,0.5,0.1,0.8,0.1
			c0.3,0,0.6,0,0.8-0.1c-0.1,0.6-0.1,1.3-0.1,2.2c0.7-1.5,1.5-2.3,2.4-2.3C251.7,57.4,252,57.5,252.3,57.5L252.3,57.5z M244.2,61.3
			V61c0-1-0.2-1.7-0.7-2.3c-0.4-0.5-1-0.8-1.8-0.8c-0.7,0-1.4,0.3-1.9,0.9c-0.5,0.6-0.8,1.5-0.8,2.5H244.2L244.2,61.3z M245.8,61.6
			v0.2c0,0.1,0,0.2,0,0.2H239v0.1c0,2.7,1.1,4.1,3.3,4.1c1.1,0,2.1-0.4,3-1.3c0,0.3,0,0.6,0,0.7v0.2c-1,0.7-2.1,1.1-3.3,1.1
			c-1.4,0-2.5-0.4-3.3-1.3c-0.9-0.9-1.3-2-1.3-3.4c0-1.5,0.4-2.6,1.2-3.5c0.8-0.9,1.9-1.3,3.3-1.3c1.3,0,2.2,0.4,2.9,1.1
			C245.4,59.2,245.8,60.2,245.8,61.6L245.8,61.6z M237,57.5c-2.1,4.7-3.4,7.8-3.9,9.2c-0.1,0-0.3,0-0.6,0c-0.2,0-0.4,0-0.5,0
			c-0.5-1.7-1.8-4.8-3.8-9.2c0.3,0.1,0.6,0.1,0.9,0.1c0.3,0,0.6,0,0.9-0.1c0.4,1.6,1.4,4.1,2.9,7.4c1.3-2.4,2.2-4.9,2.9-7.4
			c0.2,0.1,0.4,0.1,0.6,0.1C236.6,57.6,236.8,57.6,237,57.5L237,57.5z M226.8,66.8c-0.3-0.1-0.6-0.1-0.8-0.1c-0.2,0-0.5,0-0.8,0.1
			c0.1-1.8,0.1-3.4,0.1-4.9c0-1.3,0-2.8-0.1-4.4c0.2,0.1,0.5,0.1,0.8,0.1c0.3,0,0.6,0,0.8-0.1c-0.1,1.6-0.1,3.1-0.1,4.4
			C226.7,63.4,226.8,65,226.8,66.8L226.8,66.8z M227,54.1c0,0.3-0.1,0.5-0.3,0.7c-0.2,0.2-0.4,0.3-0.7,0.3c-0.3,0-0.5-0.1-0.7-0.3
			c-0.2-0.2-0.3-0.4-0.3-0.7c0-0.3,0.1-0.5,0.3-0.7c0.2-0.2,0.4-0.3,0.7-0.3c0.3,0,0.5,0.1,0.7,0.3C226.9,53.6,227,53.9,227,54.1
			L227,54.1z M222.5,66.8c-0.3-0.1-0.6-0.1-0.8-0.1c-0.2,0-0.5,0-0.8,0.1c0.1-1.4,0.1-3.2,0.1-5.5c0-1.9-0.7-2.9-2.2-2.9
			c-0.8,0-1.4,0.3-1.8,0.8c-0.4,0.6-0.7,1.6-0.7,3v0.9c0,1.8,0,3,0.1,3.7c-0.3-0.1-0.6-0.1-0.8-0.1c-0.2,0-0.5,0-0.8,0.1
			c0.1-0.7,0.1-1.9,0.1-3.4V62c0-2,0-3.5-0.1-4.4c0.2,0.1,0.5,0.1,0.8,0.1c0.3,0,0.6,0,0.8-0.1c0,0.5,0,0.8,0,1c0,0.1,0,0.2,0,0.4
			v0.4c0.7-1.3,1.8-1.9,3.1-1.9c2.1,0,3.1,1.2,3.1,3.5c0,0.3,0,0.8,0,1.4c0,0.6,0,1.1,0,1.4C222.5,64.6,222.5,65.7,222.5,66.8
			L222.5,66.8z M212,53.4c-0.1,1.7-0.1,2.9-0.1,3.6v0.5c0,2.1,0,3.6-0.1,4.4c-0.1,1.2-0.4,2.2-0.7,2.8c-0.9,1.6-2.5,2.3-4.8,2.3
			c-1.9,0-3.4-0.5-4.2-1.4c-0.9-0.9-1.3-2.4-1.3-4.5c0-0.1,0-0.6,0-1.5c0-0.9,0-1.8,0-2.6c0-1.1,0-2.3-0.1-3.7
			c0.3,0.1,0.5,0.1,0.9,0.1c0.3,0,0.7,0,0.9-0.1l-0.1,7.1c0,1,0,1.7,0.1,2.2c0.1,0.8,0.4,1.5,0.8,2c0.7,0.9,1.8,1.3,3.2,1.3
			c1.4,0,2.5-0.5,3.2-1.4c0.4-0.5,0.7-1.2,0.8-2.2c0.1-0.6,0.1-1.6,0.1-3.1c0-2.2,0-4.2-0.1-6.1c0.2,0.1,0.4,0.1,0.6,0.1
			C211.6,53.5,211.9,53.5,212,53.4L212,53.4z M194,57.5c-2.1,4.7-3.3,7.8-3.7,9.2c-0.2,0-0.4-0.1-0.6-0.1c-0.2,0-0.4,0-0.6,0.1
			c-0.1-0.8-0.9-3.2-2.4-7.1c-1.2,2.9-2,5.2-2.5,7.1c-0.1,0-0.3,0-0.5,0c-0.2,0-0.4,0-0.6,0c-0.3-1.5-1.5-4.5-3.4-9.2
			c0.3,0.1,0.5,0.1,0.9,0.1c0.3,0,0.6,0,0.9-0.1c0.4,1.5,1.2,3.9,2.4,7.2c0.9-2.1,1.8-4.5,2.6-7.2c0.2,0,0.4,0.1,0.6,0.1
			c0.2,0,0.4,0,0.6-0.1c0.9,3.2,1.7,5.6,2.4,7.1c0.7-1.4,1.6-3.8,2.7-7.1c0.3,0,0.5,0,0.6,0C193.6,57.6,193.8,57.6,194,57.5
			L194,57.5z M176.7,64.4v-2.5c-1.5,0.3-2.6,0.5-3.1,0.8c-0.6,0.3-1,0.9-1,1.6c0,1.2,0.6,1.9,1.7,1.9c0.7,0,1.4-0.3,2-0.9
			C176.6,65.1,176.7,64.8,176.7,64.4L176.7,64.4z M179.3,66.4c-0.7,0.2-1.2,0.3-1.6,0.3c-0.6,0-1-0.4-1.1-1.1
			c-0.8,0.9-1.8,1.3-2.9,1.3c-1.8,0-2.7-0.8-2.7-2.4c0-1.4,0.8-2.2,2.3-2.5c0.7-0.1,1.4-0.3,2.2-0.4c0.6-0.1,1-0.3,1.2-0.5v-0.4
			c0-0.9-0.2-1.5-0.5-1.9c-0.3-0.4-0.9-0.6-1.7-0.6c-1.1,0-1.9,0.5-2.5,1.4h-0.2l0-1c0.9-0.7,1.9-1.1,3.1-1.1c1.1,0,1.9,0.3,2.4,0.8
			c0.5,0.5,0.7,1.4,0.7,2.5v0.2l-0.1,3.9c0,0.4,0,0.7,0.1,0.9c0.1,0.3,0.4,0.4,0.8,0.4c0.1,0,0.3,0,0.3,0L179.3,66.4L179.3,66.4z
			 M170.3,57.1c-0.3,0.2-0.8,0.5-1.4,0.9c0,4.5,0,7.4,0.1,8.8c-0.3,0-0.6-0.1-0.8-0.1c-0.3,0-0.5,0-0.8,0.1c0.1-1.5,0.1-3.2,0.1-4.9
			V59c-0.2,0.1-0.6,0.5-1.4,1.1v-1c0.4-0.2,0.9-0.5,1.4-0.9v-0.5c0-2.3,0-4.2-0.1-5.6c0.3,0,0.6,0,0.8,0c0.2,0,0.5,0,0.8,0
			c-0.1,1.4-0.1,3-0.1,4.9v0.2c0.5-0.4,1-0.7,1.4-1.1V57.1L170.3,57.1z M165.6,58.1c-0.2,0.5-0.4,1-0.5,1.7
			c-0.5-1.2-1.4-1.8-2.7-1.8c-1,0-1.8,0.4-2.4,1.1c-0.6,0.7-0.9,1.8-0.9,3.1c0,1.3,0.3,2.3,0.9,3c0.6,0.7,1.4,1.1,2.5,1.1
			c1,0,2-0.5,3-1.4c0,0.4,0,0.6,0,0.7c0,0.2,0,0.3,0,0.4c-0.8,0.7-2,1-3.3,1c-1.4,0-2.5-0.4-3.3-1.3c-0.8-0.9-1.3-2-1.3-3.5
			c0-1.5,0.4-2.6,1.3-3.5c0.9-0.9,2.1-1.3,3.5-1.3C163.5,57.4,164.6,57.6,165.6,58.1L165.6,58.1z M154.7,62.3c0-2.9-1-4.3-3-4.3
			c-2,0-2.9,1.4-2.9,4.2c0,2.8,1,4.2,3,4.2C153.7,66.4,154.7,65,154.7,62.3L154.7,62.3z M156.4,62.1c0,1.4-0.4,2.6-1.3,3.5
			c-0.9,0.9-2,1.3-3.3,1.3c-1.4,0-2.5-0.4-3.3-1.3c-0.9-0.9-1.3-2-1.3-3.5c0-1.4,0.4-2.6,1.3-3.5c0.9-0.9,2-1.3,3.3-1.3
			c1.4,0,2.5,0.4,3.3,1.3C156,59.6,156.4,60.7,156.4,62.1L156.4,62.1z M146.2,57.5c-0.1,0.3-0.1,0.8-0.1,1.5l-0.2,0.1
			c-0.3-0.2-0.6-0.3-0.9-0.3c-0.7,0-1.3,0.3-1.6,1c-0.3,0.6-0.5,1.6-0.5,3c0,1.7,0,3,0.1,4c-0.2-0.1-0.5-0.1-0.8-0.1
			c-0.2,0-0.5,0-0.7,0.1c0.1-1.5,0.1-3.7,0.1-6.4c0-1.2,0-2.1-0.1-2.8c0.3,0.1,0.5,0.1,0.8,0.1c0.3,0,0.6,0,0.8-0.1
			c-0.1,0.6-0.1,1.3-0.1,2.2c0.7-1.5,1.5-2.3,2.4-2.3C145.6,57.4,145.8,57.5,146.2,57.5z"/>
	</g>
</g>
</svg>
